M48
; DRILL file {KiCad 9.0.5} date 2025-10-28T15:08:01+0900
; FORMAT={-:-/ absolute / inch / decimal}
; #@! TF.CreationDate,2025-10-28T15:08:01+09:00
; #@! TF.GenerationSoftware,Kicad,Pcbnew,9.0.5
; #@! TF.FileFunction,Plated,1,4,PTH
FMAT,2
INCH
; #@! TA.AperFunction,Plated,PTH,ViaDrill
T1C0.0157
; #@! TA.AperFunction,Plated,PTH,ComponentDrill
T2C0.0335
; #@! TA.AperFunction,Plated,PTH,ComponentDrill
T3C0.0360
; #@! TA.AperFunction,Plated,PTH,ComponentDrill
T4C0.0748
%
G90
G05
T1
X4.9409Y-4.1575
X4.9488Y-4.0315
X5.0079Y-4.1575
X5.0709Y-4.0315
X5.0709Y-4.4724
X5.0748Y-4.1575
X5.0748Y-4.2835
X5.0748Y-4.6496
X5.0906Y-3.6102
X5.2086Y-3.6858
X5.2139Y-4.5719
X5.2189Y-4.2839
X5.2402Y-3.5079
X5.2631Y-4.7983
X5.3071Y-4.2795
X5.3071Y-4.6535
X5.3071Y-4.8937
X5.4094Y-3.2992
X5.4173Y-4.3701
X5.4173Y-4.5079
X5.4449Y-3.3228
X5.4606Y-3.3583
X5.4698Y-4.4607
X5.4698Y-4.5197
X5.4797Y-4.2441
X5.4882Y-3.8465
X5.4921Y-3.6181
X5.4921Y-3.6693
X5.4921Y-3.7165
X5.4921Y-3.7638
X5.4921Y-3.8071
X5.4961Y-3.5
X5.5039Y-3.3661
X5.5315Y-3.5984
X5.5354Y-3.5
X5.5387Y-4.3918
X5.5584Y-4.4213
X5.5584Y-4.7983
X5.5978Y-4.2372
X5.6175Y-4.1093
X5.6614Y-4.8937
X5.6765Y-4.1093
X5.6969Y-3.811
X5.6969Y-3.9449
X5.7385Y-4.0896
X5.752Y-3.5118
X5.7598Y-3.3346
X5.7651Y-4.2933
X5.7686Y-4.0673
X5.7717Y-3.7323
X5.7756Y-4.3701
X5.7835Y-3.685
X5.7946Y-4.7983
X5.7953Y-3.7717
X5.8045Y-4.0207
X5.8242Y-4.2441
X5.9173Y-3.5118
X5.9214Y-4.2402
X5.9252Y-4.4213
X5.937Y-3.3346
X5.9421Y-3.8832
X5.9423Y-4.0896
X5.9521Y-4.6083
X5.9606Y-4.2362
X5.9646Y-4.2874
X5.9803Y-3.7795
X6.0Y-4.8937
X6.0039Y-4.1732
X6.0354Y-4.5296
X6.0354Y-4.5787
X6.0612Y-4.2154
X6.1034Y-4.2704
X6.1096Y-4.4114
X6.1102Y-3.3346
X6.1102Y-3.4567
X6.122Y-3.7874
X6.126Y-4.5709
X6.1299Y-3.5984
X6.1686Y-3.7815
X6.1713Y-4.2234
X6.1716Y-4.124
X6.2244Y-4.5709
X6.2277Y-4.7983
X6.2402Y-3.4449
X6.2598Y-3.6024
X6.2992Y-3.315
X6.3622Y-4.8898
X6.3753Y-3.7057
X6.3753Y-4.001
X6.3753Y-4.2471
X6.3753Y-4.5424
X6.4193Y-3.3642
X6.4685Y-3.7441
X6.4724Y-4.1142
X6.4764Y-4.4134
X6.4783Y-3.3179
T2
X5.2631Y-4.7363
X5.3616Y-4.7363
X5.46Y-4.7363
X5.5584Y-4.7363
X5.7946Y-4.7363
X5.893Y-4.7363
X5.9915Y-4.7363
X6.2277Y-4.7363
X6.3106Y-3.7126
X6.3106Y-3.8111
X6.3106Y-3.9095
X6.3106Y-4.0079
X6.3106Y-4.2441
X6.3106Y-4.3426
X6.3106Y-4.441
X6.3106Y-4.5394
X6.3261Y-4.7363
X6.4245Y-4.7363
T3
X5.6917Y-3.5933
X5.6917Y-3.672
T4
X5.8433Y-3.7205
X6.0433Y-3.7205
M30
