%TF.GenerationSoftware,KiCad,Pcbnew,9.0.5*%
%TF.CreationDate,2025-10-28T15:08:01+09:00*%
%TF.ProjectId,mr2_arm_hw,6d72325f-6172-46d5-9f68-772e6b696361,rev?*%
%TF.SameCoordinates,Original*%
%TF.FileFunction,Copper,L1,Top*%
%TF.FilePolarity,Positive*%
%FSLAX46Y46*%
G04 Gerber Fmt 4.6, Leading zero omitted, Abs format (unit mm)*
G04 Created by KiCad (PCBNEW 9.0.5) date 2025-10-28 15:08:01*
%MOMM*%
%LPD*%
G01*
G04 APERTURE LIST*
G04 Aperture macros list*
%AMRoundRect*
0 Rectangle with rounded corners*
0 $1 Rounding radius*
0 $2 $3 $4 $5 $6 $7 $8 $9 X,Y pos of 4 corners*
0 Add a 4 corners polygon primitive as box body*
4,1,4,$2,$3,$4,$5,$6,$7,$8,$9,$2,$3,0*
0 Add four circle primitives for the rounded corners*
1,1,$1+$1,$2,$3*
1,1,$1+$1,$4,$5*
1,1,$1+$1,$6,$7*
1,1,$1+$1,$8,$9*
0 Add four rect primitives between the rounded corners*
20,1,$1+$1,$2,$3,$4,$5,0*
20,1,$1+$1,$4,$5,$6,$7,0*
20,1,$1+$1,$6,$7,$8,$9,0*
20,1,$1+$1,$8,$9,$2,$3,0*%
G04 Aperture macros list end*
%TA.AperFunction,SMDPad,CuDef*%
%ADD10RoundRect,0.140000X-0.170000X0.140000X-0.170000X-0.140000X0.170000X-0.140000X0.170000X0.140000X0*%
%TD*%
%TA.AperFunction,SMDPad,CuDef*%
%ADD11RoundRect,0.140000X0.140000X0.170000X-0.140000X0.170000X-0.140000X-0.170000X0.140000X-0.170000X0*%
%TD*%
%TA.AperFunction,SMDPad,CuDef*%
%ADD12RoundRect,0.140000X-0.140000X-0.170000X0.140000X-0.170000X0.140000X0.170000X-0.140000X0.170000X0*%
%TD*%
%TA.AperFunction,SMDPad,CuDef*%
%ADD13RoundRect,0.140000X0.170000X-0.140000X0.170000X0.140000X-0.170000X0.140000X-0.170000X-0.140000X0*%
%TD*%
%TA.AperFunction,SMDPad,CuDef*%
%ADD14RoundRect,0.225000X0.225000X0.250000X-0.225000X0.250000X-0.225000X-0.250000X0.225000X-0.250000X0*%
%TD*%
%TA.AperFunction,SMDPad,CuDef*%
%ADD15RoundRect,0.250000X-0.450000X-0.350000X0.450000X-0.350000X0.450000X0.350000X-0.450000X0.350000X0*%
%TD*%
%TA.AperFunction,ComponentPad*%
%ADD16RoundRect,0.250000X0.675000X-0.600000X0.675000X0.600000X-0.675000X0.600000X-0.675000X-0.600000X0*%
%TD*%
%TA.AperFunction,ComponentPad*%
%ADD17O,1.850000X1.700000*%
%TD*%
%TA.AperFunction,SMDPad,CuDef*%
%ADD18RoundRect,0.250000X0.325000X1.100000X-0.325000X1.100000X-0.325000X-1.100000X0.325000X-1.100000X0*%
%TD*%
%TA.AperFunction,SMDPad,CuDef*%
%ADD19RoundRect,0.250000X1.950000X1.000000X-1.950000X1.000000X-1.950000X-1.000000X1.950000X-1.000000X0*%
%TD*%
%TA.AperFunction,SMDPad,CuDef*%
%ADD20R,1.000000X0.900000*%
%TD*%
%TA.AperFunction,SMDPad,CuDef*%
%ADD21RoundRect,0.250000X-0.300000X-1.600000X0.300000X-1.600000X0.300000X1.600000X-0.300000X1.600000X0*%
%TD*%
%TA.AperFunction,SMDPad,CuDef*%
%ADD22RoundRect,0.150000X0.150000X-0.825000X0.150000X0.825000X-0.150000X0.825000X-0.150000X-0.825000X0*%
%TD*%
%TA.AperFunction,SMDPad,CuDef*%
%ADD23RoundRect,0.150000X-0.512500X-0.150000X0.512500X-0.150000X0.512500X0.150000X-0.512500X0.150000X0*%
%TD*%
%TA.AperFunction,SMDPad,CuDef*%
%ADD24RoundRect,0.225000X-0.250000X0.225000X-0.250000X-0.225000X0.250000X-0.225000X0.250000X0.225000X0*%
%TD*%
%TA.AperFunction,SMDPad,CuDef*%
%ADD25RoundRect,0.112500X-0.187500X-0.112500X0.187500X-0.112500X0.187500X0.112500X-0.187500X0.112500X0*%
%TD*%
%TA.AperFunction,ComponentPad*%
%ADD26RoundRect,0.250000X-0.600000X-0.675000X0.600000X-0.675000X0.600000X0.675000X-0.600000X0.675000X0*%
%TD*%
%TA.AperFunction,ComponentPad*%
%ADD27O,1.700000X1.850000*%
%TD*%
%TA.AperFunction,SMDPad,CuDef*%
%ADD28RoundRect,0.250000X-1.000000X-0.650000X1.000000X-0.650000X1.000000X0.650000X-1.000000X0.650000X0*%
%TD*%
%TA.AperFunction,SMDPad,CuDef*%
%ADD29RoundRect,0.225000X-0.225000X-0.250000X0.225000X-0.250000X0.225000X0.250000X-0.225000X0.250000X0*%
%TD*%
%TA.AperFunction,ComponentPad*%
%ADD30C,2.800000*%
%TD*%
%TA.AperFunction,ComponentPad*%
%ADD31C,1.524000*%
%TD*%
%TA.AperFunction,SMDPad,CuDef*%
%ADD32RoundRect,0.075000X-0.662500X-0.075000X0.662500X-0.075000X0.662500X0.075000X-0.662500X0.075000X0*%
%TD*%
%TA.AperFunction,SMDPad,CuDef*%
%ADD33RoundRect,0.075000X-0.075000X-0.662500X0.075000X-0.662500X0.075000X0.662500X-0.075000X0.662500X0*%
%TD*%
%TA.AperFunction,ViaPad*%
%ADD34C,0.800000*%
%TD*%
%TA.AperFunction,Conductor*%
%ADD35C,1.000000*%
%TD*%
%TA.AperFunction,Conductor*%
%ADD36C,0.500000*%
%TD*%
%TA.AperFunction,Conductor*%
%ADD37C,0.250000*%
%TD*%
%TA.AperFunction,Conductor*%
%ADD38C,0.200000*%
%TD*%
G04 APERTURE END LIST*
D10*
%TO.P,R4,1*%
%TO.N,I2C2_SCL*%
X154433450Y-114090779D03*
%TO.P,R4,2*%
%TO.N,+3V3*%
X154433450Y-115050779D03*
%TD*%
D11*
%TO.P,C6,1*%
%TO.N,VDDA*%
X142933450Y-112050779D03*
%TO.P,C6,2*%
%TO.N,GND*%
X141973450Y-112050779D03*
%TD*%
%TO.P,C13,1*%
%TO.N,GND*%
X146413450Y-104800779D03*
%TO.P,C13,2*%
%TO.N,+3V3*%
X145453450Y-104800779D03*
%TD*%
D12*
%TO.P,R2,1*%
%TO.N,Net-(U1-V_{FB})*%
X128340000Y-93600000D03*
%TO.P,R2,2*%
%TO.N,GND*%
X129300000Y-93600000D03*
%TD*%
D13*
%TO.P,C12,1*%
%TO.N,GND*%
X154433450Y-108510779D03*
%TO.P,C12,2*%
%TO.N,+3V3*%
X154433450Y-107550779D03*
%TD*%
%TO.P,C15,1*%
%TO.N,GND*%
X157000000Y-91480000D03*
%TO.P,C15,2*%
%TO.N,BOOT0*%
X157000000Y-90520000D03*
%TD*%
D14*
%TO.P,C5,1*%
%TO.N,VDDA*%
X141683450Y-113300779D03*
%TO.P,C5,2*%
%TO.N,GND*%
X140133450Y-113300779D03*
%TD*%
D15*
%TO.P,Y1,1,1*%
%TO.N,OSC_OUT*%
X139233450Y-110500779D03*
%TO.P,Y1,2,2*%
%TO.N,GND*%
X141433450Y-110500779D03*
%TO.P,Y1,3,3*%
%TO.N,OSC_IN*%
X141433450Y-108800779D03*
%TO.P,Y1,4,4*%
%TO.N,GND*%
X139233450Y-108800779D03*
%TD*%
D16*
%TO.P,J3,1,Pin_1*%
%TO.N,GND*%
X160288450Y-101800779D03*
D17*
%TO.P,J3,2,Pin_2*%
%TO.N,I2C1_SDA*%
X160288450Y-99300779D03*
%TO.P,J3,3,Pin_3*%
%TO.N,I2C1_SCL*%
X160288450Y-96800779D03*
%TO.P,J3,4,Pin_4*%
%TO.N,+3V3*%
X160288450Y-94300779D03*
%TD*%
D18*
%TO.P,C3,1*%
%TO.N,GND*%
X138450000Y-96800000D03*
%TO.P,C3,2*%
%TO.N,VBUS*%
X135500000Y-96800000D03*
%TD*%
D16*
%TO.P,J4,1,Pin_1*%
%TO.N,GND*%
X160288450Y-115300779D03*
D17*
%TO.P,J4,2,Pin_2*%
%TO.N,I2C2_SDA*%
X160288450Y-112800779D03*
%TO.P,J4,3,Pin_3*%
%TO.N,I2C2_SCL*%
X160288450Y-110300779D03*
%TO.P,J4,4,Pin_4*%
%TO.N,+3V3*%
X160288450Y-107800779D03*
%TD*%
D12*
%TO.P,C11,1*%
%TO.N,GND*%
X151473450Y-116300779D03*
%TO.P,C11,2*%
%TO.N,+3V3*%
X152433450Y-116300779D03*
%TD*%
D18*
%TO.P,C2,1*%
%TO.N,GND*%
X138450000Y-93575000D03*
%TO.P,C2,2*%
%TO.N,VBUS*%
X135500000Y-93575000D03*
%TD*%
D12*
%TO.P,C10,1*%
%TO.N,GND*%
X142683450Y-106875779D03*
%TO.P,C10,2*%
%TO.N,+3V3*%
X143643450Y-106875779D03*
%TD*%
D19*
%TO.P,C1,1*%
%TO.N,VBUS*%
X135700000Y-103900000D03*
%TO.P,C1,2*%
%TO.N,GND*%
X127300000Y-103900000D03*
%TD*%
D12*
%TO.P,R3,1*%
%TO.N,I2C1_SCL*%
X149183450Y-103875779D03*
%TO.P,R3,2*%
%TO.N,+3V3*%
X150143450Y-103875779D03*
%TD*%
D20*
%TO.P,SW1,1,A*%
%TO.N,GND*%
X160000000Y-89500000D03*
X160000000Y-85400000D03*
%TO.P,SW1,2,B*%
%TO.N,NRST*%
X161600000Y-89500000D03*
X161600000Y-85400000D03*
%TD*%
%TO.P,SW2,1,A*%
%TO.N,+3V3*%
X164500000Y-89500000D03*
X164500000Y-85400000D03*
%TO.P,SW2,2,B*%
%TO.N,BOOT0*%
X166100000Y-89500000D03*
X166100000Y-85400000D03*
%TD*%
D14*
%TO.P,FB1,1*%
%TO.N,VDDA*%
X141683450Y-114800779D03*
%TO.P,FB1,2*%
%TO.N,+3V3*%
X140133450Y-114800779D03*
%TD*%
D21*
%TO.P,L1,1,1*%
%TO.N,/<NO NET>*%
X134400000Y-86200000D03*
%TO.P,L1,2,2*%
%TO.N,+3V3*%
X137400000Y-86200000D03*
%TD*%
D11*
%TO.P,R9,1*%
%TO.N,Net-(U2-Rs)*%
X151433450Y-97875779D03*
%TO.P,R9,2*%
%TO.N,GND*%
X150473450Y-97875779D03*
%TD*%
D10*
%TO.P,R8,1*%
%TO.N,BOOT0*%
X158000000Y-90500000D03*
%TO.P,R8,2*%
%TO.N,GND*%
X158000000Y-91460000D03*
%TD*%
D22*
%TO.P,U2,1,D*%
%TO.N,FDCAN1_TX*%
X152623450Y-103050779D03*
%TO.P,U2,2,GND*%
%TO.N,GND*%
X153893450Y-103050779D03*
%TO.P,U2,3,VCC*%
%TO.N,+3V3*%
X155163450Y-103050779D03*
%TO.P,U2,4,R*%
%TO.N,FDCAN1_RX*%
X156433450Y-103050779D03*
%TO.P,U2,5,Vref*%
%TO.N,unconnected-(U2-Vref-Pad5)*%
X156433450Y-98100779D03*
%TO.P,U2,6,CANL*%
%TO.N,CAN-*%
X155163450Y-98100779D03*
%TO.P,U2,7,CANH*%
%TO.N,CAN+*%
X153893450Y-98100779D03*
%TO.P,U2,8,Rs*%
%TO.N,Net-(U2-Rs)*%
X152623450Y-98100779D03*
%TD*%
D23*
%TO.P,U1,1,BOOST*%
%TO.N,Net-(D1-K)*%
X131212500Y-92637500D03*
%TO.P,U1,2,GND*%
%TO.N,GND*%
X131212500Y-93587500D03*
%TO.P,U1,3,V_{FB}*%
%TO.N,Net-(U1-V_{FB})*%
X131212500Y-94537500D03*
%TO.P,U1,4,EN*%
%TO.N,unconnected-(U1-EN-Pad4)*%
X133487500Y-94537500D03*
%TO.P,U1,5,V_{IN}*%
%TO.N,VBUS*%
X133487500Y-93587500D03*
%TO.P,U1,6,SW*%
%TO.N,/<NO NET>*%
X133487500Y-92637500D03*
%TD*%
D24*
%TO.P,C7,1*%
%TO.N,+3V3*%
X140500000Y-86200000D03*
%TO.P,C7,2*%
%TO.N,GND*%
X140500000Y-87750000D03*
%TD*%
%TO.P,C8,1*%
%TO.N,+3V3*%
X139000000Y-86200000D03*
%TO.P,C8,2*%
%TO.N,GND*%
X139000000Y-87750000D03*
%TD*%
D13*
%TO.P,R7,1*%
%TO.N,NRST*%
X158500000Y-89500000D03*
%TO.P,R7,2*%
%TO.N,+3V3*%
X158500000Y-88540000D03*
%TD*%
%TO.P,C19,1*%
%TO.N,OSC_IN*%
X142933450Y-109050779D03*
%TO.P,C19,2*%
%TO.N,GND*%
X142933450Y-108090779D03*
%TD*%
D12*
%TO.P,R5,1*%
%TO.N,+3V3*%
X147473450Y-102800779D03*
%TO.P,R5,2*%
%TO.N,I2C1_SDA*%
X148433450Y-102800779D03*
%TD*%
D25*
%TO.P,D1,1,K*%
%TO.N,Net-(D1-K)*%
X131050000Y-89900000D03*
%TO.P,D1,2,A*%
%TO.N,+3V3*%
X133150000Y-89900000D03*
%TD*%
D26*
%TO.P,J6,1,Pin_1*%
%TO.N,GND*%
X158183450Y-120300779D03*
D27*
%TO.P,J6,2,Pin_2*%
%TO.N,SW2_NC*%
X160683450Y-120300779D03*
%TO.P,J6,3,Pin_3*%
%TO.N,SW2_NO*%
X163183450Y-120300779D03*
%TD*%
D12*
%TO.P,C4,1*%
%TO.N,Net-(D1-K)*%
X132240000Y-91400000D03*
%TO.P,C4,S*%
%TO.N,N/C*%
X133200000Y-91400000D03*
%TD*%
D28*
%TO.P,D2,1,K*%
%TO.N,/<NO NET>*%
X135200000Y-90200000D03*
%TO.P,D2,2,A*%
%TO.N,GND*%
X139200000Y-90200000D03*
%TD*%
D29*
%TO.P,C16,1*%
%TO.N,GND*%
X155250000Y-106000000D03*
%TO.P,C16,2*%
%TO.N,+3V3*%
X156800000Y-106000000D03*
%TD*%
D10*
%TO.P,C18,1*%
%TO.N,OSC_OUT*%
X142933450Y-110090779D03*
%TO.P,C18,2*%
%TO.N,GND*%
X142933450Y-111050779D03*
%TD*%
%TO.P,C14,1*%
%TO.N,+3V3*%
X157500000Y-88500000D03*
%TO.P,C14,2*%
%TO.N,NRST*%
X157500000Y-89460000D03*
%TD*%
D30*
%TO.P,U4,1,1*%
%TO.N,VBUS*%
X153500000Y-94500000D03*
%TO.P,U4,2,2*%
%TO.N,GND*%
X148420000Y-94500000D03*
D31*
%TO.P,U4,3,3*%
%TO.N,CAN-*%
X144570000Y-93270000D03*
%TO.P,U4,4,4*%
%TO.N,CAN+*%
X144570000Y-91270000D03*
%TD*%
D29*
%TO.P,C9,1*%
%TO.N,GND*%
X142633450Y-105550779D03*
%TO.P,C9,2*%
%TO.N,+3V3*%
X144183450Y-105550779D03*
%TD*%
D10*
%TO.P,R6,1*%
%TO.N,+3V3*%
X154433450Y-112050779D03*
%TO.P,R6,2*%
%TO.N,I2C2_SDA*%
X154433450Y-113010779D03*
%TD*%
D32*
%TO.P,U3,1,VBAT*%
%TO.N,+3V3*%
X144520950Y-107800779D03*
%TO.P,U3,2,PC13*%
%TO.N,unconnected-(U3-PC13-Pad2)*%
X144520950Y-108300779D03*
%TO.P,U3,3,PC14*%
%TO.N,unconnected-(U3-PC14-Pad3)*%
X144520950Y-108800779D03*
%TO.P,U3,4,PC15*%
%TO.N,unconnected-(U3-PC15-Pad4)*%
X144520950Y-109300779D03*
%TO.P,U3,5,PH0*%
%TO.N,OSC_IN*%
X144520950Y-109800779D03*
%TO.P,U3,6,PH1*%
%TO.N,OSC_OUT*%
X144520950Y-110300779D03*
%TO.P,U3,7,NRST*%
%TO.N,NRST*%
X144520950Y-110800779D03*
%TO.P,U3,8,VSSA*%
%TO.N,GND*%
X144520950Y-111300779D03*
%TO.P,U3,9,VDDA*%
%TO.N,VDDA*%
X144520950Y-111800779D03*
%TO.P,U3,10,PA0*%
%TO.N,unconnected-(U3-PA0-Pad10)*%
X144520950Y-112300779D03*
%TO.P,U3,11,PA1*%
%TO.N,unconnected-(U3-PA1-Pad11)*%
X144520950Y-112800779D03*
%TO.P,U3,12,PA2*%
%TO.N,USART2_TX*%
X144520950Y-113300779D03*
D33*
%TO.P,U3,13,PA3*%
%TO.N,USART2_RX*%
X145933450Y-114713279D03*
%TO.P,U3,14,PA4*%
%TO.N,SW1_NC*%
X146433450Y-114713279D03*
%TO.P,U3,15,PA5*%
%TO.N,SW1_NO*%
X146933450Y-114713279D03*
%TO.P,U3,16,PA6*%
%TO.N,SW2_NC*%
X147433450Y-114713279D03*
%TO.P,U3,17,PA7*%
%TO.N,SW2_NO*%
X147933450Y-114713279D03*
%TO.P,U3,18,PB0*%
%TO.N,unconnected-(U3-PB0-Pad18)*%
X148433450Y-114713279D03*
%TO.P,U3,19,PB1*%
%TO.N,unconnected-(U3-PB1-Pad19)*%
X148933450Y-114713279D03*
%TO.P,U3,20,PB2*%
%TO.N,unconnected-(U3-PB2-Pad20)*%
X149433450Y-114713279D03*
%TO.P,U3,21,PB10*%
%TO.N,I2C2_SCL*%
X149933450Y-114713279D03*
%TO.P,U3,22,VCAP*%
%TO.N,Net-(C20-Pad2)*%
X150433450Y-114713279D03*
%TO.P,U3,23,VSS*%
%TO.N,GND*%
X150933450Y-114713279D03*
%TO.P,U3,24,VDD*%
%TO.N,+3V3*%
X151433450Y-114713279D03*
D32*
%TO.P,U3,25,PB12*%
%TO.N,I2C2_SDA*%
X152845950Y-113300779D03*
%TO.P,U3,26,PB13*%
%TO.N,unconnected-(U3-PB13-Pad26)*%
X152845950Y-112800779D03*
%TO.P,U3,27,PB14*%
%TO.N,unconnected-(U3-PB14-Pad27)*%
X152845950Y-112300779D03*
%TO.P,U3,28,PB15*%
%TO.N,unconnected-(U3-PB15-Pad28)*%
X152845950Y-111800779D03*
%TO.P,U3,29,PA8*%
%TO.N,unconnected-(U3-PA8-Pad29)*%
X152845950Y-111300779D03*
%TO.P,U3,30,PA9*%
%TO.N,unconnected-(U3-PA9-Pad30)*%
X152845950Y-110800779D03*
%TO.P,U3,31,PA10*%
%TO.N,unconnected-(U3-PA10-Pad31)*%
X152845950Y-110300779D03*
%TO.P,U3,32,PA11*%
%TO.N,FDCAN1_RX*%
X152845950Y-109800779D03*
%TO.P,U3,33,PA12*%
%TO.N,FDCAN1_TX*%
X152845950Y-109300779D03*
%TO.P,U3,34,PA13(JTMS*%
%TO.N,SWDIO*%
X152845950Y-108800779D03*
%TO.P,U3,35,VSS*%
%TO.N,GND*%
X152845950Y-108300779D03*
%TO.P,U3,36,VDD*%
%TO.N,+3V3*%
X152845950Y-107800779D03*
D33*
%TO.P,U3,37,PA14(JTCK*%
%TO.N,SWCLK*%
X151433450Y-106388279D03*
%TO.P,U3,38,PA15(JTDI)*%
%TO.N,unconnected-(U3-PA15(JTDI)-Pad38)*%
X150933450Y-106388279D03*
%TO.P,U3,39,PB3(JTDO*%
%TO.N,SWO*%
X150433450Y-106388279D03*
%TO.P,U3,40,PB4(NJTRST)*%
%TO.N,unconnected-(U3-PB4(NJTRST)-Pad40)*%
X149933450Y-106388279D03*
%TO.P,U3,41,PB5*%
%TO.N,unconnected-(U3-PB5-Pad41)*%
X149433450Y-106388279D03*
%TO.P,U3,42,PB6*%
%TO.N,I2C1_SCL*%
X148933450Y-106388279D03*
%TO.P,U3,43,PB7*%
%TO.N,I2C1_SDA*%
X148433450Y-106388279D03*
%TO.P,U3,44,BOOT0*%
%TO.N,BOOT0*%
X147933450Y-106388279D03*
%TO.P,U3,45,PB8*%
%TO.N,unconnected-(U3-PB8-Pad45)*%
X147433450Y-106388279D03*
%TO.P,U3,46,VCAP*%
%TO.N,Net-(C21-Pad2)*%
X146933450Y-106388279D03*
%TO.P,U3,47,VSS*%
%TO.N,GND*%
X146433450Y-106388279D03*
%TO.P,U3,48,VDD*%
%TO.N,+3V3*%
X145933450Y-106388279D03*
%TD*%
D13*
%TO.P,C20,1*%
%TO.N,GND*%
X150433450Y-117260779D03*
%TO.P,C20,2*%
%TO.N,Net-(C20-Pad2)*%
X150433450Y-116300779D03*
%TD*%
D26*
%TO.P,J5,1,Pin_1*%
%TO.N,GND*%
X147183450Y-120300779D03*
D27*
%TO.P,J5,2,Pin_2*%
%TO.N,SW1_NC*%
X149683450Y-120300779D03*
%TO.P,J5,3,Pin_3*%
%TO.N,SW1_NO*%
X152183450Y-120300779D03*
%TD*%
D11*
%TO.P,R1,1*%
%TO.N,+3V3*%
X129300000Y-92600000D03*
%TO.P,R1,2*%
%TO.N,Net-(U1-V_{FB})*%
X128340000Y-92600000D03*
%TD*%
D10*
%TO.P,C21,1*%
%TO.N,GND*%
X147433450Y-103840779D03*
%TO.P,C21,2*%
%TO.N,Net-(C21-Pad2)*%
X147433450Y-104800779D03*
%TD*%
D11*
%TO.P,C17,1*%
%TO.N,+3V3*%
X154893450Y-104800779D03*
%TO.P,C17,2*%
%TO.N,GND*%
X153933450Y-104800779D03*
%TD*%
D26*
%TO.P,J2,1,Pin_1*%
%TO.N,GND*%
X133683450Y-120300779D03*
D27*
%TO.P,J2,2,Pin_2*%
%TO.N,USART2_TX*%
X136183450Y-120300779D03*
%TO.P,J2,3,Pin_3*%
%TO.N,USART2_RX*%
X138683450Y-120300779D03*
%TO.P,J2,4,Pin_4*%
%TO.N,+3V3*%
X141183450Y-120300779D03*
%TD*%
D34*
%TO.N,GND*%
X132561058Y-108811058D03*
X139183450Y-107800779D03*
X142683450Y-104375779D03*
X161933450Y-115375779D03*
X139400000Y-97700000D03*
X146900000Y-93600000D03*
X138933450Y-113300779D03*
X139600000Y-88900000D03*
X139500000Y-94400000D03*
X137600000Y-111000000D03*
X132298000Y-93618931D03*
X139500000Y-96700000D03*
X151900000Y-96000000D03*
X160000000Y-84200000D03*
X155600000Y-116100000D03*
X164400000Y-104500000D03*
X150500000Y-112300000D03*
X150928831Y-98632928D03*
X140500000Y-91400000D03*
X146100000Y-89200000D03*
X127200000Y-105600000D03*
X155200000Y-87800000D03*
X144700000Y-100200000D03*
X125700000Y-102400000D03*
X147183450Y-121875779D03*
X156750000Y-107275000D03*
X140683450Y-111550779D03*
X133683450Y-121875779D03*
X158100000Y-116100000D03*
X147200000Y-95800000D03*
X139500000Y-93200000D03*
X158183450Y-121875779D03*
X144700000Y-96800000D03*
X125500000Y-105600000D03*
X128900000Y-105600000D03*
X161933450Y-101625779D03*
X164300000Y-95100000D03*
X150300000Y-89200000D03*
X146600000Y-94800000D03*
X155200000Y-84700000D03*
X146700000Y-111000000D03*
X152400000Y-124300000D03*
X146300000Y-84700000D03*
X143800000Y-124300000D03*
X151183450Y-117050779D03*
X134800000Y-118200000D03*
X137600000Y-114500000D03*
X159000000Y-91500000D03*
X146521832Y-103310311D03*
X142183450Y-107625779D03*
X128900000Y-108800000D03*
X155500000Y-96200000D03*
X134800000Y-108700000D03*
X150800000Y-84700000D03*
X134800000Y-124300000D03*
X155026366Y-108468695D03*
X139500000Y-91900000D03*
X141183450Y-112300779D03*
X161600000Y-124200000D03*
X128900000Y-118100000D03*
X128800000Y-102400000D03*
X152500000Y-106000000D03*
X140600000Y-88900000D03*
X164500000Y-112100000D03*
X128800000Y-113600000D03*
X139500000Y-95600000D03*
%TO.N,+3V3*%
X141183450Y-121875779D03*
X156758450Y-104750000D03*
X138933450Y-114800779D03*
X158500000Y-87500000D03*
X139800000Y-85500000D03*
X153300000Y-115050779D03*
X161933450Y-107875779D03*
X153300000Y-116300000D03*
X147433450Y-102125779D03*
X133100000Y-89100000D03*
X161933450Y-94125779D03*
X138700000Y-85300000D03*
X164550000Y-84275000D03*
X153953473Y-107070802D03*
X150933450Y-103875779D03*
X138300000Y-84400000D03*
X145758450Y-103875779D03*
X155183450Y-112050779D03*
X129300000Y-91700000D03*
X132433450Y-116125779D03*
X144183450Y-104375779D03*
X137400000Y-83800000D03*
%TO.N,NRST*%
X155700000Y-91400000D03*
X146433450Y-109050779D03*
X163050000Y-85450000D03*
%TO.N,BOOT0*%
X147933450Y-107800779D03*
X156683450Y-96050779D03*
%TO.N,SWCLK*%
X151400000Y-107600000D03*
%TO.N,SWDIO*%
X151500000Y-108900000D03*
%TO.N,SWO*%
X150402317Y-107702317D03*
%TD*%
D35*
%TO.N,VBUS*%
X153500000Y-89900000D02*
X150300000Y-86700000D01*
X139000000Y-103900000D02*
X135700000Y-103900000D01*
X150300000Y-86700000D02*
X144000000Y-86700000D01*
X144000000Y-86700000D02*
X142100000Y-88600000D01*
D36*
X133487500Y-93587500D02*
X135487500Y-93587500D01*
D35*
X153500000Y-94500000D02*
X153500000Y-89900000D01*
D36*
X135487500Y-93587500D02*
X135500000Y-93575000D01*
D35*
X142100000Y-100800000D02*
X139000000Y-103900000D01*
X142100000Y-88600000D02*
X142100000Y-100800000D01*
D37*
%TO.N,GND*%
X156407671Y-107275000D02*
X156750000Y-107275000D01*
X142683450Y-106875779D02*
X142683450Y-105600779D01*
X161758450Y-101800779D02*
X161933450Y-101625779D01*
D36*
X139233450Y-107850779D02*
X139183450Y-107800779D01*
D37*
X150473450Y-97875779D02*
X150473450Y-98177547D01*
D38*
X142723450Y-111300779D02*
X144520950Y-111300779D01*
D37*
X150933450Y-115760779D02*
X150933450Y-114713279D01*
X154223450Y-108300779D02*
X154433450Y-108510779D01*
X146413450Y-104800779D02*
X146413450Y-106368279D01*
X150973450Y-117260779D02*
X151183450Y-117050779D01*
X160000000Y-84200000D02*
X160000000Y-85400000D01*
X142633450Y-104425779D02*
X142683450Y-104375779D01*
X158183450Y-120300779D02*
X158183450Y-121875779D01*
X150433450Y-117260779D02*
X150973450Y-117260779D01*
X151183450Y-116590779D02*
X151473450Y-116300779D01*
X142683450Y-105600779D02*
X142633450Y-105550779D01*
X151183450Y-117050779D02*
X151183450Y-116590779D01*
X154840534Y-108468695D02*
X154798450Y-108510779D01*
D38*
X158980000Y-91480000D02*
X159000000Y-91500000D01*
D37*
X154798450Y-108510779D02*
X154433450Y-108510779D01*
X129312500Y-93587500D02*
X129300000Y-93600000D01*
D38*
X141973450Y-112050779D02*
X142723450Y-111300779D01*
D37*
X146521832Y-104692397D02*
X146521832Y-103310311D01*
X146413450Y-106368279D02*
X146433450Y-106388279D01*
X150473450Y-98177547D02*
X150928831Y-98632928D01*
X142648450Y-108090779D02*
X142183450Y-107625779D01*
X153933450Y-103090779D02*
X153893450Y-103050779D01*
D36*
X141433450Y-110800779D02*
X141433450Y-110500779D01*
D37*
X161858450Y-115300779D02*
X161933450Y-115375779D01*
X147183450Y-120300779D02*
X147183450Y-121875779D01*
X147052300Y-103840779D02*
X146521832Y-103310311D01*
X151473450Y-116300779D02*
X150933450Y-115760779D01*
D36*
X139233450Y-108800779D02*
X139233450Y-107850779D01*
D37*
X160288450Y-101800779D02*
X161758450Y-101800779D01*
X146413450Y-104800779D02*
X146521832Y-104692397D01*
D38*
X157000000Y-91480000D02*
X158980000Y-91480000D01*
D37*
X153933450Y-104800779D02*
X156407671Y-107275000D01*
X132266569Y-93587500D02*
X132298000Y-93618931D01*
X152845950Y-108300779D02*
X154223450Y-108300779D01*
D38*
X141433450Y-112050779D02*
X141183450Y-112300779D01*
D37*
X153933450Y-104800779D02*
X153933450Y-103090779D01*
X147433450Y-103840779D02*
X147052300Y-103840779D01*
X160000000Y-85400000D02*
X160000000Y-89500000D01*
X142633450Y-105550779D02*
X142633450Y-104425779D01*
X140133450Y-113300779D02*
X138933450Y-113300779D01*
X142933450Y-108090779D02*
X142648450Y-108090779D01*
D36*
X140683450Y-111550779D02*
X141433450Y-110800779D01*
D37*
X131212500Y-93587500D02*
X132266569Y-93587500D01*
X160288450Y-115300779D02*
X161858450Y-115300779D01*
X131212500Y-93587500D02*
X129312500Y-93587500D01*
D38*
X141973450Y-112050779D02*
X141433450Y-112050779D01*
D37*
X133683450Y-120300779D02*
X133683450Y-121875779D01*
X155026366Y-108468695D02*
X154840534Y-108468695D01*
%TO.N,+3V3*%
X141183450Y-120300779D02*
X141183450Y-121875779D01*
X161758450Y-94300779D02*
X161933450Y-94125779D01*
X144520950Y-107800779D02*
X144520950Y-107753279D01*
X129300000Y-92600000D02*
X129300000Y-91700000D01*
X164500000Y-84325000D02*
X164550000Y-84275000D01*
X154433450Y-115050779D02*
X153300000Y-115050779D01*
X158500000Y-88540000D02*
X158500000Y-87500000D01*
X145758450Y-103875779D02*
X145723450Y-103875779D01*
X152845950Y-107800779D02*
X154183450Y-107800779D01*
X154183450Y-107800779D02*
X154433450Y-107550779D01*
X145723450Y-103875779D02*
X145453450Y-104145779D01*
X154893450Y-104800779D02*
X154893450Y-103320779D01*
X133150000Y-89150000D02*
X133100000Y-89100000D01*
X150143450Y-103875779D02*
X150933450Y-103875779D01*
X147473450Y-102800779D02*
X147473450Y-102165779D01*
X147473450Y-102165779D02*
X147433450Y-102125779D01*
X152433450Y-116300779D02*
X153299221Y-116300779D01*
X151433450Y-114713279D02*
X151433450Y-115300779D01*
X145453450Y-104145779D02*
X145453450Y-104800779D01*
X164500000Y-89500000D02*
X164500000Y-85400000D01*
X144520950Y-107753279D02*
X143643450Y-106875779D01*
X158460000Y-88500000D02*
X158500000Y-88540000D01*
X133150000Y-89900000D02*
X133150000Y-89150000D01*
X154433450Y-112050779D02*
X155183450Y-112050779D01*
X153299221Y-116300779D02*
X153300000Y-116300000D01*
X140133450Y-114800779D02*
X138933450Y-114800779D01*
X143643450Y-106875779D02*
X143643450Y-106090779D01*
X145453450Y-105908279D02*
X145933450Y-106388279D01*
X145453450Y-104800779D02*
X145453450Y-105908279D01*
X154893450Y-103320779D02*
X155163450Y-103050779D01*
X156750000Y-106000000D02*
X156750000Y-104758450D01*
X160288450Y-94300779D02*
X161758450Y-94300779D01*
X156750000Y-104758450D02*
X156758450Y-104750000D01*
X143643450Y-106090779D02*
X144183450Y-105550779D01*
X151433450Y-115300779D02*
X152433450Y-116300779D01*
X155550779Y-104800779D02*
X154893450Y-104800779D01*
X154433450Y-107550779D02*
X153953473Y-107070802D01*
X164500000Y-85400000D02*
X164500000Y-84325000D01*
X144183450Y-105550779D02*
X144183450Y-104375779D01*
X160288450Y-107800779D02*
X161858450Y-107800779D01*
X156750000Y-106000000D02*
X155550779Y-104800779D01*
X161858450Y-107800779D02*
X161933450Y-107875779D01*
X157500000Y-88500000D02*
X158460000Y-88500000D01*
%TO.N,Net-(D1-K)*%
X132240000Y-91610000D02*
X131212500Y-92637500D01*
X131050000Y-90210000D02*
X132240000Y-91400000D01*
X131050000Y-89900000D02*
X131050000Y-90210000D01*
X132240000Y-91400000D02*
X132240000Y-91610000D01*
%TO.N,Net-(C20-Pad2)*%
X150433450Y-114713279D02*
X150433450Y-116300779D01*
%TO.N,VDDA*%
X141683450Y-113300779D02*
X142933450Y-112050779D01*
X142933450Y-112050779D02*
X143183450Y-111800779D01*
X141683450Y-114800779D02*
X141683450Y-113300779D01*
X143183450Y-111800779D02*
X144520950Y-111800779D01*
%TO.N,NRST*%
X146433450Y-109050779D02*
X146433450Y-109800779D01*
X160850000Y-90250000D02*
X161600000Y-89500000D01*
X161600000Y-85400000D02*
X161600000Y-89500000D01*
X162000000Y-85400000D02*
X161600000Y-85400000D01*
X159250000Y-90250000D02*
X160850000Y-90250000D01*
X163050000Y-85450000D02*
X162050000Y-85450000D01*
X145433450Y-110800779D02*
X144520950Y-110800779D01*
X156500000Y-89500000D02*
X155700000Y-90300000D01*
X158500000Y-89500000D02*
X159250000Y-90250000D01*
X161600000Y-85400000D02*
X161600000Y-85150000D01*
X158500000Y-89500000D02*
X156500000Y-89500000D01*
X155700000Y-90300000D02*
X155700000Y-91400000D01*
X146433450Y-109800779D02*
X145433450Y-110800779D01*
X162050000Y-85450000D02*
X162000000Y-85400000D01*
%TO.N,BOOT0*%
X158000000Y-90500000D02*
X158750000Y-90500000D01*
X158000000Y-90500000D02*
X158091000Y-90591000D01*
X156400000Y-95767329D02*
X156400000Y-90780771D01*
X147933450Y-106388279D02*
X147933450Y-107800779D01*
X157000000Y-90520000D02*
X157980000Y-90520000D01*
X158750000Y-90500000D02*
X159000000Y-90750000D01*
X157980000Y-90520000D02*
X158000000Y-90500000D01*
X164850000Y-90750000D02*
X166100000Y-89500000D01*
X159000000Y-90750000D02*
X164850000Y-90750000D01*
X156683450Y-96050779D02*
X156400000Y-95767329D01*
X156660771Y-90520000D02*
X157000000Y-90520000D01*
X156400000Y-90780771D02*
X156660771Y-90520000D01*
X166100000Y-89500000D02*
X166100000Y-85400000D01*
D38*
%TO.N,OSC_OUT*%
X140083450Y-109650779D02*
X142493450Y-109650779D01*
X139233450Y-110500779D02*
X140083450Y-109650779D01*
X142493450Y-109650779D02*
X142933450Y-110090779D01*
X142933450Y-110090779D02*
X143143450Y-110300779D01*
X143143450Y-110300779D02*
X144520950Y-110300779D01*
%TO.N,OSC_IN*%
X141433450Y-108800779D02*
X142683450Y-108800779D01*
X142683450Y-108800779D02*
X142933450Y-109050779D01*
X142933450Y-109050779D02*
X143683450Y-109800779D01*
X143683450Y-109800779D02*
X144520950Y-109800779D01*
D37*
%TO.N,USART2_TX*%
X140933450Y-115550779D02*
X136183450Y-120300779D01*
X142270950Y-115550779D02*
X140933450Y-115550779D01*
X144520950Y-113300779D02*
X142270950Y-115550779D01*
%TO.N,USART2_RX*%
X144270950Y-114713279D02*
X145933450Y-114713279D01*
X138683450Y-120300779D02*
X144270950Y-114713279D01*
%TO.N,I2C1_SCL*%
X157681467Y-101800779D02*
X159005467Y-100476779D01*
X159005467Y-100476779D02*
X161323221Y-100476779D01*
X149183450Y-103875779D02*
X149183450Y-102818065D01*
X148933450Y-106388279D02*
X148933450Y-104125779D01*
X148933450Y-104125779D02*
X149183450Y-103875779D01*
X150200736Y-101800779D02*
X157681467Y-101800779D01*
X161900000Y-98412329D02*
X160288450Y-96800779D01*
X149183450Y-102818065D02*
X150200736Y-101800779D01*
X161323221Y-100476779D02*
X161900000Y-99900000D01*
X161900000Y-99900000D02*
X161900000Y-98412329D01*
%TO.N,I2C1_SDA*%
X156977221Y-100922779D02*
X150311450Y-100922779D01*
X148433450Y-106388279D02*
X148433450Y-102800779D01*
X160288450Y-99300779D02*
X158599221Y-99300779D01*
X158599221Y-99300779D02*
X156977221Y-100922779D01*
X150311450Y-100922779D02*
X148433450Y-102800779D01*
D38*
%TO.N,SWCLK*%
X151400000Y-107600000D02*
X151400000Y-106421729D01*
X151400000Y-106421729D02*
X151433450Y-106388279D01*
D37*
%TO.N,SWDIO*%
X152779796Y-108866933D02*
X152845950Y-108800779D01*
D38*
X151500000Y-108900000D02*
X152746729Y-108900000D01*
X152746729Y-108900000D02*
X152845950Y-108800779D01*
%TO.N,SWO*%
X150402317Y-106419412D02*
X150433450Y-106388279D01*
X150402317Y-107702317D02*
X150402317Y-106419412D01*
D37*
%TO.N,I2C2_SCL*%
X151832450Y-113699779D02*
X150209451Y-113699779D01*
X161539450Y-111551779D02*
X160288450Y-110300779D01*
X149933450Y-113975780D02*
X149933450Y-114713279D01*
X154433450Y-114090779D02*
X160736565Y-114090779D01*
X150209451Y-113699779D02*
X149933450Y-113975780D01*
X154433450Y-114090779D02*
X152223450Y-114090779D01*
X160736565Y-114090779D02*
X161539450Y-113287894D01*
X161539450Y-113287894D02*
X161539450Y-111551779D01*
X152223450Y-114090779D02*
X151832450Y-113699779D01*
%TO.N,I2C2_SDA*%
X152845950Y-113300779D02*
X159788450Y-113300779D01*
X159788450Y-113300779D02*
X160288450Y-112800779D01*
%TO.N,SW1_NC*%
X146433450Y-115800779D02*
X146433450Y-114713279D01*
X149683450Y-120300779D02*
X149683450Y-119050779D01*
X149683450Y-119050779D02*
X146433450Y-115800779D01*
%TO.N,SW1_NO*%
X152183450Y-120300779D02*
X151503756Y-120300779D01*
X151503756Y-120300779D02*
X146933450Y-115730473D01*
X146933450Y-115730473D02*
X146933450Y-114713279D01*
%TO.N,SW2_NO*%
X147933450Y-114713279D02*
X147933450Y-115661329D01*
X147933450Y-115661329D02*
X150322900Y-118050779D01*
X160933450Y-118050779D02*
X163183450Y-120300779D01*
X150322900Y-118050779D02*
X160933450Y-118050779D01*
%TO.N,SW2_NC*%
X159433450Y-119050779D02*
X150788328Y-119050779D01*
X147433450Y-115695901D02*
X147433450Y-114713279D01*
X160683450Y-120300779D02*
X159433450Y-119050779D01*
X150788328Y-119050779D02*
X147433450Y-115695901D01*
%TO.N,Net-(C21-Pad2)*%
X147433450Y-104800779D02*
X146933450Y-105300779D01*
X146933450Y-105300779D02*
X146933450Y-106388279D01*
%TO.N,Net-(U1-V_{FB})*%
X128340000Y-93600000D02*
X129277500Y-94537500D01*
X128340000Y-93600000D02*
X128340000Y-92600000D01*
X129277500Y-94537500D02*
X131212500Y-94537500D01*
%TO.N,Net-(U2-Rs)*%
X152398450Y-97875779D02*
X152623450Y-98100779D01*
X151433450Y-97875779D02*
X152398450Y-97875779D01*
%TO.N,FDCAN1_RX*%
X156433450Y-103050779D02*
X157700000Y-104317329D01*
X157700000Y-104317329D02*
X157700000Y-107284229D01*
X157700000Y-107284229D02*
X155183450Y-109800779D01*
X155183450Y-109800779D02*
X152845950Y-109800779D01*
%TO.N,FDCAN1_TX*%
X152623450Y-103050779D02*
X152623450Y-104601329D01*
X155304962Y-109144695D02*
X155148878Y-109300779D01*
X152623450Y-104601329D02*
X155702366Y-107680245D01*
X155148878Y-109300779D02*
X152845950Y-109300779D01*
X155702366Y-107680245D02*
X155702366Y-108748704D01*
X155306375Y-109144695D02*
X155304962Y-109144695D01*
X155702366Y-108748704D02*
X155306375Y-109144695D01*
D38*
%TO.N,CAN+*%
X153590252Y-99825779D02*
X152026648Y-99825779D01*
X146628603Y-90575000D02*
X145933603Y-91270000D01*
X149625000Y-98806802D02*
X149625000Y-97293198D01*
X153893450Y-98100779D02*
X153893450Y-99522581D01*
X150102126Y-99283928D02*
X149625000Y-98806802D01*
X151484797Y-99283928D02*
X150102126Y-99283928D01*
X145933603Y-91270000D02*
X144570000Y-91270000D01*
X149625000Y-97293198D02*
X150875000Y-96043198D01*
X150875000Y-91656802D02*
X149793198Y-90575000D01*
X153893450Y-99522581D02*
X153590252Y-99825779D01*
X149793198Y-90575000D02*
X146628603Y-90575000D01*
X150875000Y-96043198D02*
X150875000Y-91656802D01*
X145020000Y-91720000D02*
X144570000Y-91270000D01*
X152026648Y-99825779D02*
X151484797Y-99283928D01*
%TO.N,CAN-*%
X151840252Y-100275779D02*
X151298381Y-99733908D01*
X149175000Y-98993198D02*
X149175000Y-97106802D01*
X149606802Y-91025000D02*
X146815000Y-91025000D01*
X155163450Y-98100779D02*
X155163450Y-98888977D01*
X149175000Y-97106802D02*
X150425000Y-95856802D01*
X155163450Y-98888977D02*
X153776648Y-100275779D01*
X146815000Y-91025000D02*
X144570000Y-93270000D01*
X153776648Y-100275779D02*
X151840252Y-100275779D01*
X150425000Y-91843198D02*
X149606802Y-91025000D01*
X149915710Y-99733908D02*
X149175000Y-98993198D01*
X151298381Y-99733908D02*
X149915710Y-99733908D01*
X150425000Y-95856802D02*
X150425000Y-91843198D01*
%TD*%
%TA.AperFunction,Conductor*%
%TO.N,GND*%
G36*
X149375004Y-92897928D02*
G01*
X149900000Y-93425000D01*
X149900000Y-95000000D01*
X148400000Y-96200000D01*
X146673804Y-96198804D01*
X146098683Y-95623008D01*
X146099602Y-93713351D01*
X146928345Y-92888270D01*
X149375004Y-92897928D01*
G37*
%TD.AperFunction*%
%TD*%
%TA.AperFunction,Conductor*%
%TO.N,+3V3*%
G36*
X138100237Y-83338100D02*
G01*
X138134804Y-83355713D01*
X138149600Y-83368350D01*
X138663681Y-83882431D01*
X138686485Y-83913817D01*
X138698473Y-83950714D01*
X138700000Y-83970112D01*
X138700000Y-84675000D01*
X139125000Y-85100000D01*
X140142388Y-85100000D01*
X140180706Y-85106069D01*
X140215273Y-85123682D01*
X140230069Y-85136319D01*
X140963681Y-85869931D01*
X140986485Y-85901317D01*
X140998473Y-85938214D01*
X141000000Y-85957612D01*
X141000000Y-86473638D01*
X140993931Y-86511956D01*
X140976318Y-86546523D01*
X140963681Y-86561319D01*
X140761319Y-86763681D01*
X140729933Y-86786485D01*
X140693036Y-86798473D01*
X140673638Y-86800000D01*
X138289061Y-86800000D01*
X138000000Y-87089061D01*
X138000000Y-87904888D01*
X137998473Y-87914529D01*
X137998473Y-87924286D01*
X137995457Y-87933566D01*
X137993931Y-87943206D01*
X137989501Y-87951900D01*
X137986485Y-87961183D01*
X137980747Y-87969079D01*
X137976318Y-87977773D01*
X137963681Y-87992569D01*
X137792569Y-88163681D01*
X137761183Y-88186485D01*
X137724286Y-88198473D01*
X137704888Y-88200000D01*
X137076362Y-88200000D01*
X137038044Y-88193931D01*
X137003477Y-88176318D01*
X136988681Y-88163681D01*
X136736319Y-87911319D01*
X136713515Y-87879933D01*
X136701527Y-87843036D01*
X136700000Y-87823638D01*
X136700000Y-83896674D01*
X136706069Y-83858356D01*
X136723682Y-83823789D01*
X136736319Y-83808993D01*
X137176962Y-83368350D01*
X137208348Y-83345546D01*
X137245245Y-83333558D01*
X137264643Y-83332031D01*
X138061919Y-83332031D01*
X138100237Y-83338100D01*
G37*
%TD.AperFunction*%
%TD*%
%TA.AperFunction,Conductor*%
%TO.N,GND*%
G36*
X129600000Y-102831250D02*
G01*
X129600000Y-105525000D01*
X129025000Y-106100000D01*
X125350000Y-106100000D01*
X124900000Y-105650000D01*
X124900000Y-102900000D01*
X125400000Y-102400000D01*
X129168750Y-102400000D01*
X129600000Y-102831250D01*
G37*
%TD.AperFunction*%
%TD*%
%TA.AperFunction,Conductor*%
%TO.N,GND*%
G36*
X164246872Y-83406069D02*
G01*
X164281439Y-83423682D01*
X164308872Y-83451115D01*
X164326485Y-83485682D01*
X164332554Y-83524000D01*
X164326485Y-83562318D01*
X164308872Y-83596885D01*
X164281439Y-83624318D01*
X164256014Y-83638557D01*
X164239512Y-83645393D01*
X164239509Y-83645394D01*
X164239508Y-83645395D01*
X164239495Y-83645402D01*
X164159992Y-83691302D01*
X164159990Y-83691303D01*
X164087138Y-83747204D01*
X164087131Y-83747210D01*
X164022210Y-83812131D01*
X164022204Y-83812138D01*
X163966303Y-83884990D01*
X163966302Y-83884992D01*
X163920402Y-83964495D01*
X163920395Y-83964508D01*
X163920393Y-83964512D01*
X163885253Y-84049347D01*
X163885250Y-84049355D01*
X163861487Y-84138043D01*
X163861485Y-84138054D01*
X163849500Y-84229079D01*
X163849500Y-84320920D01*
X163856605Y-84374879D01*
X163861486Y-84411954D01*
X163885252Y-84500651D01*
X163885253Y-84500655D01*
X163885254Y-84500656D01*
X163899811Y-84535800D01*
X163908867Y-84573524D01*
X163905822Y-84612200D01*
X163890975Y-84648042D01*
X163865779Y-84677543D01*
X163842663Y-84693158D01*
X163833790Y-84697793D01*
X163833785Y-84697796D01*
X163786418Y-84736418D01*
X163747797Y-84783783D01*
X163719498Y-84837958D01*
X163719497Y-84837960D01*
X163712614Y-84862018D01*
X163696238Y-84897188D01*
X163669795Y-84925576D01*
X163635874Y-84944403D01*
X163597795Y-84951827D01*
X163559286Y-84947120D01*
X163524116Y-84930744D01*
X163516142Y-84924601D01*
X163516084Y-84924677D01*
X163440009Y-84866303D01*
X163440007Y-84866302D01*
X163360504Y-84820402D01*
X163360491Y-84820395D01*
X163360492Y-84820395D01*
X163360488Y-84820393D01*
X163275651Y-84785252D01*
X163270172Y-84783784D01*
X163256899Y-84780227D01*
X163186954Y-84761486D01*
X163170396Y-84759306D01*
X163095920Y-84749500D01*
X163095913Y-84749500D01*
X163004087Y-84749500D01*
X163004079Y-84749500D01*
X162917433Y-84760908D01*
X162913046Y-84761486D01*
X162886906Y-84768490D01*
X162824355Y-84785250D01*
X162824351Y-84785251D01*
X162824349Y-84785252D01*
X162739512Y-84820393D01*
X162739509Y-84820394D01*
X162739508Y-84820395D01*
X162739495Y-84820402D01*
X162659992Y-84866302D01*
X162659990Y-84866303D01*
X162583916Y-84924677D01*
X162583535Y-84924180D01*
X162555518Y-84941848D01*
X162517913Y-84951388D01*
X162479201Y-84948840D01*
X162443171Y-84934454D01*
X162413350Y-84909639D01*
X162392657Y-84876823D01*
X162387384Y-84862014D01*
X162380501Y-84837960D01*
X162380501Y-84837958D01*
X162380500Y-84837957D01*
X162380500Y-84837955D01*
X162352203Y-84783784D01*
X162313582Y-84736418D01*
X162266216Y-84697797D01*
X162212045Y-84669500D01*
X162212044Y-84669499D01*
X162212041Y-84669498D01*
X162153290Y-84652688D01*
X162153282Y-84652687D01*
X162132938Y-84650878D01*
X162117433Y-84649500D01*
X162117429Y-84649500D01*
X161082578Y-84649500D01*
X161082563Y-84649501D01*
X161046711Y-84652688D01*
X160987957Y-84669499D01*
X160933783Y-84697797D01*
X160886418Y-84736418D01*
X160847797Y-84783783D01*
X160819498Y-84837958D01*
X160802688Y-84896709D01*
X160802687Y-84896717D01*
X160799500Y-84932568D01*
X160799500Y-85867421D01*
X160799501Y-85867436D01*
X160802688Y-85903288D01*
X160818231Y-85957612D01*
X160819500Y-85962045D01*
X160847797Y-86016216D01*
X160886418Y-86063582D01*
X160933784Y-86102203D01*
X160987955Y-86130500D01*
X161046712Y-86147312D01*
X161061480Y-86148625D01*
X161099111Y-86158063D01*
X161131982Y-86178668D01*
X161156878Y-86208422D01*
X161171361Y-86244413D01*
X161174500Y-86272138D01*
X161174500Y-88627862D01*
X161168431Y-88666180D01*
X161150818Y-88700747D01*
X161123385Y-88728180D01*
X161088818Y-88745793D01*
X161061481Y-88751375D01*
X161046710Y-88752688D01*
X160987957Y-88769499D01*
X160933783Y-88797797D01*
X160886418Y-88836418D01*
X160847797Y-88883783D01*
X160819498Y-88937958D01*
X160802688Y-88996709D01*
X160802687Y-88996717D01*
X160799500Y-89032567D01*
X160799500Y-89647388D01*
X160797973Y-89657024D01*
X160797974Y-89666785D01*
X160794957Y-89676068D01*
X160793431Y-89685706D01*
X160789000Y-89694400D01*
X160785985Y-89703682D01*
X160780248Y-89711577D01*
X160775818Y-89720273D01*
X160763182Y-89735068D01*
X160710071Y-89788180D01*
X160678685Y-89810984D01*
X160641788Y-89822973D01*
X160622389Y-89824500D01*
X159477609Y-89824500D01*
X159439291Y-89818431D01*
X159404724Y-89800818D01*
X159389928Y-89788181D01*
X159146819Y-89545071D01*
X159124015Y-89513685D01*
X159112027Y-89476788D01*
X159110500Y-89457390D01*
X159110500Y-89335688D01*
X159110500Y-89335676D01*
X159108616Y-89305327D01*
X159093635Y-89233879D01*
X159067098Y-89165871D01*
X159029729Y-89103158D01*
X159029728Y-89103156D01*
X159027178Y-89100146D01*
X159007042Y-89066984D01*
X158998140Y-89029224D01*
X159001341Y-88990561D01*
X159016334Y-88954779D01*
X159027178Y-88939854D01*
X159029728Y-88936843D01*
X159029727Y-88936843D01*
X159029729Y-88936842D01*
X159067098Y-88874129D01*
X159093635Y-88806121D01*
X159108616Y-88734673D01*
X159110500Y-88704324D01*
X159110500Y-88375676D01*
X159108616Y-88345327D01*
X159093635Y-88273879D01*
X159067098Y-88205871D01*
X159029729Y-88143158D01*
X159019939Y-88131600D01*
X158999806Y-88098441D01*
X158990904Y-88060680D01*
X158994107Y-88022017D01*
X159009100Y-87986235D01*
X159025158Y-87965952D01*
X159025117Y-87965916D01*
X159025846Y-87965083D01*
X159026887Y-87963769D01*
X159027794Y-87962863D01*
X159083694Y-87890012D01*
X159129607Y-87810488D01*
X159164748Y-87725651D01*
X159188514Y-87636954D01*
X159200500Y-87545913D01*
X159200500Y-87454087D01*
X159188514Y-87363046D01*
X159164748Y-87274349D01*
X159129607Y-87189512D01*
X159119895Y-87172691D01*
X159083697Y-87109992D01*
X159083696Y-87109990D01*
X159027795Y-87037138D01*
X159027789Y-87037131D01*
X158962868Y-86972210D01*
X158962861Y-86972204D01*
X158890009Y-86916303D01*
X158890007Y-86916302D01*
X158810504Y-86870402D01*
X158810491Y-86870395D01*
X158810492Y-86870395D01*
X158810488Y-86870393D01*
X158725651Y-86835252D01*
X158636954Y-86811486D01*
X158621734Y-86809482D01*
X158545920Y-86799500D01*
X158545913Y-86799500D01*
X158454087Y-86799500D01*
X158454079Y-86799500D01*
X158367433Y-86810908D01*
X158363046Y-86811486D01*
X158333480Y-86819408D01*
X158274355Y-86835250D01*
X158274351Y-86835251D01*
X158274349Y-86835252D01*
X158189512Y-86870393D01*
X158189509Y-86870394D01*
X158189508Y-86870395D01*
X158189495Y-86870402D01*
X158109992Y-86916302D01*
X158109990Y-86916303D01*
X158037138Y-86972204D01*
X158037131Y-86972210D01*
X157972210Y-87037131D01*
X157972204Y-87037138D01*
X157916303Y-87109990D01*
X157916302Y-87109992D01*
X157870402Y-87189495D01*
X157870395Y-87189508D01*
X157870393Y-87189512D01*
X157835253Y-87274347D01*
X157835250Y-87274355D01*
X157811487Y-87363043D01*
X157811485Y-87363054D01*
X157799500Y-87454079D01*
X157799500Y-87545920D01*
X157809482Y-87621734D01*
X157811486Y-87636954D01*
X157835252Y-87725651D01*
X157845368Y-87750072D01*
X157854425Y-87787795D01*
X157851381Y-87826472D01*
X157836535Y-87862314D01*
X157811339Y-87891815D01*
X157778260Y-87912086D01*
X157740537Y-87921143D01*
X157723128Y-87921287D01*
X157694341Y-87919500D01*
X157694324Y-87919500D01*
X157305676Y-87919500D01*
X157305665Y-87919500D01*
X157275328Y-87921383D01*
X157215985Y-87933826D01*
X157203879Y-87936365D01*
X157203878Y-87936365D01*
X157203875Y-87936366D01*
X157203871Y-87936367D01*
X157135868Y-87962902D01*
X157135868Y-87962903D01*
X157073160Y-88000269D01*
X157073152Y-88000274D01*
X157017452Y-88047450D01*
X157017450Y-88047452D01*
X156970274Y-88103152D01*
X156970269Y-88103160D01*
X156932903Y-88165868D01*
X156932902Y-88165868D01*
X156906367Y-88233871D01*
X156906366Y-88233875D01*
X156891383Y-88305328D01*
X156889500Y-88335665D01*
X156889500Y-88664334D01*
X156891383Y-88694671D01*
X156894595Y-88709988D01*
X156903548Y-88752688D01*
X156906366Y-88766124D01*
X156906367Y-88766128D01*
X156932901Y-88834127D01*
X156932902Y-88834129D01*
X156962490Y-88883784D01*
X156964422Y-88887026D01*
X156978823Y-88923050D01*
X156981387Y-88961761D01*
X156971863Y-88999370D01*
X156951183Y-89032195D01*
X156921373Y-89057023D01*
X156885349Y-89071424D01*
X156857899Y-89074500D01*
X156466509Y-89074500D01*
X156443782Y-89078100D01*
X156428629Y-89080500D01*
X156400361Y-89084977D01*
X156400354Y-89084978D01*
X156336669Y-89105670D01*
X156276987Y-89136081D01*
X156222805Y-89175446D01*
X155375446Y-90022805D01*
X155336081Y-90076987D01*
X155305672Y-90136665D01*
X155303373Y-90143743D01*
X155293072Y-90175447D01*
X155289024Y-90187904D01*
X155284977Y-90200361D01*
X155274500Y-90266507D01*
X155274500Y-90783480D01*
X155268431Y-90821798D01*
X155250818Y-90856365D01*
X155238181Y-90871161D01*
X155172210Y-90937131D01*
X155172204Y-90937138D01*
X155116303Y-91009990D01*
X155116302Y-91009992D01*
X155070402Y-91089495D01*
X155070395Y-91089508D01*
X155070393Y-91089512D01*
X155039115Y-91165023D01*
X155035253Y-91174347D01*
X155035250Y-91174355D01*
X155011487Y-91263043D01*
X155011485Y-91263054D01*
X154999500Y-91354079D01*
X154999500Y-91445920D01*
X155007024Y-91503063D01*
X155011486Y-91536954D01*
X155035252Y-91625651D01*
X155070393Y-91710488D01*
X155070395Y-91710491D01*
X155070402Y-91710504D01*
X155116302Y-91790007D01*
X155116303Y-91790009D01*
X155172204Y-91862861D01*
X155172210Y-91862868D01*
X155237131Y-91927789D01*
X155237138Y-91927795D01*
X155309990Y-91983696D01*
X155309992Y-91983697D01*
X155372691Y-92019895D01*
X155389512Y-92029607D01*
X155474349Y-92064748D01*
X155563046Y-92088514D01*
X155654087Y-92100500D01*
X155654094Y-92100500D01*
X155745906Y-92100500D01*
X155745913Y-92100500D01*
X155834317Y-92088861D01*
X155873096Y-92089876D01*
X155909667Y-92102826D01*
X155940446Y-92126443D01*
X155962420Y-92158416D01*
X155973439Y-92195614D01*
X155974500Y-92211800D01*
X155974500Y-95800817D01*
X155978375Y-95825282D01*
X155984977Y-95866967D01*
X155989996Y-95882416D01*
X155991410Y-95889433D01*
X155991924Y-95901754D01*
X155993852Y-95913931D01*
X155992984Y-95927155D01*
X155993028Y-95928195D01*
X155992882Y-95928716D01*
X155992791Y-95930107D01*
X155982951Y-96004853D01*
X155982950Y-96004872D01*
X155982950Y-96096699D01*
X155992484Y-96169112D01*
X155994936Y-96187733D01*
X156018702Y-96276430D01*
X156053843Y-96361267D01*
X156053845Y-96361270D01*
X156053852Y-96361283D01*
X156099752Y-96440786D01*
X156099753Y-96440788D01*
X156155654Y-96513640D01*
X156155660Y-96513647D01*
X156220581Y-96578568D01*
X156220588Y-96578574D01*
X156262393Y-96610652D01*
X156289098Y-96638793D01*
X156305800Y-96673809D01*
X156310865Y-96712273D01*
X156303795Y-96750419D01*
X156285283Y-96784514D01*
X156257142Y-96811219D01*
X156222126Y-96827921D01*
X156212356Y-96830388D01*
X156154467Y-96842527D01*
X156154465Y-96842527D01*
X156084915Y-96869666D01*
X156084911Y-96869668D01*
X156020780Y-96907882D01*
X155963807Y-96956136D01*
X155915556Y-97013104D01*
X155904972Y-97030868D01*
X155880143Y-97060678D01*
X155847318Y-97081357D01*
X155809709Y-97090880D01*
X155770998Y-97088315D01*
X155734974Y-97073914D01*
X155705164Y-97049085D01*
X155691928Y-97030868D01*
X155681343Y-97013104D01*
X155659838Y-96987714D01*
X155633093Y-96956136D01*
X155576122Y-96907884D01*
X155557668Y-96896888D01*
X155511988Y-96869668D01*
X155511984Y-96869666D01*
X155442433Y-96842527D01*
X155369369Y-96827206D01*
X155344531Y-96825664D01*
X155338323Y-96825279D01*
X155338322Y-96825279D01*
X154988594Y-96825279D01*
X154988561Y-96825280D01*
X154957530Y-96827206D01*
X154884467Y-96842527D01*
X154884465Y-96842527D01*
X154814915Y-96869666D01*
X154814911Y-96869668D01*
X154750780Y-96907882D01*
X154693807Y-96956136D01*
X154645556Y-97013104D01*
X154634972Y-97030868D01*
X154610143Y-97060678D01*
X154577318Y-97081357D01*
X154539709Y-97090880D01*
X154500998Y-97088315D01*
X154464974Y-97073914D01*
X154435164Y-97049085D01*
X154421928Y-97030868D01*
X154411343Y-97013104D01*
X154389838Y-96987714D01*
X154363093Y-96956136D01*
X154306122Y-96907884D01*
X154287668Y-96896888D01*
X154241988Y-96869668D01*
X154241984Y-96869666D01*
X154172433Y-96842527D01*
X154099369Y-96827206D01*
X154074531Y-96825664D01*
X154068323Y-96825279D01*
X154068322Y-96825279D01*
X153718594Y-96825279D01*
X153718561Y-96825280D01*
X153687530Y-96827206D01*
X153614467Y-96842527D01*
X153614465Y-96842527D01*
X153544915Y-96869666D01*
X153544911Y-96869668D01*
X153480780Y-96907882D01*
X153423807Y-96956136D01*
X153375556Y-97013104D01*
X153364972Y-97030868D01*
X153340143Y-97060678D01*
X153307318Y-97081357D01*
X153269709Y-97090880D01*
X153230998Y-97088315D01*
X153194974Y-97073914D01*
X153165164Y-97049085D01*
X153151928Y-97030868D01*
X153141343Y-97013104D01*
X153119838Y-96987714D01*
X153093093Y-96956136D01*
X153036122Y-96907884D01*
X153017668Y-96896888D01*
X152971988Y-96869668D01*
X152971984Y-96869666D01*
X152902433Y-96842527D01*
X152829369Y-96827206D01*
X152804531Y-96825664D01*
X152798323Y-96825279D01*
X152798322Y-96825279D01*
X152448594Y-96825279D01*
X152448561Y-96825280D01*
X152417530Y-96827206D01*
X152344467Y-96842527D01*
X152344465Y-96842527D01*
X152274915Y-96869666D01*
X152274911Y-96869668D01*
X152210780Y-96907882D01*
X152153807Y-96956136D01*
X152105553Y-97013109D01*
X152067339Y-97077240D01*
X152067337Y-97077244D01*
X152040198Y-97146794D01*
X152040198Y-97146796D01*
X152024877Y-97219856D01*
X152024877Y-97219860D01*
X152022970Y-97250577D01*
X152014538Y-97288446D01*
X151994817Y-97321855D01*
X151965737Y-97347535D01*
X151930144Y-97362972D01*
X151891524Y-97366655D01*
X151853655Y-97358223D01*
X151835041Y-97348097D01*
X151834698Y-97348675D01*
X151767581Y-97308682D01*
X151767581Y-97308681D01*
X151699578Y-97282146D01*
X151699574Y-97282145D01*
X151699573Y-97282144D01*
X151699571Y-97282144D01*
X151671719Y-97276304D01*
X151628121Y-97267162D01*
X151597784Y-97265279D01*
X151597774Y-97265279D01*
X151269126Y-97265279D01*
X151269115Y-97265279D01*
X151238778Y-97267162D01*
X151179435Y-97279605D01*
X151167329Y-97282144D01*
X151167328Y-97282144D01*
X151167325Y-97282145D01*
X151167321Y-97282146D01*
X151099318Y-97308681D01*
X151099318Y-97308682D01*
X151036610Y-97346048D01*
X151036602Y-97346053D01*
X150980902Y-97393229D01*
X150980900Y-97393231D01*
X150933724Y-97448931D01*
X150933719Y-97448939D01*
X150896353Y-97511647D01*
X150896352Y-97511647D01*
X150869817Y-97579650D01*
X150869816Y-97579654D01*
X150854833Y-97651107D01*
X150852950Y-97681444D01*
X150852950Y-98070113D01*
X150854833Y-98100450D01*
X150857123Y-98111369D01*
X150868030Y-98163389D01*
X150869816Y-98171903D01*
X150869817Y-98171907D01*
X150896353Y-98239910D01*
X150933719Y-98302618D01*
X150933724Y-98302626D01*
X150980900Y-98358326D01*
X150980902Y-98358328D01*
X151036602Y-98405504D01*
X151036610Y-98405509D01*
X151099318Y-98442875D01*
X151099318Y-98442876D01*
X151167321Y-98469411D01*
X151167329Y-98469414D01*
X151238777Y-98484395D01*
X151269126Y-98486279D01*
X151269138Y-98486279D01*
X151597762Y-98486279D01*
X151597774Y-98486279D01*
X151628123Y-98484395D01*
X151699571Y-98469414D01*
X151767579Y-98442877D01*
X151824289Y-98409085D01*
X151834698Y-98402883D01*
X151835231Y-98403778D01*
X151861528Y-98390630D01*
X151899891Y-98384852D01*
X151938162Y-98391211D01*
X151972595Y-98409085D01*
X151999819Y-98436725D01*
X152017169Y-98471425D01*
X152022951Y-98508848D01*
X152022951Y-98950651D01*
X152022952Y-98950662D01*
X152023011Y-98952571D01*
X152022573Y-98952584D01*
X152021659Y-98961557D01*
X152021879Y-98973607D01*
X152019703Y-98980743D01*
X152018947Y-98988165D01*
X152014080Y-98999189D01*
X152010566Y-99010717D01*
X152006292Y-99016830D01*
X152003279Y-99023657D01*
X151995240Y-99032641D01*
X151988339Y-99042514D01*
X151982386Y-99047006D01*
X151977410Y-99052569D01*
X151966990Y-99058628D01*
X151957374Y-99065887D01*
X151950322Y-99068321D01*
X151943873Y-99072072D01*
X151932093Y-99074614D01*
X151920702Y-99078547D01*
X151913241Y-99078683D01*
X151905950Y-99080257D01*
X151893962Y-99079035D01*
X151881913Y-99079255D01*
X151874776Y-99077079D01*
X151867355Y-99076323D01*
X151856330Y-99071456D01*
X151844803Y-99067942D01*
X151838998Y-99063804D01*
X151831863Y-99060655D01*
X151813006Y-99045715D01*
X151812169Y-99044908D01*
X151745705Y-98978444D01*
X151742652Y-98976226D01*
X151694705Y-98941390D01*
X151666620Y-98927080D01*
X151638536Y-98912770D01*
X151638535Y-98912769D01*
X151638530Y-98912767D01*
X151578583Y-98893290D01*
X151578584Y-98893290D01*
X151531015Y-98885756D01*
X151516317Y-98883428D01*
X151516316Y-98883428D01*
X150319380Y-98883428D01*
X150309739Y-98881901D01*
X150299982Y-98881901D01*
X150290701Y-98878885D01*
X150281062Y-98877359D01*
X150272367Y-98872929D01*
X150263085Y-98869913D01*
X150255188Y-98864175D01*
X150246495Y-98859746D01*
X150231699Y-98847109D01*
X150061819Y-98677229D01*
X150039015Y-98645843D01*
X150027027Y-98608946D01*
X150025500Y-98589548D01*
X150025500Y-97510452D01*
X150031569Y-97472134D01*
X150049182Y-97437567D01*
X150061819Y-97422771D01*
X150614924Y-96869666D01*
X151180484Y-96304106D01*
X151203360Y-96272620D01*
X151217538Y-96253106D01*
X151238480Y-96212005D01*
X151246158Y-96196937D01*
X151249149Y-96187733D01*
X151265637Y-96136985D01*
X151265636Y-96136985D01*
X151265638Y-96136982D01*
X151275500Y-96074718D01*
X151275500Y-96011678D01*
X151275500Y-91625282D01*
X151265638Y-91563018D01*
X151254415Y-91528478D01*
X151246159Y-91503066D01*
X151246158Y-91503063D01*
X151230996Y-91473307D01*
X151217538Y-91446894D01*
X151217536Y-91446891D01*
X151217535Y-91446889D01*
X151183830Y-91400500D01*
X151180484Y-91395894D01*
X151135908Y-91351318D01*
X150599764Y-90815174D01*
X150054111Y-90269520D01*
X150054107Y-90269517D01*
X150054106Y-90269516D01*
X150046404Y-90263920D01*
X150003106Y-90232462D01*
X149971802Y-90216512D01*
X149966720Y-90213922D01*
X149966713Y-90213918D01*
X149946932Y-90203839D01*
X149886985Y-90184362D01*
X149830703Y-90175448D01*
X149824718Y-90174500D01*
X146597083Y-90174500D01*
X146576328Y-90177787D01*
X146534817Y-90184362D01*
X146474867Y-90203840D01*
X146474864Y-90203841D01*
X146422550Y-90230498D01*
X146422544Y-90230501D01*
X146418693Y-90232462D01*
X146418688Y-90232465D01*
X146367699Y-90269510D01*
X146367695Y-90269514D01*
X145804030Y-90833181D01*
X145796134Y-90838917D01*
X145789234Y-90845818D01*
X145780540Y-90850247D01*
X145772644Y-90855985D01*
X145763361Y-90859001D01*
X145754667Y-90863431D01*
X145745027Y-90864957D01*
X145735747Y-90867973D01*
X145716349Y-90869500D01*
X145635007Y-90869500D01*
X145596689Y-90863431D01*
X145562122Y-90845818D01*
X145534689Y-90818385D01*
X145525649Y-90803954D01*
X145514705Y-90783480D01*
X145482435Y-90723107D01*
X145424437Y-90636306D01*
X145424435Y-90636303D01*
X145424430Y-90636296D01*
X145358205Y-90555602D01*
X145284397Y-90481794D01*
X145203703Y-90415569D01*
X145116896Y-90357567D01*
X145116895Y-90357566D01*
X145116893Y-90357565D01*
X145024825Y-90308353D01*
X144964011Y-90283163D01*
X144928378Y-90268403D01*
X144901401Y-90260220D01*
X144828478Y-90238099D01*
X144726089Y-90217733D01*
X144622197Y-90207500D01*
X144517803Y-90207500D01*
X144413911Y-90217733D01*
X144311522Y-90238099D01*
X144266217Y-90251842D01*
X144211621Y-90268403D01*
X144115174Y-90308353D01*
X144023103Y-90357567D01*
X143936296Y-90415569D01*
X143855602Y-90481794D01*
X143781794Y-90555602D01*
X143715569Y-90636296D01*
X143657567Y-90723103D01*
X143608353Y-90815174D01*
X143568403Y-90911621D01*
X143553347Y-90961257D01*
X143538099Y-91011522D01*
X143517733Y-91113911D01*
X143507500Y-91217803D01*
X143507500Y-91322197D01*
X143517733Y-91426089D01*
X143538099Y-91528478D01*
X143568403Y-91628377D01*
X143608353Y-91724825D01*
X143656771Y-91815408D01*
X143657567Y-91816896D01*
X143715569Y-91903703D01*
X143781794Y-91984397D01*
X143855602Y-92058205D01*
X143936296Y-92124430D01*
X143936303Y-92124435D01*
X143936306Y-92124437D01*
X143957262Y-92138439D01*
X143999854Y-92166898D01*
X144028342Y-92193232D01*
X144047299Y-92227082D01*
X144054867Y-92265132D01*
X144050307Y-92303659D01*
X144034065Y-92338891D01*
X144007731Y-92367379D01*
X143999854Y-92373102D01*
X143936296Y-92415569D01*
X143855602Y-92481794D01*
X143781794Y-92555602D01*
X143715569Y-92636296D01*
X143657567Y-92723103D01*
X143608353Y-92815174D01*
X143568403Y-92911621D01*
X143563826Y-92926710D01*
X143538099Y-93011522D01*
X143517733Y-93113911D01*
X143507500Y-93217803D01*
X143507500Y-93322197D01*
X143517733Y-93426089D01*
X143538099Y-93528478D01*
X143559183Y-93597983D01*
X143568403Y-93628378D01*
X143582707Y-93662910D01*
X143608353Y-93724825D01*
X143652965Y-93808288D01*
X143657567Y-93816896D01*
X143715569Y-93903703D01*
X143781794Y-93984397D01*
X143855602Y-94058205D01*
X143936296Y-94124430D01*
X143936303Y-94124435D01*
X143936306Y-94124437D01*
X144023107Y-94182435D01*
X144115175Y-94231647D01*
X144211623Y-94271597D01*
X144311522Y-94301901D01*
X144413911Y-94322267D01*
X144517803Y-94332500D01*
X144517808Y-94332500D01*
X144622192Y-94332500D01*
X144622197Y-94332500D01*
X144726089Y-94322267D01*
X144828478Y-94301901D01*
X144928377Y-94271597D01*
X145024825Y-94231647D01*
X145116893Y-94182435D01*
X145203694Y-94124437D01*
X145284392Y-94058210D01*
X145358210Y-93984392D01*
X145417030Y-93912720D01*
X145424430Y-93903703D01*
X145424431Y-93903700D01*
X145424437Y-93903694D01*
X145482435Y-93816893D01*
X145531647Y-93724825D01*
X145571597Y-93628377D01*
X145601901Y-93528478D01*
X145622267Y-93426089D01*
X145632500Y-93322197D01*
X145632500Y-93217803D01*
X145622267Y-93113911D01*
X145601901Y-93011522D01*
X145575287Y-92923790D01*
X145569974Y-92885368D01*
X145576794Y-92847176D01*
X145595082Y-92812961D01*
X145606261Y-92800129D01*
X146944574Y-91461819D01*
X146975960Y-91439015D01*
X147012857Y-91427027D01*
X147032255Y-91425500D01*
X149389548Y-91425500D01*
X149427866Y-91431569D01*
X149462433Y-91449182D01*
X149477229Y-91461819D01*
X149988181Y-91972771D01*
X150010985Y-92004157D01*
X150022973Y-92041054D01*
X150024500Y-92060452D01*
X150024500Y-95639548D01*
X150018431Y-95677866D01*
X150000818Y-95712433D01*
X149988181Y-95727229D01*
X148869518Y-96845891D01*
X148869513Y-96845897D01*
X148832466Y-96896888D01*
X148832455Y-96896905D01*
X148819418Y-96922494D01*
X148819417Y-96922496D01*
X148811629Y-96937779D01*
X148803842Y-96953062D01*
X148803840Y-96953066D01*
X148792584Y-96987711D01*
X148792585Y-96987712D01*
X148784360Y-97013025D01*
X148774500Y-97075282D01*
X148774500Y-99024717D01*
X148783047Y-99078683D01*
X148784362Y-99086982D01*
X148801874Y-99140881D01*
X148803843Y-99146939D01*
X148804361Y-99147957D01*
X148804366Y-99147966D01*
X148806128Y-99151423D01*
X148832462Y-99203106D01*
X148853103Y-99231515D01*
X148856553Y-99236264D01*
X148856554Y-99236265D01*
X148869512Y-99254102D01*
X148869516Y-99254106D01*
X149610226Y-99994816D01*
X149654802Y-100039392D01*
X149654808Y-100039396D01*
X149705797Y-100076443D01*
X149705799Y-100076444D01*
X149705802Y-100076446D01*
X149732215Y-100089904D01*
X149761971Y-100105066D01*
X149761974Y-100105067D01*
X149785960Y-100112860D01*
X149821926Y-100124546D01*
X149884190Y-100134408D01*
X151081127Y-100134408D01*
X151090768Y-100135935D01*
X151100525Y-100135935D01*
X151109805Y-100138950D01*
X151119445Y-100140477D01*
X151128139Y-100144906D01*
X151137422Y-100147923D01*
X151145318Y-100153660D01*
X151154012Y-100158090D01*
X151168808Y-100170727D01*
X151283679Y-100285598D01*
X151306483Y-100316984D01*
X151318471Y-100353881D01*
X151318471Y-100392677D01*
X151306483Y-100429574D01*
X151283679Y-100460960D01*
X151252293Y-100483764D01*
X151215396Y-100495752D01*
X151195998Y-100497279D01*
X150277958Y-100497279D01*
X150211809Y-100507756D01*
X150211804Y-100507757D01*
X150148119Y-100528449D01*
X150088436Y-100558860D01*
X150034253Y-100598227D01*
X150034252Y-100598228D01*
X148478521Y-102153960D01*
X148470812Y-102159561D01*
X148464097Y-102166326D01*
X148455215Y-102170892D01*
X148447135Y-102176764D01*
X148438069Y-102179709D01*
X148429595Y-102184067D01*
X148419850Y-102185629D01*
X148410238Y-102188752D01*
X148391300Y-102190278D01*
X148391030Y-102190279D01*
X148269126Y-102190279D01*
X148261384Y-102190759D01*
X148257756Y-102190773D01*
X148242112Y-102188354D01*
X148226347Y-102186850D01*
X148223008Y-102185401D01*
X148219415Y-102184846D01*
X148205279Y-102177709D01*
X148190757Y-102171409D01*
X148188032Y-102169002D01*
X148184783Y-102167362D01*
X148173542Y-102156204D01*
X148161679Y-102145726D01*
X148159829Y-102142592D01*
X148157249Y-102140031D01*
X148150012Y-102125958D01*
X148141961Y-102112315D01*
X148140908Y-102108253D01*
X148139508Y-102105529D01*
X148138343Y-102098349D01*
X148134357Y-102082959D01*
X148132545Y-102069195D01*
X148121964Y-101988825D01*
X148098198Y-101900128D01*
X148063057Y-101815291D01*
X148053345Y-101798470D01*
X148017147Y-101735771D01*
X148017146Y-101735769D01*
X147961245Y-101662917D01*
X147961239Y-101662910D01*
X147896318Y-101597989D01*
X147896311Y-101597983D01*
X147823459Y-101542082D01*
X147823457Y-101542081D01*
X147743954Y-101496181D01*
X147743941Y-101496174D01*
X147743942Y-101496174D01*
X147743938Y-101496172D01*
X147659101Y-101461031D01*
X147570404Y-101437265D01*
X147555184Y-101435261D01*
X147479370Y-101425279D01*
X147479363Y-101425279D01*
X147387537Y-101425279D01*
X147387529Y-101425279D01*
X147300883Y-101436687D01*
X147296496Y-101437265D01*
X147266930Y-101445187D01*
X147207805Y-101461029D01*
X147207801Y-101461030D01*
X147207799Y-101461031D01*
X147122962Y-101496172D01*
X147122959Y-101496173D01*
X147122958Y-101496174D01*
X147122945Y-101496181D01*
X147043442Y-101542081D01*
X147043440Y-101542082D01*
X146970588Y-101597983D01*
X146970581Y-101597989D01*
X146905660Y-101662910D01*
X146905654Y-101662917D01*
X146849753Y-101735769D01*
X146849752Y-101735771D01*
X146803852Y-101815274D01*
X146803845Y-101815287D01*
X146768703Y-101900126D01*
X146768700Y-101900134D01*
X146744937Y-101988822D01*
X146744935Y-101988833D01*
X146732950Y-102079858D01*
X146732950Y-102171699D01*
X146741916Y-102239794D01*
X146744936Y-102262733D01*
X146763677Y-102332678D01*
X146768393Y-102350279D01*
X146768702Y-102351430D01*
X146803843Y-102436267D01*
X146803845Y-102436270D01*
X146803852Y-102436283D01*
X146849750Y-102515783D01*
X146849755Y-102515790D01*
X146849756Y-102515791D01*
X146867327Y-102538690D01*
X146885837Y-102572780D01*
X146892907Y-102610926D01*
X146892950Y-102614174D01*
X146892950Y-102995113D01*
X146894833Y-103025450D01*
X146909816Y-103096903D01*
X146909817Y-103096907D01*
X146936352Y-103164908D01*
X146936353Y-103164910D01*
X146973719Y-103227618D01*
X146973724Y-103227626D01*
X147020900Y-103283326D01*
X147020902Y-103283328D01*
X147076602Y-103330504D01*
X147076606Y-103330507D01*
X147076608Y-103330508D01*
X147097951Y-103343226D01*
X147139318Y-103367875D01*
X147139318Y-103367876D01*
X147139321Y-103367877D01*
X147207329Y-103394414D01*
X147278777Y-103409395D01*
X147309126Y-103411279D01*
X147309138Y-103411279D01*
X147637762Y-103411279D01*
X147637774Y-103411279D01*
X147668123Y-103409395D01*
X147739571Y-103394414D01*
X147807579Y-103367877D01*
X147820477Y-103360191D01*
X147856497Y-103345791D01*
X147895208Y-103343226D01*
X147932817Y-103352749D01*
X147965642Y-103373427D01*
X147990471Y-103403237D01*
X148004873Y-103439261D01*
X148007950Y-103466714D01*
X148007950Y-104170802D01*
X148001881Y-104209120D01*
X147984268Y-104243687D01*
X147956835Y-104271120D01*
X147922268Y-104288733D01*
X147883950Y-104294802D01*
X147845632Y-104288733D01*
X147820476Y-104277325D01*
X147797579Y-104263681D01*
X147767559Y-104251967D01*
X147729578Y-104237146D01*
X147729574Y-104237145D01*
X147729573Y-104237144D01*
X147729571Y-104237144D01*
X147701719Y-104231304D01*
X147658121Y-104222162D01*
X147627784Y-104220279D01*
X147627774Y-104220279D01*
X147239126Y-104220279D01*
X147239115Y-104220279D01*
X147208778Y-104222162D01*
X147149435Y-104234605D01*
X147137329Y-104237144D01*
X147137328Y-104237144D01*
X147137325Y-104237145D01*
X147137321Y-104237146D01*
X147069318Y-104263681D01*
X147069318Y-104263682D01*
X147006610Y-104301048D01*
X147006602Y-104301053D01*
X146950902Y-104348229D01*
X146950900Y-104348231D01*
X146903724Y-104403931D01*
X146903719Y-104403939D01*
X146866353Y-104466647D01*
X146866352Y-104466647D01*
X146839817Y-104534650D01*
X146839816Y-104534654D01*
X146824833Y-104606107D01*
X146822950Y-104636444D01*
X146822950Y-104758169D01*
X146816881Y-104796487D01*
X146799268Y-104831054D01*
X146786631Y-104845850D01*
X146608896Y-105023584D01*
X146569531Y-105077766D01*
X146539123Y-105137442D01*
X146523066Y-105186862D01*
X146523065Y-105186861D01*
X146518430Y-105201130D01*
X146518426Y-105201147D01*
X146507950Y-105267286D01*
X146507950Y-105394879D01*
X146501881Y-105433197D01*
X146484268Y-105467764D01*
X146456835Y-105495197D01*
X146422268Y-105512810D01*
X146383950Y-105518879D01*
X146345632Y-105512810D01*
X146311065Y-105495197D01*
X146296269Y-105482560D01*
X146250075Y-105436366D01*
X146250072Y-105436363D01*
X146194511Y-105397871D01*
X146194509Y-105397870D01*
X146194506Y-105397868D01*
X146132969Y-105369917D01*
X146064381Y-105352634D01*
X146028707Y-105337386D01*
X145999492Y-105311861D01*
X145979594Y-105278557D01*
X145970961Y-105240734D01*
X145974439Y-105202094D01*
X145988157Y-105168919D01*
X145990548Y-105164908D01*
X146017085Y-105096900D01*
X146032066Y-105025452D01*
X146033950Y-104995103D01*
X146033950Y-104606455D01*
X146033863Y-104605061D01*
X146033895Y-104604721D01*
X146033890Y-104604530D01*
X146033914Y-104604529D01*
X146037541Y-104566446D01*
X146052972Y-104530852D01*
X146078648Y-104501768D01*
X146095619Y-104489981D01*
X146148462Y-104459473D01*
X146221313Y-104403573D01*
X146286244Y-104338642D01*
X146342144Y-104265791D01*
X146388057Y-104186267D01*
X146423198Y-104101430D01*
X146446964Y-104012733D01*
X146458950Y-103921692D01*
X146458950Y-103829866D01*
X146446964Y-103738825D01*
X146423198Y-103650128D01*
X146388057Y-103565291D01*
X146378345Y-103548470D01*
X146342147Y-103485771D01*
X146342146Y-103485769D01*
X146286245Y-103412917D01*
X146286239Y-103412910D01*
X146221318Y-103347989D01*
X146221311Y-103347983D01*
X146148459Y-103292082D01*
X146148457Y-103292081D01*
X146068954Y-103246181D01*
X146068941Y-103246174D01*
X146068942Y-103246174D01*
X146068938Y-103246172D01*
X145984101Y-103211031D01*
X145979667Y-103209843D01*
X145965349Y-103206006D01*
X145895404Y-103187265D01*
X145880184Y-103185261D01*
X145804370Y-103175279D01*
X145804363Y-103175279D01*
X145712537Y-103175279D01*
X145712529Y-103175279D01*
X145625883Y-103186687D01*
X145621496Y-103187265D01*
X145591930Y-103195187D01*
X145532805Y-103211029D01*
X145532801Y-103211030D01*
X145532799Y-103211031D01*
X145447962Y-103246172D01*
X145447959Y-103246173D01*
X145447958Y-103246174D01*
X145447945Y-103246181D01*
X145368442Y-103292081D01*
X145368440Y-103292082D01*
X145295588Y-103347983D01*
X145295581Y-103347989D01*
X145230660Y-103412910D01*
X145230654Y-103412917D01*
X145174753Y-103485769D01*
X145174752Y-103485771D01*
X145128852Y-103565274D01*
X145128845Y-103565287D01*
X145093703Y-103650126D01*
X145093700Y-103650134D01*
X145069937Y-103738822D01*
X145069935Y-103738833D01*
X145057950Y-103829858D01*
X145057950Y-103921690D01*
X145060318Y-103939682D01*
X145060104Y-103947822D01*
X145061378Y-103955863D01*
X145059599Y-103967093D01*
X145059301Y-103978465D01*
X145055309Y-103994181D01*
X145039350Y-104043298D01*
X145021737Y-104077865D01*
X144994305Y-104105298D01*
X144959737Y-104122911D01*
X144921419Y-104128980D01*
X144883101Y-104122911D01*
X144848534Y-104105298D01*
X144821101Y-104077866D01*
X144814031Y-104066979D01*
X144813058Y-104065294D01*
X144813057Y-104065291D01*
X144767144Y-103985767D01*
X144725653Y-103931694D01*
X144711245Y-103912917D01*
X144711239Y-103912910D01*
X144646318Y-103847989D01*
X144646311Y-103847983D01*
X144573459Y-103792082D01*
X144573457Y-103792081D01*
X144493954Y-103746181D01*
X144493941Y-103746174D01*
X144493942Y-103746174D01*
X144493938Y-103746172D01*
X144409101Y-103711031D01*
X144320404Y-103687265D01*
X144305184Y-103685261D01*
X144229370Y-103675279D01*
X144229363Y-103675279D01*
X144137537Y-103675279D01*
X144137529Y-103675279D01*
X144050883Y-103686687D01*
X144046496Y-103687265D01*
X144016930Y-103695187D01*
X143957805Y-103711029D01*
X143957801Y-103711030D01*
X143957799Y-103711031D01*
X143872962Y-103746172D01*
X143872959Y-103746173D01*
X143872958Y-103746174D01*
X143872945Y-103746181D01*
X143793442Y-103792081D01*
X143793440Y-103792082D01*
X143720588Y-103847983D01*
X143720581Y-103847989D01*
X143655660Y-103912910D01*
X143655654Y-103912917D01*
X143599753Y-103985769D01*
X143599752Y-103985771D01*
X143553852Y-104065274D01*
X143553845Y-104065287D01*
X143553843Y-104065291D01*
X143518702Y-104150128D01*
X143495387Y-104237144D01*
X143494937Y-104238822D01*
X143494935Y-104238833D01*
X143482950Y-104329858D01*
X143482950Y-104421699D01*
X143491205Y-104484395D01*
X143494936Y-104512733D01*
X143518702Y-104601430D01*
X143553843Y-104686267D01*
X143553845Y-104686270D01*
X143553852Y-104686283D01*
X143599752Y-104765786D01*
X143602010Y-104769165D01*
X143601517Y-104769494D01*
X143617416Y-104798777D01*
X143624486Y-104836923D01*
X143619421Y-104875387D01*
X143602718Y-104910403D01*
X143588211Y-104927847D01*
X143559018Y-104957039D01*
X143512248Y-105020411D01*
X143512244Y-105020417D01*
X143475445Y-105090047D01*
X143449431Y-105164389D01*
X143434792Y-105241762D01*
X143434790Y-105241779D01*
X143432950Y-105274538D01*
X143432950Y-105648167D01*
X143426881Y-105686485D01*
X143409268Y-105721052D01*
X143396632Y-105735848D01*
X143318896Y-105813584D01*
X143279531Y-105867766D01*
X143249122Y-105927444D01*
X143246839Y-105934471D01*
X143244469Y-105941767D01*
X143244469Y-105941768D01*
X143228427Y-105991137D01*
X143228427Y-105991138D01*
X143217950Y-106057286D01*
X143217950Y-106315839D01*
X143211881Y-106354157D01*
X143194268Y-106388724D01*
X143188573Y-106395980D01*
X143143719Y-106448938D01*
X143143719Y-106448939D01*
X143106353Y-106511647D01*
X143106352Y-106511647D01*
X143079817Y-106579650D01*
X143079816Y-106579654D01*
X143064833Y-106651107D01*
X143062950Y-106681444D01*
X143062950Y-107070113D01*
X143064833Y-107100450D01*
X143079816Y-107171903D01*
X143079817Y-107171907D01*
X143089763Y-107197395D01*
X143106121Y-107239317D01*
X143106353Y-107239910D01*
X143143719Y-107302618D01*
X143143724Y-107302626D01*
X143190900Y-107358326D01*
X143190902Y-107358328D01*
X143246602Y-107405504D01*
X143246606Y-107405507D01*
X143246608Y-107405508D01*
X143294707Y-107434169D01*
X143309318Y-107442875D01*
X143309318Y-107442876D01*
X143361878Y-107463385D01*
X143377329Y-107469414D01*
X143401523Y-107474487D01*
X143437779Y-107488289D01*
X143467996Y-107512620D01*
X143489216Y-107545098D01*
X143499360Y-107582544D01*
X143497437Y-107621292D01*
X143496318Y-107626144D01*
X143486075Y-107666796D01*
X143486074Y-107666801D01*
X143482950Y-107706488D01*
X143482950Y-107895053D01*
X143482951Y-107895074D01*
X143486074Y-107934758D01*
X143502588Y-108000298D01*
X143504429Y-108005558D01*
X143503943Y-108005727D01*
X143512546Y-108036897D01*
X143510804Y-108075654D01*
X143504217Y-108095926D01*
X143504429Y-108096000D01*
X143502589Y-108101257D01*
X143486074Y-108166799D01*
X143486074Y-108166801D01*
X143482950Y-108206488D01*
X143482950Y-108395053D01*
X143482952Y-108395083D01*
X143483063Y-108396496D01*
X143483026Y-108396964D01*
X143483047Y-108397499D01*
X143482983Y-108397501D01*
X143480011Y-108435172D01*
X143465157Y-108471011D01*
X143439954Y-108500506D01*
X143406871Y-108520770D01*
X143369146Y-108529819D01*
X143330470Y-108526767D01*
X143302463Y-108515365D01*
X143302186Y-108515933D01*
X143297581Y-108513681D01*
X143229578Y-108487146D01*
X143229574Y-108487145D01*
X143229573Y-108487144D01*
X143229571Y-108487144D01*
X143201719Y-108481304D01*
X143158121Y-108472162D01*
X143127784Y-108470279D01*
X143127774Y-108470279D01*
X142946754Y-108470279D01*
X142937117Y-108468752D01*
X142927357Y-108468753D01*
X142918072Y-108465736D01*
X142908436Y-108464210D01*
X142890463Y-108456765D01*
X142890459Y-108456764D01*
X142851939Y-108437137D01*
X142851937Y-108437135D01*
X142851933Y-108437134D01*
X142837185Y-108429619D01*
X142777237Y-108410141D01*
X142730536Y-108402744D01*
X142714970Y-108400279D01*
X142714969Y-108400279D01*
X142536258Y-108400279D01*
X142497940Y-108394210D01*
X142463373Y-108376597D01*
X142435940Y-108349164D01*
X142418327Y-108314597D01*
X142415234Y-108302856D01*
X142414838Y-108301449D01*
X142414836Y-108301436D01*
X142387429Y-108225658D01*
X142382132Y-108215802D01*
X142349281Y-108154678D01*
X142349276Y-108154671D01*
X142301210Y-108090016D01*
X142301207Y-108090012D01*
X142301203Y-108090007D01*
X142301199Y-108090003D01*
X142301194Y-108089997D01*
X142244231Y-108033034D01*
X142244224Y-108033028D01*
X142244222Y-108033026D01*
X142244217Y-108033022D01*
X142244212Y-108033018D01*
X142179557Y-107984952D01*
X142179550Y-107984947D01*
X142108576Y-107946802D01*
X142108569Y-107946799D01*
X142032806Y-107919397D01*
X142032799Y-107919395D01*
X142032793Y-107919393D01*
X141953831Y-107903311D01*
X141906462Y-107900279D01*
X140960438Y-107900279D01*
X140913069Y-107903311D01*
X140834107Y-107919393D01*
X140834102Y-107919394D01*
X140834093Y-107919397D01*
X140758330Y-107946799D01*
X140758323Y-107946802D01*
X140687349Y-107984947D01*
X140687342Y-107984952D01*
X140622687Y-108033018D01*
X140622668Y-108033034D01*
X140565705Y-108089997D01*
X140565689Y-108090016D01*
X140517623Y-108154671D01*
X140517618Y-108154678D01*
X140479473Y-108225652D01*
X140479470Y-108225659D01*
X140452068Y-108301422D01*
X140452065Y-108301431D01*
X140452064Y-108301436D01*
X140435982Y-108380398D01*
X140432950Y-108427767D01*
X140432950Y-108427776D01*
X140432950Y-109126279D01*
X140426881Y-109164597D01*
X140409268Y-109199164D01*
X140381835Y-109226597D01*
X140347268Y-109244210D01*
X140308950Y-109250279D01*
X140051926Y-109250279D01*
X139989668Y-109260139D01*
X139989654Y-109260143D01*
X139929717Y-109279618D01*
X139929704Y-109279624D01*
X139909318Y-109290010D01*
X139909319Y-109290011D01*
X139873543Y-109308239D01*
X139861624Y-109316900D01*
X139861623Y-109316900D01*
X139822542Y-109345293D01*
X139822537Y-109345297D01*
X139603876Y-109563960D01*
X139572490Y-109586764D01*
X139535593Y-109598752D01*
X139516195Y-109600279D01*
X138760438Y-109600279D01*
X138713069Y-109603311D01*
X138634107Y-109619393D01*
X138634102Y-109619394D01*
X138634093Y-109619397D01*
X138558330Y-109646799D01*
X138558323Y-109646802D01*
X138487349Y-109684947D01*
X138487342Y-109684952D01*
X138422687Y-109733018D01*
X138422668Y-109733034D01*
X138365705Y-109789997D01*
X138365689Y-109790016D01*
X138317623Y-109854671D01*
X138317618Y-109854678D01*
X138279473Y-109925652D01*
X138279471Y-109925656D01*
X138279471Y-109925658D01*
X138276180Y-109934758D01*
X138252068Y-110001422D01*
X138252065Y-110001431D01*
X138252064Y-110001436D01*
X138235982Y-110080398D01*
X138232950Y-110127767D01*
X138232950Y-110873791D01*
X138235982Y-110921160D01*
X138252064Y-111000122D01*
X138252066Y-111000128D01*
X138252068Y-111000135D01*
X138279470Y-111075898D01*
X138279473Y-111075905D01*
X138317618Y-111146879D01*
X138317623Y-111146886D01*
X138365689Y-111211541D01*
X138365705Y-111211560D01*
X138422668Y-111268523D01*
X138422674Y-111268528D01*
X138422678Y-111268532D01*
X138422683Y-111268536D01*
X138422687Y-111268539D01*
X138487342Y-111316605D01*
X138487349Y-111316610D01*
X138558323Y-111354755D01*
X138558329Y-111354758D01*
X138634107Y-111382165D01*
X138713069Y-111398247D01*
X138760438Y-111401279D01*
X138760447Y-111401279D01*
X139706453Y-111401279D01*
X139706462Y-111401279D01*
X139753831Y-111398247D01*
X139832793Y-111382165D01*
X139908571Y-111354758D01*
X139979552Y-111316609D01*
X140044222Y-111268532D01*
X140101203Y-111211551D01*
X140149280Y-111146881D01*
X140187429Y-111075900D01*
X140214836Y-111000122D01*
X140230918Y-110921160D01*
X140233950Y-110873791D01*
X140233950Y-110175279D01*
X140240019Y-110136961D01*
X140257632Y-110102394D01*
X140285065Y-110074961D01*
X140319632Y-110057348D01*
X140357950Y-110051279D01*
X142198950Y-110051279D01*
X142237268Y-110057348D01*
X142271835Y-110074961D01*
X142299268Y-110102394D01*
X142316881Y-110136961D01*
X142322950Y-110175279D01*
X142322950Y-110255113D01*
X142324833Y-110285450D01*
X142339816Y-110356903D01*
X142339817Y-110356907D01*
X142366353Y-110424910D01*
X142403719Y-110487618D01*
X142403724Y-110487626D01*
X142450900Y-110543326D01*
X142450902Y-110543328D01*
X142506602Y-110590504D01*
X142506606Y-110590507D01*
X142506608Y-110590508D01*
X142565424Y-110625555D01*
X142569318Y-110627875D01*
X142569318Y-110627876D01*
X142569321Y-110627877D01*
X142637329Y-110654414D01*
X142708777Y-110669395D01*
X142739126Y-110671279D01*
X142968046Y-110671279D01*
X143006357Y-110677346D01*
X143006365Y-110677348D01*
X143019683Y-110681675D01*
X143019685Y-110681676D01*
X143019687Y-110681676D01*
X143019689Y-110681677D01*
X143049663Y-110691416D01*
X143049666Y-110691417D01*
X143111930Y-110701279D01*
X143358951Y-110701279D01*
X143397269Y-110707348D01*
X143431836Y-110724961D01*
X143459269Y-110752394D01*
X143476882Y-110786961D01*
X143482951Y-110825279D01*
X143482951Y-110895074D01*
X143486074Y-110934758D01*
X143502589Y-111000301D01*
X143530539Y-111061835D01*
X143530541Y-111061838D01*
X143530542Y-111061840D01*
X143569034Y-111117401D01*
X143569037Y-111117404D01*
X143615231Y-111163598D01*
X143638035Y-111194984D01*
X143650023Y-111231881D01*
X143650023Y-111270677D01*
X143638035Y-111307574D01*
X143615231Y-111338960D01*
X143583845Y-111361764D01*
X143546948Y-111373752D01*
X143527550Y-111375279D01*
X143149958Y-111375279D01*
X143083808Y-111385756D01*
X143020123Y-111406448D01*
X143020115Y-111406451D01*
X143020115Y-111406452D01*
X142991226Y-111421172D01*
X142980249Y-111426764D01*
X142943355Y-111438752D01*
X142923957Y-111440279D01*
X142769115Y-111440279D01*
X142738778Y-111442162D01*
X142679435Y-111454605D01*
X142667329Y-111457144D01*
X142667328Y-111457144D01*
X142667325Y-111457145D01*
X142667321Y-111457146D01*
X142599318Y-111483681D01*
X142599318Y-111483682D01*
X142536610Y-111521048D01*
X142536602Y-111521053D01*
X142480902Y-111568229D01*
X142480900Y-111568231D01*
X142433724Y-111623931D01*
X142433719Y-111623939D01*
X142396353Y-111686647D01*
X142396352Y-111686647D01*
X142369817Y-111754650D01*
X142369816Y-111754654D01*
X142354833Y-111826107D01*
X142352950Y-111856444D01*
X142352950Y-111978168D01*
X142346881Y-112016486D01*
X142329268Y-112051053D01*
X142316631Y-112065849D01*
X141893519Y-112488960D01*
X141862133Y-112511764D01*
X141825236Y-112523752D01*
X141805838Y-112525279D01*
X141432209Y-112525279D01*
X141432187Y-112525280D01*
X141399455Y-112527118D01*
X141399450Y-112527118D01*
X141399448Y-112527119D01*
X141376232Y-112531511D01*
X141322055Y-112541761D01*
X141247718Y-112567774D01*
X141178088Y-112604573D01*
X141178082Y-112604577D01*
X141114709Y-112651348D01*
X141059019Y-112707038D01*
X141012248Y-112770411D01*
X141012244Y-112770417D01*
X140975445Y-112840047D01*
X140949431Y-112914389D01*
X140934792Y-112991762D01*
X140934790Y-112991773D01*
X140934790Y-112991777D01*
X140934007Y-113005727D01*
X140932950Y-113024538D01*
X140932950Y-113577019D01*
X140932951Y-113577041D01*
X140934789Y-113609773D01*
X140934789Y-113609777D01*
X140934790Y-113609781D01*
X140934793Y-113609795D01*
X140949432Y-113687173D01*
X140975445Y-113761510D01*
X141012244Y-113831140D01*
X141012248Y-113831146D01*
X141059019Y-113894519D01*
X141114705Y-113950205D01*
X141114714Y-113950213D01*
X141115798Y-113951013D01*
X141116655Y-113951883D01*
X141118226Y-113953235D01*
X141118114Y-113953364D01*
X141143023Y-113978651D01*
X141160375Y-114013350D01*
X141166155Y-114051713D01*
X141159798Y-114089984D01*
X141141925Y-114124418D01*
X141135198Y-114132753D01*
X141126444Y-114142688D01*
X141114711Y-114151348D01*
X141059019Y-114207040D01*
X141012248Y-114270412D01*
X141009756Y-114275127D01*
X141001489Y-114284510D01*
X140994159Y-114290577D01*
X140987898Y-114297741D01*
X140979311Y-114302868D01*
X140971604Y-114309249D01*
X140962757Y-114312754D01*
X140954590Y-114317632D01*
X140944836Y-114319856D01*
X140935537Y-114323541D01*
X140926043Y-114324141D01*
X140916765Y-114326257D01*
X140906799Y-114325357D01*
X140896818Y-114325989D01*
X140887602Y-114323625D01*
X140878126Y-114322771D01*
X140868928Y-114318837D01*
X140859239Y-114316353D01*
X140851205Y-114311258D01*
X140842455Y-114307516D01*
X140834921Y-114300930D01*
X140826476Y-114295575D01*
X140820408Y-114288245D01*
X140813245Y-114281984D01*
X140807499Y-114274076D01*
X140807407Y-114274145D01*
X140757880Y-114207038D01*
X140702190Y-114151348D01*
X140638817Y-114104577D01*
X140638811Y-114104573D01*
X140569181Y-114067774D01*
X140494839Y-114041760D01*
X140417466Y-114027121D01*
X140417456Y-114027119D01*
X140417452Y-114027119D01*
X140384693Y-114025279D01*
X140384684Y-114025279D01*
X139882209Y-114025279D01*
X139882187Y-114025280D01*
X139849455Y-114027118D01*
X139849450Y-114027118D01*
X139849448Y-114027119D01*
X139826356Y-114031488D01*
X139772055Y-114041761D01*
X139697718Y-114067774D01*
X139628088Y-114104573D01*
X139628082Y-114104577D01*
X139564709Y-114151348D01*
X139509017Y-114207040D01*
X139506480Y-114209989D01*
X139476885Y-114235074D01*
X139440987Y-114249785D01*
X139402300Y-114252683D01*
X139364610Y-114243485D01*
X139337008Y-114227479D01*
X139323459Y-114217082D01*
X139323457Y-114217081D01*
X139243954Y-114171181D01*
X139243941Y-114171174D01*
X139243942Y-114171174D01*
X139243938Y-114171172D01*
X139159101Y-114136031D01*
X139070404Y-114112265D01*
X139055184Y-114110261D01*
X138979370Y-114100279D01*
X138979363Y-114100279D01*
X138887537Y-114100279D01*
X138887529Y-114100279D01*
X138800883Y-114111687D01*
X138796496Y-114112265D01*
X138766930Y-114120187D01*
X138707805Y-114136029D01*
X138707801Y-114136030D01*
X138707799Y-114136031D01*
X138622962Y-114171172D01*
X138622959Y-114171173D01*
X138622958Y-114171174D01*
X138622945Y-114171181D01*
X138543442Y-114217081D01*
X138543440Y-114217082D01*
X138470588Y-114272983D01*
X138470581Y-114272989D01*
X138405660Y-114337910D01*
X138405654Y-114337917D01*
X138349753Y-114410769D01*
X138349752Y-114410771D01*
X138303852Y-114490274D01*
X138303845Y-114490287D01*
X138303843Y-114490291D01*
X138268703Y-114575126D01*
X138268700Y-114575134D01*
X138255264Y-114625279D01*
X138245756Y-114660767D01*
X138244937Y-114663822D01*
X138244935Y-114663833D01*
X138232950Y-114754858D01*
X138232950Y-114846699D01*
X138241788Y-114913822D01*
X138244936Y-114937733D01*
X138268702Y-115026430D01*
X138303843Y-115111267D01*
X138303845Y-115111270D01*
X138303852Y-115111283D01*
X138349752Y-115190786D01*
X138349753Y-115190788D01*
X138405654Y-115263640D01*
X138405660Y-115263647D01*
X138470581Y-115328568D01*
X138470588Y-115328574D01*
X138543440Y-115384475D01*
X138543442Y-115384476D01*
X138579463Y-115405272D01*
X138622962Y-115430386D01*
X138707799Y-115465527D01*
X138796496Y-115489293D01*
X138887537Y-115501279D01*
X138887544Y-115501279D01*
X138979356Y-115501279D01*
X138979363Y-115501279D01*
X139070404Y-115489293D01*
X139159101Y-115465527D01*
X139243938Y-115430386D01*
X139323462Y-115384473D01*
X139337008Y-115374078D01*
X139371098Y-115355568D01*
X139409243Y-115348497D01*
X139447707Y-115353559D01*
X139482725Y-115370260D01*
X139506487Y-115391575D01*
X139509027Y-115394527D01*
X139564709Y-115450209D01*
X139585466Y-115465528D01*
X139628083Y-115496981D01*
X139628085Y-115496982D01*
X139628088Y-115496984D01*
X139640090Y-115503327D01*
X139697717Y-115533783D01*
X139772059Y-115559797D01*
X139849448Y-115574439D01*
X139882207Y-115576279D01*
X140006842Y-115576278D01*
X140045156Y-115582347D01*
X140079724Y-115599959D01*
X140107157Y-115627392D01*
X140124770Y-115661959D01*
X140130839Y-115700277D01*
X140124770Y-115738595D01*
X140107158Y-115773163D01*
X140094520Y-115787959D01*
X136750123Y-119132356D01*
X136718737Y-119155160D01*
X136681840Y-119167148D01*
X136643044Y-119167148D01*
X136614992Y-119159237D01*
X136571513Y-119141228D01*
X136533465Y-119129686D01*
X136463336Y-119108413D01*
X136408662Y-119097537D01*
X136352468Y-119086359D01*
X136352455Y-119086357D01*
X136261796Y-119077428D01*
X136239970Y-119075279D01*
X136126930Y-119075279D01*
X136107033Y-119077238D01*
X136014444Y-119086357D01*
X136014431Y-119086359D01*
X135903569Y-119108412D01*
X135903564Y-119108413D01*
X135903561Y-119108414D01*
X135795385Y-119141228D01*
X135690959Y-119184483D01*
X135690956Y-119184484D01*
X135591265Y-119237771D01*
X135591245Y-119237783D01*
X135497284Y-119300565D01*
X135497271Y-119300575D01*
X135409883Y-119372292D01*
X135329963Y-119452212D01*
X135258246Y-119539600D01*
X135258236Y-119539613D01*
X135195454Y-119633574D01*
X135195442Y-119633594D01*
X135142155Y-119733285D01*
X135142154Y-119733288D01*
X135098899Y-119837714D01*
X135066085Y-119945890D01*
X135066083Y-119945898D01*
X135044030Y-120056760D01*
X135044028Y-120056773D01*
X135032950Y-120169261D01*
X135032950Y-120432296D01*
X135044028Y-120544784D01*
X135044030Y-120544797D01*
X135055067Y-120600280D01*
X135066084Y-120655665D01*
X135066085Y-120655667D01*
X135098899Y-120763843D01*
X135142154Y-120868269D01*
X135142155Y-120868272D01*
X135195442Y-120967963D01*
X135195454Y-120967983D01*
X135258236Y-121061944D01*
X135258246Y-121061957D01*
X135329963Y-121149345D01*
X135409883Y-121229265D01*
X135497271Y-121300982D01*
X135497284Y-121300992D01*
X135591245Y-121363774D01*
X135591250Y-121363777D01*
X135591262Y-121363785D01*
X135690955Y-121417073D01*
X135735561Y-121435549D01*
X135795385Y-121460329D01*
X135795389Y-121460330D01*
X135795391Y-121460331D01*
X135903564Y-121493145D01*
X136014433Y-121515199D01*
X136126930Y-121526279D01*
X136126932Y-121526279D01*
X136239968Y-121526279D01*
X136239970Y-121526279D01*
X136352467Y-121515199D01*
X136463336Y-121493145D01*
X136571509Y-121460331D01*
X136675945Y-121417073D01*
X136775638Y-121363785D01*
X136869628Y-121300983D01*
X136957010Y-121229271D01*
X137036942Y-121149339D01*
X137108654Y-121061957D01*
X137171456Y-120967967D01*
X137224744Y-120868274D01*
X137268002Y-120763838D01*
X137300816Y-120655665D01*
X137311833Y-120600279D01*
X137325261Y-120563882D01*
X137349279Y-120533415D01*
X137381537Y-120511862D01*
X137418876Y-120501331D01*
X137457642Y-120502855D01*
X137494040Y-120516283D01*
X137524507Y-120540301D01*
X137546060Y-120572559D01*
X137555066Y-120600278D01*
X137566084Y-120655665D01*
X137566085Y-120655667D01*
X137598899Y-120763843D01*
X137642154Y-120868269D01*
X137642155Y-120868272D01*
X137695442Y-120967963D01*
X137695454Y-120967983D01*
X137758236Y-121061944D01*
X137758246Y-121061957D01*
X137829963Y-121149345D01*
X137909883Y-121229265D01*
X137997271Y-121300982D01*
X137997284Y-121300992D01*
X138091245Y-121363774D01*
X138091250Y-121363777D01*
X138091262Y-121363785D01*
X138190955Y-121417073D01*
X138235561Y-121435549D01*
X138295385Y-121460329D01*
X138295389Y-121460330D01*
X138295391Y-121460331D01*
X138403564Y-121493145D01*
X138514433Y-121515199D01*
X138626930Y-121526279D01*
X138626932Y-121526279D01*
X138739968Y-121526279D01*
X138739970Y-121526279D01*
X138852467Y-121515199D01*
X138963336Y-121493145D01*
X139071509Y-121460331D01*
X139175945Y-121417073D01*
X139275638Y-121363785D01*
X139369628Y-121300983D01*
X139457010Y-121229271D01*
X139536942Y-121149339D01*
X139608654Y-121061957D01*
X139671456Y-120967967D01*
X139724744Y-120868274D01*
X139768002Y-120763838D01*
X139800816Y-120655665D01*
X139811833Y-120600279D01*
X139825261Y-120563882D01*
X139849279Y-120533415D01*
X139881537Y-120511862D01*
X139918876Y-120501331D01*
X139957642Y-120502855D01*
X139994040Y-120516283D01*
X140024507Y-120540301D01*
X140046060Y-120572559D01*
X140055066Y-120600278D01*
X140066084Y-120655665D01*
X140066085Y-120655667D01*
X140098899Y-120763843D01*
X140142154Y-120868269D01*
X140142155Y-120868272D01*
X140195442Y-120967963D01*
X140195454Y-120967983D01*
X140258236Y-121061944D01*
X140258246Y-121061957D01*
X140329963Y-121149345D01*
X140409883Y-121229265D01*
X140497271Y-121300982D01*
X140497275Y-121300985D01*
X140551646Y-121337315D01*
X140580135Y-121363650D01*
X140599091Y-121397499D01*
X140606659Y-121435549D01*
X140602099Y-121474076D01*
X140590143Y-121502415D01*
X140553849Y-121565278D01*
X140553845Y-121565287D01*
X140518703Y-121650126D01*
X140518700Y-121650134D01*
X140494937Y-121738822D01*
X140494935Y-121738833D01*
X140482950Y-121829858D01*
X140482950Y-121921699D01*
X140492932Y-121997513D01*
X140494936Y-122012733D01*
X140518702Y-122101430D01*
X140553843Y-122186267D01*
X140553845Y-122186270D01*
X140553852Y-122186283D01*
X140599752Y-122265786D01*
X140599753Y-122265788D01*
X140655654Y-122338640D01*
X140655660Y-122338647D01*
X140720581Y-122403568D01*
X140720588Y-122403574D01*
X140793440Y-122459475D01*
X140793442Y-122459476D01*
X140856141Y-122495674D01*
X140872962Y-122505386D01*
X140957799Y-122540527D01*
X141046496Y-122564293D01*
X141137537Y-122576279D01*
X141137544Y-122576279D01*
X141229356Y-122576279D01*
X141229363Y-122576279D01*
X141320404Y-122564293D01*
X141409101Y-122540527D01*
X141493938Y-122505386D01*
X141573462Y-122459473D01*
X141646313Y-122403573D01*
X141711244Y-122338642D01*
X141767144Y-122265791D01*
X141813057Y-122186267D01*
X141848198Y-122101430D01*
X141871964Y-122012733D01*
X141883950Y-121921692D01*
X141883950Y-121829866D01*
X141871964Y-121738825D01*
X141848198Y-121650128D01*
X141813057Y-121565291D01*
X141813049Y-121565278D01*
X141776757Y-121502417D01*
X141762854Y-121466198D01*
X141760823Y-121427455D01*
X141770865Y-121389981D01*
X141791994Y-121357445D01*
X141815253Y-121337315D01*
X141869628Y-121300983D01*
X141957010Y-121229271D01*
X142036942Y-121149339D01*
X142108654Y-121061957D01*
X142171456Y-120967967D01*
X142224744Y-120868274D01*
X142268002Y-120763838D01*
X142300816Y-120655665D01*
X142322870Y-120544796D01*
X142333950Y-120432299D01*
X142333950Y-120169259D01*
X142322870Y-120056762D01*
X142300816Y-119945893D01*
X142268002Y-119837720D01*
X142224744Y-119733284D01*
X142171456Y-119633591D01*
X142171445Y-119633574D01*
X142108663Y-119539613D01*
X142108653Y-119539600D01*
X142036942Y-119452219D01*
X142036940Y-119452217D01*
X142036936Y-119452212D01*
X141957016Y-119372292D01*
X141869628Y-119300575D01*
X141869615Y-119300565D01*
X141775654Y-119237783D01*
X141775643Y-119237776D01*
X141775638Y-119237773D01*
X141675945Y-119184485D01*
X141658652Y-119177322D01*
X141571514Y-119141228D01*
X141490242Y-119116575D01*
X141463336Y-119108413D01*
X141408662Y-119097537D01*
X141352468Y-119086359D01*
X141352455Y-119086357D01*
X141261796Y-119077428D01*
X141239970Y-119075279D01*
X141126930Y-119075279D01*
X141107033Y-119077238D01*
X141014444Y-119086357D01*
X141014431Y-119086359D01*
X140903569Y-119108412D01*
X140903564Y-119108413D01*
X140903561Y-119108414D01*
X140795382Y-119141229D01*
X140772740Y-119150608D01*
X140735016Y-119159664D01*
X140696340Y-119156619D01*
X140660498Y-119141771D01*
X140630998Y-119116575D01*
X140610729Y-119083495D01*
X140601673Y-119045771D01*
X140604718Y-119007095D01*
X140619566Y-118971253D01*
X140637605Y-118948370D01*
X144410879Y-115175098D01*
X144442265Y-115152294D01*
X144479162Y-115140306D01*
X144498560Y-115138779D01*
X145358951Y-115138779D01*
X145397269Y-115144848D01*
X145431836Y-115162461D01*
X145459269Y-115189894D01*
X145476882Y-115224461D01*
X145482951Y-115262779D01*
X145482951Y-115395073D01*
X145486074Y-115434758D01*
X145502589Y-115500301D01*
X145530539Y-115561835D01*
X145530541Y-115561838D01*
X145530542Y-115561840D01*
X145569034Y-115617401D01*
X145616828Y-115665195D01*
X145672389Y-115703687D01*
X145672392Y-115703688D01*
X145672393Y-115703689D01*
X145733926Y-115731639D01*
X145733927Y-115731639D01*
X145733929Y-115731640D01*
X145799471Y-115748155D01*
X145839163Y-115751279D01*
X145888902Y-115751278D01*
X145898541Y-115752805D01*
X145908298Y-115752805D01*
X145917575Y-115755819D01*
X145927216Y-115757346D01*
X145935913Y-115761777D01*
X145945195Y-115764793D01*
X145953088Y-115770528D01*
X145961783Y-115774958D01*
X145968686Y-115781860D01*
X145976581Y-115787597D01*
X145982315Y-115795490D01*
X145989217Y-115802391D01*
X145993647Y-115811086D01*
X145999385Y-115818983D01*
X146002400Y-115828265D01*
X146006830Y-115836958D01*
X146011373Y-115855880D01*
X146015880Y-115884336D01*
X146015880Y-115884341D01*
X146015881Y-115884341D01*
X146018425Y-115900411D01*
X146018427Y-115900417D01*
X146039123Y-115964115D01*
X146069530Y-116023790D01*
X146108896Y-116077973D01*
X147656202Y-117625279D01*
X149090786Y-119059862D01*
X149113590Y-119091248D01*
X149125578Y-119128145D01*
X149125578Y-119166941D01*
X149113590Y-119203838D01*
X149090786Y-119235224D01*
X149071997Y-119250645D01*
X148997269Y-119300577D01*
X148909883Y-119372292D01*
X148829963Y-119452212D01*
X148758246Y-119539600D01*
X148758236Y-119539613D01*
X148695454Y-119633574D01*
X148695442Y-119633594D01*
X148642155Y-119733285D01*
X148642154Y-119733288D01*
X148598899Y-119837714D01*
X148566085Y-119945890D01*
X148566083Y-119945898D01*
X148544030Y-120056760D01*
X148544028Y-120056773D01*
X148532950Y-120169261D01*
X148532950Y-120432296D01*
X148544028Y-120544784D01*
X148544030Y-120544797D01*
X148555067Y-120600280D01*
X148566084Y-120655665D01*
X148566085Y-120655667D01*
X148598899Y-120763843D01*
X148642154Y-120868269D01*
X148642155Y-120868272D01*
X148695442Y-120967963D01*
X148695454Y-120967983D01*
X148758236Y-121061944D01*
X148758246Y-121061957D01*
X148829963Y-121149345D01*
X148909883Y-121229265D01*
X148997271Y-121300982D01*
X148997284Y-121300992D01*
X149091245Y-121363774D01*
X149091250Y-121363777D01*
X149091262Y-121363785D01*
X149190955Y-121417073D01*
X149235561Y-121435549D01*
X149295385Y-121460329D01*
X149295389Y-121460330D01*
X149295391Y-121460331D01*
X149403564Y-121493145D01*
X149514433Y-121515199D01*
X149626930Y-121526279D01*
X149626932Y-121526279D01*
X149739968Y-121526279D01*
X149739970Y-121526279D01*
X149852467Y-121515199D01*
X149963336Y-121493145D01*
X150071509Y-121460331D01*
X150175945Y-121417073D01*
X150275638Y-121363785D01*
X150369628Y-121300983D01*
X150457010Y-121229271D01*
X150536942Y-121149339D01*
X150608654Y-121061957D01*
X150671456Y-120967967D01*
X150724744Y-120868274D01*
X150768002Y-120763838D01*
X150800816Y-120655665D01*
X150811833Y-120600279D01*
X150825261Y-120563882D01*
X150849279Y-120533415D01*
X150881537Y-120511862D01*
X150918876Y-120501331D01*
X150957642Y-120502855D01*
X150994040Y-120516283D01*
X151024507Y-120540301D01*
X151046060Y-120572559D01*
X151055066Y-120600278D01*
X151066084Y-120655665D01*
X151066085Y-120655667D01*
X151098899Y-120763843D01*
X151142154Y-120868269D01*
X151142155Y-120868272D01*
X151195442Y-120967963D01*
X151195454Y-120967983D01*
X151258236Y-121061944D01*
X151258246Y-121061957D01*
X151329963Y-121149345D01*
X151409883Y-121229265D01*
X151497271Y-121300982D01*
X151497284Y-121300992D01*
X151591245Y-121363774D01*
X151591250Y-121363777D01*
X151591262Y-121363785D01*
X151690955Y-121417073D01*
X151735561Y-121435549D01*
X151795385Y-121460329D01*
X151795389Y-121460330D01*
X151795391Y-121460331D01*
X151903564Y-121493145D01*
X152014433Y-121515199D01*
X152126930Y-121526279D01*
X152126932Y-121526279D01*
X152239968Y-121526279D01*
X152239970Y-121526279D01*
X152352467Y-121515199D01*
X152463336Y-121493145D01*
X152571509Y-121460331D01*
X152675945Y-121417073D01*
X152775638Y-121363785D01*
X152869628Y-121300983D01*
X152957010Y-121229271D01*
X153036942Y-121149339D01*
X153108654Y-121061957D01*
X153171456Y-120967967D01*
X153224744Y-120868274D01*
X153268002Y-120763838D01*
X153300816Y-120655665D01*
X153322870Y-120544796D01*
X153333950Y-120432299D01*
X153333950Y-120169259D01*
X153322870Y-120056762D01*
X153300816Y-119945893D01*
X153268002Y-119837720D01*
X153224744Y-119733284D01*
X153184895Y-119658733D01*
X153172184Y-119622078D01*
X153171422Y-119583290D01*
X153182684Y-119546165D01*
X153204867Y-119514337D01*
X153235799Y-119490921D01*
X153272454Y-119478210D01*
X153294253Y-119476279D01*
X159205840Y-119476279D01*
X159244158Y-119482348D01*
X159278725Y-119499961D01*
X159293521Y-119512598D01*
X159550939Y-119770016D01*
X159573743Y-119801402D01*
X159585731Y-119838299D01*
X159585731Y-119877095D01*
X159581919Y-119893692D01*
X159566085Y-119945889D01*
X159566083Y-119945898D01*
X159544030Y-120056760D01*
X159544028Y-120056773D01*
X159532950Y-120169261D01*
X159532950Y-120432296D01*
X159544028Y-120544784D01*
X159544030Y-120544797D01*
X159555067Y-120600280D01*
X159566084Y-120655665D01*
X159566085Y-120655667D01*
X159598899Y-120763843D01*
X159642154Y-120868269D01*
X159642155Y-120868272D01*
X159695442Y-120967963D01*
X159695454Y-120967983D01*
X159758236Y-121061944D01*
X159758246Y-121061957D01*
X159829963Y-121149345D01*
X159909883Y-121229265D01*
X159997271Y-121300982D01*
X159997284Y-121300992D01*
X160091245Y-121363774D01*
X160091250Y-121363777D01*
X160091262Y-121363785D01*
X160190955Y-121417073D01*
X160235561Y-121435549D01*
X160295385Y-121460329D01*
X160295389Y-121460330D01*
X160295391Y-121460331D01*
X160403564Y-121493145D01*
X160514433Y-121515199D01*
X160626930Y-121526279D01*
X160626932Y-121526279D01*
X160739968Y-121526279D01*
X160739970Y-121526279D01*
X160852467Y-121515199D01*
X160963336Y-121493145D01*
X161071509Y-121460331D01*
X161175945Y-121417073D01*
X161275638Y-121363785D01*
X161369628Y-121300983D01*
X161457010Y-121229271D01*
X161536942Y-121149339D01*
X161608654Y-121061957D01*
X161671456Y-120967967D01*
X161724744Y-120868274D01*
X161768002Y-120763838D01*
X161800816Y-120655665D01*
X161811833Y-120600279D01*
X161825261Y-120563882D01*
X161849279Y-120533415D01*
X161881537Y-120511862D01*
X161918876Y-120501331D01*
X161957642Y-120502855D01*
X161994040Y-120516283D01*
X162024507Y-120540301D01*
X162046060Y-120572559D01*
X162055066Y-120600278D01*
X162066084Y-120655665D01*
X162066085Y-120655667D01*
X162098899Y-120763843D01*
X162142154Y-120868269D01*
X162142155Y-120868272D01*
X162195442Y-120967963D01*
X162195454Y-120967983D01*
X162258236Y-121061944D01*
X162258246Y-121061957D01*
X162329963Y-121149345D01*
X162409883Y-121229265D01*
X162497271Y-121300982D01*
X162497284Y-121300992D01*
X162591245Y-121363774D01*
X162591250Y-121363777D01*
X162591262Y-121363785D01*
X162690955Y-121417073D01*
X162735561Y-121435549D01*
X162795385Y-121460329D01*
X162795389Y-121460330D01*
X162795391Y-121460331D01*
X162903564Y-121493145D01*
X163014433Y-121515199D01*
X163126930Y-121526279D01*
X163126932Y-121526279D01*
X163239968Y-121526279D01*
X163239970Y-121526279D01*
X163352467Y-121515199D01*
X163463336Y-121493145D01*
X163571509Y-121460331D01*
X163675945Y-121417073D01*
X163775638Y-121363785D01*
X163869628Y-121300983D01*
X163957010Y-121229271D01*
X164036942Y-121149339D01*
X164108654Y-121061957D01*
X164171456Y-120967967D01*
X164224744Y-120868274D01*
X164268002Y-120763838D01*
X164300816Y-120655665D01*
X164322870Y-120544796D01*
X164333950Y-120432299D01*
X164333950Y-120169259D01*
X164322870Y-120056762D01*
X164300816Y-119945893D01*
X164268002Y-119837720D01*
X164224744Y-119733284D01*
X164171456Y-119633591D01*
X164171445Y-119633574D01*
X164108663Y-119539613D01*
X164108653Y-119539600D01*
X164036942Y-119452219D01*
X164036940Y-119452217D01*
X164036936Y-119452212D01*
X163957016Y-119372292D01*
X163869628Y-119300575D01*
X163869615Y-119300565D01*
X163775654Y-119237783D01*
X163775643Y-119237776D01*
X163775638Y-119237773D01*
X163675945Y-119184485D01*
X163658652Y-119177322D01*
X163571514Y-119141228D01*
X163490242Y-119116575D01*
X163463336Y-119108413D01*
X163408662Y-119097537D01*
X163352468Y-119086359D01*
X163352455Y-119086357D01*
X163261796Y-119077428D01*
X163239970Y-119075279D01*
X163126930Y-119075279D01*
X163107033Y-119077238D01*
X163014444Y-119086357D01*
X163014431Y-119086359D01*
X162903569Y-119108412D01*
X162903564Y-119108413D01*
X162903561Y-119108414D01*
X162795390Y-119141227D01*
X162751908Y-119159238D01*
X162714185Y-119168294D01*
X162675508Y-119165250D01*
X162639666Y-119150403D01*
X162616776Y-119132357D01*
X161210644Y-117726225D01*
X161156462Y-117686860D01*
X161156463Y-117686860D01*
X161156461Y-117686859D01*
X161096786Y-117656452D01*
X161096785Y-117656451D01*
X161096780Y-117656449D01*
X161033095Y-117635757D01*
X161033090Y-117635756D01*
X160966942Y-117625279D01*
X160966938Y-117625279D01*
X150550510Y-117625279D01*
X150512192Y-117619210D01*
X150477625Y-117601597D01*
X150462829Y-117588960D01*
X149887936Y-117014067D01*
X149865132Y-116982681D01*
X149853144Y-116945784D01*
X149853144Y-116906988D01*
X149865132Y-116870091D01*
X149887936Y-116838705D01*
X149919322Y-116815901D01*
X149956219Y-116803913D01*
X149995015Y-116803913D01*
X150031912Y-116815901D01*
X150039084Y-116819859D01*
X150056956Y-116830509D01*
X150069321Y-116837877D01*
X150132636Y-116862583D01*
X150137329Y-116864414D01*
X150208777Y-116879395D01*
X150239126Y-116881279D01*
X150239138Y-116881279D01*
X150627762Y-116881279D01*
X150627774Y-116881279D01*
X150658123Y-116879395D01*
X150729571Y-116864414D01*
X150797579Y-116837877D01*
X150860292Y-116800508D01*
X150872076Y-116790528D01*
X150915997Y-116753328D01*
X150915999Y-116753326D01*
X150963175Y-116697626D01*
X150963175Y-116697624D01*
X150963179Y-116697621D01*
X151000548Y-116634908D01*
X151027085Y-116566900D01*
X151042066Y-116495452D01*
X151043950Y-116465103D01*
X151043950Y-116136455D01*
X151042066Y-116106106D01*
X151027085Y-116034658D01*
X151000548Y-115966650D01*
X150963179Y-115903937D01*
X150963178Y-115903935D01*
X150963175Y-115903931D01*
X150916000Y-115848232D01*
X150902807Y-115837058D01*
X150893118Y-115825808D01*
X150882632Y-115815322D01*
X150880523Y-115811184D01*
X150877490Y-115807662D01*
X150871752Y-115793970D01*
X150865019Y-115780755D01*
X150864292Y-115776166D01*
X150862496Y-115771880D01*
X150858950Y-115742437D01*
X150858950Y-115706679D01*
X150865019Y-115668361D01*
X150882632Y-115633794D01*
X150910065Y-115606361D01*
X150944632Y-115588748D01*
X150982950Y-115582679D01*
X151021268Y-115588748D01*
X151055835Y-115606361D01*
X151070631Y-115618998D01*
X151116828Y-115665195D01*
X151172389Y-115703687D01*
X151172392Y-115703688D01*
X151172393Y-115703689D01*
X151189971Y-115711673D01*
X151233929Y-115731640D01*
X151239021Y-115732923D01*
X151274696Y-115748170D01*
X151296407Y-115765484D01*
X151816631Y-116285708D01*
X151839435Y-116317094D01*
X151851423Y-116353991D01*
X151852950Y-116373389D01*
X151852950Y-116495113D01*
X151854833Y-116525450D01*
X151863525Y-116566900D01*
X151868083Y-116588642D01*
X151869816Y-116596903D01*
X151869817Y-116596907D01*
X151896353Y-116664910D01*
X151933719Y-116727618D01*
X151933724Y-116727626D01*
X151980900Y-116783326D01*
X151980902Y-116783328D01*
X152036602Y-116830504D01*
X152036606Y-116830507D01*
X152036608Y-116830508D01*
X152093509Y-116864414D01*
X152099318Y-116867875D01*
X152099318Y-116867876D01*
X152133667Y-116881279D01*
X152167329Y-116894414D01*
X152238777Y-116909395D01*
X152269126Y-116911279D01*
X152269138Y-116911279D01*
X152597762Y-116911279D01*
X152597774Y-116911279D01*
X152628123Y-116909395D01*
X152699571Y-116894414D01*
X152767579Y-116867877D01*
X152767581Y-116867876D01*
X152772186Y-116865625D01*
X152772653Y-116866581D01*
X152799797Y-116855699D01*
X152838505Y-116853096D01*
X152876123Y-116862583D01*
X152902855Y-116878221D01*
X152909987Y-116883694D01*
X152909992Y-116883697D01*
X152957765Y-116911278D01*
X152989512Y-116929607D01*
X153074349Y-116964748D01*
X153163046Y-116988514D01*
X153254087Y-117000500D01*
X153254094Y-117000500D01*
X153345906Y-117000500D01*
X153345913Y-117000500D01*
X153436954Y-116988514D01*
X153525651Y-116964748D01*
X153610488Y-116929607D01*
X153690012Y-116883694D01*
X153762863Y-116827794D01*
X153827794Y-116762863D01*
X153883694Y-116690012D01*
X153929607Y-116610488D01*
X153964748Y-116525651D01*
X153988514Y-116436954D01*
X154000500Y-116345913D01*
X154000500Y-116254087D01*
X153988514Y-116163046D01*
X153964748Y-116074349D01*
X153929607Y-115989512D01*
X153914277Y-115962959D01*
X153883697Y-115909992D01*
X153883696Y-115909990D01*
X153827795Y-115837138D01*
X153827789Y-115837131D01*
X153762868Y-115772210D01*
X153759812Y-115769530D01*
X153760321Y-115768948D01*
X153758888Y-115767437D01*
X153751899Y-115762261D01*
X153745620Y-115753450D01*
X153738175Y-115745601D01*
X153734432Y-115737750D01*
X153729385Y-115730667D01*
X153726136Y-115720346D01*
X153721481Y-115710581D01*
X153720347Y-115701956D01*
X153717736Y-115693661D01*
X153717835Y-115682844D01*
X153716425Y-115672116D01*
X153718012Y-115663563D01*
X153718092Y-115654867D01*
X153721530Y-115644607D01*
X153723504Y-115633971D01*
X153727655Y-115626329D01*
X153730419Y-115618082D01*
X153735280Y-115612292D01*
X153742023Y-115599881D01*
X153753510Y-115586906D01*
X153758901Y-115581613D01*
X153762863Y-115578573D01*
X153809540Y-115531895D01*
X153809925Y-115531518D01*
X153825286Y-115520571D01*
X153840501Y-115509517D01*
X153841048Y-115509338D01*
X153841519Y-115509004D01*
X153859480Y-115503349D01*
X153877398Y-115497528D01*
X153877975Y-115497527D01*
X153878525Y-115497355D01*
X153897321Y-115497527D01*
X153916194Y-115497527D01*
X153916744Y-115497705D01*
X153917319Y-115497711D01*
X153935156Y-115503688D01*
X153953091Y-115509516D01*
X153953644Y-115509883D01*
X153954104Y-115510038D01*
X153956114Y-115511527D01*
X153976939Y-115525379D01*
X154006609Y-115550509D01*
X154025617Y-115561835D01*
X154067691Y-115586906D01*
X154069318Y-115587875D01*
X154069318Y-115587876D01*
X154137321Y-115614411D01*
X154137329Y-115614414D01*
X154208777Y-115629395D01*
X154239126Y-115631279D01*
X154239138Y-115631279D01*
X154627762Y-115631279D01*
X154627774Y-115631279D01*
X154658123Y-115629395D01*
X154729571Y-115614414D01*
X154797579Y-115587877D01*
X154860292Y-115550508D01*
X154889962Y-115525379D01*
X154915997Y-115503328D01*
X154915999Y-115503326D01*
X154963175Y-115447626D01*
X154963175Y-115447624D01*
X154963179Y-115447621D01*
X155000548Y-115384908D01*
X155027085Y-115316900D01*
X155042066Y-115245452D01*
X155043950Y-115215103D01*
X155043950Y-114886455D01*
X155042066Y-114856106D01*
X155027085Y-114784658D01*
X155000548Y-114716650D01*
X154992862Y-114703751D01*
X154978462Y-114667727D01*
X154975899Y-114629016D01*
X154985423Y-114591408D01*
X155006103Y-114558583D01*
X155035914Y-114533755D01*
X155071938Y-114519355D01*
X155099386Y-114516279D01*
X160770057Y-114516279D01*
X160801882Y-114511237D01*
X160836203Y-114505802D01*
X160836207Y-114505800D01*
X160836210Y-114505800D01*
X160899895Y-114485108D01*
X160899895Y-114485107D01*
X160899901Y-114485106D01*
X160959576Y-114454699D01*
X161013759Y-114415333D01*
X161864004Y-113565088D01*
X161903370Y-113510905D01*
X161933777Y-113451230D01*
X161954473Y-113387532D01*
X161961590Y-113342595D01*
X161962658Y-113335856D01*
X161964950Y-113321382D01*
X161964950Y-111518286D01*
X161956764Y-111466609D01*
X161954473Y-111452141D01*
X161948825Y-111434758D01*
X161933780Y-111388452D01*
X161933778Y-111388449D01*
X161933777Y-111388444D01*
X161903370Y-111328768D01*
X161864003Y-111274584D01*
X161840697Y-111251278D01*
X161813549Y-111224129D01*
X161813518Y-111224100D01*
X161456871Y-110867453D01*
X161434067Y-110836067D01*
X161422079Y-110799170D01*
X161422079Y-110760374D01*
X161429988Y-110732328D01*
X161448002Y-110688838D01*
X161480816Y-110580665D01*
X161502870Y-110469796D01*
X161513950Y-110357299D01*
X161513950Y-110244259D01*
X161502870Y-110131762D01*
X161480816Y-110020893D01*
X161448002Y-109912720D01*
X161446769Y-109909744D01*
X161410277Y-109821643D01*
X161404744Y-109808284D01*
X161351456Y-109708591D01*
X161350061Y-109706503D01*
X161288663Y-109614613D01*
X161288653Y-109614600D01*
X161216942Y-109527219D01*
X161216940Y-109527217D01*
X161216936Y-109527212D01*
X161137016Y-109447292D01*
X161129094Y-109440791D01*
X161049628Y-109375575D01*
X161049615Y-109375565D01*
X160955654Y-109312783D01*
X160955643Y-109312776D01*
X160955638Y-109312773D01*
X160855945Y-109259485D01*
X160849445Y-109256792D01*
X160751514Y-109216228D01*
X160690089Y-109197595D01*
X160643336Y-109183413D01*
X160587950Y-109172395D01*
X160551553Y-109158968D01*
X160521086Y-109134950D01*
X160499533Y-109102692D01*
X160489002Y-109065353D01*
X160490526Y-109026587D01*
X160503954Y-108990189D01*
X160527972Y-108959722D01*
X160560230Y-108938169D01*
X160587949Y-108929162D01*
X160643336Y-108918145D01*
X160751509Y-108885331D01*
X160855945Y-108842073D01*
X160955638Y-108788785D01*
X161033031Y-108737073D01*
X161049615Y-108725992D01*
X161049618Y-108725989D01*
X161049628Y-108725983D01*
X161137010Y-108654271D01*
X161216942Y-108574339D01*
X161288654Y-108486957D01*
X161313595Y-108449629D01*
X161339928Y-108421142D01*
X161373777Y-108402185D01*
X161411827Y-108394616D01*
X161450354Y-108399175D01*
X161485586Y-108415417D01*
X161492183Y-108420144D01*
X161543440Y-108459475D01*
X161543442Y-108459476D01*
X161595088Y-108489293D01*
X161622962Y-108505386D01*
X161707799Y-108540527D01*
X161796496Y-108564293D01*
X161887537Y-108576279D01*
X161887544Y-108576279D01*
X161979356Y-108576279D01*
X161979363Y-108576279D01*
X162070404Y-108564293D01*
X162159101Y-108540527D01*
X162243938Y-108505386D01*
X162323462Y-108459473D01*
X162396313Y-108403573D01*
X162461244Y-108338642D01*
X162517144Y-108265791D01*
X162518988Y-108262598D01*
X162532153Y-108239794D01*
X162563057Y-108186267D01*
X162598198Y-108101430D01*
X162621964Y-108012733D01*
X162633950Y-107921692D01*
X162633950Y-107829866D01*
X162621964Y-107738825D01*
X162598198Y-107650128D01*
X162563057Y-107565291D01*
X162551399Y-107545098D01*
X162517147Y-107485771D01*
X162517146Y-107485769D01*
X162461245Y-107412917D01*
X162461239Y-107412910D01*
X162396318Y-107347989D01*
X162396311Y-107347983D01*
X162323459Y-107292082D01*
X162323457Y-107292081D01*
X162243954Y-107246181D01*
X162243941Y-107246174D01*
X162243942Y-107246174D01*
X162243938Y-107246172D01*
X162159101Y-107211031D01*
X162155208Y-107209988D01*
X162140349Y-107206006D01*
X162070404Y-107187265D01*
X162055184Y-107185261D01*
X161979370Y-107175279D01*
X161979363Y-107175279D01*
X161887537Y-107175279D01*
X161887529Y-107175279D01*
X161800883Y-107186687D01*
X161796496Y-107187265D01*
X161784546Y-107190467D01*
X161707805Y-107211029D01*
X161707801Y-107211030D01*
X161707799Y-107211031D01*
X161622962Y-107246172D01*
X161622959Y-107246173D01*
X161622958Y-107246174D01*
X161622956Y-107246175D01*
X161541793Y-107293034D01*
X161505574Y-107306937D01*
X161466831Y-107308967D01*
X161429357Y-107298925D01*
X161396821Y-107277795D01*
X161372406Y-107247645D01*
X161370436Y-107244100D01*
X161370287Y-107243821D01*
X161351456Y-107208591D01*
X161350898Y-107207756D01*
X161288663Y-107114613D01*
X161288653Y-107114600D01*
X161277042Y-107100452D01*
X161216942Y-107027219D01*
X161216940Y-107027217D01*
X161216936Y-107027212D01*
X161137016Y-106947292D01*
X161049628Y-106875575D01*
X161049615Y-106875565D01*
X160955654Y-106812783D01*
X160955643Y-106812776D01*
X160955638Y-106812773D01*
X160855945Y-106759485D01*
X160849445Y-106756792D01*
X160751514Y-106716228D01*
X160685505Y-106696205D01*
X160643336Y-106683413D01*
X160588662Y-106672537D01*
X160532468Y-106661359D01*
X160532455Y-106661357D01*
X160441796Y-106652428D01*
X160419970Y-106650279D01*
X160156930Y-106650279D01*
X160137033Y-106652238D01*
X160044444Y-106661357D01*
X160044431Y-106661359D01*
X159946750Y-106680790D01*
X159933564Y-106683413D01*
X159933561Y-106683414D01*
X159825385Y-106716228D01*
X159720959Y-106759483D01*
X159720956Y-106759484D01*
X159621265Y-106812771D01*
X159621245Y-106812783D01*
X159527284Y-106875565D01*
X159527271Y-106875575D01*
X159439883Y-106947292D01*
X159359963Y-107027212D01*
X159288246Y-107114600D01*
X159288236Y-107114613D01*
X159225454Y-107208574D01*
X159225442Y-107208594D01*
X159172155Y-107308285D01*
X159172154Y-107308288D01*
X159128899Y-107412714D01*
X159096085Y-107520890D01*
X159096083Y-107520898D01*
X159074030Y-107631760D01*
X159074028Y-107631773D01*
X159065822Y-107715103D01*
X159063485Y-107738833D01*
X159062950Y-107744261D01*
X159062950Y-107857296D01*
X159074028Y-107969784D01*
X159074030Y-107969797D01*
X159085193Y-108025915D01*
X159096084Y-108080665D01*
X159103504Y-108105126D01*
X159128899Y-108188843D01*
X159164634Y-108275114D01*
X159172156Y-108293274D01*
X159221735Y-108386029D01*
X159225442Y-108392963D01*
X159225454Y-108392983D01*
X159288236Y-108486944D01*
X159288246Y-108486957D01*
X159355896Y-108569390D01*
X159359963Y-108574345D01*
X159439883Y-108654265D01*
X159439888Y-108654269D01*
X159439890Y-108654271D01*
X159527271Y-108725982D01*
X159527284Y-108725992D01*
X159621245Y-108788774D01*
X159621250Y-108788777D01*
X159621262Y-108788785D01*
X159720955Y-108842073D01*
X159768494Y-108861764D01*
X159825385Y-108885329D01*
X159825389Y-108885330D01*
X159825391Y-108885331D01*
X159933564Y-108918145D01*
X159988949Y-108929162D01*
X160025346Y-108942590D01*
X160055813Y-108966609D01*
X160077366Y-108998866D01*
X160087897Y-109036206D01*
X160086373Y-109074972D01*
X160072945Y-109111369D01*
X160048926Y-109141836D01*
X160016669Y-109163389D01*
X159988950Y-109172395D01*
X159933564Y-109183413D01*
X159933561Y-109183414D01*
X159825385Y-109216228D01*
X159720959Y-109259483D01*
X159720956Y-109259484D01*
X159621265Y-109312771D01*
X159621245Y-109312783D01*
X159527284Y-109375565D01*
X159527271Y-109375575D01*
X159439883Y-109447292D01*
X159359963Y-109527212D01*
X159288246Y-109614600D01*
X159288236Y-109614613D01*
X159225454Y-109708574D01*
X159225442Y-109708594D01*
X159172155Y-109808285D01*
X159172154Y-109808288D01*
X159128899Y-109912714D01*
X159096085Y-110020890D01*
X159096083Y-110020898D01*
X159074030Y-110131760D01*
X159074028Y-110131773D01*
X159062950Y-110244261D01*
X159062950Y-110357296D01*
X159074028Y-110469784D01*
X159074030Y-110469796D01*
X159096084Y-110580665D01*
X159102330Y-110601254D01*
X159128899Y-110688843D01*
X159172154Y-110793269D01*
X159172155Y-110793272D01*
X159225442Y-110892963D01*
X159225454Y-110892983D01*
X159288236Y-110986944D01*
X159288246Y-110986957D01*
X159359963Y-111074345D01*
X159439883Y-111154265D01*
X159439888Y-111154269D01*
X159439890Y-111154271D01*
X159523218Y-111222656D01*
X159527271Y-111225982D01*
X159527284Y-111225992D01*
X159621245Y-111288774D01*
X159621250Y-111288777D01*
X159621262Y-111288785D01*
X159720955Y-111342073D01*
X159769704Y-111362265D01*
X159825385Y-111385329D01*
X159825389Y-111385330D01*
X159825391Y-111385331D01*
X159933564Y-111418145D01*
X159988949Y-111429162D01*
X160025346Y-111442590D01*
X160055813Y-111466609D01*
X160077366Y-111498866D01*
X160087897Y-111536206D01*
X160086373Y-111574972D01*
X160072945Y-111611369D01*
X160048926Y-111641836D01*
X160016669Y-111663389D01*
X159988950Y-111672395D01*
X159933564Y-111683413D01*
X159933561Y-111683414D01*
X159825385Y-111716228D01*
X159720959Y-111759483D01*
X159720956Y-111759484D01*
X159621265Y-111812771D01*
X159621245Y-111812783D01*
X159527284Y-111875565D01*
X159527271Y-111875575D01*
X159439883Y-111947292D01*
X159359963Y-112027212D01*
X159288246Y-112114600D01*
X159288236Y-112114613D01*
X159225454Y-112208574D01*
X159225442Y-112208594D01*
X159172155Y-112308285D01*
X159172154Y-112308288D01*
X159128899Y-112412714D01*
X159096085Y-112520890D01*
X159096083Y-112520898D01*
X159074030Y-112631760D01*
X159074028Y-112631773D01*
X159062950Y-112744261D01*
X159062950Y-112751279D01*
X159056881Y-112789597D01*
X159039268Y-112824164D01*
X159011835Y-112851597D01*
X158977268Y-112869210D01*
X158938950Y-112875279D01*
X155619148Y-112875279D01*
X155580830Y-112869210D01*
X155546263Y-112851597D01*
X155518830Y-112824164D01*
X155501217Y-112789597D01*
X155495148Y-112751279D01*
X155501217Y-112712961D01*
X155518830Y-112678394D01*
X155546263Y-112650961D01*
X155557149Y-112643891D01*
X155573462Y-112634473D01*
X155646313Y-112578573D01*
X155711244Y-112513642D01*
X155767144Y-112440791D01*
X155813057Y-112361267D01*
X155848198Y-112276430D01*
X155871964Y-112187733D01*
X155883950Y-112096692D01*
X155883950Y-112004866D01*
X155871964Y-111913825D01*
X155848198Y-111825128D01*
X155813057Y-111740291D01*
X155793538Y-111706483D01*
X155767147Y-111660771D01*
X155767146Y-111660769D01*
X155711245Y-111587917D01*
X155711239Y-111587910D01*
X155646318Y-111522989D01*
X155646311Y-111522983D01*
X155573459Y-111467082D01*
X155573457Y-111467081D01*
X155493954Y-111421181D01*
X155493950Y-111421179D01*
X155493938Y-111421172D01*
X155409101Y-111386031D01*
X155320404Y-111362265D01*
X155305184Y-111360261D01*
X155229370Y-111350279D01*
X155229363Y-111350279D01*
X155137537Y-111350279D01*
X155137529Y-111350279D01*
X155050883Y-111361687D01*
X155046496Y-111362265D01*
X155017934Y-111369918D01*
X154957805Y-111386029D01*
X154957801Y-111386030D01*
X154957799Y-111386031D01*
X154872962Y-111421172D01*
X154872957Y-111421174D01*
X154872956Y-111421175D01*
X154791986Y-111467923D01*
X154755767Y-111481826D01*
X154717024Y-111483856D01*
X154704551Y-111481897D01*
X154680313Y-111476815D01*
X154658121Y-111472162D01*
X154627784Y-111470279D01*
X154627774Y-111470279D01*
X154239126Y-111470279D01*
X154239115Y-111470279D01*
X154208778Y-111472162D01*
X154153845Y-111483681D01*
X154137329Y-111487144D01*
X154137328Y-111487144D01*
X154137325Y-111487145D01*
X154137321Y-111487146D01*
X154069318Y-111513681D01*
X154064714Y-111515933D01*
X154064418Y-111515327D01*
X154034873Y-111527129D01*
X153996162Y-111529682D01*
X153958556Y-111520148D01*
X153925736Y-111499460D01*
X153900917Y-111469642D01*
X153886526Y-111433614D01*
X153883917Y-111397508D01*
X153883854Y-111397506D01*
X153883876Y-111396938D01*
X153883841Y-111396451D01*
X153883949Y-111395077D01*
X153883949Y-111395074D01*
X153883950Y-111395066D01*
X153883949Y-111206493D01*
X153880826Y-111166800D01*
X153864311Y-111101258D01*
X153864308Y-111101252D01*
X153862473Y-111096005D01*
X153862958Y-111095835D01*
X153854355Y-111064672D01*
X153856092Y-111025915D01*
X153862684Y-111005627D01*
X153862473Y-111005553D01*
X153864309Y-111000306D01*
X153864309Y-111000302D01*
X153864311Y-111000300D01*
X153880826Y-110934758D01*
X153883950Y-110895066D01*
X153883949Y-110706493D01*
X153880826Y-110666800D01*
X153864311Y-110601258D01*
X153864308Y-110601252D01*
X153862473Y-110596005D01*
X153862958Y-110595835D01*
X153854355Y-110564672D01*
X153854973Y-110532205D01*
X153857552Y-110515179D01*
X153864311Y-110500300D01*
X153880826Y-110434758D01*
X153883950Y-110395066D01*
X153883949Y-110340941D01*
X153885349Y-110331705D01*
X153888427Y-110322008D01*
X153890019Y-110311961D01*
X153894260Y-110303636D01*
X153897089Y-110294728D01*
X153903015Y-110286454D01*
X153907632Y-110277394D01*
X153914236Y-110270789D01*
X153919681Y-110263189D01*
X153927874Y-110257151D01*
X153935065Y-110249961D01*
X153943389Y-110245719D01*
X153950914Y-110240175D01*
X153960568Y-110236966D01*
X153969632Y-110232348D01*
X153978861Y-110230886D01*
X153987729Y-110227939D01*
X153997901Y-110227870D01*
X154007950Y-110226279D01*
X155216942Y-110226279D01*
X155248767Y-110221237D01*
X155283088Y-110215802D01*
X155320375Y-110203687D01*
X155346786Y-110195106D01*
X155406461Y-110164699D01*
X155460644Y-110125333D01*
X157970126Y-107615848D01*
X157970133Y-107615843D01*
X157977193Y-107608783D01*
X157977195Y-107608782D01*
X158024553Y-107561424D01*
X158063920Y-107507240D01*
X158094327Y-107447564D01*
X158115023Y-107383867D01*
X158120611Y-107348583D01*
X158125500Y-107317721D01*
X158125500Y-104283836D01*
X158117417Y-104232809D01*
X158115023Y-104217691D01*
X158115022Y-104217687D01*
X158094330Y-104154002D01*
X158094328Y-104153999D01*
X158094327Y-104153994D01*
X158063920Y-104094318D01*
X158024553Y-104040134D01*
X158024549Y-104040130D01*
X157974099Y-103989679D01*
X157974068Y-103989650D01*
X157070268Y-103085849D01*
X157047464Y-103054463D01*
X157035476Y-103017566D01*
X157033949Y-102998168D01*
X157033949Y-102350279D01*
X157040018Y-102311961D01*
X157057631Y-102277394D01*
X157085064Y-102249961D01*
X157119631Y-102232348D01*
X157157949Y-102226279D01*
X157714959Y-102226279D01*
X157746784Y-102221237D01*
X157781105Y-102215802D01*
X157781109Y-102215800D01*
X157781112Y-102215800D01*
X157844797Y-102195108D01*
X157844797Y-102195107D01*
X157844803Y-102195106D01*
X157904478Y-102164699D01*
X157958661Y-102125333D01*
X159145396Y-100938598D01*
X159176782Y-100915794D01*
X159213679Y-100903806D01*
X159233077Y-100902279D01*
X161356713Y-100902279D01*
X161400809Y-100895294D01*
X161422859Y-100891802D01*
X161430587Y-100889291D01*
X161471551Y-100875981D01*
X161486552Y-100871108D01*
X161486554Y-100871106D01*
X161486557Y-100871106D01*
X161546232Y-100840699D01*
X161600415Y-100801333D01*
X162224554Y-100177194D01*
X162263921Y-100123011D01*
X162294327Y-100063336D01*
X162309331Y-100017155D01*
X162315023Y-99999638D01*
X162323793Y-99944268D01*
X162325500Y-99933492D01*
X162325500Y-98378836D01*
X162315023Y-98312691D01*
X162311315Y-98301279D01*
X162295828Y-98253616D01*
X162294770Y-98249863D01*
X162263920Y-98189318D01*
X162224554Y-98135135D01*
X161456871Y-97367452D01*
X161434067Y-97336066D01*
X161422079Y-97299169D01*
X161422079Y-97260373D01*
X161429990Y-97232322D01*
X161448002Y-97188838D01*
X161480816Y-97080665D01*
X161502870Y-96969796D01*
X161513950Y-96857299D01*
X161513950Y-96744259D01*
X161502870Y-96631762D01*
X161480816Y-96520893D01*
X161448002Y-96412720D01*
X161404744Y-96308284D01*
X161351456Y-96208591D01*
X161346050Y-96200500D01*
X161288663Y-96114613D01*
X161288653Y-96114600D01*
X161273962Y-96096699D01*
X161216942Y-96027219D01*
X161216940Y-96027217D01*
X161216936Y-96027212D01*
X161137016Y-95947292D01*
X161049628Y-95875575D01*
X161049615Y-95875565D01*
X160955654Y-95812783D01*
X160955643Y-95812776D01*
X160955638Y-95812773D01*
X160855945Y-95759485D01*
X160832271Y-95749679D01*
X160751514Y-95716228D01*
X160668050Y-95690910D01*
X160643336Y-95683413D01*
X160587950Y-95672395D01*
X160551553Y-95658968D01*
X160521086Y-95634950D01*
X160499533Y-95602692D01*
X160489002Y-95565353D01*
X160490526Y-95526587D01*
X160503954Y-95490189D01*
X160527972Y-95459722D01*
X160560230Y-95438169D01*
X160587949Y-95429162D01*
X160643336Y-95418145D01*
X160751509Y-95385331D01*
X160855945Y-95342073D01*
X160955638Y-95288785D01*
X161049628Y-95225983D01*
X161137010Y-95154271D01*
X161216942Y-95074339D01*
X161288654Y-94986957D01*
X161351456Y-94892967D01*
X161404744Y-94793274D01*
X161404745Y-94793269D01*
X161405518Y-94791825D01*
X161410678Y-94785008D01*
X161414558Y-94777394D01*
X161422313Y-94769638D01*
X161428934Y-94760893D01*
X161435946Y-94756005D01*
X161441991Y-94749961D01*
X161451763Y-94744981D01*
X161460762Y-94738710D01*
X161468942Y-94736228D01*
X161476558Y-94732348D01*
X161487389Y-94730632D01*
X161497887Y-94727448D01*
X161514876Y-94726279D01*
X161539322Y-94726279D01*
X161577640Y-94732348D01*
X161601317Y-94742889D01*
X161622962Y-94755386D01*
X161707799Y-94790527D01*
X161796496Y-94814293D01*
X161887537Y-94826279D01*
X161887544Y-94826279D01*
X161979356Y-94826279D01*
X161979363Y-94826279D01*
X162070404Y-94814293D01*
X162159101Y-94790527D01*
X162243938Y-94755386D01*
X162323462Y-94709473D01*
X162396313Y-94653573D01*
X162461244Y-94588642D01*
X162517144Y-94515791D01*
X162563057Y-94436267D01*
X162598198Y-94351430D01*
X162621964Y-94262733D01*
X162633950Y-94171692D01*
X162633950Y-94079866D01*
X162621964Y-93988825D01*
X162598198Y-93900128D01*
X162563057Y-93815291D01*
X162547025Y-93787522D01*
X162517147Y-93735771D01*
X162517146Y-93735769D01*
X162461245Y-93662917D01*
X162461239Y-93662910D01*
X162396318Y-93597989D01*
X162396311Y-93597983D01*
X162323459Y-93542082D01*
X162323457Y-93542081D01*
X162243954Y-93496181D01*
X162243941Y-93496174D01*
X162243942Y-93496174D01*
X162243938Y-93496172D01*
X162159101Y-93461031D01*
X162070404Y-93437265D01*
X162055184Y-93435261D01*
X161979370Y-93425279D01*
X161979363Y-93425279D01*
X161887537Y-93425279D01*
X161887529Y-93425279D01*
X161800883Y-93436687D01*
X161796496Y-93437265D01*
X161766930Y-93445187D01*
X161707805Y-93461029D01*
X161707801Y-93461030D01*
X161707799Y-93461031D01*
X161622962Y-93496172D01*
X161622959Y-93496173D01*
X161622958Y-93496174D01*
X161622945Y-93496181D01*
X161543442Y-93542081D01*
X161543440Y-93542082D01*
X161470588Y-93597983D01*
X161470580Y-93597990D01*
X161459909Y-93608661D01*
X161428522Y-93631464D01*
X161391624Y-93643451D01*
X161352829Y-93643450D01*
X161315932Y-93631460D01*
X161284547Y-93608655D01*
X161276378Y-93599642D01*
X161216937Y-93527213D01*
X161137016Y-93447292D01*
X161049628Y-93375575D01*
X161049615Y-93375565D01*
X160955654Y-93312783D01*
X160955643Y-93312776D01*
X160955638Y-93312773D01*
X160855945Y-93259485D01*
X160833821Y-93250321D01*
X160751514Y-93216228D01*
X160677033Y-93193635D01*
X160643336Y-93183413D01*
X160561318Y-93167098D01*
X160532468Y-93161359D01*
X160532455Y-93161357D01*
X160441796Y-93152428D01*
X160419970Y-93150279D01*
X160156930Y-93150279D01*
X160137033Y-93152238D01*
X160044444Y-93161357D01*
X160044431Y-93161359D01*
X159933569Y-93183412D01*
X159933564Y-93183413D01*
X159933561Y-93183414D01*
X159825385Y-93216228D01*
X159720959Y-93259483D01*
X159720956Y-93259484D01*
X159621265Y-93312771D01*
X159621245Y-93312783D01*
X159527284Y-93375565D01*
X159527271Y-93375575D01*
X159439883Y-93447292D01*
X159359963Y-93527212D01*
X159288246Y-93614600D01*
X159288236Y-93614613D01*
X159225454Y-93708574D01*
X159225442Y-93708594D01*
X159172155Y-93808285D01*
X159172154Y-93808288D01*
X159128899Y-93912714D01*
X159096085Y-94020890D01*
X159096083Y-94020898D01*
X159074030Y-94131760D01*
X159074028Y-94131773D01*
X159062950Y-94244261D01*
X159062950Y-94357296D01*
X159074028Y-94469784D01*
X159074030Y-94469796D01*
X159096084Y-94580665D01*
X159110266Y-94627418D01*
X159128899Y-94688843D01*
X159172154Y-94793269D01*
X159172155Y-94793272D01*
X159225442Y-94892963D01*
X159225454Y-94892983D01*
X159288236Y-94986944D01*
X159288246Y-94986957D01*
X159359963Y-95074345D01*
X159439883Y-95154265D01*
X159439888Y-95154269D01*
X159439890Y-95154271D01*
X159527271Y-95225982D01*
X159527284Y-95225992D01*
X159621245Y-95288774D01*
X159621250Y-95288777D01*
X159621262Y-95288785D01*
X159720955Y-95342073D01*
X159772999Y-95363630D01*
X159825385Y-95385329D01*
X159825389Y-95385330D01*
X159825391Y-95385331D01*
X159933564Y-95418145D01*
X159988949Y-95429162D01*
X160025346Y-95442590D01*
X160055813Y-95466609D01*
X160077366Y-95498866D01*
X160087897Y-95536206D01*
X160086373Y-95574972D01*
X160072945Y-95611369D01*
X160048926Y-95641836D01*
X160016669Y-95663389D01*
X159988950Y-95672395D01*
X159933564Y-95683413D01*
X159933561Y-95683414D01*
X159825385Y-95716228D01*
X159720959Y-95759483D01*
X159720956Y-95759484D01*
X159621265Y-95812771D01*
X159621245Y-95812783D01*
X159527284Y-95875565D01*
X159527271Y-95875575D01*
X159439883Y-95947292D01*
X159359963Y-96027212D01*
X159288246Y-96114600D01*
X159288236Y-96114613D01*
X159225454Y-96208574D01*
X159225442Y-96208594D01*
X159172155Y-96308285D01*
X159172154Y-96308288D01*
X159128899Y-96412714D01*
X159096085Y-96520890D01*
X159096083Y-96520898D01*
X159074030Y-96631760D01*
X159074028Y-96631773D01*
X159069241Y-96680383D01*
X159062950Y-96744259D01*
X159062950Y-96857299D01*
X159064168Y-96869666D01*
X159074028Y-96969784D01*
X159074030Y-96969796D01*
X159096084Y-97080665D01*
X159096085Y-97080667D01*
X159128899Y-97188843D01*
X159167546Y-97282144D01*
X159172156Y-97293274D01*
X159200367Y-97346053D01*
X159225442Y-97392963D01*
X159225454Y-97392983D01*
X159288236Y-97486944D01*
X159288246Y-97486957D01*
X159359963Y-97574345D01*
X159439883Y-97654265D01*
X159527271Y-97725982D01*
X159527284Y-97725992D01*
X159621245Y-97788774D01*
X159621250Y-97788777D01*
X159621262Y-97788785D01*
X159720955Y-97842073D01*
X159781016Y-97866950D01*
X159825385Y-97885329D01*
X159825389Y-97885330D01*
X159825391Y-97885331D01*
X159933564Y-97918145D01*
X159988949Y-97929162D01*
X160025346Y-97942590D01*
X160055813Y-97966609D01*
X160077366Y-97998866D01*
X160087897Y-98036206D01*
X160086373Y-98074972D01*
X160072945Y-98111369D01*
X160048926Y-98141836D01*
X160016669Y-98163389D01*
X159988950Y-98172395D01*
X159933564Y-98183413D01*
X159933561Y-98183414D01*
X159825385Y-98216228D01*
X159720959Y-98259483D01*
X159720956Y-98259484D01*
X159621265Y-98312771D01*
X159621245Y-98312783D01*
X159527284Y-98375565D01*
X159527271Y-98375575D01*
X159439883Y-98447292D01*
X159359963Y-98527212D01*
X159288246Y-98614600D01*
X159288236Y-98614613D01*
X159225454Y-98708574D01*
X159225444Y-98708591D01*
X159172156Y-98808284D01*
X159172154Y-98808288D01*
X159171382Y-98809733D01*
X159147966Y-98840665D01*
X159116138Y-98862848D01*
X159079013Y-98874110D01*
X159062024Y-98875279D01*
X158565729Y-98875279D01*
X158499579Y-98885756D01*
X158435891Y-98906449D01*
X158408322Y-98920497D01*
X158408321Y-98920496D01*
X158376214Y-98936855D01*
X158322023Y-98976228D01*
X156837292Y-100460960D01*
X156805906Y-100483764D01*
X156769009Y-100495752D01*
X156749611Y-100497279D01*
X154420902Y-100497279D01*
X154382584Y-100491210D01*
X154348017Y-100473597D01*
X154320584Y-100446164D01*
X154302971Y-100411597D01*
X154296902Y-100373279D01*
X154302971Y-100334961D01*
X154320584Y-100300394D01*
X154333221Y-100285598D01*
X155206221Y-99412597D01*
X155237607Y-99389793D01*
X155274504Y-99377805D01*
X155293902Y-99376278D01*
X155338306Y-99376278D01*
X155338322Y-99376278D01*
X155369365Y-99374352D01*
X155442435Y-99359030D01*
X155511986Y-99331891D01*
X155576122Y-99293674D01*
X155633093Y-99245422D01*
X155681345Y-99188451D01*
X155691929Y-99170687D01*
X155716755Y-99140881D01*
X155749580Y-99120201D01*
X155787189Y-99110677D01*
X155825900Y-99113241D01*
X155861924Y-99127642D01*
X155891734Y-99152470D01*
X155904968Y-99170685D01*
X155915555Y-99188451D01*
X155963807Y-99245422D01*
X156020778Y-99293674D01*
X156084914Y-99331891D01*
X156154465Y-99359030D01*
X156227535Y-99374352D01*
X156258577Y-99376279D01*
X156608322Y-99376278D01*
X156639365Y-99374352D01*
X156712435Y-99359030D01*
X156781986Y-99331891D01*
X156846122Y-99293674D01*
X156903093Y-99245422D01*
X156951345Y-99188451D01*
X156989562Y-99124315D01*
X157016701Y-99054764D01*
X157028170Y-99000071D01*
X157032022Y-98981701D01*
X157032022Y-98981698D01*
X157032023Y-98981694D01*
X157033950Y-98950652D01*
X157033949Y-97250907D01*
X157032023Y-97219864D01*
X157016701Y-97146794D01*
X156989562Y-97077243D01*
X156951345Y-97013107D01*
X156903093Y-96956136D01*
X156903090Y-96956134D01*
X156903089Y-96956132D01*
X156869207Y-96927435D01*
X156843889Y-96898039D01*
X156828895Y-96862258D01*
X156825691Y-96823595D01*
X156834592Y-96785834D01*
X156854726Y-96752672D01*
X156884122Y-96727354D01*
X156905443Y-96717305D01*
X156905350Y-96717080D01*
X156909095Y-96715528D01*
X156909101Y-96715527D01*
X156993938Y-96680386D01*
X157073462Y-96634473D01*
X157146313Y-96578573D01*
X157211244Y-96513642D01*
X157267144Y-96440791D01*
X157313057Y-96361267D01*
X157348198Y-96276430D01*
X157371964Y-96187733D01*
X157383950Y-96096692D01*
X157383950Y-96004866D01*
X157371964Y-95913825D01*
X157348198Y-95825128D01*
X157313057Y-95740291D01*
X157284547Y-95690910D01*
X157267147Y-95660771D01*
X157267146Y-95660769D01*
X157211245Y-95587917D01*
X157211239Y-95587910D01*
X157146318Y-95522989D01*
X157146311Y-95522983D01*
X157073459Y-95467082D01*
X157073457Y-95467081D01*
X156993954Y-95421181D01*
X156993941Y-95421174D01*
X156993942Y-95421174D01*
X156993938Y-95421172D01*
X156909101Y-95386031D01*
X156909095Y-95386029D01*
X156905350Y-95384478D01*
X156905526Y-95384051D01*
X156875296Y-95368142D01*
X156848228Y-95340349D01*
X156831073Y-95305552D01*
X156825500Y-95268795D01*
X156825500Y-91224500D01*
X156831569Y-91186182D01*
X156849182Y-91151615D01*
X156876615Y-91124182D01*
X156911182Y-91106569D01*
X156949500Y-91100500D01*
X157194312Y-91100500D01*
X157194324Y-91100500D01*
X157224673Y-91098616D01*
X157296121Y-91083635D01*
X157364129Y-91057098D01*
X157426842Y-91019729D01*
X157433567Y-91014032D01*
X157466729Y-90993898D01*
X157504490Y-90984995D01*
X157543153Y-90988198D01*
X157577185Y-91002128D01*
X157635871Y-91037098D01*
X157703879Y-91063635D01*
X157775327Y-91078616D01*
X157805676Y-91080500D01*
X157805688Y-91080500D01*
X158194312Y-91080500D01*
X158194324Y-91080500D01*
X158224673Y-91078616D01*
X158296121Y-91063635D01*
X158364129Y-91037098D01*
X158426842Y-90999729D01*
X158459469Y-90972094D01*
X158492626Y-90951963D01*
X158530386Y-90943061D01*
X158569050Y-90946264D01*
X158604831Y-90961257D01*
X158627289Y-90979037D01*
X158675446Y-91027194D01*
X158675447Y-91027195D01*
X158722805Y-91074553D01*
X158776989Y-91113920D01*
X158836665Y-91144327D01*
X158836670Y-91144328D01*
X158836673Y-91144330D01*
X158900359Y-91165022D01*
X158900356Y-91165022D01*
X158966508Y-91175500D01*
X158966512Y-91175500D01*
X164883492Y-91175500D01*
X164915317Y-91170458D01*
X164949638Y-91165023D01*
X164949642Y-91165021D01*
X164949645Y-91165021D01*
X165013330Y-91144329D01*
X165013330Y-91144328D01*
X165013336Y-91144327D01*
X165073011Y-91113920D01*
X165127194Y-91074554D01*
X165914929Y-90286817D01*
X165946315Y-90264014D01*
X165983212Y-90252026D01*
X166002610Y-90250499D01*
X166617422Y-90250499D01*
X166617432Y-90250499D01*
X166653288Y-90247312D01*
X166712045Y-90230500D01*
X166766216Y-90202203D01*
X166813582Y-90163582D01*
X166852203Y-90116216D01*
X166880500Y-90062045D01*
X166897312Y-90003288D01*
X166900500Y-89967433D01*
X166900499Y-89032568D01*
X166897312Y-88996712D01*
X166880500Y-88937955D01*
X166852203Y-88883784D01*
X166813582Y-88836418D01*
X166766216Y-88797797D01*
X166712045Y-88769500D01*
X166712044Y-88769499D01*
X166712041Y-88769498D01*
X166653290Y-88752688D01*
X166653275Y-88752685D01*
X166638514Y-88751373D01*
X166600884Y-88741933D01*
X166568013Y-88721327D01*
X166543119Y-88691572D01*
X166528638Y-88655580D01*
X166525500Y-88627861D01*
X166525500Y-86272137D01*
X166531569Y-86233819D01*
X166549182Y-86199252D01*
X166576615Y-86171819D01*
X166611182Y-86154206D01*
X166638521Y-86148624D01*
X166653288Y-86147312D01*
X166712045Y-86130500D01*
X166766216Y-86102203D01*
X166813582Y-86063582D01*
X166852203Y-86016216D01*
X166880500Y-85962045D01*
X166897312Y-85903288D01*
X166900500Y-85867433D01*
X166900499Y-84932568D01*
X166897312Y-84896712D01*
X166880500Y-84837955D01*
X166852203Y-84783784D01*
X166813582Y-84736418D01*
X166766216Y-84697797D01*
X166712045Y-84669500D01*
X166712044Y-84669499D01*
X166712041Y-84669498D01*
X166653290Y-84652688D01*
X166653282Y-84652687D01*
X166632938Y-84650878D01*
X166617433Y-84649500D01*
X166617429Y-84649500D01*
X165582578Y-84649500D01*
X165582563Y-84649501D01*
X165546711Y-84652688D01*
X165487957Y-84669499D01*
X165433783Y-84697797D01*
X165381543Y-84740393D01*
X165381144Y-84739904D01*
X165375098Y-84744296D01*
X165363113Y-84754211D01*
X165359467Y-84755654D01*
X165356295Y-84757959D01*
X165341506Y-84762763D01*
X165327041Y-84768490D01*
X165323125Y-84768736D01*
X165319398Y-84769947D01*
X165303854Y-84769947D01*
X165288322Y-84770923D01*
X165284522Y-84769947D01*
X165280602Y-84769947D01*
X165265812Y-84765141D01*
X165250745Y-84761272D01*
X165247853Y-84759306D01*
X165243705Y-84757959D01*
X165217991Y-84740482D01*
X165214093Y-84737045D01*
X165213582Y-84736418D01*
X165210924Y-84734251D01*
X165209137Y-84732675D01*
X165198284Y-84719555D01*
X165186925Y-84706854D01*
X165185948Y-84704641D01*
X165184409Y-84702780D01*
X165178140Y-84686943D01*
X165171264Y-84671359D01*
X165171019Y-84668954D01*
X165170130Y-84666708D01*
X165169061Y-84649710D01*
X165167338Y-84632763D01*
X165167848Y-84630400D01*
X165167697Y-84627989D01*
X165171932Y-84611498D01*
X165175531Y-84594842D01*
X165177165Y-84591124D01*
X165177348Y-84590412D01*
X165177771Y-84589745D01*
X165179008Y-84586930D01*
X165179600Y-84585498D01*
X165179607Y-84585488D01*
X165214748Y-84500651D01*
X165238514Y-84411954D01*
X165250500Y-84320913D01*
X165250500Y-84229087D01*
X165238514Y-84138046D01*
X165214748Y-84049349D01*
X165179607Y-83964512D01*
X165140441Y-83896674D01*
X165133697Y-83884992D01*
X165133696Y-83884990D01*
X165077795Y-83812138D01*
X165077789Y-83812131D01*
X165012868Y-83747210D01*
X165012861Y-83747204D01*
X164940009Y-83691303D01*
X164940007Y-83691302D01*
X164860504Y-83645402D01*
X164860491Y-83645395D01*
X164860492Y-83645395D01*
X164860488Y-83645393D01*
X164843987Y-83638558D01*
X164810913Y-83618290D01*
X164785718Y-83588789D01*
X164770872Y-83552946D01*
X164767828Y-83514270D01*
X164776885Y-83476546D01*
X164797156Y-83443467D01*
X164826657Y-83418272D01*
X164862500Y-83403426D01*
X164891446Y-83400000D01*
X167076000Y-83400000D01*
X167114318Y-83406069D01*
X167148885Y-83423682D01*
X167176318Y-83451115D01*
X167193931Y-83485682D01*
X167200000Y-83524000D01*
X167200000Y-126748638D01*
X167198473Y-126758279D01*
X167198473Y-126768036D01*
X167195457Y-126777316D01*
X167193931Y-126786956D01*
X167189501Y-126795650D01*
X167186485Y-126804933D01*
X167180747Y-126812829D01*
X167176318Y-126821523D01*
X167163681Y-126836319D01*
X167136319Y-126863681D01*
X167104933Y-126886485D01*
X167068036Y-126898473D01*
X167048638Y-126900000D01*
X125051362Y-126900000D01*
X125013044Y-126893931D01*
X124978477Y-126876318D01*
X124963681Y-126863681D01*
X124936319Y-126836319D01*
X124913515Y-126804933D01*
X124901527Y-126768036D01*
X124900000Y-126748638D01*
X124900000Y-115065178D01*
X129295500Y-115065178D01*
X129295500Y-115186379D01*
X129306063Y-115307118D01*
X129317871Y-115374081D01*
X129326153Y-115421053D01*
X129327108Y-115426466D01*
X129327109Y-115426473D01*
X129332775Y-115447618D01*
X129358478Y-115543541D01*
X129358481Y-115543551D01*
X129358482Y-115543552D01*
X129399927Y-115657425D01*
X129399931Y-115657435D01*
X129451146Y-115767263D01*
X129451154Y-115767279D01*
X129462885Y-115787597D01*
X129506946Y-115863914D01*
X129511745Y-115872225D01*
X129511754Y-115872240D01*
X129520227Y-115884341D01*
X129577266Y-115965802D01*
X129581274Y-115971525D01*
X129634250Y-116034658D01*
X129659171Y-116064358D01*
X129659178Y-116064365D01*
X129659189Y-116064377D01*
X129744851Y-116150039D01*
X129744862Y-116150049D01*
X129744871Y-116150058D01*
X129760346Y-116163043D01*
X129837703Y-116227954D01*
X129837710Y-116227959D01*
X129837715Y-116227963D01*
X129936995Y-116297479D01*
X130041956Y-116358078D01*
X130041965Y-116358082D01*
X130151793Y-116409297D01*
X130151803Y-116409301D01*
X130204468Y-116428469D01*
X130265688Y-116450751D01*
X130382757Y-116482120D01*
X130502114Y-116503166D01*
X130622849Y-116513728D01*
X130622850Y-116513729D01*
X130622851Y-116513729D01*
X130744050Y-116513729D01*
X130744050Y-116513728D01*
X130864786Y-116503166D01*
X130984143Y-116482120D01*
X131101212Y-116450751D01*
X131215101Y-116409299D01*
X131215106Y-116409297D01*
X131251715Y-116392225D01*
X131324944Y-116358078D01*
X131429905Y-116297479D01*
X131529185Y-116227963D01*
X131548624Y-116211651D01*
X131581870Y-116191673D01*
X131619671Y-116182944D01*
X131658319Y-116186324D01*
X131694032Y-116201481D01*
X131723313Y-116226932D01*
X131743296Y-116260185D01*
X131748102Y-116274548D01*
X131767225Y-116345920D01*
X131768702Y-116351430D01*
X131803843Y-116436267D01*
X131803845Y-116436270D01*
X131803852Y-116436283D01*
X131849752Y-116515786D01*
X131849753Y-116515788D01*
X131905654Y-116588640D01*
X131905660Y-116588647D01*
X131970581Y-116653568D01*
X131970588Y-116653574D01*
X132043440Y-116709475D01*
X132043442Y-116709476D01*
X132096091Y-116739872D01*
X132122962Y-116755386D01*
X132207799Y-116790527D01*
X132296496Y-116814293D01*
X132383149Y-116825701D01*
X132386359Y-116826124D01*
X132387537Y-116826279D01*
X132387544Y-116826279D01*
X132479356Y-116826279D01*
X132479363Y-116826279D01*
X132570404Y-116814293D01*
X132659101Y-116790527D01*
X132743938Y-116755386D01*
X132823462Y-116709473D01*
X132896313Y-116653573D01*
X132961244Y-116588642D01*
X133017144Y-116515791D01*
X133018335Y-116513729D01*
X133036584Y-116482119D01*
X133063057Y-116436267D01*
X133098198Y-116351430D01*
X133121964Y-116262733D01*
X133133950Y-116171692D01*
X133133950Y-116079866D01*
X133121964Y-115988825D01*
X133118974Y-115977668D01*
X133114920Y-115939089D01*
X133122986Y-115901141D01*
X133142384Y-115867543D01*
X133171215Y-115841584D01*
X133206657Y-115825804D01*
X133238750Y-115821579D01*
X133269056Y-115821579D01*
X133299198Y-115817610D01*
X133359485Y-115809674D01*
X133447587Y-115786067D01*
X133520612Y-115755819D01*
X133531846Y-115751166D01*
X133531849Y-115751164D01*
X133531855Y-115751162D01*
X133531861Y-115751158D01*
X133531866Y-115751156D01*
X133548962Y-115741285D01*
X133610845Y-115705557D01*
X133683207Y-115650032D01*
X133747703Y-115585536D01*
X133803228Y-115513174D01*
X133843887Y-115442751D01*
X133848827Y-115434195D01*
X133848837Y-115434175D01*
X133862365Y-115401515D01*
X133883738Y-115349916D01*
X133907345Y-115261814D01*
X133919250Y-115171384D01*
X133919250Y-115080174D01*
X133917276Y-115065178D01*
X134375500Y-115065178D01*
X134375500Y-115186379D01*
X134386063Y-115307118D01*
X134397871Y-115374081D01*
X134406153Y-115421053D01*
X134407108Y-115426466D01*
X134407109Y-115426473D01*
X134412775Y-115447618D01*
X134438478Y-115543541D01*
X134438481Y-115543551D01*
X134438482Y-115543552D01*
X134479927Y-115657425D01*
X134479931Y-115657435D01*
X134531146Y-115767263D01*
X134531154Y-115767279D01*
X134542885Y-115787597D01*
X134586946Y-115863914D01*
X134591745Y-115872225D01*
X134591754Y-115872240D01*
X134600227Y-115884341D01*
X134657266Y-115965802D01*
X134661274Y-115971525D01*
X134714250Y-116034658D01*
X134739171Y-116064358D01*
X134739178Y-116064365D01*
X134739189Y-116064377D01*
X134824851Y-116150039D01*
X134824862Y-116150049D01*
X134824871Y-116150058D01*
X134840346Y-116163043D01*
X134917703Y-116227954D01*
X134917710Y-116227959D01*
X134917715Y-116227963D01*
X135016995Y-116297479D01*
X135121956Y-116358078D01*
X135121965Y-116358082D01*
X135231793Y-116409297D01*
X135231803Y-116409301D01*
X135284468Y-116428469D01*
X135345688Y-116450751D01*
X135462757Y-116482120D01*
X135582114Y-116503166D01*
X135702849Y-116513728D01*
X135702850Y-116513729D01*
X135702851Y-116513729D01*
X135824050Y-116513729D01*
X135824050Y-116513728D01*
X135944786Y-116503166D01*
X136064143Y-116482120D01*
X136181212Y-116450751D01*
X136295101Y-116409299D01*
X136295106Y-116409297D01*
X136331715Y-116392225D01*
X136404944Y-116358078D01*
X136509905Y-116297479D01*
X136609185Y-116227963D01*
X136702029Y-116150058D01*
X136787729Y-116064358D01*
X136856543Y-115982348D01*
X136865625Y-115971525D01*
X136865626Y-115971523D01*
X136865634Y-115971514D01*
X136935150Y-115872234D01*
X136995749Y-115767273D01*
X137040122Y-115672116D01*
X137046968Y-115657435D01*
X137046972Y-115657425D01*
X137056488Y-115631279D01*
X137088422Y-115543541D01*
X137119791Y-115426472D01*
X137140837Y-115307115D01*
X137151400Y-115186378D01*
X137151400Y-115065180D01*
X137140837Y-114944443D01*
X137119791Y-114825086D01*
X137088422Y-114708017D01*
X137049821Y-114601961D01*
X137046972Y-114594132D01*
X137046968Y-114594122D01*
X136999243Y-114491778D01*
X136995749Y-114484285D01*
X136935150Y-114379324D01*
X136865634Y-114280044D01*
X136865630Y-114280039D01*
X136865625Y-114280032D01*
X136806851Y-114209989D01*
X136787729Y-114187200D01*
X136787720Y-114187191D01*
X136787710Y-114187180D01*
X136702048Y-114101518D01*
X136702036Y-114101507D01*
X136702029Y-114101500D01*
X136661836Y-114067774D01*
X136609196Y-114023603D01*
X136509911Y-113954083D01*
X136509908Y-113954081D01*
X136509905Y-113954079D01*
X136478719Y-113936074D01*
X136404950Y-113893483D01*
X136404934Y-113893475D01*
X136295106Y-113842260D01*
X136295096Y-113842256D01*
X136181223Y-113800811D01*
X136181222Y-113800810D01*
X136181212Y-113800807D01*
X136095513Y-113777843D01*
X136064144Y-113769438D01*
X136064137Y-113769437D01*
X135944788Y-113748392D01*
X135944790Y-113748392D01*
X135824050Y-113737829D01*
X135824049Y-113737829D01*
X135702851Y-113737829D01*
X135702850Y-113737829D01*
X135582110Y-113748392D01*
X135462762Y-113769437D01*
X135462755Y-113769438D01*
X135418387Y-113781327D01*
X135345688Y-113800807D01*
X135345681Y-113800809D01*
X135345676Y-113800811D01*
X135231803Y-113842256D01*
X135231793Y-113842260D01*
X135121965Y-113893475D01*
X135121949Y-113893483D01*
X135017003Y-113954074D01*
X135016988Y-113954083D01*
X134917703Y-114023603D01*
X134824874Y-114101497D01*
X134824851Y-114101518D01*
X134739189Y-114187180D01*
X134739168Y-114187203D01*
X134661274Y-114280032D01*
X134591754Y-114379317D01*
X134591745Y-114379332D01*
X134531154Y-114484278D01*
X134531146Y-114484294D01*
X134479931Y-114594122D01*
X134479927Y-114594132D01*
X134438482Y-114708005D01*
X134438479Y-114708015D01*
X134407109Y-114825084D01*
X134407108Y-114825091D01*
X134386063Y-114944439D01*
X134375500Y-115065178D01*
X133917276Y-115065178D01*
X133907345Y-114989744D01*
X133883738Y-114901642D01*
X133864877Y-114856107D01*
X133848837Y-114817382D01*
X133848827Y-114817362D01*
X133824960Y-114776025D01*
X133803228Y-114738384D01*
X133757352Y-114678597D01*
X133747704Y-114666023D01*
X133747698Y-114666016D01*
X133683212Y-114601530D01*
X133683205Y-114601524D01*
X133627242Y-114558583D01*
X133610845Y-114546001D01*
X133589634Y-114533755D01*
X133531866Y-114500401D01*
X133531846Y-114500391D01*
X133447585Y-114465490D01*
X133359483Y-114441883D01*
X133269056Y-114429979D01*
X133269055Y-114429979D01*
X133177845Y-114429979D01*
X133177844Y-114429979D01*
X133087416Y-114441883D01*
X132999314Y-114465490D01*
X132915053Y-114500391D01*
X132915033Y-114500401D01*
X132836053Y-114546002D01*
X132763694Y-114601524D01*
X132763687Y-114601530D01*
X132699201Y-114666016D01*
X132699195Y-114666023D01*
X132643673Y-114738382D01*
X132598072Y-114817362D01*
X132598062Y-114817382D01*
X132563161Y-114901643D01*
X132539554Y-114989745D01*
X132527650Y-115080173D01*
X132527650Y-115171384D01*
X132537400Y-115245450D01*
X132539555Y-115261814D01*
X132541530Y-115269186D01*
X132545586Y-115307765D01*
X132537521Y-115345714D01*
X132518124Y-115379312D01*
X132489294Y-115405272D01*
X132453853Y-115421053D01*
X132441366Y-115423719D01*
X132431626Y-115425279D01*
X132387537Y-115425279D01*
X132296496Y-115437265D01*
X132207799Y-115461031D01*
X132207416Y-115461189D01*
X132200588Y-115462283D01*
X132187497Y-115462305D01*
X132174487Y-115463673D01*
X132168211Y-115462338D01*
X132161793Y-115462350D01*
X132149337Y-115458326D01*
X132136539Y-115455606D01*
X132130982Y-115452397D01*
X132124875Y-115450425D01*
X132114274Y-115442751D01*
X132102941Y-115436208D01*
X132098646Y-115431438D01*
X132093449Y-115427676D01*
X132085738Y-115417102D01*
X132076982Y-115407377D01*
X132074372Y-115401515D01*
X132070591Y-115396330D01*
X132066524Y-115383886D01*
X132061203Y-115371935D01*
X132060532Y-115365555D01*
X132058538Y-115359453D01*
X132058515Y-115346362D01*
X132057148Y-115333352D01*
X132058472Y-115321731D01*
X132058471Y-115320658D01*
X132058663Y-115320063D01*
X132058862Y-115318310D01*
X132060837Y-115307115D01*
X132071400Y-115186378D01*
X132071400Y-115065180D01*
X132060837Y-114944443D01*
X132039791Y-114825086D01*
X132008422Y-114708017D01*
X131969821Y-114601961D01*
X131966972Y-114594132D01*
X131966968Y-114594122D01*
X131919243Y-114491778D01*
X131915749Y-114484285D01*
X131855150Y-114379324D01*
X131785634Y-114280044D01*
X131785630Y-114280039D01*
X131785625Y-114280032D01*
X131726851Y-114209989D01*
X131707729Y-114187200D01*
X131707720Y-114187191D01*
X131707710Y-114187180D01*
X131622048Y-114101518D01*
X131622036Y-114101507D01*
X131622029Y-114101500D01*
X131581836Y-114067774D01*
X131529196Y-114023603D01*
X131429911Y-113954083D01*
X131429908Y-113954081D01*
X131429905Y-113954079D01*
X131398719Y-113936074D01*
X131324950Y-113893483D01*
X131324934Y-113893475D01*
X131215106Y-113842260D01*
X131215096Y-113842256D01*
X131101223Y-113800811D01*
X131101222Y-113800810D01*
X131101212Y-113800807D01*
X131015513Y-113777843D01*
X130984144Y-113769438D01*
X130984137Y-113769437D01*
X130864788Y-113748392D01*
X130864790Y-113748392D01*
X130744050Y-113737829D01*
X130744049Y-113737829D01*
X130622851Y-113737829D01*
X130622850Y-113737829D01*
X130502110Y-113748392D01*
X130382762Y-113769437D01*
X130382755Y-113769438D01*
X130338387Y-113781327D01*
X130265688Y-113800807D01*
X130265681Y-113800809D01*
X130265676Y-113800811D01*
X130151803Y-113842256D01*
X130151793Y-113842260D01*
X130041965Y-113893475D01*
X130041949Y-113893483D01*
X129937003Y-113954074D01*
X129936988Y-113954083D01*
X129837703Y-114023603D01*
X129744874Y-114101497D01*
X129744851Y-114101518D01*
X129659189Y-114187180D01*
X129659168Y-114187203D01*
X129581274Y-114280032D01*
X129511754Y-114379317D01*
X129511745Y-114379332D01*
X129451154Y-114484278D01*
X129451146Y-114484294D01*
X129399931Y-114594122D01*
X129399927Y-114594132D01*
X129358482Y-114708005D01*
X129358479Y-114708015D01*
X129327109Y-114825084D01*
X129327108Y-114825091D01*
X129306063Y-114944439D01*
X129295500Y-115065178D01*
X124900000Y-115065178D01*
X124900000Y-111890178D01*
X129295500Y-111890178D01*
X129295500Y-112011379D01*
X129306063Y-112132118D01*
X129312179Y-112166800D01*
X129327109Y-112251472D01*
X129358478Y-112368541D01*
X129358481Y-112368551D01*
X129358482Y-112368552D01*
X129399927Y-112482425D01*
X129399931Y-112482435D01*
X129451146Y-112592263D01*
X129451154Y-112592279D01*
X129481189Y-112644301D01*
X129511750Y-112697234D01*
X129562989Y-112770412D01*
X129581274Y-112796525D01*
X129617794Y-112840047D01*
X129659171Y-112889358D01*
X129659178Y-112889365D01*
X129659189Y-112889377D01*
X129744851Y-112975039D01*
X129744862Y-112975049D01*
X129744871Y-112975058D01*
X129774951Y-113000298D01*
X129837703Y-113052954D01*
X129837710Y-113052959D01*
X129837715Y-113052963D01*
X129936995Y-113122479D01*
X130041956Y-113183078D01*
X130041965Y-113183082D01*
X130151793Y-113234297D01*
X130151803Y-113234301D01*
X130184788Y-113246306D01*
X130265688Y-113275751D01*
X130382757Y-113307120D01*
X130502114Y-113328166D01*
X130622849Y-113338728D01*
X130622850Y-113338729D01*
X130622851Y-113338729D01*
X130744050Y-113338729D01*
X130744050Y-113338728D01*
X130864786Y-113328166D01*
X130984143Y-113307120D01*
X131101212Y-113275751D01*
X131215101Y-113234299D01*
X131215106Y-113234297D01*
X131263015Y-113211956D01*
X131324944Y-113183078D01*
X131429905Y-113122479D01*
X131529185Y-113052963D01*
X131622029Y-112975058D01*
X131707729Y-112889358D01*
X131785634Y-112796514D01*
X131855150Y-112697234D01*
X131915749Y-112592273D01*
X131956185Y-112505558D01*
X131966968Y-112482435D01*
X131966972Y-112482425D01*
X131984322Y-112434756D01*
X132008422Y-112368541D01*
X132039791Y-112251472D01*
X132060837Y-112132115D01*
X132071400Y-112011378D01*
X132071400Y-111890180D01*
X132071400Y-111890178D01*
X134375500Y-111890178D01*
X134375500Y-112011379D01*
X134386063Y-112132118D01*
X134392179Y-112166800D01*
X134407109Y-112251472D01*
X134438478Y-112368541D01*
X134438481Y-112368551D01*
X134438482Y-112368552D01*
X134479927Y-112482425D01*
X134479931Y-112482435D01*
X134531146Y-112592263D01*
X134531154Y-112592279D01*
X134561189Y-112644301D01*
X134591750Y-112697234D01*
X134642989Y-112770412D01*
X134661274Y-112796525D01*
X134697794Y-112840047D01*
X134739171Y-112889358D01*
X134739178Y-112889365D01*
X134739189Y-112889377D01*
X134824851Y-112975039D01*
X134824862Y-112975049D01*
X134824871Y-112975058D01*
X134854951Y-113000298D01*
X134917703Y-113052954D01*
X134917710Y-113052959D01*
X134917715Y-113052963D01*
X135016995Y-113122479D01*
X135121956Y-113183078D01*
X135121965Y-113183082D01*
X135231793Y-113234297D01*
X135231803Y-113234301D01*
X135264788Y-113246306D01*
X135345688Y-113275751D01*
X135462757Y-113307120D01*
X135582114Y-113328166D01*
X135702849Y-113338728D01*
X135702850Y-113338729D01*
X135702851Y-113338729D01*
X135824050Y-113338729D01*
X135824050Y-113338728D01*
X135944786Y-113328166D01*
X136064143Y-113307120D01*
X136181212Y-113275751D01*
X136295101Y-113234299D01*
X136295106Y-113234297D01*
X136343015Y-113211956D01*
X136404944Y-113183078D01*
X136509905Y-113122479D01*
X136609185Y-113052963D01*
X136702029Y-112975058D01*
X136787729Y-112889358D01*
X136865634Y-112796514D01*
X136935150Y-112697234D01*
X136995749Y-112592273D01*
X137036185Y-112505558D01*
X137046968Y-112482435D01*
X137046972Y-112482425D01*
X137064322Y-112434756D01*
X137088422Y-112368541D01*
X137119791Y-112251472D01*
X137140837Y-112132115D01*
X137151400Y-112011378D01*
X137151400Y-111890180D01*
X137140837Y-111769443D01*
X137119791Y-111650086D01*
X137088422Y-111533017D01*
X137064252Y-111466609D01*
X137046972Y-111419132D01*
X137046968Y-111419122D01*
X136995753Y-111309294D01*
X136995745Y-111309278D01*
X136972215Y-111268523D01*
X136935150Y-111204324D01*
X136865634Y-111105044D01*
X136865630Y-111105039D01*
X136865625Y-111105032D01*
X136799237Y-111025915D01*
X136787729Y-111012200D01*
X136787720Y-111012191D01*
X136787710Y-111012180D01*
X136702048Y-110926518D01*
X136702036Y-110926507D01*
X136702029Y-110926500D01*
X136664571Y-110895069D01*
X136609196Y-110848603D01*
X136509911Y-110779083D01*
X136509908Y-110779081D01*
X136509905Y-110779079D01*
X136444953Y-110741579D01*
X136404950Y-110718483D01*
X136404934Y-110718475D01*
X136295106Y-110667260D01*
X136295096Y-110667256D01*
X136181223Y-110625811D01*
X136181222Y-110625810D01*
X136181212Y-110625807D01*
X136089595Y-110601258D01*
X136064144Y-110594438D01*
X136064137Y-110594437D01*
X135944788Y-110573392D01*
X135944790Y-110573392D01*
X135824050Y-110562829D01*
X135824049Y-110562829D01*
X135702851Y-110562829D01*
X135702850Y-110562829D01*
X135582110Y-110573392D01*
X135462762Y-110594437D01*
X135462755Y-110594438D01*
X135400017Y-110611249D01*
X135345688Y-110625807D01*
X135345681Y-110625809D01*
X135345676Y-110625811D01*
X135231803Y-110667256D01*
X135231793Y-110667260D01*
X135121965Y-110718475D01*
X135121949Y-110718483D01*
X135017003Y-110779074D01*
X135016988Y-110779083D01*
X134917703Y-110848603D01*
X134824874Y-110926497D01*
X134824851Y-110926518D01*
X134739189Y-111012180D01*
X134739168Y-111012203D01*
X134661274Y-111105032D01*
X134591754Y-111204317D01*
X134591745Y-111204332D01*
X134531154Y-111309278D01*
X134531146Y-111309294D01*
X134479931Y-111419122D01*
X134479927Y-111419132D01*
X134438482Y-111533005D01*
X134438478Y-111533017D01*
X134433719Y-111550779D01*
X134407109Y-111650084D01*
X134407108Y-111650091D01*
X134386063Y-111769439D01*
X134375500Y-111890178D01*
X132071400Y-111890178D01*
X132060837Y-111769443D01*
X132039791Y-111650086D01*
X132008422Y-111533017D01*
X131984252Y-111466609D01*
X131966972Y-111419132D01*
X131966968Y-111419122D01*
X131915753Y-111309294D01*
X131915745Y-111309278D01*
X131892215Y-111268523D01*
X131855150Y-111204324D01*
X131785634Y-111105044D01*
X131785630Y-111105039D01*
X131785625Y-111105032D01*
X131719237Y-111025915D01*
X131707729Y-111012200D01*
X131707720Y-111012191D01*
X131707710Y-111012180D01*
X131622048Y-110926518D01*
X131622036Y-110926507D01*
X131622029Y-110926500D01*
X131584571Y-110895069D01*
X131529196Y-110848603D01*
X131429911Y-110779083D01*
X131429908Y-110779081D01*
X131429905Y-110779079D01*
X131364953Y-110741579D01*
X131324950Y-110718483D01*
X131324934Y-110718475D01*
X131215106Y-110667260D01*
X131215096Y-110667256D01*
X131101223Y-110625811D01*
X131101222Y-110625810D01*
X131101212Y-110625807D01*
X131009595Y-110601258D01*
X130984144Y-110594438D01*
X130984137Y-110594437D01*
X130864788Y-110573392D01*
X130864790Y-110573392D01*
X130744050Y-110562829D01*
X130744049Y-110562829D01*
X130622851Y-110562829D01*
X130622850Y-110562829D01*
X130502110Y-110573392D01*
X130382762Y-110594437D01*
X130382755Y-110594438D01*
X130320017Y-110611249D01*
X130265688Y-110625807D01*
X130265681Y-110625809D01*
X130265676Y-110625811D01*
X130151803Y-110667256D01*
X130151793Y-110667260D01*
X130041965Y-110718475D01*
X130041949Y-110718483D01*
X129937003Y-110779074D01*
X129936988Y-110779083D01*
X129837703Y-110848603D01*
X129744874Y-110926497D01*
X129744851Y-110926518D01*
X129659189Y-111012180D01*
X129659168Y-111012203D01*
X129581274Y-111105032D01*
X129511754Y-111204317D01*
X129511745Y-111204332D01*
X129451154Y-111309278D01*
X129451146Y-111309294D01*
X129399931Y-111419122D01*
X129399927Y-111419132D01*
X129358482Y-111533005D01*
X129358478Y-111533017D01*
X129353719Y-111550779D01*
X129327109Y-111650084D01*
X129327108Y-111650091D01*
X129306063Y-111769439D01*
X129295500Y-111890178D01*
X124900000Y-111890178D01*
X124900000Y-110000173D01*
X131511650Y-110000173D01*
X131511650Y-110091384D01*
X131523554Y-110181812D01*
X131547161Y-110269914D01*
X131582062Y-110354175D01*
X131582072Y-110354195D01*
X131616805Y-110414353D01*
X131627672Y-110433174D01*
X131646180Y-110457294D01*
X131683195Y-110505534D01*
X131683201Y-110505541D01*
X131747687Y-110570027D01*
X131747693Y-110570032D01*
X131820055Y-110625557D01*
X131857696Y-110647289D01*
X131899033Y-110671156D01*
X131899053Y-110671166D01*
X131947942Y-110691416D01*
X131983313Y-110706067D01*
X132071415Y-110729674D01*
X132091499Y-110732318D01*
X132161844Y-110741579D01*
X132161845Y-110741579D01*
X132253056Y-110741579D01*
X132283198Y-110737610D01*
X132343485Y-110729674D01*
X132431587Y-110706067D01*
X132500926Y-110677346D01*
X132515846Y-110671166D01*
X132515849Y-110671164D01*
X132515855Y-110671162D01*
X132515861Y-110671158D01*
X132515866Y-110671156D01*
X132544863Y-110654414D01*
X132594845Y-110625557D01*
X132667207Y-110570032D01*
X132731703Y-110505536D01*
X132787228Y-110433174D01*
X132831035Y-110357299D01*
X132832827Y-110354195D01*
X132832837Y-110354175D01*
X132850322Y-110311961D01*
X132867738Y-110269916D01*
X132891345Y-110181814D01*
X132903250Y-110091384D01*
X132903250Y-110000174D01*
X132903250Y-110000173D01*
X133543650Y-110000173D01*
X133543650Y-110091384D01*
X133555554Y-110181812D01*
X133579161Y-110269914D01*
X133614062Y-110354175D01*
X133614072Y-110354195D01*
X133648805Y-110414353D01*
X133659672Y-110433174D01*
X133678180Y-110457294D01*
X133715195Y-110505534D01*
X133715201Y-110505541D01*
X133779687Y-110570027D01*
X133779693Y-110570032D01*
X133852055Y-110625557D01*
X133889696Y-110647289D01*
X133931033Y-110671156D01*
X133931053Y-110671166D01*
X133979942Y-110691416D01*
X134015313Y-110706067D01*
X134103415Y-110729674D01*
X134123499Y-110732318D01*
X134193844Y-110741579D01*
X134193845Y-110741579D01*
X134285056Y-110741579D01*
X134315198Y-110737610D01*
X134375485Y-110729674D01*
X134463587Y-110706067D01*
X134532926Y-110677346D01*
X134547846Y-110671166D01*
X134547849Y-110671164D01*
X134547855Y-110671162D01*
X134547861Y-110671158D01*
X134547866Y-110671156D01*
X134576863Y-110654414D01*
X134626845Y-110625557D01*
X134699207Y-110570032D01*
X134763703Y-110505536D01*
X134819228Y-110433174D01*
X134863035Y-110357299D01*
X134864827Y-110354195D01*
X134864837Y-110354175D01*
X134882322Y-110311961D01*
X134899738Y-110269916D01*
X134923345Y-110181814D01*
X134935250Y-110091384D01*
X134935250Y-110000174D01*
X134923345Y-109909744D01*
X134899738Y-109821642D01*
X134880074Y-109774169D01*
X134864837Y-109737382D01*
X134864827Y-109737362D01*
X134827205Y-109672201D01*
X134819228Y-109658384D01*
X134771233Y-109595835D01*
X134763704Y-109586023D01*
X134763698Y-109586016D01*
X134699212Y-109521530D01*
X134699205Y-109521524D01*
X134626846Y-109466002D01*
X134626847Y-109466002D01*
X134626845Y-109466001D01*
X134608024Y-109455134D01*
X134547866Y-109420401D01*
X134547846Y-109420391D01*
X134463585Y-109385490D01*
X134375483Y-109361883D01*
X134285056Y-109349979D01*
X134285055Y-109349979D01*
X134193845Y-109349979D01*
X134193844Y-109349979D01*
X134103416Y-109361883D01*
X134015314Y-109385490D01*
X133931053Y-109420391D01*
X133931033Y-109420401D01*
X133852053Y-109466002D01*
X133779694Y-109521524D01*
X133779687Y-109521530D01*
X133715201Y-109586016D01*
X133715195Y-109586023D01*
X133659673Y-109658382D01*
X133614072Y-109737362D01*
X133614062Y-109737382D01*
X133579161Y-109821643D01*
X133555554Y-109909745D01*
X133543650Y-110000173D01*
X132903250Y-110000173D01*
X132891345Y-109909744D01*
X132867738Y-109821642D01*
X132848074Y-109774169D01*
X132832837Y-109737382D01*
X132832827Y-109737362D01*
X132795205Y-109672201D01*
X132787228Y-109658384D01*
X132739233Y-109595835D01*
X132731704Y-109586023D01*
X132731698Y-109586016D01*
X132667212Y-109521530D01*
X132667205Y-109521524D01*
X132594846Y-109466002D01*
X132594847Y-109466002D01*
X132594845Y-109466001D01*
X132576024Y-109455134D01*
X132515866Y-109420401D01*
X132515846Y-109420391D01*
X132431585Y-109385490D01*
X132343483Y-109361883D01*
X132253056Y-109349979D01*
X132253055Y-109349979D01*
X132161845Y-109349979D01*
X132161844Y-109349979D01*
X132071416Y-109361883D01*
X131983314Y-109385490D01*
X131899053Y-109420391D01*
X131899033Y-109420401D01*
X131820053Y-109466002D01*
X131747694Y-109521524D01*
X131747687Y-109521530D01*
X131683201Y-109586016D01*
X131683195Y-109586023D01*
X131627673Y-109658382D01*
X131582072Y-109737362D01*
X131582062Y-109737382D01*
X131547161Y-109821643D01*
X131523554Y-109909745D01*
X131511650Y-110000173D01*
X124900000Y-110000173D01*
X124900000Y-105650000D01*
X125350000Y-106100000D01*
X129025000Y-106100000D01*
X129600000Y-105525000D01*
X129600000Y-102831250D01*
X129168750Y-102400000D01*
X125400000Y-102400000D01*
X124900000Y-102900000D01*
X124900000Y-99524000D01*
X124906069Y-99485682D01*
X124923682Y-99451115D01*
X124951115Y-99423682D01*
X124985682Y-99406069D01*
X125024000Y-99400000D01*
X128248638Y-99400000D01*
X128286956Y-99406069D01*
X128321523Y-99423682D01*
X128336319Y-99436319D01*
X131463681Y-102563681D01*
X131486485Y-102595067D01*
X131498473Y-102631964D01*
X131500000Y-102651362D01*
X131500000Y-104700000D01*
X133700000Y-106900000D01*
X138300000Y-106900000D01*
X143000000Y-102200000D01*
X143000000Y-95623008D01*
X146098683Y-95623008D01*
X146673804Y-96198804D01*
X148400000Y-96200000D01*
X149900000Y-95000000D01*
X149900000Y-93425000D01*
X149375004Y-92897928D01*
X146928345Y-92888270D01*
X146099602Y-93713351D01*
X146098683Y-95623008D01*
X143000000Y-95623008D01*
X143000000Y-89551362D01*
X143006069Y-89513044D01*
X143023682Y-89478477D01*
X143036319Y-89463681D01*
X143665873Y-88834127D01*
X144300000Y-88200000D01*
X144300000Y-87624500D01*
X144306069Y-87586182D01*
X144323682Y-87551615D01*
X144351115Y-87524182D01*
X144385682Y-87506569D01*
X144424000Y-87500500D01*
X149917060Y-87500500D01*
X149955378Y-87506569D01*
X149989945Y-87524182D01*
X150004741Y-87536819D01*
X152663181Y-90195259D01*
X152685985Y-90226645D01*
X152697973Y-90263542D01*
X152699500Y-90282940D01*
X152699500Y-92926710D01*
X152693431Y-92965028D01*
X152675818Y-92999595D01*
X152648385Y-93027028D01*
X152640290Y-93032437D01*
X152554536Y-93084987D01*
X152554503Y-93085009D01*
X152446425Y-93163532D01*
X152446412Y-93163542D01*
X152344815Y-93250315D01*
X152344801Y-93250328D01*
X152250328Y-93344801D01*
X152250315Y-93344815D01*
X152163542Y-93446412D01*
X152163532Y-93446425D01*
X152085009Y-93554503D01*
X152084999Y-93554517D01*
X152084995Y-93554524D01*
X152018573Y-93662917D01*
X152015174Y-93668463D01*
X151954510Y-93787522D01*
X151903379Y-93910962D01*
X151903377Y-93910967D01*
X151880496Y-93981388D01*
X151862082Y-94038059D01*
X151841347Y-94124430D01*
X151830887Y-94167998D01*
X151809984Y-94299971D01*
X151809984Y-94299972D01*
X151799500Y-94433181D01*
X151799500Y-94566818D01*
X151809984Y-94700027D01*
X151809984Y-94700028D01*
X151829981Y-94826278D01*
X151830888Y-94832007D01*
X151862082Y-94961941D01*
X151898603Y-95074339D01*
X151903377Y-95089032D01*
X151903379Y-95089037D01*
X151930398Y-95154265D01*
X151954511Y-95212480D01*
X152015176Y-95331541D01*
X152084995Y-95445476D01*
X152084999Y-95445482D01*
X152085009Y-95445496D01*
X152163532Y-95553574D01*
X152163542Y-95553587D01*
X152238915Y-95641836D01*
X152250321Y-95655191D01*
X152344809Y-95749679D01*
X152446418Y-95836462D01*
X152446425Y-95836467D01*
X152553045Y-95913931D01*
X152554524Y-95915005D01*
X152668459Y-95984824D01*
X152787520Y-96045489D01*
X152910974Y-96096625D01*
X153038059Y-96137918D01*
X153167993Y-96169112D01*
X153299973Y-96190016D01*
X153433187Y-96200500D01*
X153433195Y-96200500D01*
X153566805Y-96200500D01*
X153566813Y-96200500D01*
X153700027Y-96190016D01*
X153832007Y-96169112D01*
X153961941Y-96137918D01*
X154089026Y-96096625D01*
X154212480Y-96045489D01*
X154331541Y-95984824D01*
X154445476Y-95915005D01*
X154553582Y-95836462D01*
X154655191Y-95749679D01*
X154749679Y-95655191D01*
X154836462Y-95553582D01*
X154915005Y-95445476D01*
X154984824Y-95331541D01*
X155045489Y-95212480D01*
X155096625Y-95089026D01*
X155137918Y-94961941D01*
X155169112Y-94832007D01*
X155190016Y-94700027D01*
X155200500Y-94566813D01*
X155200500Y-94433187D01*
X155190016Y-94299973D01*
X155169112Y-94167993D01*
X155137918Y-94038059D01*
X155096625Y-93910974D01*
X155045489Y-93787520D01*
X154984824Y-93668459D01*
X154915005Y-93554524D01*
X154905965Y-93542082D01*
X154836467Y-93446425D01*
X154836457Y-93446412D01*
X154749684Y-93344815D01*
X154749679Y-93344809D01*
X154655191Y-93250321D01*
X154615274Y-93216228D01*
X154553587Y-93163542D01*
X154553574Y-93163532D01*
X154445496Y-93085009D01*
X154445487Y-93085003D01*
X154445476Y-93084995D01*
X154441483Y-93082548D01*
X154359710Y-93032437D01*
X154330209Y-93007241D01*
X154309939Y-92974162D01*
X154300882Y-92936439D01*
X154300500Y-92926710D01*
X154300500Y-89855041D01*
X154300499Y-89855040D01*
X154290434Y-89765712D01*
X154290433Y-89765700D01*
X154270426Y-89678044D01*
X154240731Y-89593179D01*
X154201720Y-89512173D01*
X154201717Y-89512168D01*
X154153889Y-89436050D01*
X154153887Y-89436048D01*
X154153885Y-89436044D01*
X154097827Y-89365749D01*
X154034251Y-89302173D01*
X150834251Y-86102173D01*
X150763956Y-86046115D01*
X150763952Y-86046112D01*
X150763949Y-86046110D01*
X150687831Y-85998282D01*
X150606818Y-85959267D01*
X150521956Y-85929574D01*
X150521950Y-85929572D01*
X150434303Y-85909567D01*
X150434287Y-85909565D01*
X150344959Y-85899500D01*
X150344955Y-85899500D01*
X144424000Y-85899500D01*
X144385682Y-85893431D01*
X144351115Y-85875818D01*
X144323682Y-85848385D01*
X144306069Y-85813818D01*
X144300000Y-85775500D01*
X144300000Y-83524000D01*
X144306069Y-83485682D01*
X144323682Y-83451115D01*
X144351115Y-83423682D01*
X144385682Y-83406069D01*
X144424000Y-83400000D01*
X164208554Y-83400000D01*
X164246872Y-83406069D01*
G37*
%TD.AperFunction*%
%TA.AperFunction,Conductor*%
G36*
X146469111Y-107195674D02*
G01*
X146504065Y-107212507D01*
X146532107Y-107239317D01*
X146535365Y-107243801D01*
X146569034Y-107292401D01*
X146616828Y-107340195D01*
X146672389Y-107378687D01*
X146672392Y-107378688D01*
X146672393Y-107378689D01*
X146733926Y-107406639D01*
X146733927Y-107406639D01*
X146733929Y-107406640D01*
X146799471Y-107423155D01*
X146839163Y-107426279D01*
X147027736Y-107426278D01*
X147067429Y-107423155D01*
X147123150Y-107409114D01*
X147161786Y-107405638D01*
X147199609Y-107414271D01*
X147232913Y-107434169D01*
X147258438Y-107463385D01*
X147273686Y-107499059D01*
X147277163Y-107537699D01*
X147269534Y-107571122D01*
X147270008Y-107571283D01*
X147268700Y-107575134D01*
X147255720Y-107623577D01*
X147246925Y-107656404D01*
X147244937Y-107663822D01*
X147244935Y-107663833D01*
X147232950Y-107754858D01*
X147232950Y-107846699D01*
X147240005Y-107900279D01*
X147244936Y-107937733D01*
X147254828Y-107974651D01*
X147265055Y-108012821D01*
X147268702Y-108026430D01*
X147303843Y-108111267D01*
X147303845Y-108111270D01*
X147303852Y-108111283D01*
X147349752Y-108190786D01*
X147349753Y-108190788D01*
X147405654Y-108263640D01*
X147405660Y-108263647D01*
X147470581Y-108328568D01*
X147470588Y-108328574D01*
X147543440Y-108384475D01*
X147543442Y-108384476D01*
X147581718Y-108406574D01*
X147622962Y-108430386D01*
X147707799Y-108465527D01*
X147796496Y-108489293D01*
X147887537Y-108501279D01*
X147887544Y-108501279D01*
X147979356Y-108501279D01*
X147979363Y-108501279D01*
X148070404Y-108489293D01*
X148159101Y-108465527D01*
X148243938Y-108430386D01*
X148320762Y-108386032D01*
X148323457Y-108384476D01*
X148323459Y-108384475D01*
X148328771Y-108380399D01*
X148396313Y-108328573D01*
X148461244Y-108263642D01*
X148517144Y-108190791D01*
X148563057Y-108111267D01*
X148598198Y-108026430D01*
X148621964Y-107937733D01*
X148633950Y-107846692D01*
X148633950Y-107754866D01*
X148621964Y-107663825D01*
X148598198Y-107575128D01*
X148598192Y-107575114D01*
X148596892Y-107571283D01*
X148597518Y-107571070D01*
X148589839Y-107539107D01*
X148592876Y-107500430D01*
X148607717Y-107464585D01*
X148632908Y-107435080D01*
X148665983Y-107414804D01*
X148703705Y-107405741D01*
X148742382Y-107408778D01*
X148743686Y-107409098D01*
X148799471Y-107423155D01*
X148839163Y-107426279D01*
X149027736Y-107426278D01*
X149067429Y-107423155D01*
X149132971Y-107406640D01*
X149132980Y-107406635D01*
X149138224Y-107404802D01*
X149138393Y-107405287D01*
X149169557Y-107396684D01*
X149208314Y-107398421D01*
X149228601Y-107405013D01*
X149228676Y-107404802D01*
X149233922Y-107406638D01*
X149233927Y-107406639D01*
X149233929Y-107406640D01*
X149299471Y-107423155D01*
X149339163Y-107426279D01*
X149527736Y-107426278D01*
X149567429Y-107423155D01*
X149567447Y-107423150D01*
X149571366Y-107422508D01*
X149610161Y-107422291D01*
X149647125Y-107434072D01*
X149678638Y-107456700D01*
X149701617Y-107487958D01*
X149713813Y-107524787D01*
X149714017Y-107561297D01*
X149714333Y-107561339D01*
X149701817Y-107656396D01*
X149701817Y-107748237D01*
X149708621Y-107799913D01*
X149713803Y-107839271D01*
X149737569Y-107927968D01*
X149772710Y-108012805D01*
X149772712Y-108012808D01*
X149772719Y-108012821D01*
X149818619Y-108092324D01*
X149818620Y-108092326D01*
X149874521Y-108165178D01*
X149874527Y-108165185D01*
X149939448Y-108230106D01*
X149939455Y-108230112D01*
X150012307Y-108286013D01*
X150012309Y-108286014D01*
X150064778Y-108316306D01*
X150091829Y-108331924D01*
X150176666Y-108367065D01*
X150265363Y-108390831D01*
X150356404Y-108402817D01*
X150356411Y-108402817D01*
X150448223Y-108402817D01*
X150448230Y-108402817D01*
X150539271Y-108390831D01*
X150627968Y-108367065D01*
X150712805Y-108331924D01*
X150783605Y-108291047D01*
X150819823Y-108277145D01*
X150858565Y-108275114D01*
X150896039Y-108285155D01*
X150928576Y-108306285D01*
X150952991Y-108336435D01*
X150966894Y-108372654D01*
X150968925Y-108411396D01*
X150958884Y-108448870D01*
X150943981Y-108473920D01*
X150916302Y-108509992D01*
X150870402Y-108589495D01*
X150870395Y-108589508D01*
X150870393Y-108589512D01*
X150838379Y-108666800D01*
X150835253Y-108674347D01*
X150835250Y-108674355D01*
X150811487Y-108763043D01*
X150811485Y-108763054D01*
X150799500Y-108854079D01*
X150799500Y-108945920D01*
X150806660Y-109000300D01*
X150811486Y-109036954D01*
X150835252Y-109125651D01*
X150870393Y-109210488D01*
X150870395Y-109210491D01*
X150870402Y-109210504D01*
X150916302Y-109290007D01*
X150916303Y-109290009D01*
X150972204Y-109362861D01*
X150972210Y-109362868D01*
X151037131Y-109427789D01*
X151037138Y-109427795D01*
X151109990Y-109483696D01*
X151109992Y-109483697D01*
X151161868Y-109513647D01*
X151189512Y-109529607D01*
X151274349Y-109564748D01*
X151363046Y-109588514D01*
X151454087Y-109600500D01*
X151454094Y-109600500D01*
X151545906Y-109600500D01*
X151545913Y-109600500D01*
X151636954Y-109588514D01*
X151651862Y-109584519D01*
X151690439Y-109580465D01*
X151728387Y-109588531D01*
X151761985Y-109607928D01*
X151787945Y-109636759D01*
X151803725Y-109672201D01*
X151807950Y-109704294D01*
X151807950Y-109895053D01*
X151807951Y-109895074D01*
X151811074Y-109934758D01*
X151827588Y-110000298D01*
X151829429Y-110005558D01*
X151828943Y-110005727D01*
X151837546Y-110036897D01*
X151835804Y-110075654D01*
X151829217Y-110095926D01*
X151829429Y-110096000D01*
X151827589Y-110101257D01*
X151811074Y-110166799D01*
X151811074Y-110166801D01*
X151807950Y-110206488D01*
X151807950Y-110395053D01*
X151807951Y-110395074D01*
X151811074Y-110434758D01*
X151827588Y-110500298D01*
X151829429Y-110505558D01*
X151828943Y-110505727D01*
X151837546Y-110536897D01*
X151835804Y-110575654D01*
X151829217Y-110595926D01*
X151829429Y-110596000D01*
X151827589Y-110601257D01*
X151814196Y-110654411D01*
X151811074Y-110666800D01*
X151810670Y-110671937D01*
X151807950Y-110706488D01*
X151807950Y-110895053D01*
X151807951Y-110895074D01*
X151811074Y-110934758D01*
X151827588Y-111000298D01*
X151829429Y-111005558D01*
X151828943Y-111005727D01*
X151837546Y-111036897D01*
X151835804Y-111075654D01*
X151829217Y-111095926D01*
X151829429Y-111096000D01*
X151827589Y-111101257D01*
X151811074Y-111166799D01*
X151811074Y-111166801D01*
X151807950Y-111206488D01*
X151807950Y-111395053D01*
X151807951Y-111395074D01*
X151811074Y-111434758D01*
X151827588Y-111500298D01*
X151829429Y-111505558D01*
X151828943Y-111505727D01*
X151837546Y-111536897D01*
X151835804Y-111575654D01*
X151829217Y-111595926D01*
X151829429Y-111596000D01*
X151827589Y-111601257D01*
X151811074Y-111666799D01*
X151811074Y-111666801D01*
X151807950Y-111706488D01*
X151807950Y-111895053D01*
X151807951Y-111895074D01*
X151811074Y-111934758D01*
X151827588Y-112000298D01*
X151829429Y-112005558D01*
X151828943Y-112005727D01*
X151837546Y-112036897D01*
X151835804Y-112075654D01*
X151829217Y-112095926D01*
X151829429Y-112096000D01*
X151827589Y-112101257D01*
X151811074Y-112166799D01*
X151811074Y-112166801D01*
X151807950Y-112206488D01*
X151807950Y-112395053D01*
X151807951Y-112395074D01*
X151811074Y-112434758D01*
X151827588Y-112500298D01*
X151829429Y-112505558D01*
X151828943Y-112505727D01*
X151837546Y-112536897D01*
X151835804Y-112575654D01*
X151829217Y-112595926D01*
X151829429Y-112596000D01*
X151827589Y-112601257D01*
X151811074Y-112666799D01*
X151811074Y-112666801D01*
X151807950Y-112706488D01*
X151807950Y-112895053D01*
X151807951Y-112895074D01*
X151811074Y-112934758D01*
X151827588Y-113000298D01*
X151829429Y-113005558D01*
X151828943Y-113005727D01*
X151837546Y-113036897D01*
X151835804Y-113075654D01*
X151834238Y-113082353D01*
X151831565Y-113092503D01*
X151827589Y-113101258D01*
X151811074Y-113166800D01*
X151810678Y-113171830D01*
X151808039Y-113181853D01*
X151802562Y-113194297D01*
X151798290Y-113207199D01*
X151794792Y-113211956D01*
X151792413Y-113217363D01*
X151783360Y-113227504D01*
X151775309Y-113238456D01*
X151770511Y-113241900D01*
X151766579Y-113246306D01*
X151754836Y-113253153D01*
X151743794Y-113261081D01*
X151738166Y-113262874D01*
X151733065Y-113265849D01*
X151719778Y-113268733D01*
X151706829Y-113272860D01*
X151697518Y-113273566D01*
X151695153Y-113274080D01*
X151693260Y-113273889D01*
X151688126Y-113274279D01*
X150175959Y-113274279D01*
X150109809Y-113284756D01*
X150046124Y-113305448D01*
X150046116Y-113305451D01*
X150046116Y-113305452D01*
X150001538Y-113328166D01*
X150001534Y-113328167D01*
X150001534Y-113328168D01*
X149986443Y-113335856D01*
X149932257Y-113375225D01*
X149665001Y-113642480D01*
X149633614Y-113665283D01*
X149596717Y-113677271D01*
X149567590Y-113678416D01*
X149567430Y-113678403D01*
X149567429Y-113678403D01*
X149527737Y-113675279D01*
X149527735Y-113675279D01*
X149339175Y-113675279D01*
X149339154Y-113675280D01*
X149299470Y-113678403D01*
X149233930Y-113694917D01*
X149228671Y-113696758D01*
X149228501Y-113696272D01*
X149197332Y-113704875D01*
X149158575Y-113703133D01*
X149138302Y-113696546D01*
X149138229Y-113696758D01*
X149132971Y-113694918D01*
X149132967Y-113694917D01*
X149067429Y-113678403D01*
X149027737Y-113675279D01*
X149027735Y-113675279D01*
X148839175Y-113675279D01*
X148839154Y-113675280D01*
X148799470Y-113678403D01*
X148733930Y-113694917D01*
X148728671Y-113696758D01*
X148728501Y-113696272D01*
X148697332Y-113704875D01*
X148658575Y-113703133D01*
X148638302Y-113696546D01*
X148638229Y-113696758D01*
X148632971Y-113694918D01*
X148632967Y-113694917D01*
X148567429Y-113678403D01*
X148527737Y-113675279D01*
X148527735Y-113675279D01*
X148339175Y-113675279D01*
X148339154Y-113675280D01*
X148299470Y-113678403D01*
X148233930Y-113694917D01*
X148228671Y-113696758D01*
X148228501Y-113696272D01*
X148197332Y-113704875D01*
X148158575Y-113703133D01*
X148138302Y-113696546D01*
X148138229Y-113696758D01*
X148132971Y-113694918D01*
X148132967Y-113694917D01*
X148067429Y-113678403D01*
X148027737Y-113675279D01*
X148027735Y-113675279D01*
X147839175Y-113675279D01*
X147839154Y-113675280D01*
X147799470Y-113678403D01*
X147733930Y-113694917D01*
X147728671Y-113696758D01*
X147728501Y-113696272D01*
X147697332Y-113704875D01*
X147658575Y-113703133D01*
X147638302Y-113696546D01*
X147638229Y-113696758D01*
X147632971Y-113694918D01*
X147632967Y-113694917D01*
X147567429Y-113678403D01*
X147527737Y-113675279D01*
X147527735Y-113675279D01*
X147339175Y-113675279D01*
X147339154Y-113675280D01*
X147299470Y-113678403D01*
X147233930Y-113694917D01*
X147228671Y-113696758D01*
X147228501Y-113696272D01*
X147197332Y-113704875D01*
X147158575Y-113703133D01*
X147138302Y-113696546D01*
X147138229Y-113696758D01*
X147132971Y-113694918D01*
X147132967Y-113694917D01*
X147067429Y-113678403D01*
X147027737Y-113675279D01*
X147027735Y-113675279D01*
X146839175Y-113675279D01*
X146839154Y-113675280D01*
X146799470Y-113678403D01*
X146733930Y-113694917D01*
X146728671Y-113696758D01*
X146728501Y-113696272D01*
X146697332Y-113704875D01*
X146658575Y-113703133D01*
X146638302Y-113696546D01*
X146638229Y-113696758D01*
X146632971Y-113694918D01*
X146632967Y-113694917D01*
X146567429Y-113678403D01*
X146527737Y-113675279D01*
X146527735Y-113675279D01*
X146339175Y-113675279D01*
X146339154Y-113675280D01*
X146299470Y-113678403D01*
X146233930Y-113694917D01*
X146228671Y-113696758D01*
X146228501Y-113696272D01*
X146197332Y-113704875D01*
X146158575Y-113703133D01*
X146138302Y-113696546D01*
X146138229Y-113696758D01*
X146132971Y-113694918D01*
X146132967Y-113694917D01*
X146067429Y-113678403D01*
X146027737Y-113675279D01*
X146027735Y-113675279D01*
X145839175Y-113675279D01*
X145839154Y-113675280D01*
X145799470Y-113678403D01*
X145733930Y-113694917D01*
X145678158Y-113720250D01*
X145640760Y-113730570D01*
X145602004Y-113728829D01*
X145565682Y-113715197D01*
X145535350Y-113691008D01*
X145513978Y-113658630D01*
X145503658Y-113621232D01*
X145505399Y-113582476D01*
X145513977Y-113556074D01*
X145539311Y-113500300D01*
X145555826Y-113434758D01*
X145558950Y-113395066D01*
X145558949Y-113206493D01*
X145555826Y-113166800D01*
X145539311Y-113101258D01*
X145539308Y-113101252D01*
X145537473Y-113096005D01*
X145537958Y-113095835D01*
X145529355Y-113064672D01*
X145531092Y-113025915D01*
X145537684Y-113005627D01*
X145537473Y-113005553D01*
X145539309Y-113000306D01*
X145539311Y-113000300D01*
X145555826Y-112934758D01*
X145558950Y-112895066D01*
X145558949Y-112706493D01*
X145555826Y-112666800D01*
X145539311Y-112601258D01*
X145539308Y-112601252D01*
X145537473Y-112596005D01*
X145537958Y-112595835D01*
X145529355Y-112564672D01*
X145531092Y-112525915D01*
X145537684Y-112505627D01*
X145537473Y-112505553D01*
X145539309Y-112500306D01*
X145539311Y-112500300D01*
X145555826Y-112434758D01*
X145558950Y-112395066D01*
X145558949Y-112206493D01*
X145555826Y-112166800D01*
X145539311Y-112101258D01*
X145539308Y-112101252D01*
X145537473Y-112096005D01*
X145537958Y-112095835D01*
X145529355Y-112064672D01*
X145531092Y-112025915D01*
X145537684Y-112005627D01*
X145537473Y-112005553D01*
X145539309Y-112000306D01*
X145539311Y-112000300D01*
X145555826Y-111934758D01*
X145558950Y-111895066D01*
X145558949Y-111706493D01*
X145555826Y-111666800D01*
X145539311Y-111601258D01*
X145511358Y-111539718D01*
X145472866Y-111484157D01*
X145425072Y-111436363D01*
X145421520Y-111432811D01*
X145398716Y-111401425D01*
X145386728Y-111364528D01*
X145386728Y-111325732D01*
X145398716Y-111288835D01*
X145421520Y-111257449D01*
X145452906Y-111234645D01*
X145489799Y-111222658D01*
X145533088Y-111215802D01*
X145596786Y-111195106D01*
X145656461Y-111164699D01*
X145710644Y-111125333D01*
X146758004Y-110077973D01*
X146797371Y-110023790D01*
X146827777Y-109964115D01*
X146840272Y-109925658D01*
X146848473Y-109900417D01*
X146855717Y-109854678D01*
X146858950Y-109834271D01*
X146858950Y-109667299D01*
X146865019Y-109628981D01*
X146882632Y-109594414D01*
X146895269Y-109579618D01*
X146961239Y-109513647D01*
X146961244Y-109513642D01*
X147017144Y-109440791D01*
X147063057Y-109361267D01*
X147098198Y-109276430D01*
X147121964Y-109187733D01*
X147133950Y-109096692D01*
X147133950Y-109004866D01*
X147121964Y-108913825D01*
X147098198Y-108825128D01*
X147063057Y-108740291D01*
X147033662Y-108689377D01*
X147017147Y-108660771D01*
X147017146Y-108660769D01*
X146961245Y-108587917D01*
X146961239Y-108587910D01*
X146896318Y-108522989D01*
X146896311Y-108522983D01*
X146823459Y-108467082D01*
X146823455Y-108467080D01*
X146743954Y-108421181D01*
X146743941Y-108421174D01*
X146743942Y-108421174D01*
X146743938Y-108421172D01*
X146659101Y-108386031D01*
X146653286Y-108384473D01*
X146623892Y-108376597D01*
X146570404Y-108362265D01*
X146555184Y-108360261D01*
X146479370Y-108350279D01*
X146479363Y-108350279D01*
X146387537Y-108350279D01*
X146387529Y-108350279D01*
X146300883Y-108361687D01*
X146296496Y-108362265D01*
X146278582Y-108367065D01*
X146207805Y-108386029D01*
X146207801Y-108386030D01*
X146207799Y-108386031D01*
X146122962Y-108421172D01*
X146122959Y-108421173D01*
X146122958Y-108421174D01*
X146122945Y-108421181D01*
X146043445Y-108467080D01*
X146043440Y-108467082D01*
X145970588Y-108522983D01*
X145970581Y-108522989D01*
X145905660Y-108587910D01*
X145905654Y-108587917D01*
X145849753Y-108660769D01*
X145849752Y-108660771D01*
X145803852Y-108740274D01*
X145803841Y-108740295D01*
X145797509Y-108755583D01*
X145777238Y-108788661D01*
X145747737Y-108813856D01*
X145711894Y-108828702D01*
X145673218Y-108831746D01*
X145635494Y-108822688D01*
X145602416Y-108802417D01*
X145577221Y-108772916D01*
X145562375Y-108737073D01*
X145561197Y-108731631D01*
X145558949Y-108719986D01*
X145558949Y-108706493D01*
X145555826Y-108666800D01*
X145539311Y-108601258D01*
X145533604Y-108588694D01*
X145530822Y-108574282D01*
X145530657Y-108569390D01*
X145529355Y-108564672D01*
X145530008Y-108550091D01*
X145529518Y-108535508D01*
X145530872Y-108530806D01*
X145531092Y-108525915D01*
X145537684Y-108505627D01*
X145537473Y-108505553D01*
X145539309Y-108500306D01*
X145542084Y-108489293D01*
X145555826Y-108434758D01*
X145558950Y-108395066D01*
X145558949Y-108206493D01*
X145555826Y-108166800D01*
X145539311Y-108101258D01*
X145539308Y-108101252D01*
X145537473Y-108096005D01*
X145537958Y-108095835D01*
X145529355Y-108064672D01*
X145531092Y-108025915D01*
X145537684Y-108005627D01*
X145537473Y-108005553D01*
X145539309Y-108000306D01*
X145539311Y-108000300D01*
X145555826Y-107934758D01*
X145558950Y-107895066D01*
X145558949Y-107706493D01*
X145555826Y-107666800D01*
X145539311Y-107601258D01*
X145513978Y-107545487D01*
X145503658Y-107508091D01*
X145505398Y-107469334D01*
X145519030Y-107433012D01*
X145543219Y-107402680D01*
X145575596Y-107381308D01*
X145612994Y-107370987D01*
X145651751Y-107372727D01*
X145678157Y-107381307D01*
X145733929Y-107406640D01*
X145799471Y-107423155D01*
X145839163Y-107426279D01*
X146027736Y-107426278D01*
X146067429Y-107423155D01*
X146132971Y-107406640D01*
X146194511Y-107378687D01*
X146250072Y-107340195D01*
X146297866Y-107292401D01*
X146331523Y-107243818D01*
X146358331Y-107215779D01*
X146392494Y-107197395D01*
X146430666Y-107190467D01*
X146469111Y-107195674D01*
G37*
%TD.AperFunction*%
%TA.AperFunction,Conductor*%
G36*
X155177679Y-107772076D02*
G01*
X155211170Y-107791659D01*
X155220286Y-107799913D01*
X155240547Y-107820174D01*
X155263351Y-107851560D01*
X155275339Y-107888457D01*
X155276866Y-107907855D01*
X155276866Y-108521093D01*
X155270797Y-108559411D01*
X155253184Y-108593978D01*
X155240547Y-108608774D01*
X155039830Y-108809490D01*
X155037755Y-108811517D01*
X155031749Y-108817247D01*
X155027767Y-108820142D01*
X155007944Y-108839964D01*
X155006873Y-108840987D01*
X154992107Y-108851195D01*
X154977562Y-108861764D01*
X154976165Y-108862217D01*
X154974962Y-108863050D01*
X154957748Y-108868201D01*
X154940665Y-108873752D01*
X154938679Y-108873908D01*
X154937795Y-108874173D01*
X154935884Y-108874128D01*
X154921267Y-108875279D01*
X154007949Y-108875279D01*
X153969631Y-108869210D01*
X153935064Y-108851597D01*
X153907631Y-108824164D01*
X153890018Y-108789597D01*
X153883949Y-108751279D01*
X153883949Y-108706503D01*
X153883948Y-108706483D01*
X153881420Y-108674355D01*
X153880826Y-108666800D01*
X153864311Y-108601258D01*
X153836726Y-108540528D01*
X153836360Y-108539722D01*
X153836359Y-108539721D01*
X153836358Y-108539718D01*
X153797866Y-108484157D01*
X153751669Y-108437960D01*
X153728865Y-108406574D01*
X153716877Y-108369677D01*
X153716877Y-108330881D01*
X153728865Y-108293984D01*
X153751669Y-108262598D01*
X153783055Y-108239794D01*
X153819952Y-108227806D01*
X153839350Y-108226279D01*
X154216942Y-108226279D01*
X154248767Y-108221237D01*
X154283088Y-108215802D01*
X154330698Y-108200333D01*
X154346786Y-108195106D01*
X154406461Y-108164699D01*
X154427779Y-108149210D01*
X154436499Y-108144772D01*
X154445755Y-108141768D01*
X154454431Y-108137348D01*
X154464096Y-108135817D01*
X154473401Y-108132798D01*
X154483134Y-108132801D01*
X154492749Y-108131279D01*
X154627762Y-108131279D01*
X154627774Y-108131279D01*
X154658123Y-108129395D01*
X154729571Y-108114414D01*
X154797579Y-108087877D01*
X154860292Y-108050508D01*
X154876363Y-108036897D01*
X154915997Y-108003328D01*
X154915999Y-108003326D01*
X154963175Y-107947626D01*
X154963175Y-107947624D01*
X154963179Y-107947621D01*
X154991389Y-107900279D01*
X155000546Y-107884912D01*
X155000548Y-107884908D01*
X155017089Y-107842515D01*
X155036670Y-107809029D01*
X155065643Y-107783229D01*
X155101171Y-107767644D01*
X155139776Y-107763802D01*
X155177679Y-107772076D01*
G37*
%TD.AperFunction*%
%TA.AperFunction,Conductor*%
G36*
X154477268Y-102232348D02*
G01*
X154511835Y-102249961D01*
X154539268Y-102277394D01*
X154556881Y-102311961D01*
X154562950Y-102350279D01*
X154562950Y-103011479D01*
X154561322Y-103021756D01*
X154561213Y-103032162D01*
X154558306Y-103040798D01*
X154556881Y-103049797D01*
X154552157Y-103059067D01*
X154548838Y-103068931D01*
X154544621Y-103076995D01*
X154529530Y-103097768D01*
X154499123Y-103157443D01*
X154496698Y-103164908D01*
X154493480Y-103174809D01*
X154493478Y-103174815D01*
X154478427Y-103221139D01*
X154467950Y-103287286D01*
X154467950Y-104240839D01*
X154461881Y-104279157D01*
X154444268Y-104313724D01*
X154438573Y-104320980D01*
X154393719Y-104373938D01*
X154393719Y-104373939D01*
X154356353Y-104436647D01*
X154356352Y-104436647D01*
X154329817Y-104504650D01*
X154329816Y-104504654D01*
X154329815Y-104504657D01*
X154329815Y-104504658D01*
X154329421Y-104506539D01*
X154314833Y-104576107D01*
X154312950Y-104606444D01*
X154312950Y-104995113D01*
X154314833Y-105025450D01*
X154316075Y-105031372D01*
X154325803Y-105077768D01*
X154329816Y-105096903D01*
X154329817Y-105096907D01*
X154345635Y-105137443D01*
X154356350Y-105164904D01*
X154356353Y-105164910D01*
X154393719Y-105227618D01*
X154393724Y-105227626D01*
X154440900Y-105283326D01*
X154440902Y-105283328D01*
X154496602Y-105330504D01*
X154496606Y-105330507D01*
X154496608Y-105330508D01*
X154553509Y-105364414D01*
X154559318Y-105367875D01*
X154559318Y-105367876D01*
X154627321Y-105394411D01*
X154627329Y-105394414D01*
X154698777Y-105409395D01*
X154729126Y-105411279D01*
X154729138Y-105411279D01*
X155057762Y-105411279D01*
X155057774Y-105411279D01*
X155088123Y-105409395D01*
X155159571Y-105394414D01*
X155227579Y-105367877D01*
X155290292Y-105330508D01*
X155305227Y-105317858D01*
X155338384Y-105297725D01*
X155376145Y-105288823D01*
X155414808Y-105292024D01*
X155450590Y-105307017D01*
X155473050Y-105324798D01*
X156013181Y-105864929D01*
X156035985Y-105896315D01*
X156047973Y-105933212D01*
X156049500Y-105952610D01*
X156049500Y-106276240D01*
X156049501Y-106276262D01*
X156051339Y-106308994D01*
X156051339Y-106308998D01*
X156051340Y-106309002D01*
X156054609Y-106326278D01*
X156065982Y-106386394D01*
X156091995Y-106460731D01*
X156128794Y-106530361D01*
X156128798Y-106530367D01*
X156175569Y-106593740D01*
X156231259Y-106649430D01*
X156272138Y-106679600D01*
X156294633Y-106696202D01*
X156294635Y-106696203D01*
X156294638Y-106696205D01*
X156322731Y-106711052D01*
X156364267Y-106733004D01*
X156438609Y-106759018D01*
X156515998Y-106773660D01*
X156548757Y-106775500D01*
X157051242Y-106775499D01*
X157051250Y-106775498D01*
X157051262Y-106775498D01*
X157062830Y-106774848D01*
X157084002Y-106773660D01*
X157127448Y-106765439D01*
X157139041Y-106765092D01*
X157150500Y-106763278D01*
X157158315Y-106764515D01*
X157166226Y-106764279D01*
X157177361Y-106767532D01*
X157188818Y-106769347D01*
X157195868Y-106772939D01*
X157203465Y-106775159D01*
X157213050Y-106781694D01*
X157223385Y-106786960D01*
X157228979Y-106792554D01*
X157235519Y-106797013D01*
X157242615Y-106806190D01*
X157250818Y-106814393D01*
X157254411Y-106821445D01*
X157259251Y-106827704D01*
X157263163Y-106838621D01*
X157268431Y-106848960D01*
X157269669Y-106856777D01*
X157272338Y-106864225D01*
X157274500Y-106887278D01*
X157274500Y-107056619D01*
X157268431Y-107094937D01*
X157250818Y-107129504D01*
X157238181Y-107144300D01*
X156339547Y-108042934D01*
X156308161Y-108065738D01*
X156271264Y-108077726D01*
X156232468Y-108077726D01*
X156195571Y-108065738D01*
X156164185Y-108042934D01*
X156141381Y-108011548D01*
X156129393Y-107974651D01*
X156127866Y-107955253D01*
X156127866Y-107646752D01*
X156120660Y-107601258D01*
X156117389Y-107580607D01*
X156114290Y-107571070D01*
X156103448Y-107537699D01*
X156098862Y-107523585D01*
X156096693Y-107516909D01*
X156066286Y-107457234D01*
X156026920Y-107403051D01*
X153085269Y-104461400D01*
X153079532Y-104453504D01*
X153072632Y-104446604D01*
X153068202Y-104437910D01*
X153062465Y-104430014D01*
X153059448Y-104420731D01*
X153055019Y-104412037D01*
X153053492Y-104402397D01*
X153050477Y-104393117D01*
X153048950Y-104373719D01*
X153048950Y-104290285D01*
X153055019Y-104251967D01*
X153072632Y-104217400D01*
X153089570Y-104199152D01*
X153089467Y-104199049D01*
X153092259Y-104196256D01*
X153092816Y-104195657D01*
X153092915Y-104195572D01*
X153093093Y-104195422D01*
X153141345Y-104138451D01*
X153179562Y-104074315D01*
X153206701Y-104004764D01*
X153222023Y-103931694D01*
X153223950Y-103900652D01*
X153223949Y-102350278D01*
X153230018Y-102311961D01*
X153247631Y-102277394D01*
X153275064Y-102249961D01*
X153309631Y-102232348D01*
X153347949Y-102226279D01*
X154438950Y-102226279D01*
X154477268Y-102232348D01*
G37*
%TD.AperFunction*%
%TA.AperFunction,Conductor*%
G36*
X151937268Y-102232348D02*
G01*
X151971835Y-102249961D01*
X151999268Y-102277394D01*
X152016881Y-102311961D01*
X152022950Y-102350279D01*
X152022950Y-103900634D01*
X152022951Y-103900667D01*
X152024877Y-103931698D01*
X152040198Y-104004761D01*
X152040198Y-104004763D01*
X152067337Y-104074313D01*
X152067339Y-104074317D01*
X152089803Y-104112017D01*
X152105555Y-104138451D01*
X152118726Y-104154002D01*
X152153808Y-104195423D01*
X152154084Y-104195657D01*
X152154351Y-104195967D01*
X152157433Y-104199049D01*
X152157203Y-104199278D01*
X152179404Y-104225051D01*
X152194401Y-104260831D01*
X152197950Y-104290285D01*
X152197950Y-104634817D01*
X152198366Y-104637444D01*
X152198366Y-104637446D01*
X152208427Y-104700967D01*
X152208428Y-104700974D01*
X152229120Y-104764659D01*
X152229122Y-104764664D01*
X152229123Y-104764665D01*
X152259530Y-104824340D01*
X152283501Y-104857333D01*
X152298896Y-104878523D01*
X153667292Y-106246919D01*
X153690096Y-106278305D01*
X153702084Y-106315202D01*
X153702084Y-106353998D01*
X153690096Y-106390895D01*
X153667292Y-106422281D01*
X153641612Y-106441987D01*
X153563458Y-106487109D01*
X153490611Y-106543006D01*
X153490604Y-106543012D01*
X153425683Y-106607933D01*
X153425677Y-106607940D01*
X153369776Y-106680792D01*
X153369775Y-106680794D01*
X153323875Y-106760297D01*
X153323868Y-106760310D01*
X153323866Y-106760314D01*
X153298080Y-106822567D01*
X153288726Y-106845149D01*
X153288723Y-106845157D01*
X153264960Y-106933845D01*
X153264958Y-106933856D01*
X153252973Y-107024881D01*
X153252973Y-107116708D01*
X153252974Y-107116725D01*
X153265266Y-107210094D01*
X153264251Y-107248877D01*
X153251300Y-107285447D01*
X153227683Y-107316226D01*
X153195710Y-107338200D01*
X153158512Y-107349218D01*
X153142327Y-107350279D01*
X152164174Y-107350279D01*
X152164140Y-107350281D01*
X152147003Y-107351629D01*
X152140827Y-107351142D01*
X152134687Y-107351984D01*
X152121590Y-107349627D01*
X152108327Y-107348583D01*
X152102602Y-107346211D01*
X152096504Y-107345114D01*
X152084775Y-107338825D01*
X152072486Y-107333734D01*
X152067776Y-107329711D01*
X152062313Y-107326782D01*
X152056110Y-107319746D01*
X152042987Y-107308537D01*
X152035460Y-107298781D01*
X152030476Y-107291610D01*
X152029607Y-107289512D01*
X151983694Y-107209988D01*
X151927794Y-107137137D01*
X151912440Y-107121783D01*
X151906127Y-107112700D01*
X151902441Y-107105076D01*
X151897467Y-107098230D01*
X151894051Y-107087720D01*
X151889242Y-107077771D01*
X151888092Y-107069383D01*
X151885477Y-107061334D01*
X151883949Y-107041942D01*
X151883949Y-105706493D01*
X151880826Y-105666800D01*
X151864311Y-105601258D01*
X151836358Y-105539718D01*
X151797866Y-105484157D01*
X151750072Y-105436363D01*
X151694511Y-105397871D01*
X151694509Y-105397870D01*
X151694506Y-105397868D01*
X151632973Y-105369918D01*
X151589276Y-105358908D01*
X151567429Y-105353403D01*
X151527737Y-105350279D01*
X151527735Y-105350279D01*
X151339175Y-105350279D01*
X151339154Y-105350280D01*
X151299470Y-105353403D01*
X151233930Y-105369917D01*
X151228671Y-105371758D01*
X151228501Y-105371272D01*
X151197332Y-105379875D01*
X151158575Y-105378133D01*
X151138302Y-105371546D01*
X151138229Y-105371758D01*
X151132971Y-105369918D01*
X151124863Y-105367875D01*
X151067429Y-105353403D01*
X151027737Y-105350279D01*
X151027735Y-105350279D01*
X150839175Y-105350279D01*
X150839154Y-105350280D01*
X150799470Y-105353403D01*
X150733930Y-105369917D01*
X150728671Y-105371758D01*
X150728501Y-105371272D01*
X150697332Y-105379875D01*
X150658575Y-105378133D01*
X150638302Y-105371546D01*
X150638229Y-105371758D01*
X150632971Y-105369918D01*
X150624863Y-105367875D01*
X150567429Y-105353403D01*
X150527737Y-105350279D01*
X150527735Y-105350279D01*
X150339175Y-105350279D01*
X150339154Y-105350280D01*
X150299470Y-105353403D01*
X150233930Y-105369917D01*
X150228671Y-105371758D01*
X150228501Y-105371272D01*
X150197332Y-105379875D01*
X150158575Y-105378133D01*
X150138302Y-105371546D01*
X150138229Y-105371758D01*
X150132971Y-105369918D01*
X150124863Y-105367875D01*
X150067429Y-105353403D01*
X150027737Y-105350279D01*
X150027735Y-105350279D01*
X149839175Y-105350279D01*
X149839154Y-105350280D01*
X149799470Y-105353403D01*
X149733930Y-105369917D01*
X149728671Y-105371758D01*
X149728501Y-105371272D01*
X149697332Y-105379875D01*
X149664876Y-105379255D01*
X149647848Y-105376675D01*
X149632971Y-105369918D01*
X149567429Y-105353403D01*
X149527737Y-105350279D01*
X149473611Y-105350279D01*
X149464376Y-105348880D01*
X149454679Y-105345801D01*
X149444632Y-105344210D01*
X149436306Y-105339967D01*
X149427400Y-105337140D01*
X149419129Y-105331215D01*
X149410065Y-105326597D01*
X149403457Y-105319989D01*
X149395861Y-105314548D01*
X149389825Y-105306357D01*
X149382632Y-105299164D01*
X149378391Y-105290840D01*
X149372846Y-105283316D01*
X149369636Y-105273659D01*
X149365019Y-105264597D01*
X149363557Y-105255367D01*
X149360610Y-105246500D01*
X149360541Y-105236327D01*
X149358950Y-105226279D01*
X149358950Y-104588855D01*
X149365019Y-104550537D01*
X149382632Y-104515970D01*
X149410065Y-104488537D01*
X149444632Y-104470924D01*
X149447577Y-104470007D01*
X149449560Y-104469416D01*
X149449571Y-104469414D01*
X149517579Y-104442877D01*
X149580292Y-104405508D01*
X149583304Y-104402957D01*
X149616466Y-104382821D01*
X149654226Y-104373919D01*
X149692889Y-104377120D01*
X149728671Y-104392113D01*
X149743596Y-104402957D01*
X149746606Y-104405507D01*
X149746608Y-104405508D01*
X149800985Y-104437910D01*
X149809318Y-104442875D01*
X149809318Y-104442876D01*
X149877321Y-104469411D01*
X149877329Y-104469414D01*
X149948777Y-104484395D01*
X149979126Y-104486279D01*
X149979138Y-104486279D01*
X150307762Y-104486279D01*
X150307774Y-104486279D01*
X150338123Y-104484395D01*
X150409571Y-104469414D01*
X150444234Y-104455888D01*
X150482134Y-104447613D01*
X150520739Y-104451454D01*
X150551308Y-104464017D01*
X150563272Y-104470924D01*
X150622962Y-104505386D01*
X150707799Y-104540527D01*
X150796496Y-104564293D01*
X150883149Y-104575701D01*
X150886230Y-104576107D01*
X150887537Y-104576279D01*
X150887544Y-104576279D01*
X150979356Y-104576279D01*
X150979363Y-104576279D01*
X151070404Y-104564293D01*
X151159101Y-104540527D01*
X151243938Y-104505386D01*
X151323462Y-104459473D01*
X151396313Y-104403573D01*
X151461244Y-104338642D01*
X151517144Y-104265791D01*
X151563057Y-104186267D01*
X151598198Y-104101430D01*
X151621964Y-104012733D01*
X151633950Y-103921692D01*
X151633950Y-103829866D01*
X151621964Y-103738825D01*
X151598198Y-103650128D01*
X151563057Y-103565291D01*
X151553345Y-103548470D01*
X151517147Y-103485771D01*
X151517146Y-103485769D01*
X151461245Y-103412917D01*
X151461239Y-103412910D01*
X151396318Y-103347989D01*
X151396311Y-103347983D01*
X151323459Y-103292082D01*
X151323457Y-103292081D01*
X151243954Y-103246181D01*
X151243941Y-103246174D01*
X151243942Y-103246174D01*
X151243938Y-103246172D01*
X151159101Y-103211031D01*
X151154667Y-103209843D01*
X151140349Y-103206006D01*
X151070404Y-103187265D01*
X151055184Y-103185261D01*
X150979370Y-103175279D01*
X150979363Y-103175279D01*
X150887537Y-103175279D01*
X150887529Y-103175279D01*
X150800883Y-103186687D01*
X150796496Y-103187265D01*
X150766930Y-103195187D01*
X150707805Y-103211029D01*
X150707801Y-103211030D01*
X150707799Y-103211031D01*
X150622962Y-103246172D01*
X150622959Y-103246173D01*
X150622958Y-103246174D01*
X150622956Y-103246175D01*
X150551309Y-103287540D01*
X150515090Y-103301443D01*
X150476347Y-103303473D01*
X150444236Y-103295670D01*
X150409576Y-103282146D01*
X150409574Y-103282145D01*
X150409573Y-103282144D01*
X150409571Y-103282144D01*
X150381719Y-103276304D01*
X150338121Y-103267162D01*
X150307784Y-103265279D01*
X150307774Y-103265279D01*
X149979126Y-103265279D01*
X149979115Y-103265279D01*
X149948778Y-103267162D01*
X149889435Y-103279605D01*
X149877329Y-103282144D01*
X149877328Y-103282144D01*
X149877325Y-103282145D01*
X149877321Y-103282146D01*
X149809321Y-103308680D01*
X149796422Y-103316367D01*
X149783582Y-103321499D01*
X149771268Y-103327774D01*
X149765665Y-103328661D01*
X149760398Y-103330767D01*
X149746605Y-103331680D01*
X149732950Y-103333843D01*
X149727345Y-103332955D01*
X149721687Y-103333330D01*
X149708289Y-103329937D01*
X149694632Y-103327774D01*
X149689577Y-103325198D01*
X149684079Y-103323806D01*
X149672382Y-103316437D01*
X149660065Y-103310161D01*
X149656054Y-103306150D01*
X149651254Y-103303126D01*
X149642405Y-103292501D01*
X149632632Y-103282728D01*
X149630057Y-103277675D01*
X149626426Y-103273315D01*
X149621293Y-103260475D01*
X149615019Y-103248161D01*
X149614131Y-103242558D01*
X149612026Y-103237291D01*
X149608950Y-103209843D01*
X149608950Y-103045675D01*
X149615019Y-103007357D01*
X149632632Y-102972790D01*
X149645269Y-102957994D01*
X150340665Y-102262598D01*
X150372051Y-102239794D01*
X150408948Y-102227806D01*
X150428346Y-102226279D01*
X151898950Y-102226279D01*
X151937268Y-102232348D01*
G37*
%TD.AperFunction*%
%TD*%
%TA.AperFunction,Conductor*%
%TO.N,GND*%
G36*
X140613956Y-87108069D02*
G01*
X140648523Y-87125682D01*
X140663319Y-87138319D01*
X140963681Y-87438681D01*
X140986485Y-87470067D01*
X140998473Y-87506964D01*
X141000000Y-87526362D01*
X141000000Y-91798638D01*
X140998473Y-91808279D01*
X140998473Y-91818036D01*
X140995457Y-91827316D01*
X140993931Y-91836956D01*
X140989501Y-91845650D01*
X140986485Y-91854933D01*
X140980747Y-91862829D01*
X140976318Y-91871523D01*
X140963681Y-91886319D01*
X140886319Y-91963681D01*
X140854933Y-91986485D01*
X140818036Y-91998473D01*
X140798638Y-92000000D01*
X140399999Y-92000000D01*
X140100000Y-92299999D01*
X140100000Y-98148638D01*
X140098473Y-98158279D01*
X140098473Y-98168036D01*
X140095457Y-98177316D01*
X140093931Y-98186956D01*
X140089501Y-98195650D01*
X140086485Y-98204933D01*
X140080747Y-98212829D01*
X140076318Y-98221523D01*
X140063681Y-98236319D01*
X139936319Y-98363681D01*
X139904933Y-98386485D01*
X139868036Y-98398473D01*
X139848638Y-98400000D01*
X138001362Y-98400000D01*
X137963044Y-98393931D01*
X137928477Y-98376318D01*
X137913681Y-98363681D01*
X137336319Y-97786319D01*
X137313515Y-97754933D01*
X137301527Y-97718036D01*
X137300000Y-97698638D01*
X137300000Y-89651362D01*
X137306069Y-89613044D01*
X137323682Y-89578477D01*
X137336319Y-89563681D01*
X138400000Y-88500000D01*
X138400000Y-87451362D01*
X138406069Y-87413044D01*
X138423682Y-87378477D01*
X138436319Y-87363681D01*
X138661681Y-87138319D01*
X138693067Y-87115515D01*
X138729964Y-87103527D01*
X138749362Y-87102000D01*
X140575638Y-87102000D01*
X140613956Y-87108069D01*
G37*
%TD.AperFunction*%
%TD*%
%TA.AperFunction,Conductor*%
%TO.N,VBUS*%
G36*
X136214318Y-92106069D02*
G01*
X136248885Y-92123682D01*
X136276318Y-92151115D01*
X136293931Y-92185682D01*
X136300000Y-92224000D01*
X136300000Y-101100000D01*
X138163681Y-102963681D01*
X138186485Y-102995067D01*
X138198473Y-103031964D01*
X138200000Y-103051362D01*
X138200000Y-104648638D01*
X138193931Y-104686956D01*
X138176318Y-104721523D01*
X138163681Y-104736319D01*
X137536319Y-105363681D01*
X137504933Y-105386485D01*
X137468036Y-105398473D01*
X137448638Y-105400000D01*
X133751362Y-105400000D01*
X133713044Y-105393931D01*
X133678477Y-105376318D01*
X133663681Y-105363681D01*
X133236319Y-104936319D01*
X133213515Y-104904933D01*
X133201527Y-104868036D01*
X133200000Y-104848638D01*
X133200000Y-102832612D01*
X133206069Y-102794294D01*
X133223682Y-102759727D01*
X133236319Y-102744931D01*
X133644931Y-102336319D01*
X133676317Y-102313515D01*
X133713214Y-102301527D01*
X133732612Y-102300000D01*
X134225000Y-102300000D01*
X134700000Y-101825000D01*
X134700000Y-92224000D01*
X134706069Y-92185682D01*
X134723682Y-92151115D01*
X134751115Y-92123682D01*
X134785682Y-92106069D01*
X134824000Y-92100000D01*
X136176000Y-92100000D01*
X136214318Y-92106069D01*
G37*
%TD.AperFunction*%
%TD*%
%TA.AperFunction,Conductor*%
%TO.N,/<NO NET>*%
G36*
X134766255Y-84206069D02*
G01*
X134800822Y-84223682D01*
X134815618Y-84236319D01*
X134963681Y-84384382D01*
X134986485Y-84415768D01*
X134998473Y-84452665D01*
X135000000Y-84472063D01*
X135000000Y-88894748D01*
X135299999Y-89196062D01*
X136163984Y-89199842D01*
X136202273Y-89206079D01*
X136230328Y-89219429D01*
X136542889Y-89419663D01*
X136571880Y-89445443D01*
X136591486Y-89478920D01*
X136599787Y-89516817D01*
X136600000Y-89524075D01*
X136600000Y-90773638D01*
X136593931Y-90811956D01*
X136576318Y-90846523D01*
X136563681Y-90861319D01*
X136361319Y-91063681D01*
X136329933Y-91086485D01*
X136293036Y-91098473D01*
X136273638Y-91100000D01*
X134593124Y-91100000D01*
X134200000Y-91493124D01*
X134200000Y-92721137D01*
X134198473Y-92730778D01*
X134198473Y-92740535D01*
X134195457Y-92749815D01*
X134193931Y-92759455D01*
X134189501Y-92768149D01*
X134186485Y-92777432D01*
X134180747Y-92785328D01*
X134176318Y-92794022D01*
X134163681Y-92808818D01*
X134021818Y-92950681D01*
X133990432Y-92973485D01*
X133953535Y-92985473D01*
X133934137Y-92987000D01*
X132950144Y-92987000D01*
X132948208Y-92987061D01*
X132948193Y-92986605D01*
X132912807Y-92983155D01*
X132877248Y-92967642D01*
X132848223Y-92941900D01*
X132828573Y-92908448D01*
X132820222Y-92870562D01*
X132820000Y-92863142D01*
X132820000Y-91606226D01*
X132820238Y-91598543D01*
X132820500Y-91594324D01*
X132820500Y-91272112D01*
X132822027Y-91262470D01*
X132822027Y-91252714D01*
X132825042Y-91243433D01*
X132826569Y-91233794D01*
X132830998Y-91225099D01*
X132834015Y-91215817D01*
X132839752Y-91207920D01*
X132844182Y-91199227D01*
X132856819Y-91184431D01*
X132904931Y-91136319D01*
X132936317Y-91113515D01*
X132973214Y-91101527D01*
X132992612Y-91100000D01*
X133605000Y-91100000D01*
X133799650Y-90905350D01*
X133821726Y-84545501D01*
X133827928Y-84507205D01*
X133845660Y-84472699D01*
X133858191Y-84458104D01*
X134080900Y-84236166D01*
X134112326Y-84213418D01*
X134149244Y-84201493D01*
X134168429Y-84200000D01*
X134727937Y-84200000D01*
X134766255Y-84206069D01*
G37*
%TD.AperFunction*%
%TD*%
M02*
