%TF.GenerationSoftware,KiCad,Pcbnew,9.0.5*%
%TF.CreationDate,2025-10-28T15:08:01+09:00*%
%TF.ProjectId,mr2_arm_hw,6d72325f-6172-46d5-9f68-772e6b696361,rev?*%
%TF.SameCoordinates,Original*%
%TF.FileFunction,Legend,Bot*%
%TF.FilePolarity,Positive*%
%FSLAX46Y46*%
G04 Gerber Fmt 4.6, Leading zero omitted, Abs format (unit mm)*
G04 Created by KiCad (PCBNEW 9.0.5) date 2025-10-28 15:08:01*
%MOMM*%
%LPD*%
G01*
G04 APERTURE LIST*
G04 Aperture macros list*
%AMRoundRect*
0 Rectangle with rounded corners*
0 $1 Rounding radius*
0 $2 $3 $4 $5 $6 $7 $8 $9 X,Y pos of 4 corners*
0 Add a 4 corners polygon primitive as box body*
4,1,4,$2,$3,$4,$5,$6,$7,$8,$9,$2,$3,0*
0 Add four circle primitives for the rounded corners*
1,1,$1+$1,$2,$3*
1,1,$1+$1,$4,$5*
1,1,$1+$1,$6,$7*
1,1,$1+$1,$8,$9*
0 Add four rect primitives between the rounded corners*
20,1,$1+$1,$2,$3,$4,$5,0*
20,1,$1+$1,$4,$5,$6,$7,0*
20,1,$1+$1,$6,$7,$8,$9,0*
20,1,$1+$1,$8,$9,$2,$3,0*%
G04 Aperture macros list end*
%ADD10C,0.150000*%
%ADD11C,0.120000*%
%ADD12RoundRect,0.250000X0.675000X-0.600000X0.675000X0.600000X-0.675000X0.600000X-0.675000X-0.600000X0*%
%ADD13O,1.850000X1.700000*%
%ADD14RoundRect,0.250000X-0.600000X-0.675000X0.600000X-0.675000X0.600000X0.675000X-0.600000X0.675000X0*%
%ADD15O,1.700000X1.850000*%
%ADD16C,2.800000*%
%ADD17C,1.524000*%
%ADD18C,2.374900*%
%ADD19C,0.990600*%
%ADD20C,0.787400*%
G04 APERTURE END LIST*
D10*
X135377506Y-84144819D02*
X135377506Y-84859104D01*
X135377506Y-84859104D02*
X135425125Y-85001961D01*
X135425125Y-85001961D02*
X135520363Y-85097200D01*
X135520363Y-85097200D02*
X135663220Y-85144819D01*
X135663220Y-85144819D02*
X135758458Y-85144819D01*
X134425125Y-85144819D02*
X134901315Y-85144819D01*
X134901315Y-85144819D02*
X134901315Y-84144819D01*
X133520363Y-85049580D02*
X133567982Y-85097200D01*
X133567982Y-85097200D02*
X133710839Y-85144819D01*
X133710839Y-85144819D02*
X133806077Y-85144819D01*
X133806077Y-85144819D02*
X133948934Y-85097200D01*
X133948934Y-85097200D02*
X134044172Y-85001961D01*
X134044172Y-85001961D02*
X134091791Y-84906723D01*
X134091791Y-84906723D02*
X134139410Y-84716247D01*
X134139410Y-84716247D02*
X134139410Y-84573390D01*
X134139410Y-84573390D02*
X134091791Y-84382914D01*
X134091791Y-84382914D02*
X134044172Y-84287676D01*
X134044172Y-84287676D02*
X133948934Y-84192438D01*
X133948934Y-84192438D02*
X133806077Y-84144819D01*
X133806077Y-84144819D02*
X133710839Y-84144819D01*
X133710839Y-84144819D02*
X133567982Y-84192438D01*
X133567982Y-84192438D02*
X133520363Y-84240057D01*
X132806077Y-84144819D02*
X132806077Y-84859104D01*
X132806077Y-84859104D02*
X132853696Y-85001961D01*
X132853696Y-85001961D02*
X132948934Y-85097200D01*
X132948934Y-85097200D02*
X133091791Y-85144819D01*
X133091791Y-85144819D02*
X133187029Y-85144819D01*
X131853696Y-85144819D02*
X132329886Y-85144819D01*
X132329886Y-85144819D02*
X132329886Y-84144819D01*
X130948934Y-85049580D02*
X130996553Y-85097200D01*
X130996553Y-85097200D02*
X131139410Y-85144819D01*
X131139410Y-85144819D02*
X131234648Y-85144819D01*
X131234648Y-85144819D02*
X131377505Y-85097200D01*
X131377505Y-85097200D02*
X131472743Y-85001961D01*
X131472743Y-85001961D02*
X131520362Y-84906723D01*
X131520362Y-84906723D02*
X131567981Y-84716247D01*
X131567981Y-84716247D02*
X131567981Y-84573390D01*
X131567981Y-84573390D02*
X131520362Y-84382914D01*
X131520362Y-84382914D02*
X131472743Y-84287676D01*
X131472743Y-84287676D02*
X131377505Y-84192438D01*
X131377505Y-84192438D02*
X131234648Y-84144819D01*
X131234648Y-84144819D02*
X131139410Y-84144819D01*
X131139410Y-84144819D02*
X130996553Y-84192438D01*
X130996553Y-84192438D02*
X130948934Y-84240057D01*
X130234648Y-84144819D02*
X130234648Y-84859104D01*
X130234648Y-84859104D02*
X130282267Y-85001961D01*
X130282267Y-85001961D02*
X130377505Y-85097200D01*
X130377505Y-85097200D02*
X130520362Y-85144819D01*
X130520362Y-85144819D02*
X130615600Y-85144819D01*
X129282267Y-85144819D02*
X129758457Y-85144819D01*
X129758457Y-85144819D02*
X129758457Y-84144819D01*
X128377505Y-85049580D02*
X128425124Y-85097200D01*
X128425124Y-85097200D02*
X128567981Y-85144819D01*
X128567981Y-85144819D02*
X128663219Y-85144819D01*
X128663219Y-85144819D02*
X128806076Y-85097200D01*
X128806076Y-85097200D02*
X128901314Y-85001961D01*
X128901314Y-85001961D02*
X128948933Y-84906723D01*
X128948933Y-84906723D02*
X128996552Y-84716247D01*
X128996552Y-84716247D02*
X128996552Y-84573390D01*
X128996552Y-84573390D02*
X128948933Y-84382914D01*
X128948933Y-84382914D02*
X128901314Y-84287676D01*
X128901314Y-84287676D02*
X128806076Y-84192438D01*
X128806076Y-84192438D02*
X128663219Y-84144819D01*
X128663219Y-84144819D02*
X128567981Y-84144819D01*
X128567981Y-84144819D02*
X128425124Y-84192438D01*
X128425124Y-84192438D02*
X128377505Y-84240057D01*
X127663219Y-84144819D02*
X127663219Y-84859104D01*
X127663219Y-84859104D02*
X127710838Y-85001961D01*
X127710838Y-85001961D02*
X127806076Y-85097200D01*
X127806076Y-85097200D02*
X127948933Y-85144819D01*
X127948933Y-85144819D02*
X128044171Y-85144819D01*
X126710838Y-85144819D02*
X127187028Y-85144819D01*
X127187028Y-85144819D02*
X127187028Y-84144819D01*
X125806076Y-85049580D02*
X125853695Y-85097200D01*
X125853695Y-85097200D02*
X125996552Y-85144819D01*
X125996552Y-85144819D02*
X126091790Y-85144819D01*
X126091790Y-85144819D02*
X126234647Y-85097200D01*
X126234647Y-85097200D02*
X126329885Y-85001961D01*
X126329885Y-85001961D02*
X126377504Y-84906723D01*
X126377504Y-84906723D02*
X126425123Y-84716247D01*
X126425123Y-84716247D02*
X126425123Y-84573390D01*
X126425123Y-84573390D02*
X126377504Y-84382914D01*
X126377504Y-84382914D02*
X126329885Y-84287676D01*
X126329885Y-84287676D02*
X126234647Y-84192438D01*
X126234647Y-84192438D02*
X126091790Y-84144819D01*
X126091790Y-84144819D02*
X125996552Y-84144819D01*
X125996552Y-84144819D02*
X125853695Y-84192438D01*
X125853695Y-84192438D02*
X125806076Y-84240057D01*
X166988220Y-123309875D02*
X166988220Y-122309875D01*
X166988220Y-122309875D02*
X166654887Y-123024160D01*
X166654887Y-123024160D02*
X166321554Y-122309875D01*
X166321554Y-122309875D02*
X166321554Y-123309875D01*
X165273935Y-123309875D02*
X165607268Y-122833684D01*
X165845363Y-123309875D02*
X165845363Y-122309875D01*
X165845363Y-122309875D02*
X165464411Y-122309875D01*
X165464411Y-122309875D02*
X165369173Y-122357494D01*
X165369173Y-122357494D02*
X165321554Y-122405113D01*
X165321554Y-122405113D02*
X165273935Y-122500351D01*
X165273935Y-122500351D02*
X165273935Y-122643208D01*
X165273935Y-122643208D02*
X165321554Y-122738446D01*
X165321554Y-122738446D02*
X165369173Y-122786065D01*
X165369173Y-122786065D02*
X165464411Y-122833684D01*
X165464411Y-122833684D02*
X165845363Y-122833684D01*
X164892982Y-122405113D02*
X164845363Y-122357494D01*
X164845363Y-122357494D02*
X164750125Y-122309875D01*
X164750125Y-122309875D02*
X164512030Y-122309875D01*
X164512030Y-122309875D02*
X164416792Y-122357494D01*
X164416792Y-122357494D02*
X164369173Y-122405113D01*
X164369173Y-122405113D02*
X164321554Y-122500351D01*
X164321554Y-122500351D02*
X164321554Y-122595589D01*
X164321554Y-122595589D02*
X164369173Y-122738446D01*
X164369173Y-122738446D02*
X164940601Y-123309875D01*
X164940601Y-123309875D02*
X164321554Y-123309875D01*
X162512030Y-122833684D02*
X162559649Y-122786065D01*
X162559649Y-122786065D02*
X162654887Y-122738446D01*
X162654887Y-122738446D02*
X162750125Y-122738446D01*
X162750125Y-122738446D02*
X162845363Y-122786065D01*
X162845363Y-122786065D02*
X162892982Y-122833684D01*
X162892982Y-122833684D02*
X162940601Y-122928922D01*
X162940601Y-122928922D02*
X162940601Y-123024160D01*
X162940601Y-123024160D02*
X162892982Y-123119398D01*
X162892982Y-123119398D02*
X162845363Y-123167017D01*
X162845363Y-123167017D02*
X162750125Y-123214636D01*
X162750125Y-123214636D02*
X162654887Y-123214636D01*
X162654887Y-123214636D02*
X162559649Y-123167017D01*
X162559649Y-123167017D02*
X162512030Y-123119398D01*
X162512030Y-122738446D02*
X162512030Y-123119398D01*
X162512030Y-123119398D02*
X162464411Y-123167017D01*
X162464411Y-123167017D02*
X162416792Y-123167017D01*
X162416792Y-123167017D02*
X162321553Y-123119398D01*
X162321553Y-123119398D02*
X162273934Y-123024160D01*
X162273934Y-123024160D02*
X162273934Y-122786065D01*
X162273934Y-122786065D02*
X162369173Y-122643208D01*
X162369173Y-122643208D02*
X162512030Y-122547970D01*
X162512030Y-122547970D02*
X162702506Y-122500351D01*
X162702506Y-122500351D02*
X162892982Y-122547970D01*
X162892982Y-122547970D02*
X163035839Y-122643208D01*
X163035839Y-122643208D02*
X163131077Y-122786065D01*
X163131077Y-122786065D02*
X163178696Y-122976541D01*
X163178696Y-122976541D02*
X163131077Y-123167017D01*
X163131077Y-123167017D02*
X163035839Y-123309875D01*
X163035839Y-123309875D02*
X162892982Y-123405113D01*
X162892982Y-123405113D02*
X162702506Y-123452732D01*
X162702506Y-123452732D02*
X162512030Y-123405113D01*
X162512030Y-123405113D02*
X162369173Y-123309875D01*
X161083458Y-122309875D02*
X161083458Y-123119398D01*
X161083458Y-123119398D02*
X161035839Y-123214636D01*
X161035839Y-123214636D02*
X160988220Y-123262256D01*
X160988220Y-123262256D02*
X160892982Y-123309875D01*
X160892982Y-123309875D02*
X160702506Y-123309875D01*
X160702506Y-123309875D02*
X160607268Y-123262256D01*
X160607268Y-123262256D02*
X160559649Y-123214636D01*
X160559649Y-123214636D02*
X160512030Y-123119398D01*
X160512030Y-123119398D02*
X160512030Y-122309875D01*
X159464411Y-123309875D02*
X159797744Y-122833684D01*
X160035839Y-123309875D02*
X160035839Y-122309875D01*
X160035839Y-122309875D02*
X159654887Y-122309875D01*
X159654887Y-122309875D02*
X159559649Y-122357494D01*
X159559649Y-122357494D02*
X159512030Y-122405113D01*
X159512030Y-122405113D02*
X159464411Y-122500351D01*
X159464411Y-122500351D02*
X159464411Y-122643208D01*
X159464411Y-122643208D02*
X159512030Y-122738446D01*
X159512030Y-122738446D02*
X159559649Y-122786065D01*
X159559649Y-122786065D02*
X159654887Y-122833684D01*
X159654887Y-122833684D02*
X160035839Y-122833684D01*
X158464411Y-123214636D02*
X158512030Y-123262256D01*
X158512030Y-123262256D02*
X158654887Y-123309875D01*
X158654887Y-123309875D02*
X158750125Y-123309875D01*
X158750125Y-123309875D02*
X158892982Y-123262256D01*
X158892982Y-123262256D02*
X158988220Y-123167017D01*
X158988220Y-123167017D02*
X159035839Y-123071779D01*
X159035839Y-123071779D02*
X159083458Y-122881303D01*
X159083458Y-122881303D02*
X159083458Y-122738446D01*
X159083458Y-122738446D02*
X159035839Y-122547970D01*
X159035839Y-122547970D02*
X158988220Y-122452732D01*
X158988220Y-122452732D02*
X158892982Y-122357494D01*
X158892982Y-122357494D02*
X158750125Y-122309875D01*
X158750125Y-122309875D02*
X158654887Y-122309875D01*
X158654887Y-122309875D02*
X158512030Y-122357494D01*
X158512030Y-122357494D02*
X158464411Y-122405113D01*
X157273934Y-123309875D02*
X157273934Y-122309875D01*
X156702506Y-123309875D02*
X157131077Y-122738446D01*
X156702506Y-122309875D02*
X157273934Y-122881303D01*
X156321553Y-123024160D02*
X155845363Y-123024160D01*
X156416791Y-123309875D02*
X156083458Y-122309875D01*
X156083458Y-122309875D02*
X155750125Y-123309875D01*
X155416791Y-123309875D02*
X155416791Y-122309875D01*
X154988220Y-123262256D02*
X154845363Y-123309875D01*
X154845363Y-123309875D02*
X154607268Y-123309875D01*
X154607268Y-123309875D02*
X154512030Y-123262256D01*
X154512030Y-123262256D02*
X154464411Y-123214636D01*
X154464411Y-123214636D02*
X154416792Y-123119398D01*
X154416792Y-123119398D02*
X154416792Y-123024160D01*
X154416792Y-123024160D02*
X154464411Y-122928922D01*
X154464411Y-122928922D02*
X154512030Y-122881303D01*
X154512030Y-122881303D02*
X154607268Y-122833684D01*
X154607268Y-122833684D02*
X154797744Y-122786065D01*
X154797744Y-122786065D02*
X154892982Y-122738446D01*
X154892982Y-122738446D02*
X154940601Y-122690827D01*
X154940601Y-122690827D02*
X154988220Y-122595589D01*
X154988220Y-122595589D02*
X154988220Y-122500351D01*
X154988220Y-122500351D02*
X154940601Y-122405113D01*
X154940601Y-122405113D02*
X154892982Y-122357494D01*
X154892982Y-122357494D02*
X154797744Y-122309875D01*
X154797744Y-122309875D02*
X154559649Y-122309875D01*
X154559649Y-122309875D02*
X154416792Y-122357494D01*
X154131077Y-122309875D02*
X153559649Y-122309875D01*
X153845363Y-123309875D02*
X153845363Y-122309875D01*
X152178696Y-123690827D02*
X152226315Y-123690827D01*
X152226315Y-123690827D02*
X152321553Y-123643208D01*
X152321553Y-123643208D02*
X152369172Y-123547970D01*
X152369172Y-123547970D02*
X152369172Y-123071779D01*
X152369172Y-123071779D02*
X152416791Y-122976541D01*
X152416791Y-122976541D02*
X152512029Y-122928922D01*
X152512029Y-122928922D02*
X152416791Y-122881303D01*
X152416791Y-122881303D02*
X152369172Y-122786065D01*
X152369172Y-122786065D02*
X152369172Y-122309875D01*
X152369172Y-122309875D02*
X152321553Y-122214636D01*
X152321553Y-122214636D02*
X152226315Y-122167017D01*
X152226315Y-122167017D02*
X152178696Y-122167017D01*
X151369172Y-122643208D02*
X151369172Y-123452732D01*
X151369172Y-123452732D02*
X151416791Y-123547970D01*
X151416791Y-123547970D02*
X151464410Y-123595589D01*
X151464410Y-123595589D02*
X151559648Y-123643208D01*
X151559648Y-123643208D02*
X151702505Y-123643208D01*
X151702505Y-123643208D02*
X151797743Y-123595589D01*
X151369172Y-123262256D02*
X151464410Y-123309875D01*
X151464410Y-123309875D02*
X151654886Y-123309875D01*
X151654886Y-123309875D02*
X151750124Y-123262256D01*
X151750124Y-123262256D02*
X151797743Y-123214636D01*
X151797743Y-123214636D02*
X151845362Y-123119398D01*
X151845362Y-123119398D02*
X151845362Y-122833684D01*
X151845362Y-122833684D02*
X151797743Y-122738446D01*
X151797743Y-122738446D02*
X151750124Y-122690827D01*
X151750124Y-122690827D02*
X151654886Y-122643208D01*
X151654886Y-122643208D02*
X151464410Y-122643208D01*
X151464410Y-122643208D02*
X151369172Y-122690827D01*
X150892981Y-123309875D02*
X150892981Y-122643208D01*
X150892981Y-122738446D02*
X150845362Y-122690827D01*
X150845362Y-122690827D02*
X150750124Y-122643208D01*
X150750124Y-122643208D02*
X150607267Y-122643208D01*
X150607267Y-122643208D02*
X150512029Y-122690827D01*
X150512029Y-122690827D02*
X150464410Y-122786065D01*
X150464410Y-122786065D02*
X150464410Y-123309875D01*
X150464410Y-122786065D02*
X150416791Y-122690827D01*
X150416791Y-122690827D02*
X150321553Y-122643208D01*
X150321553Y-122643208D02*
X150178696Y-122643208D01*
X150178696Y-122643208D02*
X150083457Y-122690827D01*
X150083457Y-122690827D02*
X150035838Y-122786065D01*
X150035838Y-122786065D02*
X150035838Y-123309875D01*
X149559648Y-123309875D02*
X149559648Y-122643208D01*
X149559648Y-122738446D02*
X149512029Y-122690827D01*
X149512029Y-122690827D02*
X149416791Y-122643208D01*
X149416791Y-122643208D02*
X149273934Y-122643208D01*
X149273934Y-122643208D02*
X149178696Y-122690827D01*
X149178696Y-122690827D02*
X149131077Y-122786065D01*
X149131077Y-122786065D02*
X149131077Y-123309875D01*
X149131077Y-122786065D02*
X149083458Y-122690827D01*
X149083458Y-122690827D02*
X148988220Y-122643208D01*
X148988220Y-122643208D02*
X148845363Y-122643208D01*
X148845363Y-122643208D02*
X148750124Y-122690827D01*
X148750124Y-122690827D02*
X148702505Y-122786065D01*
X148702505Y-122786065D02*
X148702505Y-123309875D01*
X148321553Y-122643208D02*
X148083458Y-123309875D01*
X147845363Y-122643208D02*
X148083458Y-123309875D01*
X148083458Y-123309875D02*
X148178696Y-123547970D01*
X148178696Y-123547970D02*
X148226315Y-123595589D01*
X148226315Y-123595589D02*
X148321553Y-123643208D01*
X147035839Y-122643208D02*
X147035839Y-123309875D01*
X147464410Y-122643208D02*
X147464410Y-123167017D01*
X147464410Y-123167017D02*
X147416791Y-123262256D01*
X147416791Y-123262256D02*
X147321553Y-123309875D01*
X147321553Y-123309875D02*
X147178696Y-123309875D01*
X147178696Y-123309875D02*
X147083458Y-123262256D01*
X147083458Y-123262256D02*
X147035839Y-123214636D01*
X146559648Y-122643208D02*
X146559648Y-123309875D01*
X146559648Y-122738446D02*
X146512029Y-122690827D01*
X146512029Y-122690827D02*
X146416791Y-122643208D01*
X146416791Y-122643208D02*
X146273934Y-122643208D01*
X146273934Y-122643208D02*
X146178696Y-122690827D01*
X146178696Y-122690827D02*
X146131077Y-122786065D01*
X146131077Y-122786065D02*
X146131077Y-123309875D01*
X145226315Y-122643208D02*
X145226315Y-123452732D01*
X145226315Y-123452732D02*
X145273934Y-123547970D01*
X145273934Y-123547970D02*
X145321553Y-123595589D01*
X145321553Y-123595589D02*
X145416791Y-123643208D01*
X145416791Y-123643208D02*
X145559648Y-123643208D01*
X145559648Y-123643208D02*
X145654886Y-123595589D01*
X145226315Y-123262256D02*
X145321553Y-123309875D01*
X145321553Y-123309875D02*
X145512029Y-123309875D01*
X145512029Y-123309875D02*
X145607267Y-123262256D01*
X145607267Y-123262256D02*
X145654886Y-123214636D01*
X145654886Y-123214636D02*
X145702505Y-123119398D01*
X145702505Y-123119398D02*
X145702505Y-122833684D01*
X145702505Y-122833684D02*
X145654886Y-122738446D01*
X145654886Y-122738446D02*
X145607267Y-122690827D01*
X145607267Y-122690827D02*
X145512029Y-122643208D01*
X145512029Y-122643208D02*
X145321553Y-122643208D01*
X145321553Y-122643208D02*
X145226315Y-122690827D01*
X144845362Y-123690827D02*
X144797743Y-123690827D01*
X144797743Y-123690827D02*
X144702505Y-123643208D01*
X144702505Y-123643208D02*
X144654886Y-123547970D01*
X144654886Y-123547970D02*
X144654886Y-123071779D01*
X144654886Y-123071779D02*
X144607267Y-122976541D01*
X144607267Y-122976541D02*
X144512029Y-122928922D01*
X144512029Y-122928922D02*
X144607267Y-122881303D01*
X144607267Y-122881303D02*
X144654886Y-122786065D01*
X144654886Y-122786065D02*
X144654886Y-122309875D01*
X144654886Y-122309875D02*
X144702505Y-122214636D01*
X144702505Y-122214636D02*
X144797743Y-122167017D01*
X144797743Y-122167017D02*
X144845362Y-122167017D01*
X166988220Y-124919819D02*
X166988220Y-123919819D01*
X166988220Y-123919819D02*
X166654887Y-124634104D01*
X166654887Y-124634104D02*
X166321554Y-123919819D01*
X166321554Y-123919819D02*
X166321554Y-124919819D01*
X165416792Y-124919819D02*
X165416792Y-124396009D01*
X165416792Y-124396009D02*
X165464411Y-124300771D01*
X165464411Y-124300771D02*
X165559649Y-124253152D01*
X165559649Y-124253152D02*
X165750125Y-124253152D01*
X165750125Y-124253152D02*
X165845363Y-124300771D01*
X165416792Y-124872200D02*
X165512030Y-124919819D01*
X165512030Y-124919819D02*
X165750125Y-124919819D01*
X165750125Y-124919819D02*
X165845363Y-124872200D01*
X165845363Y-124872200D02*
X165892982Y-124776961D01*
X165892982Y-124776961D02*
X165892982Y-124681723D01*
X165892982Y-124681723D02*
X165845363Y-124586485D01*
X165845363Y-124586485D02*
X165750125Y-124538866D01*
X165750125Y-124538866D02*
X165512030Y-124538866D01*
X165512030Y-124538866D02*
X165416792Y-124491247D01*
X164940601Y-124253152D02*
X164940601Y-124919819D01*
X164940601Y-124348390D02*
X164892982Y-124300771D01*
X164892982Y-124300771D02*
X164797744Y-124253152D01*
X164797744Y-124253152D02*
X164654887Y-124253152D01*
X164654887Y-124253152D02*
X164559649Y-124300771D01*
X164559649Y-124300771D02*
X164512030Y-124396009D01*
X164512030Y-124396009D02*
X164512030Y-124919819D01*
X164035839Y-124919819D02*
X164035839Y-124253152D01*
X164035839Y-123919819D02*
X164083458Y-123967438D01*
X164083458Y-123967438D02*
X164035839Y-124015057D01*
X164035839Y-124015057D02*
X163988220Y-123967438D01*
X163988220Y-123967438D02*
X164035839Y-123919819D01*
X164035839Y-123919819D02*
X164035839Y-124015057D01*
X163559649Y-124253152D02*
X163559649Y-125253152D01*
X163559649Y-124300771D02*
X163464411Y-124253152D01*
X163464411Y-124253152D02*
X163273935Y-124253152D01*
X163273935Y-124253152D02*
X163178697Y-124300771D01*
X163178697Y-124300771D02*
X163131078Y-124348390D01*
X163131078Y-124348390D02*
X163083459Y-124443628D01*
X163083459Y-124443628D02*
X163083459Y-124729342D01*
X163083459Y-124729342D02*
X163131078Y-124824580D01*
X163131078Y-124824580D02*
X163178697Y-124872200D01*
X163178697Y-124872200D02*
X163273935Y-124919819D01*
X163273935Y-124919819D02*
X163464411Y-124919819D01*
X163464411Y-124919819D02*
X163559649Y-124872200D01*
X162226316Y-124253152D02*
X162226316Y-124919819D01*
X162654887Y-124253152D02*
X162654887Y-124776961D01*
X162654887Y-124776961D02*
X162607268Y-124872200D01*
X162607268Y-124872200D02*
X162512030Y-124919819D01*
X162512030Y-124919819D02*
X162369173Y-124919819D01*
X162369173Y-124919819D02*
X162273935Y-124872200D01*
X162273935Y-124872200D02*
X162226316Y-124824580D01*
X161607268Y-124919819D02*
X161702506Y-124872200D01*
X161702506Y-124872200D02*
X161750125Y-124776961D01*
X161750125Y-124776961D02*
X161750125Y-123919819D01*
X160797744Y-124919819D02*
X160797744Y-124396009D01*
X160797744Y-124396009D02*
X160845363Y-124300771D01*
X160845363Y-124300771D02*
X160940601Y-124253152D01*
X160940601Y-124253152D02*
X161131077Y-124253152D01*
X161131077Y-124253152D02*
X161226315Y-124300771D01*
X160797744Y-124872200D02*
X160892982Y-124919819D01*
X160892982Y-124919819D02*
X161131077Y-124919819D01*
X161131077Y-124919819D02*
X161226315Y-124872200D01*
X161226315Y-124872200D02*
X161273934Y-124776961D01*
X161273934Y-124776961D02*
X161273934Y-124681723D01*
X161273934Y-124681723D02*
X161226315Y-124586485D01*
X161226315Y-124586485D02*
X161131077Y-124538866D01*
X161131077Y-124538866D02*
X160892982Y-124538866D01*
X160892982Y-124538866D02*
X160797744Y-124491247D01*
X160464410Y-124253152D02*
X160083458Y-124253152D01*
X160321553Y-123919819D02*
X160321553Y-124776961D01*
X160321553Y-124776961D02*
X160273934Y-124872200D01*
X160273934Y-124872200D02*
X160178696Y-124919819D01*
X160178696Y-124919819D02*
X160083458Y-124919819D01*
X159607267Y-124919819D02*
X159702505Y-124872200D01*
X159702505Y-124872200D02*
X159750124Y-124824580D01*
X159750124Y-124824580D02*
X159797743Y-124729342D01*
X159797743Y-124729342D02*
X159797743Y-124443628D01*
X159797743Y-124443628D02*
X159750124Y-124348390D01*
X159750124Y-124348390D02*
X159702505Y-124300771D01*
X159702505Y-124300771D02*
X159607267Y-124253152D01*
X159607267Y-124253152D02*
X159464410Y-124253152D01*
X159464410Y-124253152D02*
X159369172Y-124300771D01*
X159369172Y-124300771D02*
X159321553Y-124348390D01*
X159321553Y-124348390D02*
X159273934Y-124443628D01*
X159273934Y-124443628D02*
X159273934Y-124729342D01*
X159273934Y-124729342D02*
X159321553Y-124824580D01*
X159321553Y-124824580D02*
X159369172Y-124872200D01*
X159369172Y-124872200D02*
X159464410Y-124919819D01*
X159464410Y-124919819D02*
X159607267Y-124919819D01*
X158845362Y-124919819D02*
X158845362Y-124253152D01*
X158845362Y-124443628D02*
X158797743Y-124348390D01*
X158797743Y-124348390D02*
X158750124Y-124300771D01*
X158750124Y-124300771D02*
X158654886Y-124253152D01*
X158654886Y-124253152D02*
X158559648Y-124253152D01*
X157464409Y-124396009D02*
X157131076Y-124396009D01*
X156988219Y-124919819D02*
X157464409Y-124919819D01*
X157464409Y-124919819D02*
X157464409Y-123919819D01*
X157464409Y-123919819D02*
X156988219Y-123919819D01*
X156559647Y-124253152D02*
X156559647Y-124919819D01*
X156559647Y-124348390D02*
X156512028Y-124300771D01*
X156512028Y-124300771D02*
X156416790Y-124253152D01*
X156416790Y-124253152D02*
X156273933Y-124253152D01*
X156273933Y-124253152D02*
X156178695Y-124300771D01*
X156178695Y-124300771D02*
X156131076Y-124396009D01*
X156131076Y-124396009D02*
X156131076Y-124919819D01*
X155226314Y-124872200D02*
X155321552Y-124919819D01*
X155321552Y-124919819D02*
X155512028Y-124919819D01*
X155512028Y-124919819D02*
X155607266Y-124872200D01*
X155607266Y-124872200D02*
X155654885Y-124824580D01*
X155654885Y-124824580D02*
X155702504Y-124729342D01*
X155702504Y-124729342D02*
X155702504Y-124443628D01*
X155702504Y-124443628D02*
X155654885Y-124348390D01*
X155654885Y-124348390D02*
X155607266Y-124300771D01*
X155607266Y-124300771D02*
X155512028Y-124253152D01*
X155512028Y-124253152D02*
X155321552Y-124253152D01*
X155321552Y-124253152D02*
X155226314Y-124300771D01*
X154654885Y-124919819D02*
X154750123Y-124872200D01*
X154750123Y-124872200D02*
X154797742Y-124824580D01*
X154797742Y-124824580D02*
X154845361Y-124729342D01*
X154845361Y-124729342D02*
X154845361Y-124443628D01*
X154845361Y-124443628D02*
X154797742Y-124348390D01*
X154797742Y-124348390D02*
X154750123Y-124300771D01*
X154750123Y-124300771D02*
X154654885Y-124253152D01*
X154654885Y-124253152D02*
X154512028Y-124253152D01*
X154512028Y-124253152D02*
X154416790Y-124300771D01*
X154416790Y-124300771D02*
X154369171Y-124348390D01*
X154369171Y-124348390D02*
X154321552Y-124443628D01*
X154321552Y-124443628D02*
X154321552Y-124729342D01*
X154321552Y-124729342D02*
X154369171Y-124824580D01*
X154369171Y-124824580D02*
X154416790Y-124872200D01*
X154416790Y-124872200D02*
X154512028Y-124919819D01*
X154512028Y-124919819D02*
X154654885Y-124919819D01*
X153464409Y-124919819D02*
X153464409Y-123919819D01*
X153464409Y-124872200D02*
X153559647Y-124919819D01*
X153559647Y-124919819D02*
X153750123Y-124919819D01*
X153750123Y-124919819D02*
X153845361Y-124872200D01*
X153845361Y-124872200D02*
X153892980Y-124824580D01*
X153892980Y-124824580D02*
X153940599Y-124729342D01*
X153940599Y-124729342D02*
X153940599Y-124443628D01*
X153940599Y-124443628D02*
X153892980Y-124348390D01*
X153892980Y-124348390D02*
X153845361Y-124300771D01*
X153845361Y-124300771D02*
X153750123Y-124253152D01*
X153750123Y-124253152D02*
X153559647Y-124253152D01*
X153559647Y-124253152D02*
X153464409Y-124300771D01*
X152607266Y-124872200D02*
X152702504Y-124919819D01*
X152702504Y-124919819D02*
X152892980Y-124919819D01*
X152892980Y-124919819D02*
X152988218Y-124872200D01*
X152988218Y-124872200D02*
X153035837Y-124776961D01*
X153035837Y-124776961D02*
X153035837Y-124396009D01*
X153035837Y-124396009D02*
X152988218Y-124300771D01*
X152988218Y-124300771D02*
X152892980Y-124253152D01*
X152892980Y-124253152D02*
X152702504Y-124253152D01*
X152702504Y-124253152D02*
X152607266Y-124300771D01*
X152607266Y-124300771D02*
X152559647Y-124396009D01*
X152559647Y-124396009D02*
X152559647Y-124491247D01*
X152559647Y-124491247D02*
X153035837Y-124586485D01*
X152131075Y-124919819D02*
X152131075Y-124253152D01*
X152131075Y-124443628D02*
X152083456Y-124348390D01*
X152083456Y-124348390D02*
X152035837Y-124300771D01*
X152035837Y-124300771D02*
X151940599Y-124253152D01*
X151940599Y-124253152D02*
X151845361Y-124253152D01*
X150035837Y-123872200D02*
X150892979Y-125157914D01*
X148464408Y-124919819D02*
X148940598Y-124919819D01*
X148940598Y-124919819D02*
X148940598Y-123919819D01*
X148131074Y-124919819D02*
X148131074Y-124253152D01*
X148131074Y-123919819D02*
X148178693Y-123967438D01*
X148178693Y-123967438D02*
X148131074Y-124015057D01*
X148131074Y-124015057D02*
X148083455Y-123967438D01*
X148083455Y-123967438D02*
X148131074Y-123919819D01*
X148131074Y-123919819D02*
X148131074Y-124015057D01*
X147654884Y-124919819D02*
X147654884Y-124253152D01*
X147654884Y-124348390D02*
X147607265Y-124300771D01*
X147607265Y-124300771D02*
X147512027Y-124253152D01*
X147512027Y-124253152D02*
X147369170Y-124253152D01*
X147369170Y-124253152D02*
X147273932Y-124300771D01*
X147273932Y-124300771D02*
X147226313Y-124396009D01*
X147226313Y-124396009D02*
X147226313Y-124919819D01*
X147226313Y-124396009D02*
X147178694Y-124300771D01*
X147178694Y-124300771D02*
X147083456Y-124253152D01*
X147083456Y-124253152D02*
X146940599Y-124253152D01*
X146940599Y-124253152D02*
X146845360Y-124300771D01*
X146845360Y-124300771D02*
X146797741Y-124396009D01*
X146797741Y-124396009D02*
X146797741Y-124919819D01*
X146321551Y-124919819D02*
X146321551Y-124253152D01*
X146321551Y-123919819D02*
X146369170Y-123967438D01*
X146369170Y-123967438D02*
X146321551Y-124015057D01*
X146321551Y-124015057D02*
X146273932Y-123967438D01*
X146273932Y-123967438D02*
X146321551Y-123919819D01*
X146321551Y-123919819D02*
X146321551Y-124015057D01*
X145988218Y-124253152D02*
X145607266Y-124253152D01*
X145845361Y-123919819D02*
X145845361Y-124776961D01*
X145845361Y-124776961D02*
X145797742Y-124872200D01*
X145797742Y-124872200D02*
X145702504Y-124919819D01*
X145702504Y-124919819D02*
X145607266Y-124919819D01*
X144559646Y-124872200D02*
X144416789Y-124919819D01*
X144416789Y-124919819D02*
X144178694Y-124919819D01*
X144178694Y-124919819D02*
X144083456Y-124872200D01*
X144083456Y-124872200D02*
X144035837Y-124824580D01*
X144035837Y-124824580D02*
X143988218Y-124729342D01*
X143988218Y-124729342D02*
X143988218Y-124634104D01*
X143988218Y-124634104D02*
X144035837Y-124538866D01*
X144035837Y-124538866D02*
X144083456Y-124491247D01*
X144083456Y-124491247D02*
X144178694Y-124443628D01*
X144178694Y-124443628D02*
X144369170Y-124396009D01*
X144369170Y-124396009D02*
X144464408Y-124348390D01*
X144464408Y-124348390D02*
X144512027Y-124300771D01*
X144512027Y-124300771D02*
X144559646Y-124205533D01*
X144559646Y-124205533D02*
X144559646Y-124110295D01*
X144559646Y-124110295D02*
X144512027Y-124015057D01*
X144512027Y-124015057D02*
X144464408Y-123967438D01*
X144464408Y-123967438D02*
X144369170Y-123919819D01*
X144369170Y-123919819D02*
X144131075Y-123919819D01*
X144131075Y-123919819D02*
X143988218Y-123967438D01*
X143654884Y-124253152D02*
X143464408Y-124919819D01*
X143464408Y-124919819D02*
X143273932Y-124443628D01*
X143273932Y-124443628D02*
X143083456Y-124919819D01*
X143083456Y-124919819D02*
X142892980Y-124253152D01*
X142512027Y-124919819D02*
X142512027Y-124253152D01*
X142512027Y-123919819D02*
X142559646Y-123967438D01*
X142559646Y-123967438D02*
X142512027Y-124015057D01*
X142512027Y-124015057D02*
X142464408Y-123967438D01*
X142464408Y-123967438D02*
X142512027Y-123919819D01*
X142512027Y-123919819D02*
X142512027Y-124015057D01*
X142178694Y-124253152D02*
X141797742Y-124253152D01*
X142035837Y-123919819D02*
X142035837Y-124776961D01*
X142035837Y-124776961D02*
X141988218Y-124872200D01*
X141988218Y-124872200D02*
X141892980Y-124919819D01*
X141892980Y-124919819D02*
X141797742Y-124919819D01*
X141035837Y-124872200D02*
X141131075Y-124919819D01*
X141131075Y-124919819D02*
X141321551Y-124919819D01*
X141321551Y-124919819D02*
X141416789Y-124872200D01*
X141416789Y-124872200D02*
X141464408Y-124824580D01*
X141464408Y-124824580D02*
X141512027Y-124729342D01*
X141512027Y-124729342D02*
X141512027Y-124443628D01*
X141512027Y-124443628D02*
X141464408Y-124348390D01*
X141464408Y-124348390D02*
X141416789Y-124300771D01*
X141416789Y-124300771D02*
X141321551Y-124253152D01*
X141321551Y-124253152D02*
X141131075Y-124253152D01*
X141131075Y-124253152D02*
X141035837Y-124300771D01*
X140607265Y-124919819D02*
X140607265Y-123919819D01*
X140178694Y-124919819D02*
X140178694Y-124396009D01*
X140178694Y-124396009D02*
X140226313Y-124300771D01*
X140226313Y-124300771D02*
X140321551Y-124253152D01*
X140321551Y-124253152D02*
X140464408Y-124253152D01*
X140464408Y-124253152D02*
X140559646Y-124300771D01*
X140559646Y-124300771D02*
X140607265Y-124348390D01*
X138940598Y-124919819D02*
X138940598Y-123919819D01*
X138940598Y-123919819D02*
X138702503Y-123919819D01*
X138702503Y-123919819D02*
X138559646Y-123967438D01*
X138559646Y-123967438D02*
X138464408Y-124062676D01*
X138464408Y-124062676D02*
X138416789Y-124157914D01*
X138416789Y-124157914D02*
X138369170Y-124348390D01*
X138369170Y-124348390D02*
X138369170Y-124491247D01*
X138369170Y-124491247D02*
X138416789Y-124681723D01*
X138416789Y-124681723D02*
X138464408Y-124776961D01*
X138464408Y-124776961D02*
X138559646Y-124872200D01*
X138559646Y-124872200D02*
X138702503Y-124919819D01*
X138702503Y-124919819D02*
X138940598Y-124919819D01*
X137940598Y-124919819D02*
X137940598Y-124253152D01*
X137940598Y-124443628D02*
X137892979Y-124348390D01*
X137892979Y-124348390D02*
X137845360Y-124300771D01*
X137845360Y-124300771D02*
X137750122Y-124253152D01*
X137750122Y-124253152D02*
X137654884Y-124253152D01*
X137321550Y-124919819D02*
X137321550Y-124253152D01*
X137321550Y-123919819D02*
X137369169Y-123967438D01*
X137369169Y-123967438D02*
X137321550Y-124015057D01*
X137321550Y-124015057D02*
X137273931Y-123967438D01*
X137273931Y-123967438D02*
X137321550Y-123919819D01*
X137321550Y-123919819D02*
X137321550Y-124015057D01*
X136940598Y-124253152D02*
X136702503Y-124919819D01*
X136702503Y-124919819D02*
X136464408Y-124253152D01*
X135702503Y-124872200D02*
X135797741Y-124919819D01*
X135797741Y-124919819D02*
X135988217Y-124919819D01*
X135988217Y-124919819D02*
X136083455Y-124872200D01*
X136083455Y-124872200D02*
X136131074Y-124776961D01*
X136131074Y-124776961D02*
X136131074Y-124396009D01*
X136131074Y-124396009D02*
X136083455Y-124300771D01*
X136083455Y-124300771D02*
X135988217Y-124253152D01*
X135988217Y-124253152D02*
X135797741Y-124253152D01*
X135797741Y-124253152D02*
X135702503Y-124300771D01*
X135702503Y-124300771D02*
X135654884Y-124396009D01*
X135654884Y-124396009D02*
X135654884Y-124491247D01*
X135654884Y-124491247D02*
X136131074Y-124586485D01*
X135226312Y-124919819D02*
X135226312Y-124253152D01*
X135226312Y-124443628D02*
X135178693Y-124348390D01*
X135178693Y-124348390D02*
X135131074Y-124300771D01*
X135131074Y-124300771D02*
X135035836Y-124253152D01*
X135035836Y-124253152D02*
X134940598Y-124253152D01*
D11*
%TO.C,J1*%
X131953450Y-113855779D02*
X131953450Y-114490779D01*
X131953450Y-114490779D02*
X132588450Y-114490779D01*
%TD*%
%LPC*%
D12*
%TO.C,J3*%
X160288450Y-101800779D03*
D13*
X160288450Y-99300779D03*
X160288450Y-96800779D03*
X160288450Y-94300779D03*
%TD*%
D12*
%TO.C,J4*%
X160288450Y-115300779D03*
D13*
X160288450Y-112800779D03*
X160288450Y-110300779D03*
X160288450Y-107800779D03*
%TD*%
D14*
%TO.C,J6*%
X158183450Y-120300779D03*
D15*
X160683450Y-120300779D03*
X163183450Y-120300779D03*
%TD*%
D16*
%TO.C,U4*%
X153500000Y-94500000D03*
X148420000Y-94500000D03*
D17*
X144570000Y-93270000D03*
X144570000Y-91270000D03*
%TD*%
D14*
%TO.C,J5*%
X147183450Y-120300779D03*
D15*
X149683450Y-120300779D03*
X152183450Y-120300779D03*
%TD*%
D14*
%TO.C,J2*%
X133683450Y-120300779D03*
D15*
X136183450Y-120300779D03*
X138683450Y-120300779D03*
X141183450Y-120300779D03*
%TD*%
D18*
%TO.C,J1*%
X130683450Y-115125779D03*
D19*
X133223450Y-115125779D03*
D18*
X135763450Y-115125779D03*
X130683450Y-111950779D03*
X135763450Y-111950779D03*
D19*
X132207450Y-110045779D03*
X134239450Y-110045779D03*
D20*
X132588450Y-113855779D03*
X133858450Y-113855779D03*
X132588450Y-112585779D03*
X133858450Y-112585779D03*
X132588450Y-111315779D03*
X133858450Y-111315779D03*
%TD*%
%LPD*%
M02*
