%TF.GenerationSoftware,KiCad,Pcbnew,9.0.5*%
%TF.CreationDate,2025-10-28T15:08:01+09:00*%
%TF.ProjectId,mr2_arm_hw,6d72325f-6172-46d5-9f68-772e6b696361,rev?*%
%TF.SameCoordinates,Original*%
%TF.FileFunction,Copper,L4,Bot*%
%TF.FilePolarity,Positive*%
%FSLAX46Y46*%
G04 Gerber Fmt 4.6, Leading zero omitted, Abs format (unit mm)*
G04 Created by KiCad (PCBNEW 9.0.5) date 2025-10-28 15:08:01*
%MOMM*%
%LPD*%
G01*
G04 APERTURE LIST*
G04 Aperture macros list*
%AMRoundRect*
0 Rectangle with rounded corners*
0 $1 Rounding radius*
0 $2 $3 $4 $5 $6 $7 $8 $9 X,Y pos of 4 corners*
0 Add a 4 corners polygon primitive as box body*
4,1,4,$2,$3,$4,$5,$6,$7,$8,$9,$2,$3,0*
0 Add four circle primitives for the rounded corners*
1,1,$1+$1,$2,$3*
1,1,$1+$1,$4,$5*
1,1,$1+$1,$6,$7*
1,1,$1+$1,$8,$9*
0 Add four rect primitives between the rounded corners*
20,1,$1+$1,$2,$3,$4,$5,0*
20,1,$1+$1,$4,$5,$6,$7,0*
20,1,$1+$1,$6,$7,$8,$9,0*
20,1,$1+$1,$8,$9,$2,$3,0*%
G04 Aperture macros list end*
%TA.AperFunction,ComponentPad*%
%ADD10RoundRect,0.250000X0.675000X-0.600000X0.675000X0.600000X-0.675000X0.600000X-0.675000X-0.600000X0*%
%TD*%
%TA.AperFunction,ComponentPad*%
%ADD11O,1.850000X1.700000*%
%TD*%
%TA.AperFunction,ComponentPad*%
%ADD12RoundRect,0.250000X-0.600000X-0.675000X0.600000X-0.675000X0.600000X0.675000X-0.600000X0.675000X0*%
%TD*%
%TA.AperFunction,ComponentPad*%
%ADD13O,1.700000X1.850000*%
%TD*%
%TA.AperFunction,ComponentPad*%
%ADD14C,2.800000*%
%TD*%
%TA.AperFunction,ComponentPad*%
%ADD15C,1.524000*%
%TD*%
%TA.AperFunction,ConnectorPad*%
%ADD16C,0.787400*%
%TD*%
%TA.AperFunction,ViaPad*%
%ADD17C,0.800000*%
%TD*%
%TA.AperFunction,Conductor*%
%ADD18C,0.250000*%
%TD*%
%TA.AperFunction,Conductor*%
%ADD19C,0.200000*%
%TD*%
G04 APERTURE END LIST*
D10*
%TO.P,J3,1,Pin_1*%
%TO.N,GND*%
X160288450Y-101800779D03*
D11*
%TO.P,J3,2,Pin_2*%
%TO.N,I2C1_SDA*%
X160288450Y-99300779D03*
%TO.P,J3,3,Pin_3*%
%TO.N,I2C1_SCL*%
X160288450Y-96800779D03*
%TO.P,J3,4,Pin_4*%
%TO.N,+3V3*%
X160288450Y-94300779D03*
%TD*%
D10*
%TO.P,J4,1,Pin_1*%
%TO.N,GND*%
X160288450Y-115300779D03*
D11*
%TO.P,J4,2,Pin_2*%
%TO.N,I2C2_SDA*%
X160288450Y-112800779D03*
%TO.P,J4,3,Pin_3*%
%TO.N,I2C2_SCL*%
X160288450Y-110300779D03*
%TO.P,J4,4,Pin_4*%
%TO.N,+3V3*%
X160288450Y-107800779D03*
%TD*%
D12*
%TO.P,J6,1,Pin_1*%
%TO.N,GND*%
X158183450Y-120300779D03*
D13*
%TO.P,J6,2,Pin_2*%
%TO.N,SW2_NC*%
X160683450Y-120300779D03*
%TO.P,J6,3,Pin_3*%
%TO.N,SW2_NO*%
X163183450Y-120300779D03*
%TD*%
D14*
%TO.P,U4,1,1*%
%TO.N,VBUS*%
X153500000Y-94500000D03*
%TO.P,U4,2,2*%
%TO.N,GND*%
X148420000Y-94500000D03*
D15*
%TO.P,U4,3,3*%
%TO.N,CAN-*%
X144570000Y-93270000D03*
%TO.P,U4,4,4*%
%TO.N,CAN+*%
X144570000Y-91270000D03*
%TD*%
D12*
%TO.P,J5,1,Pin_1*%
%TO.N,GND*%
X147183450Y-120300779D03*
D13*
%TO.P,J5,2,Pin_2*%
%TO.N,SW1_NC*%
X149683450Y-120300779D03*
%TO.P,J5,3,Pin_3*%
%TO.N,SW1_NO*%
X152183450Y-120300779D03*
%TD*%
D12*
%TO.P,J2,1,Pin_1*%
%TO.N,GND*%
X133683450Y-120300779D03*
D13*
%TO.P,J2,2,Pin_2*%
%TO.N,USART2_TX*%
X136183450Y-120300779D03*
%TO.P,J2,3,Pin_3*%
%TO.N,USART2_RX*%
X138683450Y-120300779D03*
%TO.P,J2,4,Pin_4*%
%TO.N,+3V3*%
X141183450Y-120300779D03*
%TD*%
D16*
%TO.P,J1,1,VCC*%
%TO.N,+3V3*%
X132588450Y-113855779D03*
%TO.P,J1,2,SWDIO*%
%TO.N,SWDIO*%
X133858450Y-113855779D03*
%TO.P,J1,3,~{RESET}*%
%TO.N,NRST*%
X132588450Y-112585779D03*
%TO.P,J1,4,SWCLK*%
%TO.N,SWCLK*%
X133858450Y-112585779D03*
%TO.P,J1,5,GND*%
%TO.N,GND*%
X132588450Y-111315779D03*
%TO.P,J1,6,SWO*%
%TO.N,SWO*%
X133858450Y-111315779D03*
%TD*%
D17*
%TO.N,GND*%
X132561058Y-108811058D03*
X139183450Y-107800779D03*
X142683450Y-104375779D03*
X161933450Y-115375779D03*
X139400000Y-97700000D03*
X146900000Y-93600000D03*
X138933450Y-113300779D03*
X139600000Y-88900000D03*
X139500000Y-94400000D03*
X137600000Y-111000000D03*
X132298000Y-93618931D03*
X139500000Y-96700000D03*
X151900000Y-96000000D03*
X160000000Y-84200000D03*
X155600000Y-116100000D03*
X164400000Y-104500000D03*
X150500000Y-112300000D03*
X150928831Y-98632928D03*
X140500000Y-91400000D03*
X146100000Y-89200000D03*
X127200000Y-105600000D03*
X155200000Y-87800000D03*
X144700000Y-100200000D03*
X125700000Y-102400000D03*
X147183450Y-121875779D03*
X156750000Y-107275000D03*
X140683450Y-111550779D03*
X133683450Y-121875779D03*
X158100000Y-116100000D03*
X147200000Y-95800000D03*
X139500000Y-93200000D03*
X158183450Y-121875779D03*
X144700000Y-96800000D03*
X125500000Y-105600000D03*
X128900000Y-105600000D03*
X161933450Y-101625779D03*
X164300000Y-95100000D03*
X150300000Y-89200000D03*
X146600000Y-94800000D03*
X155200000Y-84700000D03*
X146700000Y-111000000D03*
X152400000Y-124300000D03*
X146300000Y-84700000D03*
X143800000Y-124300000D03*
X151183450Y-117050779D03*
X134800000Y-118200000D03*
X137600000Y-114500000D03*
X159000000Y-91500000D03*
X146521832Y-103310311D03*
X142183450Y-107625779D03*
X128900000Y-108800000D03*
X155500000Y-96200000D03*
X134800000Y-108700000D03*
X150800000Y-84700000D03*
X134800000Y-124300000D03*
X155026366Y-108468695D03*
X139500000Y-91900000D03*
X141183450Y-112300779D03*
X161600000Y-124200000D03*
X128900000Y-118100000D03*
X128800000Y-102400000D03*
X152500000Y-106000000D03*
X140600000Y-88900000D03*
X164500000Y-112100000D03*
X128800000Y-113600000D03*
X139500000Y-95600000D03*
%TO.N,+3V3*%
X141183450Y-121875779D03*
X156758450Y-104750000D03*
X138933450Y-114800779D03*
X158500000Y-87500000D03*
X139800000Y-85500000D03*
X153300000Y-115050779D03*
X161933450Y-107875779D03*
X153300000Y-116300000D03*
X147433450Y-102125779D03*
X133100000Y-89100000D03*
X161933450Y-94125779D03*
X138700000Y-85300000D03*
X164550000Y-84275000D03*
X153953473Y-107070802D03*
X150933450Y-103875779D03*
X138300000Y-84400000D03*
X145758450Y-103875779D03*
X155183450Y-112050779D03*
X129300000Y-91700000D03*
X132433450Y-116125779D03*
X144183450Y-104375779D03*
X137400000Y-83800000D03*
%TO.N,NRST*%
X155700000Y-91400000D03*
X146433450Y-109050779D03*
X163050000Y-85450000D03*
%TO.N,BOOT0*%
X147933450Y-107800779D03*
X156683450Y-96050779D03*
%TO.N,SWCLK*%
X151400000Y-107600000D03*
%TO.N,SWDIO*%
X151500000Y-108900000D03*
%TO.N,SWO*%
X150402317Y-107702317D03*
%TD*%
D18*
%TO.N,GND*%
X132760279Y-108811058D02*
X133183450Y-109234229D01*
X132561058Y-108811058D02*
X132760279Y-108811058D01*
X133183450Y-109234229D02*
X133183450Y-110720779D01*
X132588450Y-111315779D02*
X132588450Y-111220779D01*
X133183450Y-110720779D02*
X132588450Y-111315779D01*
%TO.N,+3V3*%
X137400000Y-83800000D02*
X137200000Y-83600000D01*
X133300000Y-83600000D02*
X129300000Y-87600000D01*
X129300000Y-87600000D02*
X129300000Y-91700000D01*
X132300000Y-115992329D02*
X132433450Y-116125779D01*
X132300000Y-114144229D02*
X132300000Y-115992329D01*
X137200000Y-83600000D02*
X133300000Y-83600000D01*
X132588450Y-113855779D02*
X132300000Y-114144229D01*
%TO.N,NRST*%
X138176662Y-107750000D02*
X132667520Y-107750000D01*
X144933450Y-107550779D02*
X146433450Y-109050779D01*
X155400000Y-95040933D02*
X155400000Y-92700000D01*
X152433450Y-96875779D02*
X149683450Y-96875779D01*
X155400000Y-92700000D02*
X155400000Y-91700000D01*
X153565154Y-96875779D02*
X155400000Y-95040933D01*
X130034191Y-113518229D02*
X131656000Y-113518229D01*
X129116000Y-111301520D02*
X129116000Y-112600038D01*
X132667520Y-107750000D02*
X129116000Y-111301520D01*
X155400000Y-91700000D02*
X155700000Y-91400000D01*
X129116000Y-112600038D02*
X130034191Y-113518229D01*
X149683450Y-96875779D02*
X144933450Y-101625779D01*
X152433450Y-96875779D02*
X153565154Y-96875779D01*
X146433450Y-109050779D02*
X145758450Y-108375779D01*
X131656000Y-113518229D02*
X132588450Y-112585779D01*
X139477441Y-109050779D02*
X138176662Y-107750000D01*
X146433450Y-109050779D02*
X139477441Y-109050779D01*
X144933450Y-101625779D02*
X144933450Y-107550779D01*
%TO.N,BOOT0*%
X157683450Y-99300779D02*
X149183450Y-107800779D01*
X157683450Y-97050779D02*
X157683450Y-99300779D01*
X149183450Y-107800779D02*
X147933450Y-107800779D01*
X156683450Y-96050779D02*
X157683450Y-97050779D01*
D19*
%TO.N,SWCLK*%
X151400000Y-107625288D02*
X151400000Y-107600000D01*
X145050288Y-113975000D02*
X151400000Y-107625288D01*
X134765900Y-113493229D02*
X137818229Y-113493229D01*
X138300000Y-113975000D02*
X145050288Y-113975000D01*
X133858450Y-112585779D02*
X134765900Y-113493229D01*
X137818229Y-113493229D02*
X138300000Y-113975000D01*
%TO.N,SWDIO*%
X134100000Y-114097329D02*
X134100000Y-115643683D01*
X151500000Y-108950000D02*
X151500000Y-108900000D01*
X143781771Y-116668229D02*
X151500000Y-108950000D01*
X133858450Y-113855779D02*
X134100000Y-114097329D01*
X134100000Y-115643683D02*
X135124546Y-116668229D01*
X135124546Y-116668229D02*
X143781771Y-116668229D01*
%TO.N,SWO*%
X135806096Y-109726779D02*
X148332450Y-109726779D01*
X148377855Y-109726779D02*
X150402317Y-107702317D01*
X134217096Y-111315779D02*
X135806096Y-109726779D01*
X133858450Y-111315779D02*
X134217096Y-111315779D01*
X148332450Y-109726779D02*
X148377855Y-109726779D01*
%TD*%
%TA.AperFunction,Conductor*%
%TO.N,GND*%
G36*
X137639293Y-113899798D02*
G01*
X137673860Y-113917411D01*
X137688656Y-113930048D01*
X137994516Y-114235908D01*
X138039092Y-114280484D01*
X138039098Y-114280488D01*
X138090087Y-114317535D01*
X138090089Y-114317536D01*
X138090092Y-114317538D01*
X138116505Y-114330996D01*
X138146261Y-114346158D01*
X138146267Y-114346160D01*
X138210192Y-114366930D01*
X138244759Y-114384542D01*
X138272192Y-114411975D01*
X138289806Y-114446542D01*
X138295875Y-114484860D01*
X138289806Y-114523178D01*
X138286436Y-114532313D01*
X138268707Y-114575114D01*
X138268700Y-114575134D01*
X138263611Y-114594128D01*
X138245756Y-114660767D01*
X138244937Y-114663822D01*
X138244935Y-114663833D01*
X138232950Y-114754858D01*
X138232950Y-114846699D01*
X138241696Y-114913126D01*
X138244936Y-114937733D01*
X138268702Y-115026430D01*
X138303843Y-115111267D01*
X138303845Y-115111270D01*
X138303852Y-115111283D01*
X138349752Y-115190786D01*
X138349753Y-115190788D01*
X138405654Y-115263640D01*
X138405660Y-115263647D01*
X138470581Y-115328568D01*
X138470588Y-115328574D01*
X138543440Y-115384475D01*
X138543442Y-115384476D01*
X138606141Y-115420674D01*
X138622962Y-115430386D01*
X138707799Y-115465527D01*
X138796496Y-115489293D01*
X138887537Y-115501279D01*
X138887544Y-115501279D01*
X138979356Y-115501279D01*
X138979363Y-115501279D01*
X139070404Y-115489293D01*
X139159101Y-115465527D01*
X139243938Y-115430386D01*
X139323462Y-115384473D01*
X139396313Y-115328573D01*
X139461244Y-115263642D01*
X139517144Y-115190791D01*
X139563057Y-115111267D01*
X139598198Y-115026430D01*
X139621964Y-114937733D01*
X139633950Y-114846692D01*
X139633950Y-114754866D01*
X139621964Y-114663825D01*
X139598198Y-114575128D01*
X139586526Y-114546950D01*
X139577470Y-114509230D01*
X139580514Y-114470554D01*
X139595360Y-114434711D01*
X139620556Y-114405210D01*
X139653635Y-114384939D01*
X139691358Y-114375882D01*
X139701088Y-114375500D01*
X145081807Y-114375500D01*
X145081808Y-114375500D01*
X145144072Y-114365638D01*
X145204027Y-114346158D01*
X145204028Y-114346157D01*
X145206710Y-114345286D01*
X145245028Y-114339217D01*
X145283346Y-114345286D01*
X145317913Y-114362899D01*
X145345346Y-114390332D01*
X145362959Y-114424899D01*
X145369028Y-114463217D01*
X145362959Y-114501535D01*
X145345346Y-114536102D01*
X145332709Y-114550898D01*
X143652198Y-116231410D01*
X143620812Y-116254214D01*
X143583915Y-116266202D01*
X143564517Y-116267729D01*
X136882999Y-116267729D01*
X136844681Y-116261660D01*
X136810114Y-116244047D01*
X136782681Y-116216614D01*
X136765068Y-116182047D01*
X136758999Y-116143729D01*
X136765068Y-116105411D01*
X136782681Y-116070844D01*
X136788010Y-116064023D01*
X136865625Y-115971525D01*
X136865626Y-115971523D01*
X136865634Y-115971514D01*
X136935150Y-115872234D01*
X136995749Y-115767273D01*
X137046970Y-115657430D01*
X137088422Y-115543541D01*
X137119791Y-115426472D01*
X137140837Y-115307115D01*
X137151400Y-115186378D01*
X137151400Y-115065180D01*
X137140837Y-114944443D01*
X137119791Y-114825086D01*
X137088422Y-114708017D01*
X137049663Y-114601526D01*
X137046972Y-114594132D01*
X137046968Y-114594122D01*
X136995753Y-114484294D01*
X136995745Y-114484278D01*
X136971269Y-114441884D01*
X136935150Y-114379324D01*
X136865634Y-114280044D01*
X136865630Y-114280039D01*
X136865625Y-114280032D01*
X136813129Y-114217471D01*
X136787729Y-114187200D01*
X136787720Y-114187191D01*
X136787710Y-114187180D01*
X136705940Y-114105410D01*
X136683136Y-114074024D01*
X136671148Y-114037127D01*
X136671148Y-113998331D01*
X136683136Y-113961434D01*
X136705940Y-113930048D01*
X136737326Y-113907244D01*
X136774223Y-113895256D01*
X136793621Y-113893729D01*
X137600975Y-113893729D01*
X137639293Y-113899798D01*
G37*
%TD.AperFunction*%
%TA.AperFunction,Conductor*%
G36*
X148070573Y-110133348D02*
G01*
X148105140Y-110150961D01*
X148132573Y-110178394D01*
X148150186Y-110212961D01*
X148156255Y-110251279D01*
X148150186Y-110289597D01*
X148132573Y-110324164D01*
X148119936Y-110338960D01*
X144920715Y-113538181D01*
X144889329Y-113560985D01*
X144852432Y-113572973D01*
X144833034Y-113574500D01*
X138517254Y-113574500D01*
X138478936Y-113568431D01*
X138444369Y-113550818D01*
X138429573Y-113538181D01*
X138079135Y-113187743D01*
X138052106Y-113168106D01*
X138046763Y-113164224D01*
X138028137Y-113150691D01*
X137975561Y-113123902D01*
X137972755Y-113122472D01*
X137971967Y-113122070D01*
X137912014Y-113102591D01*
X137880881Y-113097660D01*
X137849749Y-113092729D01*
X137849748Y-113092729D01*
X136882999Y-113092729D01*
X136844681Y-113086660D01*
X136810114Y-113069047D01*
X136782681Y-113041614D01*
X136765068Y-113007047D01*
X136758999Y-112968729D01*
X136765068Y-112930411D01*
X136782681Y-112895844D01*
X136788010Y-112889023D01*
X136865625Y-112796525D01*
X136865626Y-112796523D01*
X136865634Y-112796514D01*
X136935150Y-112697234D01*
X136995749Y-112592273D01*
X137046970Y-112482430D01*
X137088422Y-112368541D01*
X137119791Y-112251472D01*
X137140837Y-112132115D01*
X137151400Y-112011378D01*
X137151400Y-111890180D01*
X137140837Y-111769443D01*
X137119791Y-111650086D01*
X137088422Y-111533017D01*
X137058672Y-111451279D01*
X137046972Y-111419132D01*
X137046968Y-111419122D01*
X136995753Y-111309294D01*
X136995745Y-111309278D01*
X136973229Y-111270279D01*
X136935150Y-111204324D01*
X136865634Y-111105044D01*
X136865630Y-111105039D01*
X136865625Y-111105032D01*
X136797903Y-111024325D01*
X136787729Y-111012200D01*
X136787720Y-111012191D01*
X136787710Y-111012180D01*
X136702048Y-110926518D01*
X136702036Y-110926507D01*
X136702029Y-110926500D01*
X136662061Y-110892963D01*
X136609196Y-110848603D01*
X136509911Y-110779083D01*
X136509908Y-110779081D01*
X136509905Y-110779079D01*
X136444953Y-110741579D01*
X136404950Y-110718483D01*
X136404934Y-110718475D01*
X136295106Y-110667260D01*
X136295096Y-110667256D01*
X136181223Y-110625811D01*
X136181222Y-110625810D01*
X136181212Y-110625807D01*
X136095513Y-110602843D01*
X136064144Y-110594438D01*
X136064137Y-110594437D01*
X135944788Y-110573392D01*
X135944790Y-110573392D01*
X135824482Y-110562866D01*
X135786838Y-110553480D01*
X135753938Y-110532921D01*
X135729001Y-110503202D01*
X135714468Y-110467231D01*
X135711762Y-110428530D01*
X135721148Y-110390886D01*
X135741707Y-110357986D01*
X135747574Y-110351693D01*
X135935673Y-110163594D01*
X135967057Y-110140794D01*
X136003954Y-110128806D01*
X136023351Y-110127279D01*
X148032255Y-110127279D01*
X148070573Y-110133348D01*
G37*
%TD.AperFunction*%
%TA.AperFunction,Conductor*%
G36*
X137987370Y-108181569D02*
G01*
X138021937Y-108199182D01*
X138036733Y-108211819D01*
X138939512Y-109114598D01*
X138962316Y-109145984D01*
X138974304Y-109182881D01*
X138974304Y-109221677D01*
X138962316Y-109258574D01*
X138939512Y-109289960D01*
X138908126Y-109312764D01*
X138871229Y-109324752D01*
X138851831Y-109326279D01*
X135774576Y-109326279D01*
X135770157Y-109326979D01*
X135712308Y-109336141D01*
X135652364Y-109355617D01*
X135638145Y-109362862D01*
X135638145Y-109362863D01*
X135617550Y-109373356D01*
X135596185Y-109384242D01*
X135545190Y-109421291D01*
X135102750Y-109863731D01*
X135071364Y-109886535D01*
X135034467Y-109898523D01*
X134995671Y-109898523D01*
X134958774Y-109886535D01*
X134927388Y-109863731D01*
X134904584Y-109832345D01*
X134900507Y-109823502D01*
X134899740Y-109821651D01*
X134899738Y-109821642D01*
X134864833Y-109737374D01*
X134864829Y-109737368D01*
X134864827Y-109737362D01*
X134840960Y-109696025D01*
X134819228Y-109658384D01*
X134763703Y-109586022D01*
X134763698Y-109586016D01*
X134699212Y-109521530D01*
X134699205Y-109521524D01*
X134626846Y-109466002D01*
X134626847Y-109466002D01*
X134626845Y-109466001D01*
X134608024Y-109455134D01*
X134547866Y-109420401D01*
X134547846Y-109420391D01*
X134463585Y-109385490D01*
X134375483Y-109361883D01*
X134285056Y-109349979D01*
X134285055Y-109349979D01*
X134193845Y-109349979D01*
X134193844Y-109349979D01*
X134103416Y-109361883D01*
X134015314Y-109385490D01*
X133931053Y-109420391D01*
X133931033Y-109420401D01*
X133852053Y-109466002D01*
X133779694Y-109521524D01*
X133779687Y-109521530D01*
X133715201Y-109586016D01*
X133715195Y-109586023D01*
X133659673Y-109658382D01*
X133614072Y-109737362D01*
X133614062Y-109737382D01*
X133579161Y-109821643D01*
X133555554Y-109909745D01*
X133543650Y-110000173D01*
X133543650Y-110091384D01*
X133555554Y-110181812D01*
X133579161Y-110269914D01*
X133614062Y-110354175D01*
X133614072Y-110354195D01*
X133659673Y-110433175D01*
X133685635Y-110467010D01*
X133704147Y-110501104D01*
X133711217Y-110539250D01*
X133706153Y-110577714D01*
X133689451Y-110612730D01*
X133662745Y-110640872D01*
X133634712Y-110657057D01*
X133550760Y-110691830D01*
X133550755Y-110691833D01*
X133471946Y-110737333D01*
X133399747Y-110792734D01*
X133335405Y-110857076D01*
X133280004Y-110929275D01*
X133234504Y-111008084D01*
X133234502Y-111008089D01*
X133199679Y-111092158D01*
X133187425Y-111137894D01*
X133176127Y-111180057D01*
X133176127Y-111180059D01*
X133172453Y-111207965D01*
X133161434Y-111245163D01*
X133139460Y-111277136D01*
X133108681Y-111300753D01*
X133072110Y-111313703D01*
X133049514Y-111315779D01*
X132588450Y-111315779D01*
X132588450Y-111776843D01*
X132582381Y-111815161D01*
X132564768Y-111849728D01*
X132537335Y-111877161D01*
X132502768Y-111894774D01*
X132480636Y-111899782D01*
X132471109Y-111901036D01*
X132452728Y-111903456D01*
X132415578Y-111913410D01*
X132364829Y-111927008D01*
X132280760Y-111961831D01*
X132280745Y-111961838D01*
X132255993Y-111976128D01*
X132219773Y-111990030D01*
X132181031Y-111992059D01*
X132143557Y-111982017D01*
X132111021Y-111960886D01*
X132086608Y-111930735D01*
X132072706Y-111894515D01*
X132070470Y-111879556D01*
X132060837Y-111769443D01*
X132039791Y-111650086D01*
X132008422Y-111533017D01*
X131978672Y-111451279D01*
X131966972Y-111419132D01*
X131966968Y-111419122D01*
X131915753Y-111309294D01*
X131915745Y-111309278D01*
X131893229Y-111270279D01*
X131855150Y-111204324D01*
X131785634Y-111105044D01*
X131785630Y-111105039D01*
X131785625Y-111105032D01*
X131717903Y-111024325D01*
X131707729Y-111012200D01*
X131707720Y-111012191D01*
X131707710Y-111012180D01*
X131622048Y-110926518D01*
X131622036Y-110926507D01*
X131622029Y-110926500D01*
X131582061Y-110892963D01*
X131529196Y-110848603D01*
X131429911Y-110779083D01*
X131429908Y-110779081D01*
X131429905Y-110779079D01*
X131364953Y-110741579D01*
X131324950Y-110718483D01*
X131324934Y-110718475D01*
X131215106Y-110667260D01*
X131215096Y-110667256D01*
X131101223Y-110625811D01*
X131101222Y-110625810D01*
X131101212Y-110625807D01*
X131015513Y-110602843D01*
X130984144Y-110594438D01*
X130984137Y-110594437D01*
X130864788Y-110573392D01*
X130864790Y-110573392D01*
X130744482Y-110562866D01*
X130706838Y-110553480D01*
X130673938Y-110532921D01*
X130649001Y-110503202D01*
X130634468Y-110467231D01*
X130631762Y-110428530D01*
X130641148Y-110390886D01*
X130661707Y-110357986D01*
X130667593Y-110351673D01*
X131353524Y-109665743D01*
X131384905Y-109642943D01*
X131421802Y-109630955D01*
X131460598Y-109630955D01*
X131497495Y-109642943D01*
X131528881Y-109665747D01*
X131551685Y-109697133D01*
X131563673Y-109734030D01*
X131563673Y-109772826D01*
X131555763Y-109800876D01*
X131547161Y-109821644D01*
X131523554Y-109909745D01*
X131511650Y-110000173D01*
X131511650Y-110091384D01*
X131523554Y-110181812D01*
X131547161Y-110269914D01*
X131582062Y-110354175D01*
X131582072Y-110354195D01*
X131627673Y-110433175D01*
X131683195Y-110505534D01*
X131683201Y-110505541D01*
X131747687Y-110570027D01*
X131747693Y-110570032D01*
X131820055Y-110625557D01*
X131857696Y-110647289D01*
X131899033Y-110671156D01*
X131899053Y-110671166D01*
X131951599Y-110692930D01*
X131983313Y-110706067D01*
X132071415Y-110729674D01*
X132116630Y-110735626D01*
X132161844Y-110741579D01*
X132161845Y-110741579D01*
X132253056Y-110741579D01*
X132285307Y-110737333D01*
X132343485Y-110729674D01*
X132431587Y-110706067D01*
X132495014Y-110679794D01*
X132515846Y-110671166D01*
X132515849Y-110671164D01*
X132515855Y-110671162D01*
X132515861Y-110671158D01*
X132515866Y-110671156D01*
X132531491Y-110662134D01*
X132594845Y-110625557D01*
X132667207Y-110570032D01*
X132731703Y-110505536D01*
X132787228Y-110433174D01*
X132831035Y-110357299D01*
X132832827Y-110354195D01*
X132832837Y-110354175D01*
X132845268Y-110324164D01*
X132867738Y-110269916D01*
X132891345Y-110181814D01*
X132903250Y-110091384D01*
X132903250Y-110000174D01*
X132891345Y-109909744D01*
X132867738Y-109821642D01*
X132847518Y-109772826D01*
X132832837Y-109737382D01*
X132832827Y-109737362D01*
X132808960Y-109696025D01*
X132787228Y-109658384D01*
X132731703Y-109586022D01*
X132731698Y-109586016D01*
X132667212Y-109521530D01*
X132667205Y-109521524D01*
X132594846Y-109466002D01*
X132594847Y-109466002D01*
X132594845Y-109466001D01*
X132576024Y-109455134D01*
X132515866Y-109420401D01*
X132515846Y-109420391D01*
X132431585Y-109385490D01*
X132343483Y-109361883D01*
X132253056Y-109349979D01*
X132253055Y-109349979D01*
X132161845Y-109349979D01*
X132161844Y-109349979D01*
X132071416Y-109361883D01*
X131983314Y-109385490D01*
X131962550Y-109394091D01*
X131924826Y-109403147D01*
X131886149Y-109400102D01*
X131850307Y-109385255D01*
X131820807Y-109360058D01*
X131800538Y-109326979D01*
X131791482Y-109289255D01*
X131794527Y-109250578D01*
X131809374Y-109214736D01*
X131827416Y-109191850D01*
X132807449Y-108211819D01*
X132838835Y-108189015D01*
X132875732Y-108177027D01*
X132895130Y-108175500D01*
X137949052Y-108175500D01*
X137987370Y-108181569D01*
G37*
%TD.AperFunction*%
%TA.AperFunction,Conductor*%
G36*
X132661429Y-83381848D02*
G01*
X132695996Y-83399461D01*
X132723429Y-83426894D01*
X132741042Y-83461461D01*
X132747111Y-83499779D01*
X132741042Y-83538097D01*
X132723429Y-83572664D01*
X132710792Y-83587460D01*
X128975446Y-87322805D01*
X128936079Y-87376989D01*
X128905227Y-87437539D01*
X128904166Y-87441300D01*
X128884977Y-87500357D01*
X128874500Y-87566507D01*
X128874500Y-91083480D01*
X128868431Y-91121798D01*
X128850818Y-91156365D01*
X128838181Y-91171161D01*
X128772210Y-91237131D01*
X128772204Y-91237138D01*
X128716303Y-91309990D01*
X128716302Y-91309992D01*
X128670402Y-91389495D01*
X128670395Y-91389508D01*
X128635253Y-91474347D01*
X128635250Y-91474355D01*
X128625063Y-91512374D01*
X128612186Y-91560436D01*
X128611487Y-91563043D01*
X128611485Y-91563054D01*
X128599500Y-91654079D01*
X128599500Y-91745920D01*
X128608845Y-91816893D01*
X128611486Y-91836954D01*
X128635252Y-91925651D01*
X128670393Y-92010488D01*
X128670395Y-92010491D01*
X128670402Y-92010504D01*
X128716302Y-92090007D01*
X128716303Y-92090009D01*
X128772204Y-92162861D01*
X128772210Y-92162868D01*
X128837131Y-92227789D01*
X128837138Y-92227795D01*
X128909990Y-92283696D01*
X128909992Y-92283697D01*
X128960607Y-92312919D01*
X128989512Y-92329607D01*
X129074349Y-92364748D01*
X129163046Y-92388514D01*
X129254087Y-92400500D01*
X129254094Y-92400500D01*
X129345906Y-92400500D01*
X129345913Y-92400500D01*
X129436954Y-92388514D01*
X129525651Y-92364748D01*
X129610488Y-92329607D01*
X129690012Y-92283694D01*
X129762863Y-92227794D01*
X129827794Y-92162863D01*
X129883694Y-92090012D01*
X129929607Y-92010488D01*
X129964748Y-91925651D01*
X129988514Y-91836954D01*
X130000500Y-91745913D01*
X130000500Y-91654087D01*
X129988514Y-91563046D01*
X129964748Y-91474349D01*
X129929607Y-91389512D01*
X129909158Y-91354093D01*
X129883697Y-91309992D01*
X129883696Y-91309990D01*
X129871387Y-91293949D01*
X129871386Y-91293948D01*
X129827794Y-91237137D01*
X129808460Y-91217803D01*
X143507500Y-91217803D01*
X143507500Y-91322197D01*
X143517733Y-91426089D01*
X143538099Y-91528478D01*
X143548588Y-91563054D01*
X143568403Y-91628378D01*
X143608353Y-91724825D01*
X143657567Y-91816896D01*
X143715569Y-91903703D01*
X143781794Y-91984397D01*
X143855602Y-92058205D01*
X143936296Y-92124430D01*
X143999854Y-92166898D01*
X144028342Y-92193232D01*
X144047299Y-92227082D01*
X144054867Y-92265132D01*
X144050307Y-92303659D01*
X144034065Y-92338891D01*
X144007731Y-92367379D01*
X143999854Y-92373102D01*
X143936296Y-92415569D01*
X143855602Y-92481794D01*
X143781794Y-92555602D01*
X143715569Y-92636296D01*
X143657567Y-92723103D01*
X143608353Y-92815174D01*
X143568403Y-92911621D01*
X143555393Y-92954510D01*
X143538099Y-93011522D01*
X143517733Y-93113911D01*
X143507500Y-93217803D01*
X143507500Y-93322197D01*
X143517733Y-93426089D01*
X143538099Y-93528478D01*
X143542226Y-93542082D01*
X143568403Y-93628378D01*
X143578027Y-93651611D01*
X143608353Y-93724825D01*
X143652965Y-93808288D01*
X143657567Y-93816896D01*
X143715569Y-93903703D01*
X143781794Y-93984397D01*
X143855602Y-94058205D01*
X143936296Y-94124430D01*
X143936303Y-94124435D01*
X143936306Y-94124437D01*
X144023107Y-94182435D01*
X144115175Y-94231647D01*
X144211623Y-94271597D01*
X144311522Y-94301901D01*
X144413911Y-94322267D01*
X144517803Y-94332500D01*
X144517808Y-94332500D01*
X144622192Y-94332500D01*
X144622197Y-94332500D01*
X144726089Y-94322267D01*
X144828478Y-94301901D01*
X144928377Y-94271597D01*
X145024825Y-94231647D01*
X145116893Y-94182435D01*
X145203694Y-94124437D01*
X145284392Y-94058210D01*
X145358210Y-93984392D01*
X145417030Y-93912720D01*
X145424430Y-93903703D01*
X145424431Y-93903700D01*
X145424437Y-93903694D01*
X145482435Y-93816893D01*
X145531647Y-93724825D01*
X145571597Y-93628377D01*
X145601901Y-93528478D01*
X145622267Y-93426089D01*
X145632500Y-93322197D01*
X145632500Y-93217803D01*
X145622267Y-93113911D01*
X145601901Y-93011522D01*
X145571597Y-92911623D01*
X145531647Y-92815175D01*
X145482435Y-92723107D01*
X145424437Y-92636306D01*
X145424435Y-92636303D01*
X145424430Y-92636296D01*
X145358205Y-92555602D01*
X145284397Y-92481794D01*
X145203705Y-92415571D01*
X145203698Y-92415566D01*
X145203694Y-92415563D01*
X145140142Y-92373099D01*
X145111657Y-92346768D01*
X145092701Y-92312919D01*
X145085132Y-92274869D01*
X145089691Y-92236342D01*
X145105933Y-92201110D01*
X145132268Y-92172621D01*
X145140128Y-92166909D01*
X145203694Y-92124437D01*
X145284392Y-92058210D01*
X145358210Y-91984392D01*
X145424437Y-91903694D01*
X145482435Y-91816893D01*
X145531647Y-91724825D01*
X145571597Y-91628377D01*
X145601901Y-91528478D01*
X145622267Y-91426089D01*
X145632500Y-91322197D01*
X145632500Y-91217803D01*
X145622267Y-91113911D01*
X145601901Y-91011522D01*
X145571597Y-90911623D01*
X145531647Y-90815175D01*
X145482435Y-90723107D01*
X145424437Y-90636306D01*
X145424435Y-90636303D01*
X145424430Y-90636296D01*
X145358205Y-90555602D01*
X145284397Y-90481794D01*
X145203703Y-90415569D01*
X145116896Y-90357567D01*
X145116895Y-90357566D01*
X145116893Y-90357565D01*
X145024825Y-90308353D01*
X144928378Y-90268403D01*
X144901401Y-90260220D01*
X144828478Y-90238099D01*
X144726089Y-90217733D01*
X144622197Y-90207500D01*
X144517803Y-90207500D01*
X144413911Y-90217733D01*
X144311522Y-90238099D01*
X144265574Y-90252037D01*
X144211621Y-90268403D01*
X144115174Y-90308353D01*
X144023103Y-90357567D01*
X143936296Y-90415569D01*
X143855602Y-90481794D01*
X143781794Y-90555602D01*
X143715569Y-90636296D01*
X143657567Y-90723103D01*
X143608353Y-90815174D01*
X143568403Y-90911621D01*
X143560665Y-90937131D01*
X143538099Y-91011522D01*
X143517733Y-91113911D01*
X143507500Y-91217803D01*
X129808460Y-91217803D01*
X129762863Y-91172206D01*
X129761691Y-91171306D01*
X129757076Y-91166147D01*
X129748410Y-91152705D01*
X129739015Y-91139775D01*
X129737939Y-91136466D01*
X129736054Y-91133541D01*
X129731965Y-91118077D01*
X129727027Y-91102878D01*
X129726637Y-91097925D01*
X129726137Y-91096034D01*
X129726282Y-91093421D01*
X129725500Y-91083480D01*
X129725500Y-89054079D01*
X132399500Y-89054079D01*
X132399500Y-89145920D01*
X132409482Y-89221734D01*
X132411486Y-89236954D01*
X132435252Y-89325651D01*
X132470393Y-89410488D01*
X132470395Y-89410491D01*
X132470402Y-89410504D01*
X132516302Y-89490007D01*
X132516303Y-89490009D01*
X132572204Y-89562861D01*
X132572210Y-89562868D01*
X132637131Y-89627789D01*
X132637138Y-89627795D01*
X132709990Y-89683696D01*
X132709992Y-89683697D01*
X132772691Y-89719895D01*
X132789512Y-89729607D01*
X132874349Y-89764748D01*
X132963046Y-89788514D01*
X133054087Y-89800500D01*
X133054094Y-89800500D01*
X133145906Y-89800500D01*
X133145913Y-89800500D01*
X133236954Y-89788514D01*
X133325651Y-89764748D01*
X133410488Y-89729607D01*
X133490012Y-89683694D01*
X133562863Y-89627794D01*
X133627794Y-89562863D01*
X133683694Y-89490012D01*
X133729607Y-89410488D01*
X133764748Y-89325651D01*
X133788514Y-89236954D01*
X133800500Y-89145913D01*
X133800500Y-89054087D01*
X133788514Y-88963046D01*
X133764748Y-88874349D01*
X133729607Y-88789512D01*
X133719895Y-88772691D01*
X133683697Y-88709992D01*
X133683696Y-88709990D01*
X133627795Y-88637138D01*
X133627789Y-88637131D01*
X133562868Y-88572210D01*
X133562861Y-88572204D01*
X133490009Y-88516303D01*
X133490007Y-88516302D01*
X133410504Y-88470402D01*
X133410491Y-88470395D01*
X133410492Y-88470395D01*
X133410488Y-88470393D01*
X133325651Y-88435252D01*
X133236954Y-88411486D01*
X133221734Y-88409482D01*
X133145920Y-88399500D01*
X133145913Y-88399500D01*
X133054087Y-88399500D01*
X133054079Y-88399500D01*
X132967433Y-88410908D01*
X132963046Y-88411486D01*
X132933480Y-88419408D01*
X132874355Y-88435250D01*
X132874351Y-88435251D01*
X132874349Y-88435252D01*
X132789512Y-88470393D01*
X132789509Y-88470394D01*
X132789508Y-88470395D01*
X132789495Y-88470402D01*
X132709992Y-88516302D01*
X132709990Y-88516303D01*
X132637138Y-88572204D01*
X132637131Y-88572210D01*
X132572210Y-88637131D01*
X132572204Y-88637138D01*
X132516303Y-88709990D01*
X132516302Y-88709992D01*
X132470402Y-88789495D01*
X132470395Y-88789508D01*
X132435253Y-88874347D01*
X132435250Y-88874355D01*
X132411487Y-88963043D01*
X132411485Y-88963054D01*
X132399500Y-89054079D01*
X129725500Y-89054079D01*
X129725500Y-87827610D01*
X129731569Y-87789292D01*
X129749182Y-87754725D01*
X129761819Y-87739929D01*
X130047669Y-87454079D01*
X157799500Y-87454079D01*
X157799500Y-87545920D01*
X157809482Y-87621734D01*
X157811486Y-87636954D01*
X157835252Y-87725651D01*
X157870393Y-87810488D01*
X157870395Y-87810491D01*
X157870402Y-87810504D01*
X157916302Y-87890007D01*
X157916303Y-87890009D01*
X157972204Y-87962861D01*
X157972210Y-87962868D01*
X158037131Y-88027789D01*
X158037138Y-88027795D01*
X158109990Y-88083696D01*
X158109992Y-88083697D01*
X158172691Y-88119895D01*
X158189512Y-88129607D01*
X158274349Y-88164748D01*
X158363046Y-88188514D01*
X158454087Y-88200500D01*
X158454094Y-88200500D01*
X158545906Y-88200500D01*
X158545913Y-88200500D01*
X158636954Y-88188514D01*
X158725651Y-88164748D01*
X158810488Y-88129607D01*
X158890012Y-88083694D01*
X158962863Y-88027794D01*
X159027794Y-87962863D01*
X159083694Y-87890012D01*
X159129607Y-87810488D01*
X159164748Y-87725651D01*
X159188514Y-87636954D01*
X159200500Y-87545913D01*
X159200500Y-87454087D01*
X159188514Y-87363046D01*
X159164748Y-87274349D01*
X159129607Y-87189512D01*
X159119895Y-87172691D01*
X159083697Y-87109992D01*
X159083696Y-87109990D01*
X159027795Y-87037138D01*
X159027789Y-87037131D01*
X158962868Y-86972210D01*
X158962861Y-86972204D01*
X158890009Y-86916303D01*
X158890007Y-86916302D01*
X158810504Y-86870402D01*
X158810491Y-86870395D01*
X158810492Y-86870395D01*
X158810488Y-86870393D01*
X158725651Y-86835252D01*
X158636954Y-86811486D01*
X158621734Y-86809482D01*
X158545920Y-86799500D01*
X158545913Y-86799500D01*
X158454087Y-86799500D01*
X158454079Y-86799500D01*
X158367433Y-86810908D01*
X158363046Y-86811486D01*
X158333480Y-86819408D01*
X158274355Y-86835250D01*
X158274351Y-86835251D01*
X158274349Y-86835252D01*
X158189512Y-86870393D01*
X158189509Y-86870394D01*
X158189508Y-86870395D01*
X158189495Y-86870402D01*
X158109992Y-86916302D01*
X158109990Y-86916303D01*
X158037138Y-86972204D01*
X158037131Y-86972210D01*
X157972210Y-87037131D01*
X157972204Y-87037138D01*
X157916303Y-87109990D01*
X157916302Y-87109992D01*
X157870402Y-87189495D01*
X157870395Y-87189508D01*
X157835253Y-87274347D01*
X157835250Y-87274355D01*
X157811487Y-87363043D01*
X157811485Y-87363054D01*
X157799500Y-87454079D01*
X130047669Y-87454079D01*
X133439929Y-84061819D01*
X133471315Y-84039015D01*
X133508212Y-84027027D01*
X133527610Y-84025500D01*
X136652336Y-84025500D01*
X136690654Y-84031569D01*
X136725221Y-84049182D01*
X136752654Y-84076615D01*
X136766895Y-84102043D01*
X136770393Y-84110488D01*
X136770399Y-84110499D01*
X136770402Y-84110504D01*
X136816302Y-84190007D01*
X136816303Y-84190009D01*
X136872204Y-84262861D01*
X136872210Y-84262868D01*
X136937131Y-84327789D01*
X136937138Y-84327795D01*
X137009990Y-84383696D01*
X137009992Y-84383697D01*
X137058920Y-84411945D01*
X137089512Y-84429607D01*
X137174349Y-84464748D01*
X137263046Y-84488514D01*
X137354087Y-84500500D01*
X137354094Y-84500500D01*
X137445906Y-84500500D01*
X137445913Y-84500500D01*
X137488598Y-84494880D01*
X137527373Y-84495895D01*
X137563944Y-84508844D01*
X137594723Y-84532461D01*
X137616698Y-84564433D01*
X137624553Y-84585724D01*
X137626952Y-84594676D01*
X137635252Y-84625651D01*
X137670393Y-84710488D01*
X137670395Y-84710491D01*
X137670402Y-84710504D01*
X137716302Y-84790007D01*
X137716303Y-84790009D01*
X137772204Y-84862861D01*
X137772210Y-84862868D01*
X137837131Y-84927789D01*
X137837138Y-84927795D01*
X137909989Y-84983695D01*
X137915941Y-84987131D01*
X137957105Y-85010897D01*
X137987255Y-85035310D01*
X138008385Y-85067847D01*
X138018427Y-85105321D01*
X138016397Y-85144063D01*
X138014882Y-85150371D01*
X138011486Y-85163046D01*
X138011485Y-85163054D01*
X137999500Y-85254079D01*
X137999500Y-85345920D01*
X138008755Y-85416213D01*
X138011486Y-85436954D01*
X138035252Y-85525651D01*
X138070393Y-85610488D01*
X138070395Y-85610491D01*
X138070402Y-85610504D01*
X138116302Y-85690007D01*
X138116303Y-85690009D01*
X138172204Y-85762861D01*
X138172210Y-85762868D01*
X138237131Y-85827789D01*
X138237138Y-85827795D01*
X138309990Y-85883696D01*
X138309992Y-85883697D01*
X138346394Y-85904713D01*
X138389512Y-85929607D01*
X138474349Y-85964748D01*
X138563046Y-85988514D01*
X138654087Y-86000500D01*
X138654094Y-86000500D01*
X138745906Y-86000500D01*
X138745913Y-86000500D01*
X138836954Y-85988514D01*
X138925651Y-85964748D01*
X139010488Y-85929607D01*
X139079997Y-85889475D01*
X139116216Y-85875573D01*
X139154959Y-85873542D01*
X139192432Y-85883583D01*
X139224969Y-85904713D01*
X139240374Y-85921378D01*
X139272206Y-85962864D01*
X139337131Y-86027789D01*
X139337138Y-86027795D01*
X139409990Y-86083696D01*
X139409992Y-86083697D01*
X139463772Y-86114746D01*
X139489512Y-86129607D01*
X139574349Y-86164748D01*
X139663046Y-86188514D01*
X139754087Y-86200500D01*
X139754094Y-86200500D01*
X139845906Y-86200500D01*
X139845913Y-86200500D01*
X139936954Y-86188514D01*
X140025651Y-86164748D01*
X140110488Y-86129607D01*
X140190012Y-86083694D01*
X140262863Y-86027794D01*
X140327794Y-85962863D01*
X140383694Y-85890012D01*
X140384004Y-85889476D01*
X140412564Y-85840007D01*
X140429607Y-85810488D01*
X140464748Y-85725651D01*
X140488514Y-85636954D01*
X140500500Y-85545913D01*
X140500500Y-85454087D01*
X140493916Y-85404079D01*
X162349500Y-85404079D01*
X162349500Y-85495920D01*
X162359482Y-85571734D01*
X162361486Y-85586954D01*
X162385252Y-85675651D01*
X162420393Y-85760488D01*
X162420395Y-85760491D01*
X162420402Y-85760504D01*
X162466302Y-85840007D01*
X162466303Y-85840009D01*
X162522204Y-85912861D01*
X162522210Y-85912868D01*
X162587131Y-85977789D01*
X162587138Y-85977795D01*
X162659990Y-86033696D01*
X162659992Y-86033697D01*
X162722691Y-86069895D01*
X162739512Y-86079607D01*
X162824349Y-86114748D01*
X162913046Y-86138514D01*
X163004087Y-86150500D01*
X163004094Y-86150500D01*
X163095906Y-86150500D01*
X163095913Y-86150500D01*
X163186954Y-86138514D01*
X163275651Y-86114748D01*
X163360488Y-86079607D01*
X163440012Y-86033694D01*
X163512863Y-85977794D01*
X163577794Y-85912863D01*
X163633694Y-85840012D01*
X163679607Y-85760488D01*
X163714748Y-85675651D01*
X163738514Y-85586954D01*
X163750500Y-85495913D01*
X163750500Y-85404087D01*
X163738514Y-85313046D01*
X163714748Y-85224349D01*
X163679607Y-85139512D01*
X163662563Y-85109990D01*
X163633697Y-85059992D01*
X163633696Y-85059990D01*
X163577795Y-84987138D01*
X163577789Y-84987131D01*
X163512868Y-84922210D01*
X163512861Y-84922204D01*
X163440009Y-84866303D01*
X163440007Y-84866302D01*
X163360504Y-84820402D01*
X163360491Y-84820395D01*
X163360492Y-84820395D01*
X163360488Y-84820393D01*
X163275651Y-84785252D01*
X163186954Y-84761486D01*
X163171734Y-84759482D01*
X163095920Y-84749500D01*
X163095913Y-84749500D01*
X163004087Y-84749500D01*
X163004079Y-84749500D01*
X162917433Y-84760908D01*
X162913046Y-84761486D01*
X162883480Y-84769408D01*
X162824355Y-84785250D01*
X162824351Y-84785251D01*
X162824349Y-84785252D01*
X162739512Y-84820393D01*
X162739509Y-84820394D01*
X162739508Y-84820395D01*
X162739495Y-84820402D01*
X162659992Y-84866302D01*
X162659990Y-84866303D01*
X162587138Y-84922204D01*
X162587131Y-84922210D01*
X162522210Y-84987131D01*
X162522204Y-84987138D01*
X162466303Y-85059990D01*
X162466302Y-85059992D01*
X162420402Y-85139495D01*
X162420395Y-85139508D01*
X162420393Y-85139512D01*
X162399689Y-85189495D01*
X162385253Y-85224347D01*
X162385250Y-85224355D01*
X162361487Y-85313043D01*
X162361485Y-85313054D01*
X162349500Y-85404079D01*
X140493916Y-85404079D01*
X140488514Y-85363046D01*
X140464748Y-85274349D01*
X140429607Y-85189512D01*
X140400740Y-85139512D01*
X140383697Y-85109992D01*
X140383696Y-85109990D01*
X140327795Y-85037138D01*
X140327789Y-85037131D01*
X140262868Y-84972210D01*
X140262861Y-84972204D01*
X140190009Y-84916303D01*
X140190007Y-84916302D01*
X140110504Y-84870402D01*
X140110491Y-84870395D01*
X140110492Y-84870395D01*
X140110488Y-84870393D01*
X140025651Y-84835252D01*
X139936954Y-84811486D01*
X139921734Y-84809482D01*
X139845920Y-84799500D01*
X139845913Y-84799500D01*
X139754087Y-84799500D01*
X139754079Y-84799500D01*
X139667433Y-84810908D01*
X139663046Y-84811486D01*
X139633480Y-84819408D01*
X139574355Y-84835250D01*
X139574351Y-84835251D01*
X139574349Y-84835252D01*
X139489512Y-84870393D01*
X139489509Y-84870394D01*
X139489508Y-84870395D01*
X139489499Y-84870400D01*
X139420000Y-84910524D01*
X139383781Y-84924427D01*
X139345038Y-84926457D01*
X139307565Y-84916415D01*
X139275028Y-84895285D01*
X139259625Y-84878621D01*
X139253313Y-84870395D01*
X139244335Y-84858694D01*
X139227793Y-84837135D01*
X139162868Y-84772210D01*
X139162861Y-84772204D01*
X139090011Y-84716305D01*
X139042894Y-84689102D01*
X139012744Y-84664687D01*
X138991614Y-84632150D01*
X138981573Y-84594676D01*
X138983604Y-84555934D01*
X138985113Y-84549645D01*
X138988514Y-84536954D01*
X139000500Y-84445913D01*
X139000500Y-84354087D01*
X138988514Y-84263046D01*
X138964748Y-84174349D01*
X138929607Y-84089512D01*
X138913619Y-84061819D01*
X138883697Y-84009992D01*
X138883696Y-84009990D01*
X138827795Y-83937138D01*
X138827789Y-83937131D01*
X138762868Y-83872210D01*
X138762861Y-83872204D01*
X138690009Y-83816303D01*
X138690007Y-83816302D01*
X138610504Y-83770402D01*
X138610491Y-83770395D01*
X138610492Y-83770395D01*
X138610488Y-83770393D01*
X138525651Y-83735252D01*
X138436954Y-83711486D01*
X138421734Y-83709482D01*
X138345920Y-83699500D01*
X138345913Y-83699500D01*
X138254087Y-83699500D01*
X138254081Y-83699500D01*
X138254076Y-83699501D01*
X138211405Y-83705119D01*
X138203514Y-83704912D01*
X138195723Y-83706179D01*
X138184239Y-83704408D01*
X138172623Y-83704104D01*
X138165182Y-83701469D01*
X138157381Y-83700266D01*
X138147003Y-83695031D01*
X138136052Y-83691153D01*
X138129791Y-83686348D01*
X138122742Y-83682793D01*
X138114491Y-83674608D01*
X138105274Y-83667536D01*
X138100803Y-83661030D01*
X138095199Y-83655472D01*
X138091084Y-83646890D01*
X138083299Y-83635563D01*
X138077446Y-83620977D01*
X138076351Y-83617654D01*
X138064748Y-83574349D01*
X138051746Y-83542960D01*
X138050302Y-83538576D01*
X138047922Y-83523938D01*
X138044458Y-83509510D01*
X138044823Y-83504871D01*
X138044077Y-83500282D01*
X138046338Y-83485618D01*
X138047502Y-83470833D01*
X138049280Y-83466538D01*
X138049990Y-83461940D01*
X138056674Y-83448689D01*
X138062348Y-83434991D01*
X138065367Y-83431455D01*
X138067463Y-83427301D01*
X138077911Y-83416767D01*
X138087543Y-83405490D01*
X138091508Y-83403059D01*
X138094784Y-83399758D01*
X138107974Y-83392969D01*
X138120622Y-83385219D01*
X138125143Y-83384133D01*
X138129279Y-83382005D01*
X138143916Y-83379625D01*
X138158345Y-83376161D01*
X138167420Y-83375804D01*
X138167573Y-83375780D01*
X138167669Y-83375794D01*
X138168076Y-83375779D01*
X164267028Y-83375779D01*
X164305346Y-83381848D01*
X164339913Y-83399461D01*
X164367346Y-83426894D01*
X164384959Y-83461461D01*
X164391028Y-83499779D01*
X164384959Y-83538097D01*
X164367346Y-83572664D01*
X164339913Y-83600097D01*
X164314484Y-83614338D01*
X164239512Y-83645393D01*
X164239505Y-83645396D01*
X164239495Y-83645402D01*
X164159992Y-83691302D01*
X164159990Y-83691303D01*
X164087138Y-83747204D01*
X164087131Y-83747210D01*
X164022210Y-83812131D01*
X164022204Y-83812138D01*
X163966303Y-83884990D01*
X163966302Y-83884992D01*
X163920402Y-83964495D01*
X163920395Y-83964508D01*
X163920393Y-83964512D01*
X163895131Y-84025500D01*
X163885253Y-84049347D01*
X163885250Y-84049355D01*
X163861487Y-84138043D01*
X163861485Y-84138054D01*
X163849500Y-84229079D01*
X163849500Y-84320920D01*
X163853868Y-84354093D01*
X163861486Y-84411954D01*
X163875632Y-84464748D01*
X163885211Y-84500500D01*
X163885252Y-84500651D01*
X163920393Y-84585488D01*
X163920395Y-84585491D01*
X163920402Y-84585504D01*
X163966302Y-84665007D01*
X163966303Y-84665009D01*
X164022204Y-84737861D01*
X164022210Y-84737868D01*
X164087131Y-84802789D01*
X164087138Y-84802795D01*
X164159990Y-84858696D01*
X164159992Y-84858697D01*
X164222691Y-84894895D01*
X164239512Y-84904607D01*
X164324349Y-84939748D01*
X164413046Y-84963514D01*
X164504087Y-84975500D01*
X164504094Y-84975500D01*
X164595906Y-84975500D01*
X164595913Y-84975500D01*
X164686954Y-84963514D01*
X164775651Y-84939748D01*
X164860488Y-84904607D01*
X164940012Y-84858694D01*
X165012863Y-84802794D01*
X165077794Y-84737863D01*
X165133694Y-84665012D01*
X165179607Y-84585488D01*
X165214748Y-84500651D01*
X165238514Y-84411954D01*
X165250500Y-84320913D01*
X165250500Y-84229087D01*
X165238514Y-84138046D01*
X165214748Y-84049349D01*
X165179607Y-83964512D01*
X165163799Y-83937131D01*
X165133697Y-83884992D01*
X165133696Y-83884990D01*
X165077795Y-83812138D01*
X165077789Y-83812131D01*
X165012868Y-83747210D01*
X165012861Y-83747204D01*
X164940009Y-83691303D01*
X164940007Y-83691302D01*
X164860504Y-83645402D01*
X164860500Y-83645400D01*
X164860488Y-83645393D01*
X164785516Y-83614338D01*
X164752440Y-83594069D01*
X164727244Y-83564568D01*
X164712398Y-83528726D01*
X164709354Y-83490049D01*
X164718411Y-83452326D01*
X164738682Y-83419247D01*
X164768183Y-83394051D01*
X164804025Y-83379205D01*
X164832972Y-83375779D01*
X167059450Y-83375779D01*
X167097768Y-83381848D01*
X167132335Y-83399461D01*
X167159768Y-83426894D01*
X167177381Y-83461461D01*
X167183450Y-83499779D01*
X167183450Y-126751779D01*
X167177381Y-126790097D01*
X167159768Y-126824664D01*
X167132335Y-126852097D01*
X167097768Y-126869710D01*
X167059450Y-126875779D01*
X125107450Y-126875779D01*
X125069132Y-126869710D01*
X125034565Y-126852097D01*
X125007132Y-126824664D01*
X124989519Y-126790097D01*
X124983450Y-126751779D01*
X124983450Y-120169261D01*
X135032950Y-120169261D01*
X135032950Y-120432296D01*
X135044028Y-120544784D01*
X135044030Y-120544797D01*
X135055067Y-120600280D01*
X135066084Y-120655665D01*
X135066085Y-120655667D01*
X135098899Y-120763843D01*
X135142154Y-120868269D01*
X135142155Y-120868272D01*
X135195442Y-120967963D01*
X135195454Y-120967983D01*
X135258236Y-121061944D01*
X135258246Y-121061957D01*
X135329963Y-121149345D01*
X135409883Y-121229265D01*
X135497271Y-121300982D01*
X135497284Y-121300992D01*
X135591245Y-121363774D01*
X135591250Y-121363777D01*
X135591262Y-121363785D01*
X135690955Y-121417073D01*
X135735561Y-121435549D01*
X135795385Y-121460329D01*
X135795389Y-121460330D01*
X135795391Y-121460331D01*
X135903564Y-121493145D01*
X136014433Y-121515199D01*
X136126930Y-121526279D01*
X136126932Y-121526279D01*
X136239968Y-121526279D01*
X136239970Y-121526279D01*
X136352467Y-121515199D01*
X136463336Y-121493145D01*
X136571509Y-121460331D01*
X136675945Y-121417073D01*
X136775638Y-121363785D01*
X136869628Y-121300983D01*
X136957010Y-121229271D01*
X137036942Y-121149339D01*
X137108654Y-121061957D01*
X137171456Y-120967967D01*
X137224744Y-120868274D01*
X137268002Y-120763838D01*
X137300816Y-120655665D01*
X137311833Y-120600279D01*
X137325261Y-120563882D01*
X137349279Y-120533415D01*
X137381537Y-120511862D01*
X137418876Y-120501331D01*
X137457642Y-120502855D01*
X137494040Y-120516283D01*
X137524507Y-120540301D01*
X137546060Y-120572559D01*
X137555066Y-120600278D01*
X137566084Y-120655665D01*
X137566085Y-120655667D01*
X137598899Y-120763843D01*
X137642154Y-120868269D01*
X137642155Y-120868272D01*
X137695442Y-120967963D01*
X137695454Y-120967983D01*
X137758236Y-121061944D01*
X137758246Y-121061957D01*
X137829963Y-121149345D01*
X137909883Y-121229265D01*
X137997271Y-121300982D01*
X137997284Y-121300992D01*
X138091245Y-121363774D01*
X138091250Y-121363777D01*
X138091262Y-121363785D01*
X138190955Y-121417073D01*
X138235561Y-121435549D01*
X138295385Y-121460329D01*
X138295389Y-121460330D01*
X138295391Y-121460331D01*
X138403564Y-121493145D01*
X138514433Y-121515199D01*
X138626930Y-121526279D01*
X138626932Y-121526279D01*
X138739968Y-121526279D01*
X138739970Y-121526279D01*
X138852467Y-121515199D01*
X138963336Y-121493145D01*
X139071509Y-121460331D01*
X139175945Y-121417073D01*
X139275638Y-121363785D01*
X139369628Y-121300983D01*
X139457010Y-121229271D01*
X139536942Y-121149339D01*
X139608654Y-121061957D01*
X139671456Y-120967967D01*
X139724744Y-120868274D01*
X139768002Y-120763838D01*
X139800816Y-120655665D01*
X139811833Y-120600279D01*
X139825261Y-120563882D01*
X139849279Y-120533415D01*
X139881537Y-120511862D01*
X139918876Y-120501331D01*
X139957642Y-120502855D01*
X139994040Y-120516283D01*
X140024507Y-120540301D01*
X140046060Y-120572559D01*
X140055066Y-120600278D01*
X140066084Y-120655665D01*
X140066085Y-120655667D01*
X140098899Y-120763843D01*
X140142154Y-120868269D01*
X140142155Y-120868272D01*
X140195442Y-120967963D01*
X140195454Y-120967983D01*
X140258236Y-121061944D01*
X140258246Y-121061957D01*
X140329963Y-121149345D01*
X140409883Y-121229265D01*
X140497271Y-121300982D01*
X140497275Y-121300985D01*
X140551646Y-121337315D01*
X140580135Y-121363650D01*
X140599091Y-121397499D01*
X140606659Y-121435549D01*
X140602099Y-121474076D01*
X140590143Y-121502415D01*
X140553849Y-121565278D01*
X140553845Y-121565287D01*
X140518703Y-121650126D01*
X140518700Y-121650134D01*
X140494937Y-121738822D01*
X140494935Y-121738833D01*
X140482950Y-121829858D01*
X140482950Y-121921699D01*
X140492932Y-121997513D01*
X140494936Y-122012733D01*
X140518702Y-122101430D01*
X140553843Y-122186267D01*
X140553845Y-122186270D01*
X140553852Y-122186283D01*
X140599752Y-122265786D01*
X140599753Y-122265788D01*
X140655654Y-122338640D01*
X140655660Y-122338647D01*
X140720581Y-122403568D01*
X140720588Y-122403574D01*
X140793440Y-122459475D01*
X140793442Y-122459476D01*
X140856141Y-122495674D01*
X140872962Y-122505386D01*
X140957799Y-122540527D01*
X141046496Y-122564293D01*
X141137537Y-122576279D01*
X141137544Y-122576279D01*
X141229356Y-122576279D01*
X141229363Y-122576279D01*
X141320404Y-122564293D01*
X141409101Y-122540527D01*
X141493938Y-122505386D01*
X141573462Y-122459473D01*
X141646313Y-122403573D01*
X141711244Y-122338642D01*
X141767144Y-122265791D01*
X141813057Y-122186267D01*
X141848198Y-122101430D01*
X141871964Y-122012733D01*
X141883950Y-121921692D01*
X141883950Y-121829866D01*
X141871964Y-121738825D01*
X141848198Y-121650128D01*
X141813057Y-121565291D01*
X141813049Y-121565278D01*
X141776757Y-121502417D01*
X141762854Y-121466198D01*
X141760823Y-121427455D01*
X141770865Y-121389981D01*
X141791994Y-121357445D01*
X141815253Y-121337315D01*
X141869628Y-121300983D01*
X141957010Y-121229271D01*
X142036942Y-121149339D01*
X142108654Y-121061957D01*
X142171456Y-120967967D01*
X142224744Y-120868274D01*
X142268002Y-120763838D01*
X142300816Y-120655665D01*
X142322870Y-120544796D01*
X142333950Y-120432299D01*
X142333950Y-120169261D01*
X148532950Y-120169261D01*
X148532950Y-120432296D01*
X148544028Y-120544784D01*
X148544030Y-120544797D01*
X148555067Y-120600280D01*
X148566084Y-120655665D01*
X148566085Y-120655667D01*
X148598899Y-120763843D01*
X148642154Y-120868269D01*
X148642155Y-120868272D01*
X148695442Y-120967963D01*
X148695454Y-120967983D01*
X148758236Y-121061944D01*
X148758246Y-121061957D01*
X148829963Y-121149345D01*
X148909883Y-121229265D01*
X148997271Y-121300982D01*
X148997284Y-121300992D01*
X149091245Y-121363774D01*
X149091250Y-121363777D01*
X149091262Y-121363785D01*
X149190955Y-121417073D01*
X149235561Y-121435549D01*
X149295385Y-121460329D01*
X149295389Y-121460330D01*
X149295391Y-121460331D01*
X149403564Y-121493145D01*
X149514433Y-121515199D01*
X149626930Y-121526279D01*
X149626932Y-121526279D01*
X149739968Y-121526279D01*
X149739970Y-121526279D01*
X149852467Y-121515199D01*
X149963336Y-121493145D01*
X150071509Y-121460331D01*
X150175945Y-121417073D01*
X150275638Y-121363785D01*
X150369628Y-121300983D01*
X150457010Y-121229271D01*
X150536942Y-121149339D01*
X150608654Y-121061957D01*
X150671456Y-120967967D01*
X150724744Y-120868274D01*
X150768002Y-120763838D01*
X150800816Y-120655665D01*
X150811833Y-120600279D01*
X150825261Y-120563882D01*
X150849279Y-120533415D01*
X150881537Y-120511862D01*
X150918876Y-120501331D01*
X150957642Y-120502855D01*
X150994040Y-120516283D01*
X151024507Y-120540301D01*
X151046060Y-120572559D01*
X151055066Y-120600278D01*
X151066084Y-120655665D01*
X151066085Y-120655667D01*
X151098899Y-120763843D01*
X151142154Y-120868269D01*
X151142155Y-120868272D01*
X151195442Y-120967963D01*
X151195454Y-120967983D01*
X151258236Y-121061944D01*
X151258246Y-121061957D01*
X151329963Y-121149345D01*
X151409883Y-121229265D01*
X151497271Y-121300982D01*
X151497284Y-121300992D01*
X151591245Y-121363774D01*
X151591250Y-121363777D01*
X151591262Y-121363785D01*
X151690955Y-121417073D01*
X151735561Y-121435549D01*
X151795385Y-121460329D01*
X151795389Y-121460330D01*
X151795391Y-121460331D01*
X151903564Y-121493145D01*
X152014433Y-121515199D01*
X152126930Y-121526279D01*
X152126932Y-121526279D01*
X152239968Y-121526279D01*
X152239970Y-121526279D01*
X152352467Y-121515199D01*
X152463336Y-121493145D01*
X152571509Y-121460331D01*
X152675945Y-121417073D01*
X152775638Y-121363785D01*
X152869628Y-121300983D01*
X152957010Y-121229271D01*
X153036942Y-121149339D01*
X153108654Y-121061957D01*
X153171456Y-120967967D01*
X153224744Y-120868274D01*
X153268002Y-120763838D01*
X153300816Y-120655665D01*
X153322870Y-120544796D01*
X153333950Y-120432299D01*
X153333950Y-120169261D01*
X159532950Y-120169261D01*
X159532950Y-120432296D01*
X159544028Y-120544784D01*
X159544030Y-120544797D01*
X159555067Y-120600280D01*
X159566084Y-120655665D01*
X159566085Y-120655667D01*
X159598899Y-120763843D01*
X159642154Y-120868269D01*
X159642155Y-120868272D01*
X159695442Y-120967963D01*
X159695454Y-120967983D01*
X159758236Y-121061944D01*
X159758246Y-121061957D01*
X159829963Y-121149345D01*
X159909883Y-121229265D01*
X159997271Y-121300982D01*
X159997284Y-121300992D01*
X160091245Y-121363774D01*
X160091250Y-121363777D01*
X160091262Y-121363785D01*
X160190955Y-121417073D01*
X160235561Y-121435549D01*
X160295385Y-121460329D01*
X160295389Y-121460330D01*
X160295391Y-121460331D01*
X160403564Y-121493145D01*
X160514433Y-121515199D01*
X160626930Y-121526279D01*
X160626932Y-121526279D01*
X160739968Y-121526279D01*
X160739970Y-121526279D01*
X160852467Y-121515199D01*
X160963336Y-121493145D01*
X161071509Y-121460331D01*
X161175945Y-121417073D01*
X161275638Y-121363785D01*
X161369628Y-121300983D01*
X161457010Y-121229271D01*
X161536942Y-121149339D01*
X161608654Y-121061957D01*
X161671456Y-120967967D01*
X161724744Y-120868274D01*
X161768002Y-120763838D01*
X161800816Y-120655665D01*
X161811833Y-120600279D01*
X161825261Y-120563882D01*
X161849279Y-120533415D01*
X161881537Y-120511862D01*
X161918876Y-120501331D01*
X161957642Y-120502855D01*
X161994040Y-120516283D01*
X162024507Y-120540301D01*
X162046060Y-120572559D01*
X162055066Y-120600278D01*
X162066084Y-120655665D01*
X162066085Y-120655667D01*
X162098899Y-120763843D01*
X162142154Y-120868269D01*
X162142155Y-120868272D01*
X162195442Y-120967963D01*
X162195454Y-120967983D01*
X162258236Y-121061944D01*
X162258246Y-121061957D01*
X162329963Y-121149345D01*
X162409883Y-121229265D01*
X162497271Y-121300982D01*
X162497284Y-121300992D01*
X162591245Y-121363774D01*
X162591250Y-121363777D01*
X162591262Y-121363785D01*
X162690955Y-121417073D01*
X162735561Y-121435549D01*
X162795385Y-121460329D01*
X162795389Y-121460330D01*
X162795391Y-121460331D01*
X162903564Y-121493145D01*
X163014433Y-121515199D01*
X163126930Y-121526279D01*
X163126932Y-121526279D01*
X163239968Y-121526279D01*
X163239970Y-121526279D01*
X163352467Y-121515199D01*
X163463336Y-121493145D01*
X163571509Y-121460331D01*
X163675945Y-121417073D01*
X163775638Y-121363785D01*
X163869628Y-121300983D01*
X163957010Y-121229271D01*
X164036942Y-121149339D01*
X164108654Y-121061957D01*
X164171456Y-120967967D01*
X164224744Y-120868274D01*
X164268002Y-120763838D01*
X164300816Y-120655665D01*
X164322870Y-120544796D01*
X164333950Y-120432299D01*
X164333950Y-120169259D01*
X164322870Y-120056762D01*
X164300816Y-119945893D01*
X164268002Y-119837720D01*
X164224744Y-119733284D01*
X164171456Y-119633591D01*
X164171445Y-119633574D01*
X164108663Y-119539613D01*
X164108653Y-119539600D01*
X164036936Y-119452212D01*
X163957016Y-119372292D01*
X163869628Y-119300575D01*
X163869615Y-119300565D01*
X163775654Y-119237783D01*
X163775643Y-119237776D01*
X163775638Y-119237773D01*
X163675945Y-119184485D01*
X163669445Y-119181792D01*
X163571514Y-119141228D01*
X163510089Y-119122595D01*
X163463336Y-119108413D01*
X163408662Y-119097537D01*
X163352468Y-119086359D01*
X163352455Y-119086357D01*
X163261796Y-119077428D01*
X163239970Y-119075279D01*
X163126930Y-119075279D01*
X163107033Y-119077238D01*
X163014444Y-119086357D01*
X163014431Y-119086359D01*
X162903569Y-119108412D01*
X162903564Y-119108413D01*
X162903561Y-119108414D01*
X162795385Y-119141228D01*
X162690959Y-119184483D01*
X162690956Y-119184484D01*
X162591265Y-119237771D01*
X162591245Y-119237783D01*
X162497284Y-119300565D01*
X162497271Y-119300575D01*
X162409883Y-119372292D01*
X162329963Y-119452212D01*
X162258246Y-119539600D01*
X162258236Y-119539613D01*
X162195454Y-119633574D01*
X162195442Y-119633594D01*
X162142155Y-119733285D01*
X162142154Y-119733288D01*
X162098899Y-119837714D01*
X162066085Y-119945890D01*
X162066084Y-119945894D01*
X162055067Y-120001278D01*
X162041639Y-120037675D01*
X162017620Y-120068142D01*
X161985363Y-120089695D01*
X161948023Y-120100226D01*
X161909257Y-120098702D01*
X161872860Y-120085274D01*
X161842393Y-120061255D01*
X161820840Y-120028998D01*
X161811833Y-120001278D01*
X161800816Y-119945893D01*
X161768002Y-119837720D01*
X161724744Y-119733284D01*
X161671456Y-119633591D01*
X161671445Y-119633574D01*
X161608663Y-119539613D01*
X161608653Y-119539600D01*
X161536936Y-119452212D01*
X161457016Y-119372292D01*
X161369628Y-119300575D01*
X161369615Y-119300565D01*
X161275654Y-119237783D01*
X161275643Y-119237776D01*
X161275638Y-119237773D01*
X161175945Y-119184485D01*
X161169445Y-119181792D01*
X161071514Y-119141228D01*
X161010089Y-119122595D01*
X160963336Y-119108413D01*
X160908662Y-119097537D01*
X160852468Y-119086359D01*
X160852455Y-119086357D01*
X160761796Y-119077428D01*
X160739970Y-119075279D01*
X160626930Y-119075279D01*
X160607033Y-119077238D01*
X160514444Y-119086357D01*
X160514431Y-119086359D01*
X160403569Y-119108412D01*
X160403564Y-119108413D01*
X160403561Y-119108414D01*
X160295385Y-119141228D01*
X160190959Y-119184483D01*
X160190956Y-119184484D01*
X160091265Y-119237771D01*
X160091245Y-119237783D01*
X159997284Y-119300565D01*
X159997271Y-119300575D01*
X159909883Y-119372292D01*
X159829963Y-119452212D01*
X159758246Y-119539600D01*
X159758236Y-119539613D01*
X159695454Y-119633574D01*
X159695442Y-119633594D01*
X159642155Y-119733285D01*
X159642154Y-119733288D01*
X159598899Y-119837714D01*
X159566085Y-119945890D01*
X159566083Y-119945898D01*
X159544030Y-120056760D01*
X159544028Y-120056773D01*
X159532950Y-120169261D01*
X153333950Y-120169261D01*
X153333950Y-120169259D01*
X153322870Y-120056762D01*
X153300816Y-119945893D01*
X153268002Y-119837720D01*
X153224744Y-119733284D01*
X153171456Y-119633591D01*
X153171445Y-119633574D01*
X153108663Y-119539613D01*
X153108653Y-119539600D01*
X153036936Y-119452212D01*
X152957016Y-119372292D01*
X152869628Y-119300575D01*
X152869615Y-119300565D01*
X152775654Y-119237783D01*
X152775643Y-119237776D01*
X152775638Y-119237773D01*
X152675945Y-119184485D01*
X152669445Y-119181792D01*
X152571514Y-119141228D01*
X152510089Y-119122595D01*
X152463336Y-119108413D01*
X152408662Y-119097537D01*
X152352468Y-119086359D01*
X152352455Y-119086357D01*
X152261796Y-119077428D01*
X152239970Y-119075279D01*
X152126930Y-119075279D01*
X152107033Y-119077238D01*
X152014444Y-119086357D01*
X152014431Y-119086359D01*
X151903569Y-119108412D01*
X151903564Y-119108413D01*
X151903561Y-119108414D01*
X151795385Y-119141228D01*
X151690959Y-119184483D01*
X151690956Y-119184484D01*
X151591265Y-119237771D01*
X151591245Y-119237783D01*
X151497284Y-119300565D01*
X151497271Y-119300575D01*
X151409883Y-119372292D01*
X151329963Y-119452212D01*
X151258246Y-119539600D01*
X151258236Y-119539613D01*
X151195454Y-119633574D01*
X151195442Y-119633594D01*
X151142155Y-119733285D01*
X151142154Y-119733288D01*
X151098899Y-119837714D01*
X151066085Y-119945890D01*
X151066084Y-119945894D01*
X151055067Y-120001278D01*
X151041639Y-120037675D01*
X151017620Y-120068142D01*
X150985363Y-120089695D01*
X150948023Y-120100226D01*
X150909257Y-120098702D01*
X150872860Y-120085274D01*
X150842393Y-120061255D01*
X150820840Y-120028998D01*
X150811833Y-120001278D01*
X150800816Y-119945893D01*
X150768002Y-119837720D01*
X150724744Y-119733284D01*
X150671456Y-119633591D01*
X150671445Y-119633574D01*
X150608663Y-119539613D01*
X150608653Y-119539600D01*
X150536936Y-119452212D01*
X150457016Y-119372292D01*
X150369628Y-119300575D01*
X150369615Y-119300565D01*
X150275654Y-119237783D01*
X150275643Y-119237776D01*
X150275638Y-119237773D01*
X150175945Y-119184485D01*
X150169445Y-119181792D01*
X150071514Y-119141228D01*
X150010089Y-119122595D01*
X149963336Y-119108413D01*
X149908662Y-119097537D01*
X149852468Y-119086359D01*
X149852455Y-119086357D01*
X149761796Y-119077428D01*
X149739970Y-119075279D01*
X149626930Y-119075279D01*
X149607033Y-119077238D01*
X149514444Y-119086357D01*
X149514431Y-119086359D01*
X149403569Y-119108412D01*
X149403564Y-119108413D01*
X149403561Y-119108414D01*
X149295385Y-119141228D01*
X149190959Y-119184483D01*
X149190956Y-119184484D01*
X149091265Y-119237771D01*
X149091245Y-119237783D01*
X148997284Y-119300565D01*
X148997271Y-119300575D01*
X148909883Y-119372292D01*
X148829963Y-119452212D01*
X148758246Y-119539600D01*
X148758236Y-119539613D01*
X148695454Y-119633574D01*
X148695442Y-119633594D01*
X148642155Y-119733285D01*
X148642154Y-119733288D01*
X148598899Y-119837714D01*
X148566085Y-119945890D01*
X148566083Y-119945898D01*
X148544030Y-120056760D01*
X148544028Y-120056773D01*
X148532950Y-120169261D01*
X142333950Y-120169261D01*
X142333950Y-120169259D01*
X142322870Y-120056762D01*
X142300816Y-119945893D01*
X142268002Y-119837720D01*
X142224744Y-119733284D01*
X142171456Y-119633591D01*
X142171445Y-119633574D01*
X142108663Y-119539613D01*
X142108653Y-119539600D01*
X142036936Y-119452212D01*
X141957016Y-119372292D01*
X141869628Y-119300575D01*
X141869615Y-119300565D01*
X141775654Y-119237783D01*
X141775643Y-119237776D01*
X141775638Y-119237773D01*
X141675945Y-119184485D01*
X141669445Y-119181792D01*
X141571514Y-119141228D01*
X141510089Y-119122595D01*
X141463336Y-119108413D01*
X141408662Y-119097537D01*
X141352468Y-119086359D01*
X141352455Y-119086357D01*
X141261796Y-119077428D01*
X141239970Y-119075279D01*
X141126930Y-119075279D01*
X141107033Y-119077238D01*
X141014444Y-119086357D01*
X141014431Y-119086359D01*
X140903569Y-119108412D01*
X140903564Y-119108413D01*
X140903561Y-119108414D01*
X140795385Y-119141228D01*
X140690959Y-119184483D01*
X140690956Y-119184484D01*
X140591265Y-119237771D01*
X140591245Y-119237783D01*
X140497284Y-119300565D01*
X140497271Y-119300575D01*
X140409883Y-119372292D01*
X140329963Y-119452212D01*
X140258246Y-119539600D01*
X140258236Y-119539613D01*
X140195454Y-119633574D01*
X140195442Y-119633594D01*
X140142155Y-119733285D01*
X140142154Y-119733288D01*
X140098899Y-119837714D01*
X140066085Y-119945890D01*
X140066084Y-119945894D01*
X140055067Y-120001278D01*
X140041639Y-120037675D01*
X140017620Y-120068142D01*
X139985363Y-120089695D01*
X139948023Y-120100226D01*
X139909257Y-120098702D01*
X139872860Y-120085274D01*
X139842393Y-120061255D01*
X139820840Y-120028998D01*
X139811833Y-120001278D01*
X139800816Y-119945893D01*
X139768002Y-119837720D01*
X139724744Y-119733284D01*
X139671456Y-119633591D01*
X139671445Y-119633574D01*
X139608663Y-119539613D01*
X139608653Y-119539600D01*
X139536936Y-119452212D01*
X139457016Y-119372292D01*
X139369628Y-119300575D01*
X139369615Y-119300565D01*
X139275654Y-119237783D01*
X139275643Y-119237776D01*
X139275638Y-119237773D01*
X139175945Y-119184485D01*
X139169445Y-119181792D01*
X139071514Y-119141228D01*
X139010089Y-119122595D01*
X138963336Y-119108413D01*
X138908662Y-119097537D01*
X138852468Y-119086359D01*
X138852455Y-119086357D01*
X138761796Y-119077428D01*
X138739970Y-119075279D01*
X138626930Y-119075279D01*
X138607033Y-119077238D01*
X138514444Y-119086357D01*
X138514431Y-119086359D01*
X138403569Y-119108412D01*
X138403564Y-119108413D01*
X138403561Y-119108414D01*
X138295385Y-119141228D01*
X138190959Y-119184483D01*
X138190956Y-119184484D01*
X138091265Y-119237771D01*
X138091245Y-119237783D01*
X137997284Y-119300565D01*
X137997271Y-119300575D01*
X137909883Y-119372292D01*
X137829963Y-119452212D01*
X137758246Y-119539600D01*
X137758236Y-119539613D01*
X137695454Y-119633574D01*
X137695442Y-119633594D01*
X137642155Y-119733285D01*
X137642154Y-119733288D01*
X137598899Y-119837714D01*
X137566085Y-119945890D01*
X137566084Y-119945894D01*
X137555067Y-120001278D01*
X137541639Y-120037675D01*
X137517620Y-120068142D01*
X137485363Y-120089695D01*
X137448023Y-120100226D01*
X137409257Y-120098702D01*
X137372860Y-120085274D01*
X137342393Y-120061255D01*
X137320840Y-120028998D01*
X137311833Y-120001278D01*
X137300816Y-119945893D01*
X137268002Y-119837720D01*
X137224744Y-119733284D01*
X137171456Y-119633591D01*
X137171445Y-119633574D01*
X137108663Y-119539613D01*
X137108653Y-119539600D01*
X137036936Y-119452212D01*
X136957016Y-119372292D01*
X136869628Y-119300575D01*
X136869615Y-119300565D01*
X136775654Y-119237783D01*
X136775643Y-119237776D01*
X136775638Y-119237773D01*
X136675945Y-119184485D01*
X136669445Y-119181792D01*
X136571514Y-119141228D01*
X136510089Y-119122595D01*
X136463336Y-119108413D01*
X136408662Y-119097537D01*
X136352468Y-119086359D01*
X136352455Y-119086357D01*
X136261796Y-119077428D01*
X136239970Y-119075279D01*
X136126930Y-119075279D01*
X136107033Y-119077238D01*
X136014444Y-119086357D01*
X136014431Y-119086359D01*
X135903569Y-119108412D01*
X135903564Y-119108413D01*
X135903561Y-119108414D01*
X135795385Y-119141228D01*
X135690959Y-119184483D01*
X135690956Y-119184484D01*
X135591265Y-119237771D01*
X135591245Y-119237783D01*
X135497284Y-119300565D01*
X135497271Y-119300575D01*
X135409883Y-119372292D01*
X135329963Y-119452212D01*
X135258246Y-119539600D01*
X135258236Y-119539613D01*
X135195454Y-119633574D01*
X135195442Y-119633594D01*
X135142155Y-119733285D01*
X135142154Y-119733288D01*
X135098899Y-119837714D01*
X135066085Y-119945890D01*
X135066083Y-119945898D01*
X135044030Y-120056760D01*
X135044028Y-120056773D01*
X135032950Y-120169261D01*
X124983450Y-120169261D01*
X124983450Y-111268032D01*
X128690500Y-111268032D01*
X128690500Y-112633526D01*
X128697922Y-112680384D01*
X128697922Y-112680390D01*
X128700366Y-112695818D01*
X128700977Y-112699676D01*
X128721673Y-112763374D01*
X128752080Y-112823049D01*
X128791446Y-112877232D01*
X129709635Y-113795420D01*
X129709638Y-113795424D01*
X129756996Y-113842782D01*
X129792327Y-113868451D01*
X129796931Y-113872552D01*
X129805365Y-113882853D01*
X129814777Y-113892265D01*
X129817586Y-113897779D01*
X129821508Y-113902569D01*
X129826346Y-113914971D01*
X129832389Y-113926832D01*
X129833357Y-113932944D01*
X129835607Y-113938712D01*
X129836375Y-113952002D01*
X129838458Y-113965150D01*
X129837489Y-113971263D01*
X129837847Y-113977443D01*
X129834471Y-113990318D01*
X129832389Y-114003468D01*
X129829578Y-114008983D01*
X129828009Y-114014971D01*
X129820816Y-114026177D01*
X129814775Y-114038035D01*
X129809747Y-114043426D01*
X129807055Y-114047622D01*
X129801897Y-114051845D01*
X129794164Y-114060138D01*
X129744875Y-114101496D01*
X129744851Y-114101518D01*
X129659189Y-114187180D01*
X129659168Y-114187203D01*
X129581274Y-114280032D01*
X129511754Y-114379317D01*
X129511745Y-114379332D01*
X129451154Y-114484278D01*
X129451146Y-114484294D01*
X129399931Y-114594122D01*
X129399927Y-114594132D01*
X129358482Y-114708005D01*
X129358479Y-114708015D01*
X129327109Y-114825084D01*
X129327108Y-114825091D01*
X129306063Y-114944439D01*
X129295500Y-115065178D01*
X129295500Y-115186379D01*
X129306063Y-115307118D01*
X129315612Y-115361270D01*
X129327109Y-115426472D01*
X129358478Y-115543541D01*
X129358481Y-115543551D01*
X129358482Y-115543552D01*
X129399927Y-115657425D01*
X129399931Y-115657435D01*
X129451146Y-115767263D01*
X129451154Y-115767279D01*
X129511745Y-115872225D01*
X129511754Y-115872240D01*
X129581274Y-115971525D01*
X129626834Y-116025820D01*
X129659171Y-116064358D01*
X129659178Y-116064365D01*
X129659189Y-116064377D01*
X129744851Y-116150039D01*
X129744862Y-116150049D01*
X129744871Y-116150058D01*
X129760346Y-116163043D01*
X129837703Y-116227954D01*
X129837710Y-116227959D01*
X129837715Y-116227963D01*
X129936995Y-116297479D01*
X130041956Y-116358078D01*
X130041965Y-116358082D01*
X130151793Y-116409297D01*
X130151803Y-116409301D01*
X130204468Y-116428469D01*
X130265688Y-116450751D01*
X130382757Y-116482120D01*
X130502114Y-116503166D01*
X130622849Y-116513728D01*
X130622850Y-116513729D01*
X130622851Y-116513729D01*
X130744050Y-116513729D01*
X130744050Y-116513728D01*
X130864786Y-116503166D01*
X130984143Y-116482120D01*
X131101212Y-116450751D01*
X131215101Y-116409299D01*
X131215106Y-116409297D01*
X131251715Y-116392225D01*
X131324944Y-116358078D01*
X131429905Y-116297479D01*
X131529185Y-116227963D01*
X131548624Y-116211651D01*
X131581870Y-116191673D01*
X131619671Y-116182944D01*
X131658319Y-116186324D01*
X131694032Y-116201481D01*
X131723313Y-116226932D01*
X131743296Y-116260185D01*
X131748102Y-116274548D01*
X131767225Y-116345920D01*
X131768702Y-116351430D01*
X131803843Y-116436267D01*
X131803845Y-116436270D01*
X131803852Y-116436283D01*
X131849752Y-116515786D01*
X131849753Y-116515788D01*
X131905654Y-116588640D01*
X131905660Y-116588647D01*
X131970581Y-116653568D01*
X131970588Y-116653574D01*
X132043440Y-116709475D01*
X132043442Y-116709476D01*
X132106141Y-116745674D01*
X132122962Y-116755386D01*
X132207799Y-116790527D01*
X132296496Y-116814293D01*
X132387537Y-116826279D01*
X132387544Y-116826279D01*
X132479356Y-116826279D01*
X132479363Y-116826279D01*
X132570404Y-116814293D01*
X132659101Y-116790527D01*
X132743938Y-116755386D01*
X132823462Y-116709473D01*
X132896313Y-116653573D01*
X132961244Y-116588642D01*
X133017144Y-116515791D01*
X133018335Y-116513729D01*
X133036584Y-116482119D01*
X133063057Y-116436267D01*
X133098198Y-116351430D01*
X133121964Y-116262733D01*
X133133950Y-116171692D01*
X133133950Y-116079866D01*
X133121964Y-115988825D01*
X133118974Y-115977668D01*
X133114920Y-115939089D01*
X133122986Y-115901141D01*
X133142384Y-115867543D01*
X133171215Y-115841584D01*
X133206657Y-115825804D01*
X133238750Y-115821579D01*
X133269056Y-115821579D01*
X133316818Y-115815291D01*
X133359485Y-115809674D01*
X133447587Y-115786067D01*
X133524424Y-115754240D01*
X133531846Y-115751166D01*
X133531849Y-115751164D01*
X133531855Y-115751162D01*
X133552908Y-115739006D01*
X133557368Y-115737294D01*
X133561303Y-115734579D01*
X133575398Y-115730372D01*
X133589124Y-115725104D01*
X133593895Y-115724853D01*
X133598479Y-115723486D01*
X133613184Y-115723842D01*
X133627866Y-115723072D01*
X133632484Y-115724309D01*
X133637264Y-115724425D01*
X133651138Y-115729306D01*
X133665341Y-115733112D01*
X133669349Y-115735714D01*
X133673860Y-115737302D01*
X133685547Y-115746233D01*
X133697878Y-115754240D01*
X133700885Y-115757954D01*
X133704686Y-115760858D01*
X133710622Y-115769976D01*
X133722294Y-115784389D01*
X133726723Y-115792787D01*
X133728625Y-115796755D01*
X133728842Y-115797422D01*
X133729901Y-115799500D01*
X133730581Y-115800836D01*
X133730599Y-115800872D01*
X133757460Y-115853589D01*
X133757461Y-115853590D01*
X133778795Y-115882954D01*
X133791273Y-115900128D01*
X133794516Y-115904591D01*
X134819062Y-116929137D01*
X134863638Y-116973713D01*
X134863644Y-116973717D01*
X134914633Y-117010764D01*
X134914635Y-117010765D01*
X134914638Y-117010767D01*
X134942723Y-117025077D01*
X134970807Y-117039387D01*
X135000785Y-117049127D01*
X135030759Y-117058866D01*
X135030762Y-117058867D01*
X135093026Y-117068729D01*
X135093027Y-117068729D01*
X143813290Y-117068729D01*
X143813291Y-117068729D01*
X143875555Y-117058867D01*
X143935510Y-117039387D01*
X143963594Y-117025077D01*
X143991679Y-117010767D01*
X144042679Y-116973713D01*
X144087255Y-116929137D01*
X146011533Y-115004858D01*
X152599500Y-115004858D01*
X152599500Y-115096699D01*
X152609482Y-115172513D01*
X152611486Y-115187733D01*
X152630227Y-115257678D01*
X152631825Y-115263642D01*
X152635252Y-115276430D01*
X152670393Y-115361267D01*
X152670395Y-115361270D01*
X152670402Y-115361283D01*
X152716302Y-115440786D01*
X152716303Y-115440788D01*
X152772204Y-115513640D01*
X152772210Y-115513647D01*
X152837131Y-115578568D01*
X152840188Y-115581249D01*
X152839677Y-115581831D01*
X152861815Y-115605165D01*
X152878514Y-115640183D01*
X152883574Y-115678647D01*
X152876501Y-115716792D01*
X152857985Y-115750885D01*
X152839796Y-115769083D01*
X152840188Y-115769530D01*
X152837131Y-115772210D01*
X152772210Y-115837131D01*
X152772204Y-115837138D01*
X152716303Y-115909990D01*
X152716302Y-115909992D01*
X152670402Y-115989495D01*
X152670395Y-115989508D01*
X152670393Y-115989512D01*
X152639383Y-116064377D01*
X152635253Y-116074347D01*
X152635250Y-116074355D01*
X152611487Y-116163043D01*
X152611485Y-116163054D01*
X152599500Y-116254079D01*
X152599500Y-116345920D01*
X152607845Y-116409297D01*
X152611486Y-116436954D01*
X152635252Y-116525651D01*
X152670393Y-116610488D01*
X152670395Y-116610491D01*
X152670402Y-116610504D01*
X152716302Y-116690007D01*
X152716303Y-116690009D01*
X152772204Y-116762861D01*
X152772210Y-116762868D01*
X152837131Y-116827789D01*
X152837138Y-116827795D01*
X152909990Y-116883696D01*
X152909992Y-116883697D01*
X152972691Y-116919895D01*
X152989512Y-116929607D01*
X153074349Y-116964748D01*
X153163046Y-116988514D01*
X153254087Y-117000500D01*
X153254094Y-117000500D01*
X153345906Y-117000500D01*
X153345913Y-117000500D01*
X153436954Y-116988514D01*
X153525651Y-116964748D01*
X153610488Y-116929607D01*
X153690012Y-116883694D01*
X153762863Y-116827794D01*
X153827794Y-116762863D01*
X153883694Y-116690012D01*
X153929607Y-116610488D01*
X153964748Y-116525651D01*
X153988514Y-116436954D01*
X154000500Y-116345913D01*
X154000500Y-116254087D01*
X153988514Y-116163046D01*
X153964748Y-116074349D01*
X153929607Y-115989512D01*
X153919216Y-115971514D01*
X153883697Y-115909992D01*
X153883696Y-115909990D01*
X153827795Y-115837138D01*
X153827789Y-115837131D01*
X153762868Y-115772210D01*
X153759812Y-115769530D01*
X153760321Y-115768948D01*
X153738175Y-115745601D01*
X153721481Y-115710581D01*
X153716425Y-115672116D01*
X153723504Y-115633971D01*
X153742023Y-115599881D01*
X153760210Y-115581703D01*
X153759812Y-115581249D01*
X153762857Y-115578577D01*
X153762863Y-115578573D01*
X153827794Y-115513642D01*
X153883694Y-115440791D01*
X153929607Y-115361267D01*
X153964748Y-115276430D01*
X153988514Y-115187733D01*
X154000500Y-115096692D01*
X154000500Y-115004866D01*
X153988514Y-114913825D01*
X153964748Y-114825128D01*
X153929607Y-114740291D01*
X153910967Y-114708005D01*
X153883697Y-114660771D01*
X153883696Y-114660769D01*
X153827795Y-114587917D01*
X153827789Y-114587910D01*
X153762868Y-114522989D01*
X153762861Y-114522983D01*
X153690009Y-114467082D01*
X153690007Y-114467081D01*
X153610504Y-114421181D01*
X153610491Y-114421174D01*
X153610492Y-114421174D01*
X153610488Y-114421172D01*
X153525651Y-114386031D01*
X153436954Y-114362265D01*
X153421734Y-114360261D01*
X153345920Y-114350279D01*
X153345913Y-114350279D01*
X153254087Y-114350279D01*
X153254079Y-114350279D01*
X153167433Y-114361687D01*
X153163046Y-114362265D01*
X153150458Y-114365638D01*
X153074355Y-114386029D01*
X153074351Y-114386030D01*
X153074349Y-114386031D01*
X152989512Y-114421172D01*
X152989509Y-114421173D01*
X152989508Y-114421174D01*
X152989495Y-114421181D01*
X152909992Y-114467081D01*
X152909990Y-114467082D01*
X152837138Y-114522983D01*
X152837131Y-114522989D01*
X152772210Y-114587910D01*
X152772204Y-114587917D01*
X152716303Y-114660769D01*
X152716302Y-114660771D01*
X152670402Y-114740274D01*
X152670395Y-114740287D01*
X152670393Y-114740291D01*
X152635267Y-114825091D01*
X152635253Y-114825126D01*
X152635250Y-114825134D01*
X152611487Y-114913822D01*
X152611485Y-114913833D01*
X152599500Y-115004858D01*
X146011533Y-115004858D01*
X149011532Y-112004858D01*
X154482950Y-112004858D01*
X154482950Y-112096699D01*
X154492932Y-112172513D01*
X154494936Y-112187733D01*
X154518702Y-112276430D01*
X154553843Y-112361267D01*
X154553845Y-112361270D01*
X154553852Y-112361283D01*
X154599752Y-112440786D01*
X154599753Y-112440788D01*
X154655654Y-112513640D01*
X154655660Y-112513647D01*
X154720581Y-112578568D01*
X154720588Y-112578574D01*
X154793440Y-112634475D01*
X154793442Y-112634476D01*
X154856141Y-112670674D01*
X154872962Y-112680386D01*
X154957799Y-112715527D01*
X155046496Y-112739293D01*
X155137537Y-112751279D01*
X155137544Y-112751279D01*
X155229356Y-112751279D01*
X155229363Y-112751279D01*
X155320404Y-112739293D01*
X155409101Y-112715527D01*
X155493938Y-112680386D01*
X155573462Y-112634473D01*
X155646313Y-112578573D01*
X155711244Y-112513642D01*
X155767144Y-112440791D01*
X155813057Y-112361267D01*
X155848198Y-112276430D01*
X155871964Y-112187733D01*
X155883950Y-112096692D01*
X155883950Y-112004866D01*
X155871964Y-111913825D01*
X155848198Y-111825128D01*
X155813057Y-111740291D01*
X155799164Y-111716227D01*
X155767147Y-111660771D01*
X155767146Y-111660769D01*
X155711245Y-111587917D01*
X155711239Y-111587910D01*
X155646318Y-111522989D01*
X155646311Y-111522983D01*
X155573459Y-111467082D01*
X155573457Y-111467081D01*
X155493954Y-111421181D01*
X155493941Y-111421174D01*
X155493942Y-111421174D01*
X155493938Y-111421172D01*
X155409101Y-111386031D01*
X155320404Y-111362265D01*
X155305184Y-111360261D01*
X155229370Y-111350279D01*
X155229363Y-111350279D01*
X155137537Y-111350279D01*
X155137529Y-111350279D01*
X155050883Y-111361687D01*
X155046496Y-111362265D01*
X155016930Y-111370187D01*
X154957805Y-111386029D01*
X154957801Y-111386030D01*
X154957799Y-111386031D01*
X154872962Y-111421172D01*
X154872959Y-111421173D01*
X154872958Y-111421174D01*
X154872945Y-111421181D01*
X154793442Y-111467081D01*
X154793440Y-111467082D01*
X154720588Y-111522983D01*
X154720581Y-111522989D01*
X154655660Y-111587910D01*
X154655654Y-111587917D01*
X154599753Y-111660769D01*
X154599752Y-111660771D01*
X154553852Y-111740274D01*
X154553845Y-111740287D01*
X154553843Y-111740291D01*
X154523820Y-111812773D01*
X154518703Y-111825126D01*
X154518700Y-111825134D01*
X154494937Y-111913822D01*
X154494935Y-111913833D01*
X154482950Y-112004858D01*
X149011532Y-112004858D01*
X151379572Y-109636818D01*
X151410958Y-109614015D01*
X151447855Y-109602027D01*
X151467253Y-109600500D01*
X151545906Y-109600500D01*
X151545913Y-109600500D01*
X151636954Y-109588514D01*
X151725651Y-109564748D01*
X151810488Y-109529607D01*
X151890012Y-109483694D01*
X151962863Y-109427794D01*
X152027794Y-109362863D01*
X152083694Y-109290012D01*
X152129607Y-109210488D01*
X152164748Y-109125651D01*
X152188514Y-109036954D01*
X152200500Y-108945913D01*
X152200500Y-108854087D01*
X152188514Y-108763046D01*
X152164748Y-108674349D01*
X152129607Y-108589512D01*
X152111168Y-108557574D01*
X152083697Y-108509992D01*
X152083696Y-108509990D01*
X152027795Y-108437138D01*
X152027789Y-108437131D01*
X151962868Y-108372210D01*
X151962861Y-108372204D01*
X151890009Y-108316303D01*
X151886635Y-108314049D01*
X151887164Y-108313256D01*
X151863057Y-108293718D01*
X151841939Y-108261173D01*
X151831912Y-108223696D01*
X151833957Y-108184954D01*
X151847874Y-108148740D01*
X151867553Y-108123103D01*
X151927794Y-108062863D01*
X151983694Y-107990012D01*
X152029607Y-107910488D01*
X152064748Y-107825651D01*
X152088514Y-107736954D01*
X152100500Y-107645913D01*
X152100500Y-107554087D01*
X152088514Y-107463046D01*
X152064748Y-107374349D01*
X152029607Y-107289512D01*
X152004590Y-107246181D01*
X151983697Y-107209992D01*
X151983696Y-107209990D01*
X151927795Y-107137138D01*
X151927789Y-107137131D01*
X151862868Y-107072210D01*
X151862861Y-107072204D01*
X151801188Y-107024881D01*
X153252973Y-107024881D01*
X153252973Y-107116722D01*
X153260683Y-107175279D01*
X153264959Y-107207756D01*
X153275253Y-107246174D01*
X153287553Y-107292081D01*
X153288725Y-107296453D01*
X153323866Y-107381290D01*
X153323868Y-107381293D01*
X153323875Y-107381306D01*
X153369775Y-107460809D01*
X153369776Y-107460811D01*
X153425677Y-107533663D01*
X153425683Y-107533670D01*
X153490604Y-107598591D01*
X153490611Y-107598597D01*
X153563463Y-107654498D01*
X153563465Y-107654499D01*
X153626164Y-107690697D01*
X153642985Y-107700409D01*
X153727822Y-107735550D01*
X153816519Y-107759316D01*
X153907560Y-107771302D01*
X153907567Y-107771302D01*
X153999379Y-107771302D01*
X153999386Y-107771302D01*
X154090427Y-107759316D01*
X154146614Y-107744261D01*
X159062950Y-107744261D01*
X159062950Y-107857296D01*
X159074028Y-107969784D01*
X159074030Y-107969796D01*
X159096084Y-108080665D01*
X159105367Y-108111267D01*
X159128899Y-108188843D01*
X159165578Y-108277394D01*
X159172156Y-108293274D01*
X159221735Y-108386029D01*
X159225442Y-108392963D01*
X159225454Y-108392983D01*
X159288236Y-108486944D01*
X159288246Y-108486957D01*
X159317816Y-108522989D01*
X159359963Y-108574345D01*
X159439883Y-108654265D01*
X159439888Y-108654269D01*
X159439890Y-108654271D01*
X159464363Y-108674355D01*
X159527271Y-108725982D01*
X159527284Y-108725992D01*
X159621245Y-108788774D01*
X159621250Y-108788777D01*
X159621262Y-108788785D01*
X159720955Y-108842073D01*
X159781016Y-108866950D01*
X159825385Y-108885329D01*
X159825389Y-108885330D01*
X159825391Y-108885331D01*
X159933564Y-108918145D01*
X159988949Y-108929162D01*
X160025346Y-108942590D01*
X160055813Y-108966609D01*
X160077366Y-108998866D01*
X160087897Y-109036206D01*
X160086373Y-109074972D01*
X160072945Y-109111369D01*
X160048926Y-109141836D01*
X160016669Y-109163389D01*
X159988950Y-109172395D01*
X159933564Y-109183413D01*
X159933561Y-109183414D01*
X159825385Y-109216228D01*
X159720959Y-109259483D01*
X159720956Y-109259484D01*
X159621265Y-109312771D01*
X159621245Y-109312783D01*
X159527284Y-109375565D01*
X159527271Y-109375575D01*
X159439883Y-109447292D01*
X159359963Y-109527212D01*
X159288246Y-109614600D01*
X159288236Y-109614613D01*
X159225454Y-109708574D01*
X159225442Y-109708594D01*
X159172155Y-109808285D01*
X159172154Y-109808288D01*
X159128899Y-109912714D01*
X159096085Y-110020890D01*
X159096083Y-110020898D01*
X159074030Y-110131760D01*
X159074028Y-110131773D01*
X159062950Y-110244261D01*
X159062950Y-110357296D01*
X159074028Y-110469784D01*
X159074030Y-110469796D01*
X159096084Y-110580665D01*
X159096085Y-110580667D01*
X159128899Y-110688843D01*
X159172154Y-110793269D01*
X159172155Y-110793272D01*
X159225442Y-110892963D01*
X159225454Y-110892983D01*
X159288236Y-110986944D01*
X159288246Y-110986957D01*
X159359963Y-111074345D01*
X159439883Y-111154265D01*
X159527271Y-111225982D01*
X159527284Y-111225992D01*
X159621245Y-111288774D01*
X159621250Y-111288777D01*
X159621262Y-111288785D01*
X159720955Y-111342073D01*
X159769704Y-111362265D01*
X159825385Y-111385329D01*
X159825389Y-111385330D01*
X159825391Y-111385331D01*
X159933564Y-111418145D01*
X159988949Y-111429162D01*
X160025346Y-111442590D01*
X160055813Y-111466609D01*
X160077366Y-111498866D01*
X160087897Y-111536206D01*
X160086373Y-111574972D01*
X160072945Y-111611369D01*
X160048926Y-111641836D01*
X160016669Y-111663389D01*
X159988950Y-111672395D01*
X159933564Y-111683413D01*
X159933561Y-111683414D01*
X159825385Y-111716228D01*
X159720959Y-111759483D01*
X159720956Y-111759484D01*
X159621265Y-111812771D01*
X159621245Y-111812783D01*
X159527284Y-111875565D01*
X159527271Y-111875575D01*
X159439883Y-111947292D01*
X159359963Y-112027212D01*
X159288246Y-112114600D01*
X159288236Y-112114613D01*
X159225454Y-112208574D01*
X159225442Y-112208594D01*
X159172155Y-112308285D01*
X159172154Y-112308288D01*
X159128899Y-112412714D01*
X159096085Y-112520890D01*
X159096083Y-112520898D01*
X159074030Y-112631760D01*
X159074028Y-112631773D01*
X159062950Y-112744261D01*
X159062950Y-112857296D01*
X159074028Y-112969784D01*
X159074030Y-112969796D01*
X159096084Y-113080665D01*
X159096085Y-113080667D01*
X159128899Y-113188843D01*
X159172154Y-113293269D01*
X159172155Y-113293272D01*
X159225442Y-113392963D01*
X159225454Y-113392983D01*
X159288236Y-113486944D01*
X159288246Y-113486957D01*
X159355109Y-113568431D01*
X159359963Y-113574345D01*
X159439883Y-113654265D01*
X159527271Y-113725982D01*
X159527284Y-113725992D01*
X159621245Y-113788774D01*
X159621250Y-113788777D01*
X159621262Y-113788785D01*
X159720955Y-113842073D01*
X159774827Y-113864387D01*
X159825385Y-113885329D01*
X159825389Y-113885330D01*
X159825391Y-113885331D01*
X159933564Y-113918145D01*
X160044433Y-113940199D01*
X160156930Y-113951279D01*
X160156932Y-113951279D01*
X160419968Y-113951279D01*
X160419970Y-113951279D01*
X160532467Y-113940199D01*
X160643336Y-113918145D01*
X160751509Y-113885331D01*
X160755044Y-113883867D01*
X160759191Y-113882149D01*
X160855945Y-113842073D01*
X160955638Y-113788785D01*
X161049628Y-113725983D01*
X161137010Y-113654271D01*
X161216942Y-113574339D01*
X161288654Y-113486957D01*
X161351456Y-113392967D01*
X161404744Y-113293274D01*
X161448002Y-113188838D01*
X161480816Y-113080665D01*
X161502870Y-112969796D01*
X161513950Y-112857299D01*
X161513950Y-112744259D01*
X161502870Y-112631762D01*
X161480816Y-112520893D01*
X161448002Y-112412720D01*
X161404744Y-112308284D01*
X161351456Y-112208591D01*
X161351445Y-112208574D01*
X161288663Y-112114613D01*
X161288653Y-112114600D01*
X161273962Y-112096699D01*
X161216942Y-112027219D01*
X161216940Y-112027217D01*
X161216936Y-112027212D01*
X161137016Y-111947292D01*
X161049628Y-111875575D01*
X161049615Y-111875565D01*
X160955654Y-111812783D01*
X160955643Y-111812776D01*
X160955638Y-111812773D01*
X160855945Y-111759485D01*
X160849445Y-111756792D01*
X160751514Y-111716228D01*
X160690089Y-111697595D01*
X160643336Y-111683413D01*
X160587950Y-111672395D01*
X160551553Y-111658968D01*
X160521086Y-111634950D01*
X160499533Y-111602692D01*
X160489002Y-111565353D01*
X160490526Y-111526587D01*
X160503954Y-111490189D01*
X160527972Y-111459722D01*
X160560230Y-111438169D01*
X160587949Y-111429162D01*
X160643336Y-111418145D01*
X160751509Y-111385331D01*
X160855945Y-111342073D01*
X160955638Y-111288785D01*
X161049628Y-111225983D01*
X161137010Y-111154271D01*
X161216942Y-111074339D01*
X161288654Y-110986957D01*
X161351456Y-110892967D01*
X161404744Y-110793274D01*
X161448002Y-110688838D01*
X161480816Y-110580665D01*
X161502870Y-110469796D01*
X161513950Y-110357299D01*
X161513950Y-110244259D01*
X161502870Y-110131762D01*
X161480816Y-110020893D01*
X161448002Y-109912720D01*
X161446769Y-109909744D01*
X161411047Y-109823502D01*
X161404744Y-109808284D01*
X161351456Y-109708591D01*
X161322829Y-109665747D01*
X161288663Y-109614613D01*
X161288653Y-109614600D01*
X161277081Y-109600499D01*
X161216942Y-109527219D01*
X161216940Y-109527217D01*
X161216936Y-109527212D01*
X161137016Y-109447292D01*
X161113257Y-109427794D01*
X161049628Y-109375575D01*
X161049615Y-109375565D01*
X160955654Y-109312783D01*
X160955643Y-109312776D01*
X160955638Y-109312773D01*
X160855945Y-109259485D01*
X160849445Y-109256792D01*
X160751514Y-109216228D01*
X160671142Y-109191848D01*
X160643336Y-109183413D01*
X160587950Y-109172395D01*
X160551553Y-109158968D01*
X160521086Y-109134950D01*
X160499533Y-109102692D01*
X160489002Y-109065353D01*
X160490526Y-109026587D01*
X160503954Y-108990189D01*
X160527972Y-108959722D01*
X160560230Y-108938169D01*
X160587949Y-108929162D01*
X160643336Y-108918145D01*
X160751509Y-108885331D01*
X160855945Y-108842073D01*
X160955638Y-108788785D01*
X161049628Y-108725983D01*
X161137010Y-108654271D01*
X161216942Y-108574339D01*
X161288654Y-108486957D01*
X161313595Y-108449629D01*
X161339928Y-108421142D01*
X161373777Y-108402185D01*
X161411827Y-108394616D01*
X161450354Y-108399175D01*
X161485586Y-108415417D01*
X161492183Y-108420144D01*
X161543440Y-108459475D01*
X161543442Y-108459476D01*
X161595088Y-108489293D01*
X161622962Y-108505386D01*
X161707799Y-108540527D01*
X161796496Y-108564293D01*
X161887537Y-108576279D01*
X161887544Y-108576279D01*
X161979356Y-108576279D01*
X161979363Y-108576279D01*
X162070404Y-108564293D01*
X162159101Y-108540527D01*
X162243938Y-108505386D01*
X162323462Y-108459473D01*
X162396313Y-108403573D01*
X162461244Y-108338642D01*
X162517144Y-108265791D01*
X162518988Y-108262598D01*
X162532153Y-108239794D01*
X162563057Y-108186267D01*
X162598198Y-108101430D01*
X162621964Y-108012733D01*
X162633950Y-107921692D01*
X162633950Y-107829866D01*
X162621964Y-107738825D01*
X162598198Y-107650128D01*
X162563057Y-107565291D01*
X162537422Y-107520890D01*
X162517147Y-107485771D01*
X162517146Y-107485769D01*
X162461245Y-107412917D01*
X162461239Y-107412910D01*
X162396318Y-107347989D01*
X162396311Y-107347983D01*
X162323459Y-107292082D01*
X162323457Y-107292081D01*
X162243954Y-107246181D01*
X162243941Y-107246174D01*
X162243942Y-107246174D01*
X162243938Y-107246172D01*
X162159101Y-107211031D01*
X162155223Y-107209992D01*
X162140349Y-107206006D01*
X162070404Y-107187265D01*
X162055184Y-107185261D01*
X161979370Y-107175279D01*
X161979363Y-107175279D01*
X161887537Y-107175279D01*
X161887529Y-107175279D01*
X161800883Y-107186687D01*
X161796496Y-107187265D01*
X161766930Y-107195187D01*
X161707805Y-107211029D01*
X161707801Y-107211030D01*
X161707799Y-107211031D01*
X161622962Y-107246172D01*
X161622959Y-107246173D01*
X161622958Y-107246174D01*
X161622956Y-107246175D01*
X161541793Y-107293034D01*
X161505574Y-107306937D01*
X161466831Y-107308967D01*
X161429357Y-107298925D01*
X161396821Y-107277795D01*
X161372406Y-107247645D01*
X161370436Y-107244100D01*
X161355996Y-107217085D01*
X161351456Y-107208591D01*
X161351445Y-107208574D01*
X161288663Y-107114613D01*
X161288653Y-107114600D01*
X161253865Y-107072210D01*
X161216942Y-107027219D01*
X161216940Y-107027217D01*
X161216936Y-107027212D01*
X161137016Y-106947292D01*
X161049628Y-106875575D01*
X161049615Y-106875565D01*
X160955654Y-106812783D01*
X160955643Y-106812776D01*
X160955638Y-106812773D01*
X160855945Y-106759485D01*
X160849445Y-106756792D01*
X160751514Y-106716228D01*
X160690089Y-106697595D01*
X160643336Y-106683413D01*
X160588662Y-106672537D01*
X160532468Y-106661359D01*
X160532455Y-106661357D01*
X160441796Y-106652428D01*
X160419970Y-106650279D01*
X160156930Y-106650279D01*
X160137033Y-106652238D01*
X160044444Y-106661357D01*
X160044431Y-106661359D01*
X159946750Y-106680790D01*
X159933564Y-106683413D01*
X159933561Y-106683414D01*
X159825385Y-106716228D01*
X159720959Y-106759483D01*
X159720956Y-106759484D01*
X159621265Y-106812771D01*
X159621245Y-106812783D01*
X159527284Y-106875565D01*
X159527271Y-106875575D01*
X159439883Y-106947292D01*
X159359963Y-107027212D01*
X159288246Y-107114600D01*
X159288236Y-107114613D01*
X159225454Y-107208574D01*
X159225442Y-107208594D01*
X159172155Y-107308285D01*
X159172154Y-107308288D01*
X159128899Y-107412714D01*
X159096085Y-107520890D01*
X159096083Y-107520898D01*
X159074030Y-107631760D01*
X159074028Y-107631773D01*
X159065919Y-107714115D01*
X159063485Y-107738833D01*
X159062950Y-107744261D01*
X154146614Y-107744261D01*
X154179124Y-107735550D01*
X154263961Y-107700409D01*
X154343485Y-107654496D01*
X154416336Y-107598596D01*
X154481267Y-107533665D01*
X154537167Y-107460814D01*
X154583080Y-107381290D01*
X154618221Y-107296453D01*
X154641987Y-107207756D01*
X154653973Y-107116715D01*
X154653973Y-107024889D01*
X154641987Y-106933848D01*
X154618221Y-106845151D01*
X154583080Y-106760314D01*
X154557627Y-106716228D01*
X154537170Y-106680794D01*
X154537169Y-106680792D01*
X154481268Y-106607940D01*
X154481262Y-106607933D01*
X154416341Y-106543012D01*
X154416334Y-106543006D01*
X154343482Y-106487105D01*
X154343480Y-106487104D01*
X154263977Y-106441204D01*
X154263964Y-106441197D01*
X154263965Y-106441197D01*
X154263961Y-106441195D01*
X154179124Y-106406054D01*
X154090427Y-106382288D01*
X154075207Y-106380284D01*
X153999393Y-106370302D01*
X153999386Y-106370302D01*
X153907560Y-106370302D01*
X153907552Y-106370302D01*
X153820906Y-106381710D01*
X153816519Y-106382288D01*
X153786953Y-106390210D01*
X153727828Y-106406052D01*
X153727824Y-106406053D01*
X153727822Y-106406054D01*
X153642985Y-106441195D01*
X153642982Y-106441196D01*
X153642981Y-106441197D01*
X153642968Y-106441204D01*
X153563465Y-106487104D01*
X153563463Y-106487105D01*
X153490611Y-106543006D01*
X153490604Y-106543012D01*
X153425683Y-106607933D01*
X153425677Y-106607940D01*
X153369776Y-106680792D01*
X153369775Y-106680794D01*
X153323875Y-106760297D01*
X153323868Y-106760310D01*
X153323866Y-106760314D01*
X153288726Y-106845149D01*
X153288723Y-106845157D01*
X153264960Y-106933845D01*
X153264958Y-106933856D01*
X153252973Y-107024881D01*
X151801188Y-107024881D01*
X151790009Y-107016303D01*
X151790007Y-107016302D01*
X151710504Y-106970402D01*
X151710491Y-106970395D01*
X151710492Y-106970395D01*
X151710488Y-106970393D01*
X151625651Y-106935252D01*
X151536954Y-106911486D01*
X151521734Y-106909482D01*
X151445920Y-106899500D01*
X151445913Y-106899500D01*
X151354087Y-106899500D01*
X151354079Y-106899500D01*
X151267433Y-106910908D01*
X151263046Y-106911486D01*
X151233480Y-106919408D01*
X151174355Y-106935250D01*
X151174351Y-106935251D01*
X151174349Y-106935252D01*
X151089512Y-106970393D01*
X151089509Y-106970394D01*
X151089508Y-106970395D01*
X151089495Y-106970402D01*
X151009992Y-107016302D01*
X151009990Y-107016303D01*
X150937138Y-107072204D01*
X150937131Y-107072210D01*
X150921986Y-107087356D01*
X150919339Y-107089278D01*
X150917278Y-107091825D01*
X150903695Y-107100645D01*
X150890600Y-107110160D01*
X150887485Y-107111172D01*
X150884741Y-107112954D01*
X150869101Y-107117144D01*
X150853703Y-107122148D01*
X150850432Y-107122148D01*
X150847267Y-107122996D01*
X150831091Y-107122148D01*
X150814907Y-107122148D01*
X150811793Y-107121136D01*
X150808525Y-107120965D01*
X150793419Y-107115166D01*
X150778010Y-107110160D01*
X150772306Y-107107062D01*
X150726252Y-107080473D01*
X150696101Y-107056059D01*
X150674972Y-107023522D01*
X150664930Y-106986048D01*
X150666961Y-106947306D01*
X150680864Y-106911087D01*
X150700566Y-106885409D01*
X152881897Y-104704079D01*
X156057950Y-104704079D01*
X156057950Y-104795920D01*
X156063575Y-104838640D01*
X156069936Y-104886954D01*
X156093702Y-104975651D01*
X156128843Y-105060488D01*
X156128845Y-105060491D01*
X156128852Y-105060504D01*
X156174752Y-105140007D01*
X156174753Y-105140009D01*
X156230654Y-105212861D01*
X156230660Y-105212868D01*
X156295581Y-105277789D01*
X156295588Y-105277795D01*
X156368440Y-105333696D01*
X156368442Y-105333697D01*
X156431141Y-105369895D01*
X156447962Y-105379607D01*
X156532799Y-105414748D01*
X156621496Y-105438514D01*
X156712537Y-105450500D01*
X156712544Y-105450500D01*
X156804356Y-105450500D01*
X156804363Y-105450500D01*
X156895404Y-105438514D01*
X156984101Y-105414748D01*
X157068938Y-105379607D01*
X157148462Y-105333694D01*
X157221313Y-105277794D01*
X157286244Y-105212863D01*
X157342144Y-105140012D01*
X157388057Y-105060488D01*
X157423198Y-104975651D01*
X157446964Y-104886954D01*
X157458950Y-104795913D01*
X157458950Y-104704087D01*
X157446964Y-104613046D01*
X157423198Y-104524349D01*
X157388057Y-104439512D01*
X157367305Y-104403568D01*
X157342147Y-104359992D01*
X157342146Y-104359990D01*
X157286245Y-104287138D01*
X157286239Y-104287131D01*
X157221318Y-104222210D01*
X157221311Y-104222204D01*
X157148459Y-104166303D01*
X157148457Y-104166302D01*
X157068954Y-104120402D01*
X157068941Y-104120395D01*
X157068942Y-104120395D01*
X157068938Y-104120393D01*
X156984101Y-104085252D01*
X156895404Y-104061486D01*
X156880184Y-104059482D01*
X156804370Y-104049500D01*
X156804363Y-104049500D01*
X156712537Y-104049500D01*
X156712529Y-104049500D01*
X156625883Y-104060908D01*
X156621496Y-104061486D01*
X156591930Y-104069408D01*
X156532805Y-104085250D01*
X156532801Y-104085251D01*
X156532799Y-104085252D01*
X156447962Y-104120393D01*
X156447959Y-104120394D01*
X156447958Y-104120395D01*
X156447945Y-104120402D01*
X156368442Y-104166302D01*
X156368440Y-104166303D01*
X156295588Y-104222204D01*
X156295581Y-104222210D01*
X156230660Y-104287131D01*
X156230654Y-104287138D01*
X156174753Y-104359990D01*
X156174752Y-104359992D01*
X156128852Y-104439495D01*
X156128845Y-104439508D01*
X156093703Y-104524347D01*
X156093700Y-104524355D01*
X156089367Y-104540527D01*
X156073049Y-104601430D01*
X156069937Y-104613043D01*
X156069935Y-104613054D01*
X156057950Y-104704079D01*
X152881897Y-104704079D01*
X158008003Y-99577974D01*
X158047370Y-99523790D01*
X158058503Y-99501940D01*
X158077777Y-99464114D01*
X158098473Y-99400417D01*
X158105303Y-99357296D01*
X158108950Y-99334271D01*
X158108950Y-97017286D01*
X158098473Y-96951143D01*
X158098473Y-96951141D01*
X158079273Y-96892050D01*
X158078220Y-96888312D01*
X158047371Y-96827768D01*
X158008004Y-96773585D01*
X157420269Y-96185850D01*
X157397465Y-96154464D01*
X157385477Y-96117567D01*
X157383950Y-96098169D01*
X157383950Y-96004872D01*
X157383949Y-96004858D01*
X157383372Y-96000478D01*
X157371964Y-95913825D01*
X157348198Y-95825128D01*
X157313057Y-95740291D01*
X157299164Y-95716227D01*
X157267147Y-95660771D01*
X157267146Y-95660769D01*
X157211245Y-95587917D01*
X157211239Y-95587910D01*
X157146318Y-95522989D01*
X157146311Y-95522983D01*
X157073459Y-95467082D01*
X157073457Y-95467081D01*
X156993954Y-95421181D01*
X156993941Y-95421174D01*
X156993942Y-95421174D01*
X156993938Y-95421172D01*
X156909101Y-95386031D01*
X156820404Y-95362265D01*
X156805184Y-95360261D01*
X156729370Y-95350279D01*
X156729363Y-95350279D01*
X156637537Y-95350279D01*
X156637529Y-95350279D01*
X156550883Y-95361687D01*
X156546496Y-95362265D01*
X156516930Y-95370187D01*
X156457805Y-95386029D01*
X156457801Y-95386030D01*
X156457799Y-95386031D01*
X156372962Y-95421172D01*
X156372959Y-95421173D01*
X156372958Y-95421174D01*
X156372945Y-95421181D01*
X156293442Y-95467081D01*
X156293440Y-95467082D01*
X156220588Y-95522983D01*
X156220581Y-95522989D01*
X156155660Y-95587910D01*
X156155654Y-95587917D01*
X156099753Y-95660769D01*
X156099752Y-95660771D01*
X156053852Y-95740274D01*
X156053845Y-95740287D01*
X156053843Y-95740291D01*
X156023820Y-95812773D01*
X156018703Y-95825126D01*
X156018700Y-95825134D01*
X155994937Y-95913822D01*
X155994935Y-95913833D01*
X155982950Y-96004858D01*
X155982950Y-96096699D01*
X155989097Y-96143383D01*
X155994936Y-96187733D01*
X156018702Y-96276430D01*
X156053843Y-96361267D01*
X156053845Y-96361270D01*
X156053852Y-96361283D01*
X156099752Y-96440786D01*
X156099753Y-96440788D01*
X156155654Y-96513640D01*
X156155660Y-96513647D01*
X156220581Y-96578568D01*
X156220588Y-96578574D01*
X156293440Y-96634475D01*
X156293442Y-96634476D01*
X156356141Y-96670674D01*
X156372962Y-96680386D01*
X156457799Y-96715527D01*
X156546496Y-96739293D01*
X156637537Y-96751279D01*
X156637544Y-96751279D01*
X156730840Y-96751279D01*
X156769158Y-96757348D01*
X156803725Y-96774961D01*
X156818521Y-96787598D01*
X157221631Y-97190708D01*
X157244435Y-97222094D01*
X157256423Y-97258991D01*
X157257950Y-97278389D01*
X157257950Y-99073169D01*
X157251881Y-99111487D01*
X157234268Y-99146054D01*
X157221631Y-99160850D01*
X149043521Y-107338960D01*
X149012135Y-107361764D01*
X148975238Y-107373752D01*
X148955840Y-107375279D01*
X148549970Y-107375279D01*
X148511652Y-107369210D01*
X148477085Y-107351597D01*
X148462289Y-107338960D01*
X148396318Y-107272989D01*
X148396311Y-107272983D01*
X148323459Y-107217082D01*
X148323457Y-107217081D01*
X148243954Y-107171181D01*
X148243941Y-107171174D01*
X148243942Y-107171174D01*
X148243938Y-107171172D01*
X148159101Y-107136031D01*
X148070404Y-107112265D01*
X148054415Y-107110160D01*
X147979370Y-107100279D01*
X147979363Y-107100279D01*
X147887537Y-107100279D01*
X147887529Y-107100279D01*
X147804798Y-107111172D01*
X147796496Y-107112265D01*
X147779888Y-107116715D01*
X147707805Y-107136029D01*
X147707801Y-107136030D01*
X147707799Y-107136031D01*
X147622962Y-107171172D01*
X147622959Y-107171173D01*
X147622958Y-107171174D01*
X147622945Y-107171181D01*
X147543442Y-107217081D01*
X147543440Y-107217082D01*
X147470588Y-107272983D01*
X147470581Y-107272989D01*
X147405660Y-107337910D01*
X147405654Y-107337917D01*
X147349753Y-107410769D01*
X147349752Y-107410771D01*
X147303852Y-107490274D01*
X147303845Y-107490287D01*
X147303843Y-107490291D01*
X147272777Y-107565291D01*
X147268703Y-107575126D01*
X147268700Y-107575134D01*
X147262141Y-107599615D01*
X147248605Y-107650134D01*
X147244937Y-107663822D01*
X147244935Y-107663833D01*
X147232950Y-107754858D01*
X147232950Y-107846699D01*
X147234346Y-107857299D01*
X147244936Y-107937733D01*
X147258943Y-107990007D01*
X147265029Y-108012724D01*
X147268702Y-108026430D01*
X147303843Y-108111267D01*
X147303845Y-108111270D01*
X147303852Y-108111283D01*
X147349752Y-108190786D01*
X147349753Y-108190788D01*
X147405654Y-108263640D01*
X147405660Y-108263647D01*
X147470581Y-108328568D01*
X147470588Y-108328574D01*
X147543440Y-108384475D01*
X147543442Y-108384476D01*
X147593884Y-108413598D01*
X147622962Y-108430386D01*
X147707799Y-108465527D01*
X147796496Y-108489293D01*
X147887537Y-108501279D01*
X147887544Y-108501279D01*
X147979356Y-108501279D01*
X147979363Y-108501279D01*
X148070404Y-108489293D01*
X148159101Y-108465527D01*
X148243938Y-108430386D01*
X148320762Y-108386032D01*
X148323457Y-108384476D01*
X148323459Y-108384475D01*
X148323462Y-108384473D01*
X148396313Y-108328573D01*
X148412925Y-108311961D01*
X148462289Y-108262598D01*
X148493675Y-108239794D01*
X148530572Y-108227806D01*
X148549970Y-108226279D01*
X149012599Y-108226279D01*
X149050917Y-108232348D01*
X149085484Y-108249961D01*
X149112917Y-108277394D01*
X149130530Y-108311961D01*
X149136599Y-108350279D01*
X149130530Y-108388597D01*
X149112917Y-108423164D01*
X149100280Y-108437960D01*
X148248282Y-109289960D01*
X148216896Y-109312764D01*
X148179999Y-109324752D01*
X148160601Y-109326279D01*
X147245119Y-109326279D01*
X147206801Y-109320210D01*
X147172234Y-109302597D01*
X147144801Y-109275164D01*
X147127188Y-109240597D01*
X147121119Y-109202279D01*
X147122180Y-109186093D01*
X147133949Y-109096699D01*
X147133950Y-109096692D01*
X147133950Y-109004866D01*
X147121964Y-108913825D01*
X147098198Y-108825128D01*
X147063057Y-108740291D01*
X147053345Y-108723470D01*
X147017147Y-108660771D01*
X147017146Y-108660769D01*
X146961245Y-108587917D01*
X146961239Y-108587910D01*
X146896318Y-108522989D01*
X146896311Y-108522983D01*
X146823459Y-108467082D01*
X146823455Y-108467080D01*
X146743954Y-108421181D01*
X146743941Y-108421174D01*
X146743942Y-108421174D01*
X146743938Y-108421172D01*
X146659101Y-108386031D01*
X146653286Y-108384473D01*
X146640349Y-108381006D01*
X146570404Y-108362265D01*
X146555184Y-108360261D01*
X146479370Y-108350279D01*
X146479363Y-108350279D01*
X146387537Y-108350279D01*
X146386060Y-108350279D01*
X146347742Y-108344210D01*
X146313175Y-108326597D01*
X146298379Y-108313960D01*
X145395269Y-107410850D01*
X145372465Y-107379464D01*
X145360477Y-107342567D01*
X145358950Y-107323169D01*
X145358950Y-104654095D01*
X145365019Y-104615777D01*
X145382632Y-104581210D01*
X145410065Y-104553777D01*
X145444632Y-104536164D01*
X145482950Y-104530095D01*
X145521268Y-104536164D01*
X145530402Y-104539534D01*
X145532799Y-104540527D01*
X145621496Y-104564293D01*
X145712537Y-104576279D01*
X145712544Y-104576279D01*
X145804356Y-104576279D01*
X145804363Y-104576279D01*
X145895404Y-104564293D01*
X145984101Y-104540527D01*
X146068938Y-104505386D01*
X146148462Y-104459473D01*
X146221313Y-104403573D01*
X146286244Y-104338642D01*
X146342144Y-104265791D01*
X146388057Y-104186267D01*
X146423198Y-104101430D01*
X146446964Y-104012733D01*
X146458950Y-103921692D01*
X146458950Y-103829866D01*
X146458949Y-103829858D01*
X150232950Y-103829858D01*
X150232950Y-103921699D01*
X150241386Y-103985767D01*
X150244936Y-104012733D01*
X150268702Y-104101430D01*
X150303843Y-104186267D01*
X150303845Y-104186270D01*
X150303852Y-104186283D01*
X150349752Y-104265786D01*
X150349753Y-104265788D01*
X150405654Y-104338640D01*
X150405660Y-104338647D01*
X150470581Y-104403568D01*
X150470588Y-104403574D01*
X150543440Y-104459475D01*
X150543442Y-104459476D01*
X150606141Y-104495674D01*
X150622962Y-104505386D01*
X150707799Y-104540527D01*
X150796496Y-104564293D01*
X150887537Y-104576279D01*
X150887544Y-104576279D01*
X150979356Y-104576279D01*
X150979363Y-104576279D01*
X151070404Y-104564293D01*
X151159101Y-104540527D01*
X151243938Y-104505386D01*
X151323462Y-104459473D01*
X151396313Y-104403573D01*
X151461244Y-104338642D01*
X151517144Y-104265791D01*
X151563057Y-104186267D01*
X151598198Y-104101430D01*
X151621964Y-104012733D01*
X151633950Y-103921692D01*
X151633950Y-103829866D01*
X151621964Y-103738825D01*
X151598198Y-103650128D01*
X151563057Y-103565291D01*
X151553345Y-103548470D01*
X151517147Y-103485771D01*
X151517146Y-103485769D01*
X151461245Y-103412917D01*
X151461239Y-103412910D01*
X151396318Y-103347989D01*
X151396311Y-103347983D01*
X151323459Y-103292082D01*
X151323457Y-103292081D01*
X151243954Y-103246181D01*
X151243941Y-103246174D01*
X151243942Y-103246174D01*
X151243938Y-103246172D01*
X151159101Y-103211031D01*
X151070404Y-103187265D01*
X151055184Y-103185261D01*
X150979370Y-103175279D01*
X150979363Y-103175279D01*
X150887537Y-103175279D01*
X150887529Y-103175279D01*
X150800883Y-103186687D01*
X150796496Y-103187265D01*
X150766930Y-103195187D01*
X150707805Y-103211029D01*
X150707801Y-103211030D01*
X150707799Y-103211031D01*
X150622962Y-103246172D01*
X150622959Y-103246173D01*
X150622958Y-103246174D01*
X150622945Y-103246181D01*
X150543442Y-103292081D01*
X150543440Y-103292082D01*
X150470588Y-103347983D01*
X150470581Y-103347989D01*
X150405660Y-103412910D01*
X150405654Y-103412917D01*
X150349753Y-103485769D01*
X150349752Y-103485771D01*
X150303852Y-103565274D01*
X150303845Y-103565287D01*
X150268703Y-103650126D01*
X150268700Y-103650134D01*
X150244937Y-103738822D01*
X150244935Y-103738833D01*
X150232950Y-103829858D01*
X146458949Y-103829858D01*
X146446964Y-103738825D01*
X146423198Y-103650128D01*
X146388057Y-103565291D01*
X146378345Y-103548470D01*
X146342147Y-103485771D01*
X146342146Y-103485769D01*
X146286245Y-103412917D01*
X146286239Y-103412910D01*
X146221318Y-103347989D01*
X146221311Y-103347983D01*
X146148459Y-103292082D01*
X146148457Y-103292081D01*
X146068954Y-103246181D01*
X146068941Y-103246174D01*
X146068942Y-103246174D01*
X146068938Y-103246172D01*
X145984101Y-103211031D01*
X145895404Y-103187265D01*
X145880184Y-103185261D01*
X145804370Y-103175279D01*
X145804363Y-103175279D01*
X145712537Y-103175279D01*
X145712529Y-103175279D01*
X145625883Y-103186687D01*
X145621496Y-103187265D01*
X145591930Y-103195187D01*
X145532805Y-103211029D01*
X145532801Y-103211030D01*
X145532799Y-103211031D01*
X145532794Y-103211032D01*
X145532786Y-103211036D01*
X145530391Y-103212028D01*
X145492666Y-103221081D01*
X145453990Y-103218033D01*
X145418149Y-103203183D01*
X145388651Y-103177984D01*
X145368384Y-103144903D01*
X145359331Y-103107178D01*
X145358950Y-103097462D01*
X145358950Y-102079858D01*
X146732950Y-102079858D01*
X146732950Y-102171699D01*
X146742932Y-102247513D01*
X146744936Y-102262733D01*
X146768702Y-102351430D01*
X146803843Y-102436267D01*
X146803845Y-102436270D01*
X146803852Y-102436283D01*
X146849752Y-102515786D01*
X146849753Y-102515788D01*
X146905654Y-102588640D01*
X146905660Y-102588647D01*
X146970581Y-102653568D01*
X146970588Y-102653574D01*
X147043440Y-102709475D01*
X147043442Y-102709476D01*
X147106141Y-102745674D01*
X147122962Y-102755386D01*
X147207799Y-102790527D01*
X147296496Y-102814293D01*
X147387537Y-102826279D01*
X147387544Y-102826279D01*
X147479356Y-102826279D01*
X147479363Y-102826279D01*
X147570404Y-102814293D01*
X147659101Y-102790527D01*
X147743938Y-102755386D01*
X147823462Y-102709473D01*
X147896313Y-102653573D01*
X147961244Y-102588642D01*
X148017144Y-102515791D01*
X148063057Y-102436267D01*
X148098198Y-102351430D01*
X148121964Y-102262733D01*
X148133950Y-102171692D01*
X148133950Y-102079866D01*
X148121964Y-101988825D01*
X148098198Y-101900128D01*
X148063057Y-101815291D01*
X148042973Y-101780504D01*
X148017147Y-101735771D01*
X148017146Y-101735769D01*
X147961245Y-101662917D01*
X147961239Y-101662910D01*
X147896318Y-101597989D01*
X147896311Y-101597983D01*
X147823459Y-101542082D01*
X147823457Y-101542081D01*
X147743954Y-101496181D01*
X147743941Y-101496174D01*
X147743942Y-101496174D01*
X147743938Y-101496172D01*
X147659101Y-101461031D01*
X147570404Y-101437265D01*
X147555184Y-101435261D01*
X147479370Y-101425279D01*
X147479363Y-101425279D01*
X147387537Y-101425279D01*
X147387529Y-101425279D01*
X147300883Y-101436687D01*
X147296496Y-101437265D01*
X147266930Y-101445187D01*
X147207805Y-101461029D01*
X147207801Y-101461030D01*
X147207799Y-101461031D01*
X147122962Y-101496172D01*
X147122959Y-101496173D01*
X147122958Y-101496174D01*
X147122945Y-101496181D01*
X147043442Y-101542081D01*
X147043440Y-101542082D01*
X146970588Y-101597983D01*
X146970581Y-101597989D01*
X146905660Y-101662910D01*
X146905654Y-101662917D01*
X146849753Y-101735769D01*
X146849752Y-101735771D01*
X146803852Y-101815274D01*
X146803845Y-101815287D01*
X146768703Y-101900126D01*
X146768700Y-101900134D01*
X146744937Y-101988822D01*
X146744935Y-101988833D01*
X146732950Y-102079858D01*
X145358950Y-102079858D01*
X145358950Y-101853389D01*
X145365019Y-101815071D01*
X145382632Y-101780504D01*
X145395269Y-101765708D01*
X149823379Y-97337598D01*
X149854765Y-97314794D01*
X149891662Y-97302806D01*
X149911060Y-97301279D01*
X153598646Y-97301279D01*
X153649184Y-97293274D01*
X153664792Y-97290802D01*
X153717151Y-97273790D01*
X153728490Y-97270106D01*
X153788165Y-97239699D01*
X153842348Y-97200333D01*
X155670126Y-95372552D01*
X155670133Y-95372547D01*
X155677193Y-95365487D01*
X155677195Y-95365486D01*
X155724553Y-95318128D01*
X155763920Y-95263944D01*
X155773155Y-95245820D01*
X155794327Y-95204269D01*
X155815023Y-95140571D01*
X155825500Y-95074420D01*
X155825500Y-95007446D01*
X155825500Y-94244261D01*
X159062950Y-94244261D01*
X159062950Y-94357296D01*
X159074028Y-94469784D01*
X159074030Y-94469796D01*
X159096084Y-94580665D01*
X159110266Y-94627418D01*
X159128899Y-94688843D01*
X159172154Y-94793269D01*
X159172155Y-94793272D01*
X159225442Y-94892963D01*
X159225454Y-94892983D01*
X159288236Y-94986944D01*
X159288246Y-94986957D01*
X159359963Y-95074345D01*
X159439883Y-95154265D01*
X159439888Y-95154269D01*
X159439890Y-95154271D01*
X159527271Y-95225982D01*
X159527284Y-95225992D01*
X159621245Y-95288774D01*
X159621250Y-95288777D01*
X159621262Y-95288785D01*
X159720955Y-95342073D01*
X159769704Y-95362265D01*
X159825385Y-95385329D01*
X159825389Y-95385330D01*
X159825391Y-95385331D01*
X159933564Y-95418145D01*
X159988949Y-95429162D01*
X160025346Y-95442590D01*
X160055813Y-95466609D01*
X160077366Y-95498866D01*
X160087897Y-95536206D01*
X160086373Y-95574972D01*
X160072945Y-95611369D01*
X160048926Y-95641836D01*
X160016669Y-95663389D01*
X159988950Y-95672395D01*
X159933564Y-95683413D01*
X159933561Y-95683414D01*
X159825385Y-95716228D01*
X159720959Y-95759483D01*
X159720956Y-95759484D01*
X159621265Y-95812771D01*
X159621245Y-95812783D01*
X159527284Y-95875565D01*
X159527271Y-95875575D01*
X159439883Y-95947292D01*
X159359963Y-96027212D01*
X159288246Y-96114600D01*
X159288236Y-96114613D01*
X159225454Y-96208574D01*
X159225442Y-96208594D01*
X159172155Y-96308285D01*
X159172154Y-96308288D01*
X159128899Y-96412714D01*
X159096085Y-96520890D01*
X159096083Y-96520898D01*
X159074030Y-96631760D01*
X159074028Y-96631773D01*
X159062950Y-96744261D01*
X159062950Y-96857296D01*
X159074028Y-96969784D01*
X159074030Y-96969796D01*
X159096084Y-97080665D01*
X159096085Y-97080667D01*
X159128899Y-97188843D01*
X159172154Y-97293269D01*
X159172155Y-97293272D01*
X159225442Y-97392963D01*
X159225454Y-97392983D01*
X159288236Y-97486944D01*
X159288246Y-97486957D01*
X159359963Y-97574345D01*
X159439883Y-97654265D01*
X159527271Y-97725982D01*
X159527284Y-97725992D01*
X159621245Y-97788774D01*
X159621250Y-97788777D01*
X159621262Y-97788785D01*
X159720955Y-97842073D01*
X159781016Y-97866950D01*
X159825385Y-97885329D01*
X159825389Y-97885330D01*
X159825391Y-97885331D01*
X159933564Y-97918145D01*
X159988949Y-97929162D01*
X160025346Y-97942590D01*
X160055813Y-97966609D01*
X160077366Y-97998866D01*
X160087897Y-98036206D01*
X160086373Y-98074972D01*
X160072945Y-98111369D01*
X160048926Y-98141836D01*
X160016669Y-98163389D01*
X159988950Y-98172395D01*
X159933564Y-98183413D01*
X159933561Y-98183414D01*
X159825385Y-98216228D01*
X159720959Y-98259483D01*
X159720956Y-98259484D01*
X159621265Y-98312771D01*
X159621245Y-98312783D01*
X159527284Y-98375565D01*
X159527271Y-98375575D01*
X159439883Y-98447292D01*
X159359963Y-98527212D01*
X159288246Y-98614600D01*
X159288236Y-98614613D01*
X159225454Y-98708574D01*
X159225442Y-98708594D01*
X159172155Y-98808285D01*
X159172154Y-98808288D01*
X159128899Y-98912714D01*
X159096085Y-99020890D01*
X159096083Y-99020898D01*
X159074030Y-99131760D01*
X159074028Y-99131773D01*
X159062950Y-99244261D01*
X159062950Y-99357296D01*
X159074028Y-99469784D01*
X159074030Y-99469796D01*
X159096084Y-99580665D01*
X159096085Y-99580667D01*
X159128899Y-99688843D01*
X159172154Y-99793269D01*
X159172155Y-99793272D01*
X159225442Y-99892963D01*
X159225454Y-99892983D01*
X159288236Y-99986944D01*
X159288246Y-99986957D01*
X159359963Y-100074345D01*
X159439883Y-100154265D01*
X159527271Y-100225982D01*
X159527284Y-100225992D01*
X159621245Y-100288774D01*
X159621250Y-100288777D01*
X159621262Y-100288785D01*
X159720955Y-100342073D01*
X159781016Y-100366950D01*
X159825385Y-100385329D01*
X159825389Y-100385330D01*
X159825391Y-100385331D01*
X159933564Y-100418145D01*
X160044433Y-100440199D01*
X160156930Y-100451279D01*
X160156932Y-100451279D01*
X160419968Y-100451279D01*
X160419970Y-100451279D01*
X160532467Y-100440199D01*
X160643336Y-100418145D01*
X160751509Y-100385331D01*
X160855945Y-100342073D01*
X160955638Y-100288785D01*
X161049628Y-100225983D01*
X161137010Y-100154271D01*
X161216942Y-100074339D01*
X161288654Y-99986957D01*
X161351456Y-99892967D01*
X161404744Y-99793274D01*
X161448002Y-99688838D01*
X161480816Y-99580665D01*
X161502870Y-99469796D01*
X161513950Y-99357299D01*
X161513950Y-99244259D01*
X161502870Y-99131762D01*
X161480816Y-99020893D01*
X161448002Y-98912720D01*
X161404744Y-98808284D01*
X161351456Y-98708591D01*
X161351445Y-98708574D01*
X161288663Y-98614613D01*
X161288653Y-98614600D01*
X161216936Y-98527212D01*
X161137016Y-98447292D01*
X161049628Y-98375575D01*
X161049615Y-98375565D01*
X160955654Y-98312783D01*
X160955643Y-98312776D01*
X160955638Y-98312773D01*
X160855945Y-98259485D01*
X160849445Y-98256792D01*
X160751514Y-98216228D01*
X160690089Y-98197595D01*
X160643336Y-98183413D01*
X160587950Y-98172395D01*
X160551553Y-98158968D01*
X160521086Y-98134950D01*
X160499533Y-98102692D01*
X160489002Y-98065353D01*
X160490526Y-98026587D01*
X160503954Y-97990189D01*
X160527972Y-97959722D01*
X160560230Y-97938169D01*
X160587949Y-97929162D01*
X160643336Y-97918145D01*
X160751509Y-97885331D01*
X160855945Y-97842073D01*
X160955638Y-97788785D01*
X161049628Y-97725983D01*
X161137010Y-97654271D01*
X161216942Y-97574339D01*
X161288654Y-97486957D01*
X161351456Y-97392967D01*
X161404744Y-97293274D01*
X161448002Y-97188838D01*
X161480816Y-97080665D01*
X161502870Y-96969796D01*
X161513950Y-96857299D01*
X161513950Y-96744259D01*
X161502870Y-96631762D01*
X161480816Y-96520893D01*
X161448002Y-96412720D01*
X161445087Y-96405683D01*
X161422548Y-96351268D01*
X161404744Y-96308284D01*
X161351456Y-96208591D01*
X161345741Y-96200038D01*
X161288663Y-96114613D01*
X161288653Y-96114600D01*
X161273962Y-96096699D01*
X161216942Y-96027219D01*
X161216940Y-96027217D01*
X161216936Y-96027212D01*
X161137016Y-95947292D01*
X161049628Y-95875575D01*
X161049615Y-95875565D01*
X160955654Y-95812783D01*
X160955643Y-95812776D01*
X160955638Y-95812773D01*
X160855945Y-95759485D01*
X160832271Y-95749679D01*
X160751514Y-95716228D01*
X160690089Y-95697595D01*
X160643336Y-95683413D01*
X160587950Y-95672395D01*
X160551553Y-95658968D01*
X160521086Y-95634950D01*
X160499533Y-95602692D01*
X160489002Y-95565353D01*
X160490526Y-95526587D01*
X160503954Y-95490189D01*
X160527972Y-95459722D01*
X160560230Y-95438169D01*
X160587949Y-95429162D01*
X160643336Y-95418145D01*
X160751509Y-95385331D01*
X160855945Y-95342073D01*
X160955638Y-95288785D01*
X161049628Y-95225983D01*
X161137010Y-95154271D01*
X161216942Y-95074339D01*
X161288654Y-94986957D01*
X161351456Y-94892967D01*
X161404744Y-94793274D01*
X161405407Y-94791672D01*
X161405819Y-94790999D01*
X161406044Y-94790525D01*
X161406095Y-94790549D01*
X161425669Y-94758595D01*
X161455164Y-94733394D01*
X161491004Y-94718541D01*
X161529680Y-94715489D01*
X161567405Y-94724539D01*
X161581971Y-94731720D01*
X161622962Y-94755386D01*
X161707799Y-94790527D01*
X161796496Y-94814293D01*
X161887537Y-94826279D01*
X161887544Y-94826279D01*
X161979356Y-94826279D01*
X161979363Y-94826279D01*
X162070404Y-94814293D01*
X162159101Y-94790527D01*
X162243938Y-94755386D01*
X162323462Y-94709473D01*
X162396313Y-94653573D01*
X162461244Y-94588642D01*
X162517144Y-94515791D01*
X162563057Y-94436267D01*
X162598198Y-94351430D01*
X162621964Y-94262733D01*
X162633950Y-94171692D01*
X162633950Y-94079866D01*
X162621964Y-93988825D01*
X162598198Y-93900128D01*
X162563057Y-93815291D01*
X162547025Y-93787522D01*
X162517147Y-93735771D01*
X162517146Y-93735769D01*
X162461245Y-93662917D01*
X162461239Y-93662910D01*
X162396318Y-93597989D01*
X162396311Y-93597983D01*
X162323459Y-93542082D01*
X162323457Y-93542081D01*
X162243954Y-93496181D01*
X162243941Y-93496174D01*
X162243942Y-93496174D01*
X162243938Y-93496172D01*
X162159101Y-93461031D01*
X162070404Y-93437265D01*
X162055184Y-93435261D01*
X161979370Y-93425279D01*
X161979363Y-93425279D01*
X161887537Y-93425279D01*
X161887529Y-93425279D01*
X161800883Y-93436687D01*
X161796496Y-93437265D01*
X161766930Y-93445187D01*
X161707805Y-93461029D01*
X161707801Y-93461030D01*
X161707799Y-93461031D01*
X161622962Y-93496172D01*
X161622959Y-93496173D01*
X161622958Y-93496174D01*
X161622945Y-93496181D01*
X161543442Y-93542081D01*
X161543440Y-93542082D01*
X161470588Y-93597983D01*
X161470580Y-93597990D01*
X161459909Y-93608661D01*
X161428522Y-93631464D01*
X161391624Y-93643451D01*
X161352829Y-93643450D01*
X161315932Y-93631460D01*
X161284547Y-93608655D01*
X161276378Y-93599642D01*
X161216937Y-93527213D01*
X161137016Y-93447292D01*
X161049628Y-93375575D01*
X161049615Y-93375565D01*
X160955654Y-93312783D01*
X160955643Y-93312776D01*
X160955638Y-93312773D01*
X160855945Y-93259485D01*
X160833821Y-93250321D01*
X160751514Y-93216228D01*
X160690089Y-93197595D01*
X160643336Y-93183413D01*
X160588662Y-93172537D01*
X160532468Y-93161359D01*
X160532455Y-93161357D01*
X160441796Y-93152428D01*
X160419970Y-93150279D01*
X160156930Y-93150279D01*
X160137033Y-93152238D01*
X160044444Y-93161357D01*
X160044431Y-93161359D01*
X159933569Y-93183412D01*
X159933564Y-93183413D01*
X159933561Y-93183414D01*
X159825385Y-93216228D01*
X159720959Y-93259483D01*
X159720956Y-93259484D01*
X159621265Y-93312771D01*
X159621245Y-93312783D01*
X159527284Y-93375565D01*
X159527271Y-93375575D01*
X159439883Y-93447292D01*
X159359963Y-93527212D01*
X159288246Y-93614600D01*
X159288236Y-93614613D01*
X159225454Y-93708574D01*
X159225442Y-93708594D01*
X159172155Y-93808285D01*
X159172154Y-93808288D01*
X159128899Y-93912714D01*
X159096085Y-94020890D01*
X159096083Y-94020898D01*
X159074030Y-94131760D01*
X159074028Y-94131773D01*
X159062950Y-94244261D01*
X155825500Y-94244261D01*
X155825500Y-92666512D01*
X155825500Y-92186731D01*
X155831569Y-92148413D01*
X155849182Y-92113846D01*
X155876615Y-92086413D01*
X155911182Y-92068800D01*
X155917390Y-92066961D01*
X155925651Y-92064748D01*
X156010488Y-92029607D01*
X156079724Y-91989633D01*
X156090007Y-91983697D01*
X156090009Y-91983696D01*
X156090012Y-91983694D01*
X156162863Y-91927794D01*
X156227794Y-91862863D01*
X156283694Y-91790012D01*
X156329607Y-91710488D01*
X156364748Y-91625651D01*
X156388514Y-91536954D01*
X156400500Y-91445913D01*
X156400500Y-91354087D01*
X156388514Y-91263046D01*
X156364748Y-91174349D01*
X156329607Y-91089512D01*
X156284580Y-91011522D01*
X156283697Y-91009992D01*
X156283696Y-91009990D01*
X156227795Y-90937138D01*
X156227789Y-90937131D01*
X156162868Y-90872210D01*
X156162861Y-90872204D01*
X156090009Y-90816303D01*
X156090007Y-90816302D01*
X156010504Y-90770402D01*
X156010491Y-90770395D01*
X156010492Y-90770395D01*
X156010488Y-90770393D01*
X155925651Y-90735252D01*
X155836954Y-90711486D01*
X155821734Y-90709482D01*
X155745920Y-90699500D01*
X155745913Y-90699500D01*
X155654087Y-90699500D01*
X155654079Y-90699500D01*
X155567433Y-90710908D01*
X155563046Y-90711486D01*
X155533480Y-90719408D01*
X155474355Y-90735250D01*
X155474351Y-90735251D01*
X155474349Y-90735252D01*
X155389512Y-90770393D01*
X155389509Y-90770394D01*
X155389508Y-90770395D01*
X155389495Y-90770402D01*
X155309992Y-90816302D01*
X155309990Y-90816303D01*
X155237138Y-90872204D01*
X155237131Y-90872210D01*
X155172210Y-90937131D01*
X155172204Y-90937138D01*
X155116303Y-91009990D01*
X155116302Y-91009992D01*
X155070402Y-91089495D01*
X155070395Y-91089508D01*
X155070393Y-91089512D01*
X155036573Y-91171161D01*
X155035253Y-91174347D01*
X155035250Y-91174355D01*
X155011487Y-91263043D01*
X155011485Y-91263054D01*
X154999500Y-91354079D01*
X154999500Y-91445906D01*
X154999501Y-91445922D01*
X155006120Y-91496198D01*
X155005907Y-91504334D01*
X155007181Y-91512374D01*
X155005402Y-91523608D01*
X155005105Y-91534980D01*
X155001115Y-91550693D01*
X154997953Y-91560427D01*
X154997950Y-91560436D01*
X154984976Y-91600362D01*
X154974500Y-91666507D01*
X154974500Y-93271923D01*
X154968431Y-93310241D01*
X154950818Y-93344808D01*
X154923385Y-93372241D01*
X154888818Y-93389854D01*
X154850500Y-93395923D01*
X154812182Y-93389854D01*
X154777615Y-93372241D01*
X154756214Y-93352459D01*
X154749694Y-93344825D01*
X154749671Y-93344801D01*
X154655198Y-93250328D01*
X154655191Y-93250321D01*
X154615274Y-93216228D01*
X154553587Y-93163542D01*
X154553574Y-93163532D01*
X154445496Y-93085009D01*
X154445482Y-93084999D01*
X154445478Y-93084997D01*
X154445476Y-93084995D01*
X154331541Y-93015176D01*
X154212480Y-92954511D01*
X154174989Y-92938982D01*
X154089037Y-92903379D01*
X154089032Y-92903377D01*
X154089026Y-92903375D01*
X153961941Y-92862082D01*
X153832007Y-92830888D01*
X153700027Y-92809984D01*
X153566818Y-92799500D01*
X153566813Y-92799500D01*
X153433187Y-92799500D01*
X153433181Y-92799500D01*
X153299972Y-92809984D01*
X153299971Y-92809984D01*
X153167998Y-92830887D01*
X153167995Y-92830887D01*
X153167993Y-92830888D01*
X153038059Y-92862082D01*
X152910967Y-92903377D01*
X152910962Y-92903379D01*
X152787522Y-92954510D01*
X152787520Y-92954511D01*
X152668459Y-93015176D01*
X152599060Y-93057703D01*
X152554517Y-93084999D01*
X152554503Y-93085009D01*
X152446425Y-93163532D01*
X152446412Y-93163542D01*
X152344815Y-93250315D01*
X152344801Y-93250328D01*
X152250328Y-93344801D01*
X152250322Y-93344808D01*
X152163542Y-93446412D01*
X152163532Y-93446425D01*
X152085009Y-93554503D01*
X152084999Y-93554517D01*
X152084995Y-93554524D01*
X152018573Y-93662917D01*
X152015174Y-93668463D01*
X151954510Y-93787522D01*
X151903379Y-93910962D01*
X151903377Y-93910967D01*
X151879520Y-93984392D01*
X151862082Y-94038059D01*
X151841347Y-94124430D01*
X151830887Y-94167998D01*
X151809984Y-94299971D01*
X151809984Y-94299972D01*
X151799500Y-94433181D01*
X151799500Y-94566818D01*
X151809984Y-94700027D01*
X151809984Y-94700028D01*
X151824393Y-94790999D01*
X151830888Y-94832007D01*
X151862082Y-94961941D01*
X151876868Y-95007446D01*
X151903377Y-95089032D01*
X151903379Y-95089037D01*
X151924726Y-95140573D01*
X151954511Y-95212480D01*
X152015176Y-95331541D01*
X152084995Y-95445476D01*
X152084999Y-95445482D01*
X152085009Y-95445496D01*
X152163532Y-95553574D01*
X152163538Y-95553582D01*
X152250321Y-95655191D01*
X152344809Y-95749679D01*
X152446418Y-95836462D01*
X152446425Y-95836467D01*
X152552895Y-95913822D01*
X152554524Y-95915005D01*
X152668459Y-95984824D01*
X152787520Y-96045489D01*
X152910974Y-96096625D01*
X153038059Y-96137918D01*
X153167993Y-96169112D01*
X153299973Y-96190016D01*
X153355545Y-96194389D01*
X153360305Y-96195532D01*
X153365205Y-96195532D01*
X153379076Y-96200038D01*
X153393267Y-96203445D01*
X153397446Y-96206006D01*
X153402103Y-96207519D01*
X153413903Y-96216091D01*
X153426346Y-96223716D01*
X153429527Y-96227440D01*
X153433491Y-96230320D01*
X153442066Y-96242121D01*
X153451542Y-96253216D01*
X153453417Y-96257743D01*
X153456296Y-96261705D01*
X153460803Y-96275574D01*
X153466389Y-96289059D01*
X153466773Y-96293945D01*
X153468287Y-96298602D01*
X153468288Y-96313188D01*
X153469433Y-96327735D01*
X153468289Y-96332497D01*
X153468290Y-96337397D01*
X153463783Y-96351268D01*
X153460377Y-96365459D01*
X153457815Y-96369638D01*
X153456303Y-96374295D01*
X153447730Y-96386095D01*
X153440106Y-96398538D01*
X153433504Y-96405680D01*
X153425226Y-96413958D01*
X153393846Y-96436760D01*
X153356949Y-96448751D01*
X153337544Y-96450279D01*
X149649958Y-96450279D01*
X149583808Y-96460756D01*
X149520120Y-96481449D01*
X149482483Y-96500627D01*
X149460438Y-96511859D01*
X149406253Y-96551227D01*
X144608896Y-101348584D01*
X144569529Y-101402768D01*
X144538677Y-101463318D01*
X144537616Y-101467079D01*
X144518427Y-101526136D01*
X144507950Y-101592286D01*
X144507950Y-103575918D01*
X144501881Y-103614236D01*
X144484268Y-103648803D01*
X144456835Y-103676236D01*
X144422268Y-103693849D01*
X144383950Y-103699918D01*
X144351858Y-103695693D01*
X144320411Y-103687267D01*
X144320412Y-103687267D01*
X144320404Y-103687265D01*
X144305184Y-103685261D01*
X144229370Y-103675279D01*
X144229363Y-103675279D01*
X144137537Y-103675279D01*
X144137529Y-103675279D01*
X144050883Y-103686687D01*
X144046496Y-103687265D01*
X144046489Y-103687267D01*
X143957805Y-103711029D01*
X143957801Y-103711030D01*
X143957799Y-103711031D01*
X143872962Y-103746172D01*
X143872959Y-103746173D01*
X143872958Y-103746174D01*
X143872945Y-103746181D01*
X143793442Y-103792081D01*
X143793440Y-103792082D01*
X143720588Y-103847983D01*
X143720581Y-103847989D01*
X143655660Y-103912910D01*
X143655654Y-103912917D01*
X143599753Y-103985769D01*
X143599752Y-103985771D01*
X143553852Y-104065274D01*
X143553845Y-104065287D01*
X143553843Y-104065291D01*
X143538874Y-104101430D01*
X143518703Y-104150126D01*
X143518700Y-104150134D01*
X143494937Y-104238822D01*
X143494935Y-104238833D01*
X143482950Y-104329858D01*
X143482950Y-104421699D01*
X143486965Y-104452192D01*
X143494936Y-104512733D01*
X143518702Y-104601430D01*
X143553843Y-104686267D01*
X143553845Y-104686270D01*
X143553852Y-104686283D01*
X143599752Y-104765786D01*
X143599753Y-104765788D01*
X143655654Y-104838640D01*
X143655660Y-104838647D01*
X143720581Y-104903568D01*
X143720588Y-104903574D01*
X143793440Y-104959475D01*
X143793442Y-104959476D01*
X143856141Y-104995674D01*
X143872962Y-105005386D01*
X143957799Y-105040527D01*
X144046496Y-105064293D01*
X144137537Y-105076279D01*
X144137544Y-105076279D01*
X144229356Y-105076279D01*
X144229363Y-105076279D01*
X144320404Y-105064293D01*
X144351860Y-105055864D01*
X144390438Y-105051809D01*
X144428386Y-105059874D01*
X144461984Y-105079272D01*
X144487944Y-105108102D01*
X144503724Y-105143544D01*
X144507950Y-105175639D01*
X144507950Y-107584269D01*
X144510380Y-107599615D01*
X144518427Y-107650421D01*
X144539120Y-107714109D01*
X144539122Y-107714114D01*
X144539123Y-107714115D01*
X144568262Y-107771302D01*
X144569531Y-107773791D01*
X144608896Y-107827973D01*
X145194521Y-108413598D01*
X145217325Y-108444984D01*
X145229313Y-108481881D01*
X145229313Y-108520677D01*
X145217325Y-108557574D01*
X145194521Y-108588960D01*
X145163135Y-108611764D01*
X145126238Y-108623752D01*
X145106840Y-108625279D01*
X139705051Y-108625279D01*
X139666733Y-108619210D01*
X139632166Y-108601597D01*
X139617370Y-108588960D01*
X138453856Y-107425446D01*
X138436610Y-107412916D01*
X138399673Y-107386080D01*
X138339998Y-107355673D01*
X138339997Y-107355672D01*
X138339992Y-107355670D01*
X138276307Y-107334978D01*
X138276302Y-107334977D01*
X138210154Y-107324500D01*
X138210150Y-107324500D01*
X132634032Y-107324500D01*
X132634028Y-107324500D01*
X132567879Y-107334977D01*
X132567874Y-107334978D01*
X132504189Y-107355670D01*
X132444507Y-107386081D01*
X132390325Y-107425446D01*
X128791446Y-111024325D01*
X128752079Y-111078509D01*
X128721820Y-111137894D01*
X128721819Y-111137896D01*
X128721673Y-111138184D01*
X128721673Y-111138185D01*
X128700977Y-111201882D01*
X128690500Y-111268032D01*
X124983450Y-111268032D01*
X124983450Y-83499779D01*
X124989519Y-83461461D01*
X125007132Y-83426894D01*
X125034565Y-83399461D01*
X125069132Y-83381848D01*
X125107450Y-83375779D01*
X132623111Y-83375779D01*
X132661429Y-83381848D01*
G37*
%TD.AperFunction*%
%TD*%
M02*
