%TF.GenerationSoftware,KiCad,Pcbnew,9.0.5*%
%TF.CreationDate,2025-10-28T15:08:01+09:00*%
%TF.ProjectId,mr2_arm_hw,6d72325f-6172-46d5-9f68-772e6b696361,rev?*%
%TF.SameCoordinates,Original*%
%TF.FileFunction,Soldermask,Top*%
%TF.FilePolarity,Negative*%
%FSLAX46Y46*%
G04 Gerber Fmt 4.6, Leading zero omitted, Abs format (unit mm)*
G04 Created by KiCad (PCBNEW 9.0.5) date 2025-10-28 15:08:01*
%MOMM*%
%LPD*%
G01*
G04 APERTURE LIST*
G04 Aperture macros list*
%AMRoundRect*
0 Rectangle with rounded corners*
0 $1 Rounding radius*
0 $2 $3 $4 $5 $6 $7 $8 $9 X,Y pos of 4 corners*
0 Add a 4 corners polygon primitive as box body*
4,1,4,$2,$3,$4,$5,$6,$7,$8,$9,$2,$3,0*
0 Add four circle primitives for the rounded corners*
1,1,$1+$1,$2,$3*
1,1,$1+$1,$4,$5*
1,1,$1+$1,$6,$7*
1,1,$1+$1,$8,$9*
0 Add four rect primitives between the rounded corners*
20,1,$1+$1,$2,$3,$4,$5,0*
20,1,$1+$1,$4,$5,$6,$7,0*
20,1,$1+$1,$6,$7,$8,$9,0*
20,1,$1+$1,$8,$9,$2,$3,0*%
G04 Aperture macros list end*
%ADD10RoundRect,0.140000X-0.170000X0.140000X-0.170000X-0.140000X0.170000X-0.140000X0.170000X0.140000X0*%
%ADD11RoundRect,0.140000X0.140000X0.170000X-0.140000X0.170000X-0.140000X-0.170000X0.140000X-0.170000X0*%
%ADD12RoundRect,0.140000X-0.140000X-0.170000X0.140000X-0.170000X0.140000X0.170000X-0.140000X0.170000X0*%
%ADD13RoundRect,0.140000X0.170000X-0.140000X0.170000X0.140000X-0.170000X0.140000X-0.170000X-0.140000X0*%
%ADD14RoundRect,0.225000X0.225000X0.250000X-0.225000X0.250000X-0.225000X-0.250000X0.225000X-0.250000X0*%
%ADD15RoundRect,0.250000X-0.450000X-0.350000X0.450000X-0.350000X0.450000X0.350000X-0.450000X0.350000X0*%
%ADD16RoundRect,0.250000X0.675000X-0.600000X0.675000X0.600000X-0.675000X0.600000X-0.675000X-0.600000X0*%
%ADD17O,1.850000X1.700000*%
%ADD18RoundRect,0.250000X0.325000X1.100000X-0.325000X1.100000X-0.325000X-1.100000X0.325000X-1.100000X0*%
%ADD19RoundRect,0.250000X1.950000X1.000000X-1.950000X1.000000X-1.950000X-1.000000X1.950000X-1.000000X0*%
%ADD20R,1.000000X0.900000*%
%ADD21RoundRect,0.250000X-0.300000X-1.600000X0.300000X-1.600000X0.300000X1.600000X-0.300000X1.600000X0*%
%ADD22RoundRect,0.150000X0.150000X-0.825000X0.150000X0.825000X-0.150000X0.825000X-0.150000X-0.825000X0*%
%ADD23RoundRect,0.150000X-0.512500X-0.150000X0.512500X-0.150000X0.512500X0.150000X-0.512500X0.150000X0*%
%ADD24RoundRect,0.225000X-0.250000X0.225000X-0.250000X-0.225000X0.250000X-0.225000X0.250000X0.225000X0*%
%ADD25RoundRect,0.112500X-0.187500X-0.112500X0.187500X-0.112500X0.187500X0.112500X-0.187500X0.112500X0*%
%ADD26RoundRect,0.250000X-0.600000X-0.675000X0.600000X-0.675000X0.600000X0.675000X-0.600000X0.675000X0*%
%ADD27O,1.700000X1.850000*%
%ADD28RoundRect,0.250000X-1.000000X-0.650000X1.000000X-0.650000X1.000000X0.650000X-1.000000X0.650000X0*%
%ADD29RoundRect,0.225000X-0.225000X-0.250000X0.225000X-0.250000X0.225000X0.250000X-0.225000X0.250000X0*%
%ADD30C,2.800000*%
%ADD31C,1.524000*%
%ADD32RoundRect,0.075000X-0.662500X-0.075000X0.662500X-0.075000X0.662500X0.075000X-0.662500X0.075000X0*%
%ADD33RoundRect,0.075000X-0.075000X-0.662500X0.075000X-0.662500X0.075000X0.662500X-0.075000X0.662500X0*%
G04 APERTURE END LIST*
D10*
%TO.C,R4*%
X154433450Y-114090779D03*
X154433450Y-115050779D03*
%TD*%
D11*
%TO.C,C6*%
X142933450Y-112050779D03*
X141973450Y-112050779D03*
%TD*%
%TO.C,C13*%
X146413450Y-104800779D03*
X145453450Y-104800779D03*
%TD*%
D12*
%TO.C,R2*%
X128340000Y-93600000D03*
X129300000Y-93600000D03*
%TD*%
D13*
%TO.C,C12*%
X154433450Y-108510779D03*
X154433450Y-107550779D03*
%TD*%
%TO.C,C15*%
X157000000Y-91480000D03*
X157000000Y-90520000D03*
%TD*%
D14*
%TO.C,C5*%
X141683450Y-113300779D03*
X140133450Y-113300779D03*
%TD*%
D15*
%TO.C,Y1*%
X139233450Y-110500779D03*
X141433450Y-110500779D03*
X141433450Y-108800779D03*
X139233450Y-108800779D03*
%TD*%
D16*
%TO.C,J3*%
X160288450Y-101800779D03*
D17*
X160288450Y-99300779D03*
X160288450Y-96800779D03*
X160288450Y-94300779D03*
%TD*%
D18*
%TO.C,C3*%
X138450000Y-96800000D03*
X135500000Y-96800000D03*
%TD*%
D16*
%TO.C,J4*%
X160288450Y-115300779D03*
D17*
X160288450Y-112800779D03*
X160288450Y-110300779D03*
X160288450Y-107800779D03*
%TD*%
D12*
%TO.C,C11*%
X151473450Y-116300779D03*
X152433450Y-116300779D03*
%TD*%
D18*
%TO.C,C2*%
X138450000Y-93575000D03*
X135500000Y-93575000D03*
%TD*%
D12*
%TO.C,C10*%
X142683450Y-106875779D03*
X143643450Y-106875779D03*
%TD*%
D19*
%TO.C,C1*%
X135700000Y-103900000D03*
X127300000Y-103900000D03*
%TD*%
D12*
%TO.C,R3*%
X149183450Y-103875779D03*
X150143450Y-103875779D03*
%TD*%
D20*
%TO.C,SW1*%
X160000000Y-89500000D03*
X160000000Y-85400000D03*
X161600000Y-89500000D03*
X161600000Y-85400000D03*
%TD*%
%TO.C,SW2*%
X164500000Y-89500000D03*
X164500000Y-85400000D03*
X166100000Y-89500000D03*
X166100000Y-85400000D03*
%TD*%
D14*
%TO.C,FB1*%
X141683450Y-114800779D03*
X140133450Y-114800779D03*
%TD*%
D21*
%TO.C,L1*%
X134400000Y-86200000D03*
X137400000Y-86200000D03*
%TD*%
D11*
%TO.C,R9*%
X151433450Y-97875779D03*
X150473450Y-97875779D03*
%TD*%
D10*
%TO.C,R8*%
X158000000Y-90500000D03*
X158000000Y-91460000D03*
%TD*%
D22*
%TO.C,U2*%
X152623450Y-103050779D03*
X153893450Y-103050779D03*
X155163450Y-103050779D03*
X156433450Y-103050779D03*
X156433450Y-98100779D03*
X155163450Y-98100779D03*
X153893450Y-98100779D03*
X152623450Y-98100779D03*
%TD*%
D23*
%TO.C,U1*%
X131212500Y-92637500D03*
X131212500Y-93587500D03*
X131212500Y-94537500D03*
X133487500Y-94537500D03*
X133487500Y-93587500D03*
X133487500Y-92637500D03*
%TD*%
D24*
%TO.C,C7*%
X140500000Y-86200000D03*
X140500000Y-87750000D03*
%TD*%
%TO.C,C8*%
X139000000Y-86200000D03*
X139000000Y-87750000D03*
%TD*%
D13*
%TO.C,R7*%
X158500000Y-89500000D03*
X158500000Y-88540000D03*
%TD*%
%TO.C,C19*%
X142933450Y-109050779D03*
X142933450Y-108090779D03*
%TD*%
D12*
%TO.C,R5*%
X147473450Y-102800779D03*
X148433450Y-102800779D03*
%TD*%
D25*
%TO.C,D1*%
X131050000Y-89900000D03*
X133150000Y-89900000D03*
%TD*%
D26*
%TO.C,J6*%
X158183450Y-120300779D03*
D27*
X160683450Y-120300779D03*
X163183450Y-120300779D03*
%TD*%
D12*
%TO.C,C4*%
X132240000Y-91400000D03*
X133200000Y-91400000D03*
%TD*%
D28*
%TO.C,D2*%
X135200000Y-90200000D03*
X139200000Y-90200000D03*
%TD*%
D29*
%TO.C,C16*%
X155250000Y-106000000D03*
X156800000Y-106000000D03*
%TD*%
D10*
%TO.C,C18*%
X142933450Y-110090779D03*
X142933450Y-111050779D03*
%TD*%
%TO.C,C14*%
X157500000Y-88500000D03*
X157500000Y-89460000D03*
%TD*%
D30*
%TO.C,U4*%
X153500000Y-94500000D03*
X148420000Y-94500000D03*
D31*
X144570000Y-93270000D03*
X144570000Y-91270000D03*
%TD*%
D29*
%TO.C,C9*%
X142633450Y-105550779D03*
X144183450Y-105550779D03*
%TD*%
D10*
%TO.C,R6*%
X154433450Y-112050779D03*
X154433450Y-113010779D03*
%TD*%
D32*
%TO.C,U3*%
X144520950Y-107800779D03*
X144520950Y-108300779D03*
X144520950Y-108800779D03*
X144520950Y-109300779D03*
X144520950Y-109800779D03*
X144520950Y-110300779D03*
X144520950Y-110800779D03*
X144520950Y-111300779D03*
X144520950Y-111800779D03*
X144520950Y-112300779D03*
X144520950Y-112800779D03*
X144520950Y-113300779D03*
D33*
X145933450Y-114713279D03*
X146433450Y-114713279D03*
X146933450Y-114713279D03*
X147433450Y-114713279D03*
X147933450Y-114713279D03*
X148433450Y-114713279D03*
X148933450Y-114713279D03*
X149433450Y-114713279D03*
X149933450Y-114713279D03*
X150433450Y-114713279D03*
X150933450Y-114713279D03*
X151433450Y-114713279D03*
D32*
X152845950Y-113300779D03*
X152845950Y-112800779D03*
X152845950Y-112300779D03*
X152845950Y-111800779D03*
X152845950Y-111300779D03*
X152845950Y-110800779D03*
X152845950Y-110300779D03*
X152845950Y-109800779D03*
X152845950Y-109300779D03*
X152845950Y-108800779D03*
X152845950Y-108300779D03*
X152845950Y-107800779D03*
D33*
X151433450Y-106388279D03*
X150933450Y-106388279D03*
X150433450Y-106388279D03*
X149933450Y-106388279D03*
X149433450Y-106388279D03*
X148933450Y-106388279D03*
X148433450Y-106388279D03*
X147933450Y-106388279D03*
X147433450Y-106388279D03*
X146933450Y-106388279D03*
X146433450Y-106388279D03*
X145933450Y-106388279D03*
%TD*%
D13*
%TO.C,C20*%
X150433450Y-117260779D03*
X150433450Y-116300779D03*
%TD*%
D26*
%TO.C,J5*%
X147183450Y-120300779D03*
D27*
X149683450Y-120300779D03*
X152183450Y-120300779D03*
%TD*%
D11*
%TO.C,R1*%
X129300000Y-92600000D03*
X128340000Y-92600000D03*
%TD*%
D10*
%TO.C,C21*%
X147433450Y-103840779D03*
X147433450Y-104800779D03*
%TD*%
D11*
%TO.C,C17*%
X154893450Y-104800779D03*
X153933450Y-104800779D03*
%TD*%
D26*
%TO.C,J2*%
X133683450Y-120300779D03*
D27*
X136183450Y-120300779D03*
X138683450Y-120300779D03*
X141183450Y-120300779D03*
%TD*%
M02*
